<?xml version="1.0" encoding="UTF-8"?><svg xmlns="http://www.w3.org/2000/svg" xmlns:xlink="http://www.w3.org/1999/xlink" clip-rule="evenodd" stroke-miterlimit="4.00" viewBox="0 0 1024 768"><desc>SVG generated by Keynote</desc><defs></defs><g transform="matrix(1.00, 0.00, -0.00, -1.00, 0.0, 768.0)"><g><clipPath id="clip-51"><path d="M 0.0 0.0 L 1024.0 0.0 L 1024.0 768.0 L 0.0 768.0 Z M 0.0 0.0 "></path></clipPath><g clip-path="url(#clip-51)"><image xlink:href="../../064B7F0C-2929-4FA2-8273-93E588CA9C8B/assets/DE78B55DDE70D88C6FF874E8D33A46A3.jpeg" width="1024.00" height="768.00" transform="matrix(1.00, 0.00, -0.00, -1.00, 0.0, 768.0)"></image></g></g><text xml:space="preserve" font-family="Chalkduster" font-size="58.0" fill="#FEFFFE" transform="matrix(1.00, 0.00, -0.00, -1.00, 92.0, 490.0)">A</text><text xml:space="preserve" font-family="Chalkduster" font-size="58.0" fill="#FEFFFE" transform="matrix(1.00, 0.00, -0.00, -1.00, 134.9, 490.0)">n</text><text xml:space="preserve" font-family="Chalkduster" font-size="58.0" fill="#FEFFFE" transform="matrix(1.00, 0.00, -0.00, -1.00, 177.4, 490.0)"> </text><text xml:space="preserve" font-family="Chalkduster" font-size="58.0" fill="#FEFFFE" transform="matrix(1.00, 0.00, -0.00, -1.00, 206.2, 490.0)">E</text><text xml:space="preserve" font-family="Chalkduster" font-size="58.0" fill="#FEFFFE" transform="matrix(1.00, 0.00, -0.00, -1.00, 249.1, 490.0)">x</text><text xml:space="preserve" font-family="Chalkduster" font-size="58.0" fill="#FEFFFE" transform="matrix(1.00, 0.00, -0.00, -1.00, 283.8, 490.0)">a</text><text xml:space="preserve" font-family="Chalkduster" font-size="58.0" fill="#FEFFFE" transform="matrix(1.00, 0.00, -0.00, -1.00, 322.0, 490.0)">m</text><text xml:space="preserve" font-family="Chalkduster" font-size="58.0" fill="#FEFFFE" transform="matrix(1.00, 0.00, -0.00, -1.00, 380.7, 490.0)">p</text><text xml:space="preserve" font-family="Chalkduster" font-size="58.0" fill="#FEFFFE" transform="matrix(1.00, 0.00, -0.00, -1.00, 416.5, 490.0)">l</text><text xml:space="preserve" font-family="Chalkduster" font-size="58.0" fill="#FEFFFE" transform="matrix(1.00, 0.00, -0.00, -1.00, 440.5, 490.0)">e</text><text xml:space="preserve" font-family="Chalkduster" font-size="58.0" fill="#FEFFFE" transform="matrix(1.00, 0.00, -0.00, -1.00, 476.5, 490.0)"> </text><text xml:space="preserve" font-family="Chalkduster" font-size="58.0" fill="#FEFFFE" transform="matrix(1.00, 0.00, -0.00, -1.00, 226.0, 416.0)">D</text><text xml:space="preserve" font-family="Chalkduster" font-size="58.0" fill="#FEFFFE" transform="matrix(1.00, 0.00, -0.00, -1.00, 266.6, 416.0)">a</text><text xml:space="preserve" font-family="Chalkduster" font-size="58.0" fill="#FEFFFE" transform="matrix(1.00, 0.00, -0.00, -1.00, 306.6, 416.0)">y</text><text xml:space="preserve" font-family="Chalkduster" font-size="36.0" fill="#D3E7FE" transform="matrix(1.00, 0.00, -0.00, -1.00, 148.0, 346.0)">A</text><text xml:space="preserve" font-family="Chalkduster" font-size="36.0" fill="#DDF3D0" transform="matrix(1.00, 0.00, -0.00, -1.00, 174.7, 346.0)">l</text><text xml:space="preserve" font-family="Chalkduster" font-size="36.0" fill="#DDF3D0" transform="matrix(1.00, 0.00, -0.00, -1.00, 191.0, 346.0)">l</text><text xml:space="preserve" font-family="Chalkduster" font-size="36.0" fill="#FEFFFE" transform="matrix(1.00, 0.00, -0.00, -1.00, 207.9, 346.0)"> </text><text xml:space="preserve" font-family="Chalkduster" font-size="36.0" fill="#FFEEBE" transform="matrix(1.00, 0.00, -0.00, -1.00, 223.3, 346.0)">A</text><text xml:space="preserve" font-family="Chalkduster" font-size="36.0" fill="#FFEEBE" transform="matrix(1.00, 0.00, -0.00, -1.00, 249.0, 346.0)">b</text><text xml:space="preserve" font-family="Chalkduster" font-size="36.0" fill="#FFDBA3" transform="matrix(1.00, 0.00, -0.00, -1.00, 270.0, 346.0)">o</text><text xml:space="preserve" font-family="Chalkduster" font-size="36.0" fill="#FFDBA3" transform="matrix(1.00, 0.00, -0.00, -1.00, 296.9, 346.0)">u</text><text xml:space="preserve" font-family="Chalkduster" font-size="36.0" fill="#FDC8C6" transform="matrix(1.00, 0.00, -0.00, -1.00, 321.3, 346.0)">t</text><text xml:space="preserve" font-family="Chalkduster" font-size="36.0" fill="#FEFFFE" transform="matrix(1.00, 0.00, -0.00, -1.00, 337.7, 346.0)"> </text><text xml:space="preserve" font-family="Chalkduster" font-size="36.0" fill="#FDC8C6" transform="matrix(1.00, 0.00, -0.00, -1.00, 355.6, 346.0)">M</text><text xml:space="preserve" font-family="Chalkduster" font-size="36.0" fill="#D9CEF5" transform="matrix(1.00, 0.00, -0.00, -1.00, 385.9, 346.0)">e</text><text xml:space="preserve" font-family="Chalkduster" font-size="36.0" fill="#D9CEF5" transform="matrix(1.00, 0.00, -0.00, -1.00, 408.2, 346.0)">!</text><g><clipPath id="clip-52"><path d="M 473.0 721.0 L 945.0 721.0 L 945.0 -12.0 L 473.0 -12.0 Z M 473.4 720.7 "></path></clipPath><g clip-path="url(#clip-52)"><g><clipPath id="clip-53"><path d="M 551.8 -8.8 C 551.5 -7.0 550.9 3.1 550.6 13.5 C 550.3 23.9 549.9 33.1 549.6 33.8 C 549.4 34.7 547.6 34.2 543.3 32.0 C 535.3 28.0 530.7 27.1 523.8 28.2 C 515.8 29.4 511.3 32.0 505.3 38.7 C 498.9 45.9 494.3 55.3 490.3 69.5 C 486.0 84.9 484.0 96.5 484.0 110.8 L 484.0 123.0 L 481.6 124.1 C 477.6 125.6 473.4 130.9 473.4 134.6 C 473.4 136.3 475.0 143.9 476.9 151.6 C 480.8 166.4 484.0 182.6 486.8 200.5 C 490.5 224.2 492.7 234.2 498.7 256.5 C 499.6 259.8 500.8 266.5 501.3 271.3 C 501.9 276.1 503.0 283.3 503.8 287.3 C 507.6 305.0 510.5 322.1 511.0 329.5 C 511.3 333.9 512.0 338.4 512.6 339.5 C 514.6 343.2 534.0 360.7 539.6 363.9 C 547.1 368.2 556.5 371.6 572.0 375.6 C 579.6 377.6 590.8 381.4 597.9 384.5 C 604.8 387.5 611.0 390.0 611.7 390.0 C 612.4 390.0 614.4 391.3 616.0 393.0 C 617.7 394.6 620.7 396.2 622.8 396.6 C 628.3 397.6 632.2 400.1 635.1 404.5 C 636.5 406.5 639.4 409.3 641.4 410.5 C 643.4 411.7 646.1 413.7 647.3 414.8 C 648.5 416.0 651.2 417.6 653.3 418.5 C 655.3 419.3 657.0 420.3 657.0 420.6 C 657.0 421.0 654.7 428.3 652.0 436.9 C 649.2 445.5 645.2 459.2 643.0 467.5 C 638.7 484.5 637.1 488.7 634.1 491.4 C 633.0 492.5 632.1 494.2 632.1 495.2 C 632.1 498.0 629.7 498.3 625.9 496.1 C 620.0 492.6 614.3 492.4 608.3 495.4 C 601.2 499.0 596.5 503.4 595.0 507.8 C 594.4 509.8 592.5 514.1 590.9 517.2 C 588.6 521.8 587.7 525.4 586.5 535.2 C 583.8 557.8 587.1 565.2 599.1 563.6 C 604.7 562.8 606.3 564.2 604.3 568.3 C 601.6 574.0 600.9 580.2 601.6 590.7 C 602.0 596.7 602.5 606.5 602.7 612.5 C 603.1 627.1 604.7 635.2 607.8 639.1 C 608.5 639.9 609.2 641.5 609.3 642.6 C 609.5 643.6 610.9 646.7 612.4 649.4 C 613.9 652.1 615.1 654.6 615.1 655.0 C 615.1 655.4 616.0 656.9 617.1 658.4 C 618.3 659.8 619.0 661.4 618.7 661.8 C 618.4 662.3 619.5 664.0 621.1 665.5 C 622.7 667.1 624.1 668.9 624.1 669.4 C 624.1 670.0 625.7 671.6 627.6 672.9 C 629.5 674.2 631.4 676.3 631.7 677.6 C 632.0 678.9 634.3 681.9 636.9 684.2 C 639.4 686.6 641.5 688.7 641.5 689.0 C 641.5 689.7 651.7 700.0 652.4 700.0 C 652.6 700.0 655.2 701.6 658.1 703.5 C 661.1 705.4 664.0 707.0 664.6 707.0 C 665.2 707.0 666.8 707.8 668.1 708.8 C 671.2 711.2 683.9 716.3 691.0 718.0 C 694.0 718.7 696.9 719.6 697.4 720.0 C 698.5 720.8 717.9 721.0 719.2 720.3 C 719.7 720.0 722.5 719.6 725.6 719.4 C 728.7 719.2 732.0 718.3 732.9 717.5 C 733.8 716.7 735.4 716.0 736.5 716.0 C 737.6 716.0 738.9 715.6 739.4 715.1 C 739.9 714.6 743.7 712.5 747.9 710.4 C 756.7 706.0 766.0 700.1 767.1 698.3 C 767.6 697.6 768.3 697.0 768.9 697.0 C 770.5 697.0 773.9 693.8 785.4 680.9 C 788.3 677.8 790.9 674.2 791.3 673.0 C 791.7 671.7 793.5 669.2 795.4 667.3 C 797.3 665.4 798.7 663.3 798.5 662.7 C 798.2 662.0 799.1 659.9 800.4 658.0 C 801.7 656.1 802.8 653.3 802.8 651.8 C 802.8 650.2 803.2 648.2 803.7 647.2 C 806.8 641.2 810.8 630.5 810.3 629.3 C 810.0 628.5 810.3 626.9 811.0 625.7 C 811.7 624.5 812.3 621.9 812.3 620.0 C 812.4 618.1 813.0 613.1 813.5 609.0 C 817.3 582.1 817.5 570.4 814.3 564.1 C 812.0 559.8 813.0 558.8 818.8 559.6 C 828.7 560.9 833.2 556.2 833.1 544.5 C 833.1 540.6 832.6 532.5 832.0 526.3 C 831.1 517.2 830.3 513.7 827.6 508.0 C 821.5 494.6 810.9 489.1 799.7 493.6 C 797.5 494.5 795.4 495.0 795.2 494.7 C 794.9 494.4 792.7 491.3 790.4 487.7 C 786.6 481.9 785.9 480.0 784.4 470.3 C 783.4 464.4 781.5 454.4 780.2 448.2 C 778.8 442.0 777.1 433.6 776.4 429.6 L 775.1 422.2 L 778.2 419.8 C 781.0 417.5 788.8 405.9 788.8 403.9 C 788.8 403.4 790.4 402.2 792.4 401.2 C 795.8 399.4 796.4 399.4 800.9 400.8 C 804.9 402.1 805.9 402.1 807.3 401.0 C 809.4 399.2 812.7 392.6 812.7 390.2 C 812.7 389.1 813.3 387.8 814.0 387.3 C 815.6 386.0 829.5 383.8 830.8 384.5 C 832.6 385.7 843.3 385.1 847.6 383.6 C 850.0 382.7 857.1 381.7 863.5 381.3 C 874.5 380.7 875.5 380.5 882.6 376.7 C 886.7 374.5 891.7 371.5 893.6 370.0 C 895.5 368.5 898.8 366.7 900.8 366.1 C 906.7 364.1 913.5 354.9 913.6 348.8 C 913.6 347.0 915.0 341.7 916.6 337.0 C 922.4 320.6 924.8 307.4 928.0 274.5 C 929.4 260.2 931.9 242.6 935.0 225.5 C 935.8 221.0 936.9 212.9 937.5 207.5 C 938.7 196.2 940.9 182.9 943.2 172.5 C 947.0 155.6 943.5 149.5 928.6 146.8 C 921.4 145.6 921.3 145.6 919.0 132.7 C 915.2 111.0 905.5 84.3 896.8 71.5 C 891.2 63.2 885.4 58.6 878.1 56.4 C 875.1 55.6 872.5 54.6 872.3 54.2 C 872.1 53.8 873.2 47.2 874.8 39.5 C 877.5 26.2 880.1 -3.5 879.0 -9.8 L 878.0 -12.0 L 715.4 -12.0 L 552.0 -12.0 L 552.0 -9.0 "></path></clipPath><g clip-path="url(#clip-53)"><image xlink:href="../../4B12B4F4-3D66-4781-AEAA-E55BF28BB26F/assets/292A05CB6ABFDC3A7C5B7A6DDF130F9D.png" width="496.00" height="768.00" transform="matrix(1.00, 0.00, -0.00, -1.00, 463.0, 756.0)"></image></g></g></g></g></g></svg>