<?xml version="1.0" encoding="UTF-8"?><svg xmlns="http://www.w3.org/2000/svg" xmlns:xlink="http://www.w3.org/1999/xlink" clip-rule="evenodd" stroke-miterlimit="4.00" viewBox="0 0 303 44"><desc>SVG generated by Keynote</desc><defs></defs><g transform="matrix(1.00, 0.00, -0.00, -1.00, 0.0, 44.0)"><text xml:space="preserve" font-family="Chalkduster" font-size="28.2" fill="#FEFFFE" transform="matrix(1.00, 0.00, -0.00, -1.00, 0.0, 17.0)">g</text><text xml:space="preserve" font-family="Chalkduster" font-size="28.2" fill="#FEFFFE" transform="matrix(1.00, 0.00, -0.00, -1.00, 20.0, 17.0)">r</text><text xml:space="preserve" font-family="Chalkduster" font-size="28.2" fill="#FEFFFE" transform="matrix(1.00, 0.00, -0.00, -1.00, 34.4, 17.0)">o</text><text xml:space="preserve" font-family="Chalkduster" font-size="28.2" fill="#FEFFFE" transform="matrix(1.00, 0.00, -0.00, -1.00, 55.5, 17.0)">u</text><text xml:space="preserve" font-family="Chalkduster" font-size="28.2" fill="#FEFFFE" transform="matrix(1.00, 0.00, -0.00, -1.00, 75.3, 17.0)">p</text><text xml:space="preserve" font-family="Chalkduster" font-size="28.2" fill="#FEFFFE" transform="matrix(1.00, 0.00, -0.00, -1.00, 92.7, 17.0)"> </text><text xml:space="preserve" font-family="Chalkduster" font-size="28.2" fill="#FEFFFE" transform="matrix(1.00, 0.00, -0.00, -1.00, 106.7, 17.0)">&amp;</text><text xml:space="preserve" font-family="Chalkduster" font-size="28.2" fill="#FEFFFE" transform="matrix(1.00, 0.00, -0.00, -1.00, 132.5, 17.0)"> </text><text xml:space="preserve" font-family="Chalkduster" font-size="28.2" fill="#FEFFFE" transform="matrix(1.00, 0.00, -0.00, -1.00, 146.5, 17.0)">r</text><text xml:space="preserve" font-family="Chalkduster" font-size="28.2" fill="#FEFFFE" transform="matrix(1.00, 0.00, -0.00, -1.00, 160.8, 17.0)">e</text><text xml:space="preserve" font-family="Chalkduster" font-size="28.2" fill="#FEFFFE" transform="matrix(1.00, 0.00, -0.00, -1.00, 178.2, 17.0)">m</text><text xml:space="preserve" font-family="Chalkduster" font-size="28.2" fill="#FEFFFE" transform="matrix(1.00, 0.00, -0.00, -1.00, 207.4, 17.0)">e</text><text xml:space="preserve" font-family="Chalkduster" font-size="28.2" fill="#FEFFFE" transform="matrix(1.00, 0.00, -0.00, -1.00, 224.9, 17.0)">m</text><text xml:space="preserve" font-family="Chalkduster" font-size="28.2" fill="#FEFFFE" transform="matrix(1.00, 0.00, -0.00, -1.00, 253.4, 17.0)">b</text><text xml:space="preserve" font-family="Chalkduster" font-size="28.2" fill="#FEFFFE" transform="matrix(1.00, 0.00, -0.00, -1.00, 269.8, 17.0)">e</text><text xml:space="preserve" font-family="Chalkduster" font-size="28.2" fill="#FEFFFE" transform="matrix(1.00, 0.00, -0.00, -1.00, 286.9, 17.0)">r</text></g></svg>