<?xml version="1.0" encoding="UTF-8"?><svg xmlns="http://www.w3.org/2000/svg" xmlns:xlink="http://www.w3.org/1999/xlink" clip-rule="evenodd" stroke-miterlimit="4.00" viewBox="0 0 233 25"><desc>SVG generated by Keynote</desc><defs></defs><g transform="matrix(1.00, 0.00, -0.00, -1.00, 0.0, 25.0)"><text xml:space="preserve" font-family="Chalkduster" font-size="25.0" fill="#FEFFFE" transform="matrix(1.00, 0.00, -0.00, -1.00, 1.0, 4.0)">r</text><text xml:space="preserve" font-family="Chalkduster" font-size="25.0" fill="#FEFFFE" transform="matrix(1.00, 0.00, -0.00, -1.00, 13.6, 4.0)">e</text><text xml:space="preserve" font-family="Chalkduster" font-size="25.0" fill="#FEFFFE" transform="matrix(1.00, 0.00, -0.00, -1.00, 29.5, 4.0)">c</text><text xml:space="preserve" font-family="Chalkduster" font-size="25.0" fill="#FEFFFE" transform="matrix(1.00, 0.00, -0.00, -1.00, 44.6, 4.0)">e</text><text xml:space="preserve" font-family="Chalkduster" font-size="25.0" fill="#FEFFFE" transform="matrix(1.00, 0.00, -0.00, -1.00, 60.7, 4.0)">s</text><text xml:space="preserve" font-family="Chalkduster" font-size="25.0" fill="#FEFFFE" transform="matrix(1.00, 0.00, -0.00, -1.00, 73.3, 4.0)">s</text><text xml:space="preserve" font-family="Chalkduster" font-size="25.0" fill="#FEFFFE" transform="matrix(1.00, 0.00, -0.00, -1.00, 85.9, 4.0)"> </text><text xml:space="preserve" font-family="Chalkduster" font-size="25.0" fill="#FEFFFE" transform="matrix(1.00, 0.00, -0.00, -1.00, 98.3, 4.0)">a</text><text xml:space="preserve" font-family="Chalkduster" font-size="25.0" fill="#FEFFFE" transform="matrix(1.00, 0.00, -0.00, -1.00, 113.8, 4.0)">t</text><text xml:space="preserve" font-family="Chalkduster" font-size="25.0" fill="#FEFFFE" transform="matrix(1.00, 0.00, -0.00, -1.00, 125.2, 4.0)"> </text><text xml:space="preserve" font-family="Chalkduster" font-size="25.0" fill="#FEFFFE" transform="matrix(1.00, 0.00, -0.00, -1.00, 137.6, 4.0)">s</text><text xml:space="preserve" font-family="Chalkduster" font-size="25.0" fill="#FEFFFE" transform="matrix(1.00, 0.00, -0.00, -1.00, 150.7, 4.0)">c</text><text xml:space="preserve" font-family="Chalkduster" font-size="25.0" fill="#FEFFFE" transform="matrix(1.00, 0.00, -0.00, -1.00, 166.5, 4.0)">h</text><text xml:space="preserve" font-family="Chalkduster" font-size="25.0" fill="#FEFFFE" transform="matrix(1.00, 0.00, -0.00, -1.00, 181.9, 4.0)">o</text><text xml:space="preserve" font-family="Chalkduster" font-size="25.0" fill="#FEFFFE" transform="matrix(1.00, 0.00, -0.00, -1.00, 200.8, 4.0)">o</text><text xml:space="preserve" font-family="Chalkduster" font-size="25.0" fill="#FEFFFE" transform="matrix(1.00, 0.00, -0.00, -1.00, 219.7, 4.0)">l</text></g></svg>