<?xml version="1.0" encoding="UTF-8"?><svg xmlns="http://www.w3.org/2000/svg" xmlns:xlink="http://www.w3.org/1999/xlink" clip-rule="evenodd" stroke-miterlimit="4.00" viewBox="0 0 305 44"><desc>SVG generated by Keynote</desc><defs></defs><g transform="matrix(1.00, 0.00, -0.00, -1.00, 0.0, 44.0)"><image xlink:href="../../BEF5154A-7D10-4758-94F3-9B0BF504E35A/assets/8031BC132AD45F67E5F193E246E66C87.png" width="19.00" height="18.00" transform="matrix(0.87, 0.00, -0.00, -0.85, 0.0, 31.5)"></image><text xml:space="preserve" font-family="Chalkduster" font-size="28.2" fill="#FEFFFE" transform="matrix(1.00, 0.00, -0.00, -1.00, 33.0, 17.0)">p</text><text xml:space="preserve" font-family="Chalkduster" font-size="28.2" fill="#FEFFFE" transform="matrix(1.00, 0.00, -0.00, -1.00, 50.4, 17.0)">a</text><text xml:space="preserve" font-family="Chalkduster" font-size="28.2" fill="#FEFFFE" transform="matrix(1.00, 0.00, -0.00, -1.00, 70.1, 17.0)">s</text><text xml:space="preserve" font-family="Chalkduster" font-size="28.2" fill="#FEFFFE" transform="matrix(1.00, 0.00, -0.00, -1.00, 84.4, 17.0)">s</text><text xml:space="preserve" font-family="Chalkduster" font-size="28.2" fill="#FEFFFE" transform="matrix(1.00, 0.00, -0.00, -1.00, 98.6, 17.0)"> </text><text xml:space="preserve" font-family="Chalkduster" font-size="28.2" fill="#FEFFFE" transform="matrix(1.00, 0.00, -0.00, -1.00, 112.6, 17.0)">b</text><text xml:space="preserve" font-family="Chalkduster" font-size="28.2" fill="#FEFFFE" transform="matrix(1.00, 0.00, -0.00, -1.00, 128.3, 17.0)">a</text><text xml:space="preserve" font-family="Chalkduster" font-size="28.2" fill="#FEFFFE" transform="matrix(1.00, 0.00, -0.00, -1.00, 146.5, 17.0)">l</text><text xml:space="preserve" font-family="Chalkduster" font-size="28.2" fill="#FEFFFE" transform="matrix(1.00, 0.00, -0.00, -1.00, 159.3, 17.0)">l</text><text xml:space="preserve" font-family="Chalkduster" font-size="28.2" fill="#FEFFFE" transform="matrix(1.00, 0.00, -0.00, -1.00, 172.5, 17.0)"> </text><text xml:space="preserve" font-family="Chalkduster" font-size="28.2" fill="#FEFFFE" transform="matrix(1.00, 0.00, -0.00, -1.00, 186.5, 17.0)">a</text><text xml:space="preserve" font-family="Chalkduster" font-size="28.2" fill="#FEFFFE" transform="matrix(1.00, 0.00, -0.00, -1.00, 204.5, 17.0)">r</text><text xml:space="preserve" font-family="Chalkduster" font-size="28.2" fill="#FEFFFE" transform="matrix(1.00, 0.00, -0.00, -1.00, 218.9, 17.0)">o</text><text xml:space="preserve" font-family="Chalkduster" font-size="28.2" fill="#FEFFFE" transform="matrix(1.00, 0.00, -0.00, -1.00, 240.0, 17.0)">u</text><text xml:space="preserve" font-family="Chalkduster" font-size="28.2" fill="#FEFFFE" transform="matrix(1.00, 0.00, -0.00, -1.00, 259.8, 17.0)">n</text><text xml:space="preserve" font-family="Chalkduster" font-size="28.2" fill="#FEFFFE" transform="matrix(1.00, 0.00, -0.00, -1.00, 280.5, 17.0)">d</text></g></svg>