<?xml version="1.0" encoding="UTF-8"?><svg xmlns="http://www.w3.org/2000/svg" xmlns:xlink="http://www.w3.org/1999/xlink" clip-rule="evenodd" stroke-miterlimit="4.00" viewBox="0 0 318 25"><desc>SVG generated by Keynote</desc><defs></defs><g transform="matrix(1.00, 0.00, -0.00, -1.00, 0.0, 25.0)"><image xlink:href="../../BEF5154A-7D10-4758-94F3-9B0BF504E35A/assets/8031BC132AD45F67E5F193E246E66C87.png" width="19.00" height="18.00" transform="matrix(0.77, 0.00, -0.00, -0.75, 0.4, 16.0)"></image><text xml:space="preserve" font-family="Chalkduster" font-size="25.0" fill="#FEFFFE" transform="matrix(1.00, 0.00, -0.00, -1.00, 30.0, 3.0)">E</text><text xml:space="preserve" font-family="Chalkduster" font-size="25.0" fill="#FEFFFE" transform="matrix(1.00, 0.00, -0.00, -1.00, 48.5, 3.0)">x</text><text xml:space="preserve" font-family="Chalkduster" font-size="25.0" fill="#FEFFFE" transform="matrix(1.00, 0.00, -0.00, -1.00, 63.9, 3.0)">e</text><text xml:space="preserve" font-family="Chalkduster" font-size="25.0" fill="#FEFFFE" transform="matrix(1.00, 0.00, -0.00, -1.00, 79.8, 3.0)">c</text><text xml:space="preserve" font-family="Chalkduster" font-size="25.0" fill="#FEFFFE" transform="matrix(1.00, 0.00, -0.00, -1.00, 95.5, 3.0)">u</text><text xml:space="preserve" font-family="Chalkduster" font-size="25.0" fill="#FEFFFE" transform="matrix(1.00, 0.00, -0.00, -1.00, 112.4, 3.0)">t</text><text xml:space="preserve" font-family="Chalkduster" font-size="25.0" fill="#FEFFFE" transform="matrix(1.00, 0.00, -0.00, -1.00, 124.0, 3.0)">i</text><text xml:space="preserve" font-family="Chalkduster" font-size="25.0" fill="#FEFFFE" transform="matrix(1.00, 0.00, -0.00, -1.00, 133.8, 3.0)">v</text><text xml:space="preserve" font-family="Chalkduster" font-size="25.0" fill="#FEFFFE" transform="matrix(1.00, 0.00, -0.00, -1.00, 149.2, 3.0)">e</text><text xml:space="preserve" font-family="Chalkduster" font-size="25.0" fill="#FEFFFE" transform="matrix(1.00, 0.00, -0.00, -1.00, 164.6, 3.0)"> </text><text xml:space="preserve" font-family="Chalkduster" font-size="25.0" fill="#FEFFFE" transform="matrix(1.00, 0.00, -0.00, -1.00, 177.1, 3.0)">F</text><text xml:space="preserve" font-family="Chalkduster" font-size="25.0" fill="#FEFFFE" transform="matrix(1.00, 0.00, -0.00, -1.00, 195.6, 3.0)">u</text><text xml:space="preserve" font-family="Chalkduster" font-size="25.0" fill="#FEFFFE" transform="matrix(1.00, 0.00, -0.00, -1.00, 213.2, 3.0)">n</text><text xml:space="preserve" font-family="Chalkduster" font-size="25.0" fill="#FEFFFE" transform="matrix(1.00, 0.00, -0.00, -1.00, 231.5, 3.0)">c</text><text xml:space="preserve" font-family="Chalkduster" font-size="25.0" fill="#FEFFFE" transform="matrix(1.00, 0.00, -0.00, -1.00, 246.3, 3.0)">t</text><text xml:space="preserve" font-family="Chalkduster" font-size="25.0" fill="#FEFFFE" transform="matrix(1.00, 0.00, -0.00, -1.00, 257.8, 3.0)">i</text><text xml:space="preserve" font-family="Chalkduster" font-size="25.0" fill="#FEFFFE" transform="matrix(1.00, 0.00, -0.00, -1.00, 267.7, 3.0)">o</text><text xml:space="preserve" font-family="Chalkduster" font-size="25.0" fill="#FEFFFE" transform="matrix(1.00, 0.00, -0.00, -1.00, 286.2, 3.0)">n</text><text xml:space="preserve" font-family="Chalkduster" font-size="25.0" fill="#FEFFFE" transform="matrix(1.00, 0.00, -0.00, -1.00, 304.5, 3.0)">s</text></g></svg>