<?xml version="1.0" encoding="UTF-8"?><svg xmlns="http://www.w3.org/2000/svg" xmlns:xlink="http://www.w3.org/1999/xlink" clip-rule="evenodd" stroke-miterlimit="4.00" viewBox="0 0 262 44"><desc>SVG generated by Keynote</desc><defs></defs><g transform="matrix(1.00, 0.00, -0.00, -1.00, 0.0, 44.0)"><text xml:space="preserve" font-family="Chalkduster" font-size="28.2" fill="#FEFFFE" transform="matrix(1.00, 0.00, -0.00, -1.00, 0.0, 17.0)">m</text><text xml:space="preserve" font-family="Chalkduster" font-size="28.2" fill="#FEFFFE" transform="matrix(1.00, 0.00, -0.00, -1.00, 28.5, 17.0)">u</text><text xml:space="preserve" font-family="Chalkduster" font-size="28.2" fill="#FEFFFE" transform="matrix(1.00, 0.00, -0.00, -1.00, 48.6, 17.0)">l</text><text xml:space="preserve" font-family="Chalkduster" font-size="28.2" fill="#FEFFFE" transform="matrix(1.00, 0.00, -0.00, -1.00, 58.9, 17.0)">t</text><text xml:space="preserve" font-family="Chalkduster" font-size="28.2" fill="#FEFFFE" transform="matrix(1.00, 0.00, -0.00, -1.00, 71.9, 17.0)">i</text><text xml:space="preserve" font-family="Chalkduster" font-size="28.2" fill="#FEFFFE" transform="matrix(1.00, 0.00, -0.00, -1.00, 82.4, 17.0)">p</text><text xml:space="preserve" font-family="Chalkduster" font-size="28.2" fill="#FEFFFE" transform="matrix(1.00, 0.00, -0.00, -1.00, 99.8, 17.0)">l</text><text xml:space="preserve" font-family="Chalkduster" font-size="28.2" fill="#FEFFFE" transform="matrix(1.00, 0.00, -0.00, -1.00, 111.4, 17.0)">e</text><text xml:space="preserve" font-family="Chalkduster" font-size="28.2" fill="#FEFFFE" transform="matrix(1.00, 0.00, -0.00, -1.00, 128.9, 17.0)"> </text><text xml:space="preserve" font-family="Chalkduster" font-size="28.2" fill="#FEFFFE" transform="matrix(1.00, 0.00, -0.00, -1.00, 142.9, 17.0)">b</text><text xml:space="preserve" font-family="Chalkduster" font-size="28.2" fill="#FEFFFE" transform="matrix(1.00, 0.00, -0.00, -1.00, 158.6, 17.0)">a</text><text xml:space="preserve" font-family="Chalkduster" font-size="28.2" fill="#FEFFFE" transform="matrix(1.00, 0.00, -0.00, -1.00, 176.9, 17.0)">l</text><text xml:space="preserve" font-family="Chalkduster" font-size="28.2" fill="#FEFFFE" transform="matrix(1.00, 0.00, -0.00, -1.00, 189.6, 17.0)">l</text><text xml:space="preserve" font-family="Chalkduster" font-size="28.2" fill="#FEFFFE" transform="matrix(1.00, 0.00, -0.00, -1.00, 202.9, 17.0)">s</text><text xml:space="preserve" font-family="Chalkduster" font-size="28.2" fill="#FEFFFE" transform="matrix(1.00, 0.00, -0.00, -1.00, 217.1, 17.0)"> </text><text xml:space="preserve" font-family="Chalkduster" font-size="28.2" fill="#FEFFFE" transform="matrix(1.00, 0.00, -0.00, -1.00, 231.1, 17.0)">a</text><text xml:space="preserve" font-family="Chalkduster" font-size="28.2" fill="#FEFFFE" transform="matrix(1.00, 0.00, -0.00, -1.00, 248.6, 17.0)">t</text></g></svg>