<?xml version="1.0" encoding="UTF-8"?><svg xmlns="http://www.w3.org/2000/svg" xmlns:xlink="http://www.w3.org/1999/xlink" clip-rule="evenodd" stroke-miterlimit="4.00" viewBox="0 0 368 42"><desc>SVG generated by Keynote</desc><defs></defs><g transform="matrix(1.00, 0.00, -0.00, -1.00, 0.0, 42.0)"><image xlink:href="../../BEF5154A-7D10-4758-94F3-9B0BF504E35A/assets/8031BC132AD45F67E5F193E246E66C87.png" width="19.00" height="18.00" transform="matrix(0.80, 0.00, -0.00, -0.78, 0.0, 29.8)"></image><text xml:space="preserve" font-family="Chalkduster" font-size="25.9" fill="#FEFFFE" transform="matrix(1.00, 0.00, -0.00, -1.00, 31.0, 17.0)">A</text><text xml:space="preserve" font-family="Chalkduster" font-size="25.9" fill="#FEFFFE" transform="matrix(1.00, 0.00, -0.00, -1.00, 50.2, 17.0)">d</text><text xml:space="preserve" font-family="Chalkduster" font-size="25.9" fill="#FEFFFE" transform="matrix(1.00, 0.00, -0.00, -1.00, 70.9, 17.0)">u</text><text xml:space="preserve" font-family="Chalkduster" font-size="25.9" fill="#FEFFFE" transform="matrix(1.00, 0.00, -0.00, -1.00, 89.4, 17.0)">l</text><text xml:space="preserve" font-family="Chalkduster" font-size="25.9" fill="#FEFFFE" transform="matrix(1.00, 0.00, -0.00, -1.00, 98.9, 17.0)">t</text><text xml:space="preserve" font-family="Chalkduster" font-size="25.9" fill="#FEFFFE" transform="matrix(1.00, 0.00, -0.00, -1.00, 108.5, 17.0)">/</text><text xml:space="preserve" font-family="Chalkduster" font-size="25.9" fill="#FEFFFE" transform="matrix(1.00, 0.00, -0.00, -1.00, 124.2, 17.0)">C</text><text xml:space="preserve" font-family="Chalkduster" font-size="25.9" fill="#FEFFFE" transform="matrix(1.00, 0.00, -0.00, -1.00, 145.2, 17.0)">a</text><text xml:space="preserve" font-family="Chalkduster" font-size="25.9" fill="#FEFFFE" transform="matrix(1.00, 0.00, -0.00, -1.00, 162.3, 17.0)">m</text><text xml:space="preserve" font-family="Chalkduster" font-size="25.9" fill="#FEFFFE" transform="matrix(1.00, 0.00, -0.00, -1.00, 188.5, 17.0)">p</text><text xml:space="preserve" font-family="Chalkduster" font-size="25.9" fill="#FEFFFE" transform="matrix(1.00, 0.00, -0.00, -1.00, 204.8, 17.0)">e</text><text xml:space="preserve" font-family="Chalkduster" font-size="25.9" fill="#FEFFFE" transform="matrix(1.00, 0.00, -0.00, -1.00, 220.6, 17.0)">r</text><text xml:space="preserve" font-family="Chalkduster" font-size="25.9" fill="#FEFFFE" transform="matrix(1.00, 0.00, -0.00, -1.00, 234.3, 17.0)"> </text><text xml:space="preserve" font-family="Chalkduster" font-size="25.9" fill="#FEFFFE" transform="matrix(1.00, 0.00, -0.00, -1.00, 247.1, 17.0)">O</text><text xml:space="preserve" font-family="Chalkduster" font-size="25.9" fill="#FEFFFE" transform="matrix(1.00, 0.00, -0.00, -1.00, 265.9, 17.0)">b</text><text xml:space="preserve" font-family="Chalkduster" font-size="25.9" fill="#FEFFFE" transform="matrix(1.00, 0.00, -0.00, -1.00, 281.3, 17.0)">s</text><text xml:space="preserve" font-family="Chalkduster" font-size="25.9" fill="#FEFFFE" transform="matrix(1.00, 0.00, -0.00, -1.00, 295.2, 17.0)">t</text><text xml:space="preserve" font-family="Chalkduster" font-size="25.9" fill="#FEFFFE" transform="matrix(1.00, 0.00, -0.00, -1.00, 306.7, 17.0)">a</text><text xml:space="preserve" font-family="Chalkduster" font-size="25.9" fill="#FEFFFE" transform="matrix(1.00, 0.00, -0.00, -1.00, 323.8, 17.0)">c</text><text xml:space="preserve" font-family="Chalkduster" font-size="25.9" fill="#FEFFFE" transform="matrix(1.00, 0.00, -0.00, -1.00, 340.1, 17.0)">l</text><text xml:space="preserve" font-family="Chalkduster" font-size="25.9" fill="#FEFFFE" transform="matrix(1.00, 0.00, -0.00, -1.00, 350.8, 17.0)">e</text></g></svg>