<?xml version="1.0" encoding="UTF-8"?><svg xmlns="http://www.w3.org/2000/svg" xmlns:xlink="http://www.w3.org/1999/xlink" clip-rule="evenodd" stroke-miterlimit="4.00" viewBox="0 0 277 28"><desc>SVG generated by Keynote</desc><defs></defs><g transform="matrix(1.00, 0.00, -0.00, -1.00, 0.0, 28.0)"><image xlink:href="../../BEF5154A-7D10-4758-94F3-9B0BF504E35A/assets/8031BC132AD45F67E5F193E246E66C87.png" width="19.00" height="18.00" transform="matrix(0.80, 0.00, -0.00, -0.78, 0.0, 16.8)"></image><text xml:space="preserve" font-family="Chalkduster" font-size="25.9" fill="#FEFFFE" transform="matrix(1.00, 0.00, -0.00, -1.00, 31.0, 4.0)">A</text><text xml:space="preserve" font-family="Chalkduster" font-size="25.9" fill="#FEFFFE" transform="matrix(1.00, 0.00, -0.00, -1.00, 50.2, 4.0)">d</text><text xml:space="preserve" font-family="Chalkduster" font-size="25.9" fill="#FEFFFE" transform="matrix(1.00, 0.00, -0.00, -1.00, 70.9, 4.0)">u</text><text xml:space="preserve" font-family="Chalkduster" font-size="25.9" fill="#FEFFFE" transform="matrix(1.00, 0.00, -0.00, -1.00, 89.4, 4.0)">l</text><text xml:space="preserve" font-family="Chalkduster" font-size="25.9" fill="#FEFFFE" transform="matrix(1.00, 0.00, -0.00, -1.00, 98.9, 4.0)">t</text><text xml:space="preserve" font-family="Chalkduster" font-size="25.9" fill="#FEFFFE" transform="matrix(1.00, 0.00, -0.00, -1.00, 110.7, 4.0)">s</text><text xml:space="preserve" font-family="Chalkduster" font-size="25.9" fill="#FEFFFE" transform="matrix(1.00, 0.00, -0.00, -1.00, 123.8, 4.0)"> </text><text xml:space="preserve" font-family="Chalkduster" font-size="25.9" fill="#FEFFFE" transform="matrix(1.00, 0.00, -0.00, -1.00, 136.7, 4.0)">c</text><text xml:space="preserve" font-family="Chalkduster" font-size="25.9" fill="#FEFFFE" transform="matrix(1.00, 0.00, -0.00, -1.00, 152.5, 4.0)">r</text><text xml:space="preserve" font-family="Chalkduster" font-size="25.9" fill="#FEFFFE" transform="matrix(1.00, 0.00, -0.00, -1.00, 165.6, 4.0)">e</text><text xml:space="preserve" font-family="Chalkduster" font-size="25.9" fill="#FEFFFE" transform="matrix(1.00, 0.00, -0.00, -1.00, 181.6, 4.0)">a</text><text xml:space="preserve" font-family="Chalkduster" font-size="25.9" fill="#FEFFFE" transform="matrix(1.00, 0.00, -0.00, -1.00, 197.7, 4.0)">t</text><text xml:space="preserve" font-family="Chalkduster" font-size="25.9" fill="#FEFFFE" transform="matrix(1.00, 0.00, -0.00, -1.00, 209.3, 4.0)">e</text><text xml:space="preserve" font-family="Chalkduster" font-size="25.9" fill="#FEFFFE" transform="matrix(1.00, 0.00, -0.00, -1.00, 225.4, 4.0)"> </text><text xml:space="preserve" font-family="Chalkduster" font-size="25.9" fill="#FEFFFE" transform="matrix(1.00, 0.00, -0.00, -1.00, 238.3, 4.0)">a</text><text xml:space="preserve" font-family="Chalkduster" font-size="25.9" fill="#FEFFFE" transform="matrix(1.00, 0.00, -0.00, -1.00, 256.1, 4.0)">n</text></g></svg>