<?xml version="1.0" encoding="UTF-8"?><svg xmlns="http://www.w3.org/2000/svg" xmlns:xlink="http://www.w3.org/1999/xlink" clip-rule="evenodd" stroke-miterlimit="4.00" viewBox="0 0 149 38"><desc>SVG generated by Keynote</desc><defs></defs><g transform="matrix(1.00, 0.00, -0.00, -1.00, 0.0, 38.0)"><text xml:space="preserve" font-family="Chalkduster" font-size="25.9" fill="#FEFFFE" transform="matrix(1.00, 0.00, -0.00, -1.00, 1.0, 16.0)">r</text><text xml:space="preserve" font-family="Chalkduster" font-size="25.9" fill="#FEFFFE" transform="matrix(1.00, 0.00, -0.00, -1.00, 14.3, 16.0)">o</text><text xml:space="preserve" font-family="Chalkduster" font-size="25.9" fill="#FEFFFE" transform="matrix(1.00, 0.00, -0.00, -1.00, 33.2, 16.0)">p</text><text xml:space="preserve" font-family="Chalkduster" font-size="25.9" fill="#FEFFFE" transform="matrix(1.00, 0.00, -0.00, -1.00, 49.5, 16.0)">e</text><text xml:space="preserve" font-family="Chalkduster" font-size="25.9" fill="#FEFFFE" transform="matrix(1.00, 0.00, -0.00, -1.00, 66.1, 16.0)">s</text><text xml:space="preserve" font-family="Chalkduster" font-size="25.9" fill="#FEFFFE" transform="matrix(1.00, 0.00, -0.00, -1.00, 78.2, 16.0)">,</text><text xml:space="preserve" font-family="Chalkduster" font-size="25.9" fill="#FEFFFE" transform="matrix(1.00, 0.00, -0.00, -1.00, 86.3, 16.0)"> </text><text xml:space="preserve" font-family="Chalkduster" font-size="25.9" fill="#FEFFFE" transform="matrix(1.00, 0.00, -0.00, -1.00, 99.2, 16.0)">e</text><text xml:space="preserve" font-family="Chalkduster" font-size="25.9" fill="#FEFFFE" transform="matrix(1.00, 0.00, -0.00, -1.00, 115.0, 16.0)">t</text><text xml:space="preserve" font-family="Chalkduster" font-size="25.9" fill="#FEFFFE" transform="matrix(1.00, 0.00, -0.00, -1.00, 126.0, 16.0)">c</text><text xml:space="preserve" font-family="Chalkduster" font-size="25.9" fill="#FEFFFE" transform="matrix(1.00, 0.00, -0.00, -1.00, 141.1, 16.0)">.</text></g></svg>