<?xml version="1.0" encoding="UTF-8"?><svg xmlns="http://www.w3.org/2000/svg" xmlns:xlink="http://www.w3.org/1999/xlink" clip-rule="evenodd" stroke-miterlimit="4.00" viewBox="0 0 240 30"><desc>SVG generated by Keynote</desc><defs></defs><g transform="matrix(1.00, 0.00, -0.00, -1.00, 0.0, 30.0)"><image xlink:href="../../BEF5154A-7D10-4758-94F3-9B0BF504E35A/assets/8031BC132AD45F67E5F193E246E66C87.png" width="19.00" height="18.00" transform="matrix(0.92, 0.00, -0.00, -0.90, 0.1, 19.7)"></image><text xml:space="preserve" font-family="Chalkduster" font-size="29.8" fill="#FEFFFE" transform="matrix(1.00, 0.00, -0.00, -1.00, 35.0, 4.0)">M</text><text xml:space="preserve" font-family="Chalkduster" font-size="29.8" fill="#FEFFFE" transform="matrix(1.00, 0.00, -0.00, -1.00, 60.8, 4.0)">o</text><text xml:space="preserve" font-family="Chalkduster" font-size="29.8" fill="#FEFFFE" transform="matrix(1.00, 0.00, -0.00, -1.00, 81.1, 4.0)">t</text><text xml:space="preserve" font-family="Chalkduster" font-size="29.8" fill="#FEFFFE" transform="matrix(1.00, 0.00, -0.00, -1.00, 93.4, 4.0)">o</text><text xml:space="preserve" font-family="Chalkduster" font-size="29.8" fill="#FEFFFE" transform="matrix(1.00, 0.00, -0.00, -1.00, 115.1, 4.0)">r</text><text xml:space="preserve" font-family="Chalkduster" font-size="29.8" fill="#FEFFFE" transform="matrix(1.00, 0.00, -0.00, -1.00, 130.8, 4.0)"> </text><text xml:space="preserve" font-family="Chalkduster" font-size="29.8" fill="#FEFFFE" transform="matrix(1.00, 0.00, -0.00, -1.00, 145.6, 4.0)">s</text><text xml:space="preserve" font-family="Chalkduster" font-size="29.8" fill="#FEFFFE" transform="matrix(1.00, 0.00, -0.00, -1.00, 160.6, 4.0)">k</text><text xml:space="preserve" font-family="Chalkduster" font-size="29.8" fill="#FEFFFE" transform="matrix(1.00, 0.00, -0.00, -1.00, 183.8, 4.0)">i</text><text xml:space="preserve" font-family="Chalkduster" font-size="29.8" fill="#FEFFFE" transform="matrix(1.00, 0.00, -0.00, -1.00, 195.8, 4.0)">l</text><text xml:space="preserve" font-family="Chalkduster" font-size="29.8" fill="#FEFFFE" transform="matrix(1.00, 0.00, -0.00, -1.00, 209.3, 4.0)">l</text><text xml:space="preserve" font-family="Chalkduster" font-size="29.8" fill="#FEFFFE" transform="matrix(1.00, 0.00, -0.00, -1.00, 223.3, 4.0)">s</text></g></svg>