<?xml version="1.0" encoding="UTF-8"?><svg xmlns="http://www.w3.org/2000/svg" xmlns:xlink="http://www.w3.org/1999/xlink" clip-rule="evenodd" stroke-miterlimit="4.00" viewBox="0 0 225 44"><desc>SVG generated by Keynote</desc><defs></defs><g transform="matrix(1.00, 0.00, -0.00, -1.00, 0.0, 44.0)"><text xml:space="preserve" font-family="Chalkduster" font-size="29.8" fill="#FEFFFE" transform="matrix(1.00, 0.00, -0.00, -1.00, -1.0, 18.0)">p</text><text xml:space="preserve" font-family="Chalkduster" font-size="29.8" fill="#FEFFFE" transform="matrix(1.00, 0.00, -0.00, -1.00, 17.7, 18.0)">e</text><text xml:space="preserve" font-family="Chalkduster" font-size="29.8" fill="#FEFFFE" transform="matrix(1.00, 0.00, -0.00, -1.00, 35.8, 18.0)">r</text><text xml:space="preserve" font-family="Chalkduster" font-size="29.8" fill="#FEFFFE" transform="matrix(1.00, 0.00, -0.00, -1.00, 51.2, 18.0)">s</text><text xml:space="preserve" font-family="Chalkduster" font-size="29.8" fill="#FEFFFE" transform="matrix(1.00, 0.00, -0.00, -1.00, 66.2, 18.0)">o</text><text xml:space="preserve" font-family="Chalkduster" font-size="29.8" fill="#FEFFFE" transform="matrix(1.00, 0.00, -0.00, -1.00, 88.4, 18.0)">n</text><text xml:space="preserve" font-family="Chalkduster" font-size="29.8" fill="#FEFFFE" transform="matrix(1.00, 0.00, -0.00, -1.00, 110.2, 18.0)">/</text><text xml:space="preserve" font-family="Chalkduster" font-size="29.8" fill="#FEFFFE" transform="matrix(1.00, 0.00, -0.00, -1.00, 126.3, 18.0)">g</text><text xml:space="preserve" font-family="Chalkduster" font-size="29.8" fill="#FEFFFE" transform="matrix(1.00, 0.00, -0.00, -1.00, 147.4, 18.0)">r</text><text xml:space="preserve" font-family="Chalkduster" font-size="29.8" fill="#FEFFFE" transform="matrix(1.00, 0.00, -0.00, -1.00, 162.7, 18.0)">o</text><text xml:space="preserve" font-family="Chalkduster" font-size="29.8" fill="#FEFFFE" transform="matrix(1.00, 0.00, -0.00, -1.00, 185.0, 18.0)">u</text><text xml:space="preserve" font-family="Chalkduster" font-size="29.8" fill="#FEFFFE" transform="matrix(1.00, 0.00, -0.00, -1.00, 205.9, 18.0)">p</text></g></svg>