<?xml version="1.0" encoding="UTF-8"?><svg xmlns="http://www.w3.org/2000/svg" xmlns:xlink="http://www.w3.org/1999/xlink" clip-rule="evenodd" stroke-miterlimit="4.00" viewBox="0 0 321 46"><desc>SVG generated by Keynote</desc><defs></defs><g transform="matrix(1.00, 0.00, -0.00, -1.00, 0.0, 46.0)"><text xml:space="preserve" font-family="Chalkduster" font-size="29.8" fill="#FEFFFE" transform="matrix(1.00, 0.00, -0.00, -1.00, 1.0, 18.0)">c</text><text xml:space="preserve" font-family="Chalkduster" font-size="29.8" fill="#FEFFFE" transform="matrix(1.00, 0.00, -0.00, -1.00, 19.7, 18.0)">h</text><text xml:space="preserve" font-family="Chalkduster" font-size="29.8" fill="#FEFFFE" transform="matrix(1.00, 0.00, -0.00, -1.00, 38.6, 18.0)">i</text><text xml:space="preserve" font-family="Chalkduster" font-size="29.8" fill="#FEFFFE" transform="matrix(1.00, 0.00, -0.00, -1.00, 50.7, 18.0)">l</text><text xml:space="preserve" font-family="Chalkduster" font-size="29.8" fill="#FEFFFE" transform="matrix(1.00, 0.00, -0.00, -1.00, 64.6, 18.0)">d</text><text xml:space="preserve" font-family="Chalkduster" font-size="29.8" fill="#FEFFFE" transform="matrix(1.00, 0.00, -0.00, -1.00, 87.9, 18.0)">r</text><text xml:space="preserve" font-family="Chalkduster" font-size="29.8" fill="#FEFFFE" transform="matrix(1.00, 0.00, -0.00, -1.00, 102.9, 18.0)">e</text><text xml:space="preserve" font-family="Chalkduster" font-size="29.8" fill="#FEFFFE" transform="matrix(1.00, 0.00, -0.00, -1.00, 121.7, 18.0)">n</text><text xml:space="preserve" font-family="Chalkduster" font-size="29.8" fill="#FEFFFE" transform="matrix(1.00, 0.00, -0.00, -1.00, 143.5, 18.0)"> </text><text xml:space="preserve" font-family="Chalkduster" font-size="29.8" fill="#FEFFFE" transform="matrix(1.00, 0.00, -0.00, -1.00, 158.3, 18.0)">&amp;</text><text xml:space="preserve" font-family="Chalkduster" font-size="29.8" fill="#FEFFFE" transform="matrix(1.00, 0.00, -0.00, -1.00, 185.6, 18.0)"> </text><text xml:space="preserve" font-family="Chalkduster" font-size="29.8" fill="#FEFFFE" transform="matrix(1.00, 0.00, -0.00, -1.00, 200.4, 18.0)">p</text><text xml:space="preserve" font-family="Chalkduster" font-size="29.8" fill="#FEFFFE" transform="matrix(1.00, 0.00, -0.00, -1.00, 218.8, 18.0)">a</text><text xml:space="preserve" font-family="Chalkduster" font-size="29.8" fill="#FEFFFE" transform="matrix(1.00, 0.00, -0.00, -1.00, 237.7, 18.0)">r</text><text xml:space="preserve" font-family="Chalkduster" font-size="29.8" fill="#FEFFFE" transform="matrix(1.00, 0.00, -0.00, -1.00, 252.8, 18.0)">e</text><text xml:space="preserve" font-family="Chalkduster" font-size="29.8" fill="#FEFFFE" transform="matrix(1.00, 0.00, -0.00, -1.00, 271.6, 18.0)">n</text><text xml:space="preserve" font-family="Chalkduster" font-size="29.8" fill="#FEFFFE" transform="matrix(1.00, 0.00, -0.00, -1.00, 292.3, 18.0)">t</text><text xml:space="preserve" font-family="Chalkduster" font-size="29.8" fill="#FEFFFE" transform="matrix(1.00, 0.00, -0.00, -1.00, 305.9, 18.0)">s</text></g></svg>