<?xml version="1.0" encoding="UTF-8"?><svg xmlns="http://www.w3.org/2000/svg" xmlns:xlink="http://www.w3.org/1999/xlink" clip-rule="evenodd" stroke-miterlimit="4.00" viewBox="0 0 341 30"><desc>SVG generated by Keynote</desc><defs></defs><g transform="matrix(1.00, 0.00, -0.00, -1.00, 0.0, 30.0)"><text xml:space="preserve" font-family="Chalkduster" font-size="29.8" fill="#FEFFFE" transform="matrix(1.00, 0.00, -0.00, -1.00, 0.0, 3.0)">l</text><text xml:space="preserve" font-family="Chalkduster" font-size="29.8" fill="#FEFFFE" transform="matrix(1.00, 0.00, -0.00, -1.00, 12.3, 3.0)">e</text><text xml:space="preserve" font-family="Chalkduster" font-size="29.8" fill="#FEFFFE" transform="matrix(1.00, 0.00, -0.00, -1.00, 30.8, 3.0)">a</text><text xml:space="preserve" font-family="Chalkduster" font-size="29.8" fill="#FEFFFE" transform="matrix(1.00, 0.00, -0.00, -1.00, 50.3, 3.0)">d</text><text xml:space="preserve" font-family="Chalkduster" font-size="29.8" fill="#FEFFFE" transform="matrix(1.00, 0.00, -0.00, -1.00, 73.6, 3.0)">e</text><text xml:space="preserve" font-family="Chalkduster" font-size="29.8" fill="#FEFFFE" transform="matrix(1.00, 0.00, -0.00, -1.00, 91.7, 3.0)">r</text><text xml:space="preserve" font-family="Chalkduster" font-size="29.8" fill="#FEFFFE" transform="matrix(1.00, 0.00, -0.00, -1.00, 107.1, 3.0)">s</text><text xml:space="preserve" font-family="Chalkduster" font-size="29.8" fill="#FEFFFE" transform="matrix(1.00, 0.00, -0.00, -1.00, 122.1, 3.0)"> </text><text xml:space="preserve" font-family="Chalkduster" font-size="29.8" fill="#FEFFFE" transform="matrix(1.00, 0.00, -0.00, -1.00, 136.9, 3.0)">w</text><text xml:space="preserve" font-family="Chalkduster" font-size="29.8" fill="#FEFFFE" transform="matrix(1.00, 0.00, -0.00, -1.00, 162.3, 3.0)">i</text><text xml:space="preserve" font-family="Chalkduster" font-size="29.8" fill="#FEFFFE" transform="matrix(1.00, 0.00, -0.00, -1.00, 174.4, 3.0)">l</text><text xml:space="preserve" font-family="Chalkduster" font-size="29.8" fill="#FEFFFE" transform="matrix(1.00, 0.00, -0.00, -1.00, 187.9, 3.0)">l</text><text xml:space="preserve" font-family="Chalkduster" font-size="29.8" fill="#FEFFFE" transform="matrix(1.00, 0.00, -0.00, -1.00, 201.9, 3.0)"> </text><text xml:space="preserve" font-family="Chalkduster" font-size="29.8" fill="#FEFFFE" transform="matrix(1.00, 0.00, -0.00, -1.00, 216.7, 3.0)">r</text><text xml:space="preserve" font-family="Chalkduster" font-size="29.8" fill="#FEFFFE" transform="matrix(1.00, 0.00, -0.00, -1.00, 231.7, 3.0)">e</text><text xml:space="preserve" font-family="Chalkduster" font-size="29.8" fill="#FEFFFE" transform="matrix(1.00, 0.00, -0.00, -1.00, 250.2, 3.0)">m</text><text xml:space="preserve" font-family="Chalkduster" font-size="29.8" fill="#FEFFFE" transform="matrix(1.00, 0.00, -0.00, -1.00, 280.3, 3.0)">o</text><text xml:space="preserve" font-family="Chalkduster" font-size="29.8" fill="#FEFFFE" transform="matrix(1.00, 0.00, -0.00, -1.00, 302.6, 3.0)">v</text><text xml:space="preserve" font-family="Chalkduster" font-size="29.8" fill="#FEFFFE" transform="matrix(1.00, 0.00, -0.00, -1.00, 320.9, 3.0)">e</text></g></svg>