<?xml version="1.0" encoding="UTF-8"?><svg xmlns="http://www.w3.org/2000/svg" xmlns:xlink="http://www.w3.org/1999/xlink" clip-rule="evenodd" stroke-miterlimit="4.00" viewBox="0 0 332 225"><desc>SVG generated by Keynote</desc><defs></defs><g transform="matrix(1.00, 0.00, -0.00, -1.00, 0.0, 225.0)"><g><clipPath id="clip-104"><path d="M 2.0 224.0 L 330.0 224.0 L 330.0 1.0 L 2.0 1.0 Z M 1.8 223.7 "></path></clipPath><g clip-path="url(#clip-104)"><g><clipPath id="clip-105"><path d="M 149.3 223.7 C 148.9 223.6 148.5 223.4 148.1 222.9 C 147.7 222.5 146.5 222.0 145.6 221.8 C 143.0 221.4 139.2 219.9 138.2 218.8 C 137.7 218.3 136.5 217.6 135.4 217.3 C 134.4 217.1 133.1 216.4 132.7 215.8 C 132.2 215.2 130.9 214.2 129.8 213.4 C 128.8 212.6 126.0 210.0 123.7 207.5 C 118.2 201.7 117.8 201.4 115.1 201.7 C 113.5 201.9 113.2 201.8 113.8 201.5 C 114.8 200.9 114.7 200.3 113.5 199.8 C 113.0 199.6 111.3 198.6 109.8 197.5 C 108.3 196.4 106.3 195.0 105.5 194.5 C 104.6 193.9 103.4 192.7 102.7 191.9 L 101.0 190.3 L 101.0 178.6 C 101.0 171.9 101.3 166.8 101.0 166.6 C 100.8 166.4 99.2 165.8 97.4 165.3 C 95.7 164.9 91.2 163.6 87.5 162.5 C 83.9 161.5 76.7 159.6 71.5 158.4 C 45.6 152.4 33.8 148.5 24.3 142.8 C 12.9 136.0 5.9 130.3 4.0 126.4 C 1.0 120.2 1.0 110.9 4.0 103.5 C 5.3 100.2 7.6 96.9 11.2 92.9 C 13.1 90.7 14.2 89.2 14.2 88.5 C 14.2 86.7 15.5 82.4 16.6 80.6 C 17.2 79.7 18.1 78.0 18.6 76.9 C 19.6 74.8 23.0 70.1 23.6 70.1 C 23.8 70.1 24.3 69.4 24.8 68.6 C 25.4 67.7 26.4 66.8 27.3 66.5 C 28.1 66.1 28.7 65.7 28.5 65.5 C 28.4 65.3 29.2 64.6 30.3 63.9 C 31.4 63.2 34.7 60.4 37.7 57.5 C 43.6 51.8 48.5 47.4 51.1 45.5 C 53.6 43.7 55.6 41.8 55.3 41.4 C 55.2 41.2 55.9 40.0 56.8 38.6 C 57.7 37.3 59.9 33.6 61.6 30.4 C 63.2 27.2 65.7 23.0 67.1 20.9 C 69.4 17.4 69.6 17.1 69.4 15.2 C 69.2 12.9 68.4 4.9 68.0 2.8 L 67.0 1.0 L 112.3 1.0 L 170.4 1.0 L 247.0 1.0 L 247.0 4.4 C 246.8 5.4 246.9 6.0 247.1 6.3 C 247.1 8.4 247.3 9.2 247.6 9.2 C 248.5 9.0 248.2 10.2 247.4 10.4 C 246.9 10.6 246.5 11.2 246.3 12.0 C 246.0 13.5 246.3 14.3 246.9 14.0 C 247.1 13.8 247.3 14.1 247.3 14.6 C 247.3 15.0 247.5 15.5 247.7 15.6 C 247.9 15.8 248.0 16.3 248.0 16.9 C 248.0 17.8 252.6 23.1 253.4 23.1 C 254.3 23.1 260.0 26.3 261.2 27.4 C 261.9 28.1 262.7 28.7 262.9 28.7 C 263.1 28.7 264.0 28.9 264.9 29.1 C 266.1 29.5 266.5 29.8 266.3 30.2 C 265.8 31.7 266.8 32.4 269.4 32.4 C 271.0 32.5 272.9 32.9 274.7 33.6 C 275.7 34.1 276.9 34.6 278.0 35.3 C 278.1 35.3 278.1 35.3 278.1 35.3 C 280.0 36.7 283.1 38.3 285.8 39.4 C 288.7 40.5 289.3 41.3 288.7 42.0 L 288.3 42.0 C 287.2 42.7 287.0 42.9 287.4 43.6 C 288.0 44.7 289.6 45.8 290.7 45.8 C 291.8 45.8 292.4 46.4 292.8 48.0 C 292.9 48.3 293.0 48.6 293.2 48.9 C 293.0 49.4 294.3 50.1 295.8 50.1 C 296.7 50.1 298.1 50.4 298.9 50.8 C 300.0 51.3 300.2 51.5 299.8 52.0 C 299.4 52.5 299.5 52.9 300.3 53.8 C 302.2 55.9 304.1 62.5 304.1 67.3 C 304.1 68.9 304.6 69.7 305.0 70.3 L 305.0 70.0 L 304.7 70.0 C 304.8 70.1 304.8 70.6 304.9 70.7 C 305.2 70.9 305.5 71.1 305.7 71.2 L 308.5 73.1 C 313.4 76.6 319.8 82.4 322.9 86.1 C 327.9 92.2 330.8 99.4 330.5 105.3 C 330.3 108.2 330.0 109.3 328.7 112.0 C 327.9 113.8 326.3 116.3 325.1 117.5 C 323.0 119.8 309.2 130.3 303.7 133.8 C 296.4 138.4 283.9 143.6 267.1 149.0 C 256.4 152.4 253.0 153.6 245.2 156.6 C 241.5 158.0 238.2 159.3 237.8 159.4 C 237.4 159.6 237.0 160.0 237.0 160.5 C 237.0 160.9 236.6 162.4 236.2 163.8 C 235.4 166.1 235.3 166.9 235.5 172.3 C 236.0 182.7 234.7 187.8 231.1 190.0 C 230.1 190.6 227.9 192.1 226.2 193.3 C 223.0 195.6 219.9 197.2 218.7 197.2 C 218.3 197.2 217.0 197.5 215.7 197.9 C 213.7 198.5 213.4 198.8 212.6 200.6 C 212.1 201.7 211.1 203.4 210.4 204.5 C 208.8 206.8 204.1 211.6 202.0 213.0 C 201.1 213.6 199.4 214.9 198.2 215.9 C 197.0 216.9 195.6 217.7 195.1 217.7 C 194.7 217.7 193.6 218.1 192.6 218.6 C 191.7 219.1 190.7 219.4 190.3 219.4 C 190.0 219.4 189.2 219.9 188.5 220.4 C 186.9 221.8 184.9 222.4 182.0 222.4 C 179.5 222.5 176.7 222.2 176.1 221.9 C 175.7 221.6 171.4 222.1 166.2 223.0 C 164.2 223.3 162.2 223.5 161.9 223.3 C 161.5 223.1 158.9 222.8 156.1 222.6 C 151.7 222.4 150.9 222.4 150.4 223.0 C 150.0 223.5 149.7 223.7 149.3 223.7 Z M 112.3 143.8 C 113.2 143.7 114.0 140.6 114.5 135.2 C 114.9 131.3 114.9 130.8 114.1 129.3 C 113.0 127.2 113.0 126.0 114.2 123.4 C 115.0 121.5 115.4 121.1 117.4 120.1 L 120.0 118.9 L 120.0 115.3 C 120.3 113.3 121.0 110.9 121.3 110.0 C 122.0 107.3 121.2 107.3 119.3 110.1 C 118.3 111.4 117.1 112.8 116.7 113.1 C 115.6 113.7 115.5 114.6 116.4 115.3 C 117.4 116.2 117.2 116.6 115.2 117.5 C 113.8 118.1 112.0 118.3 106.0 118.5 C 99.0 118.7 98.4 118.8 96.7 119.8 C 95.7 120.4 93.8 121.1 92.6 121.3 C 90.4 121.6 88.7 121.2 83.4 118.9 C 82.6 118.6 81.8 118.4 81.6 118.6 C 81.3 118.7 79.7 119.0 77.9 119.1 C 76.2 119.3 74.7 119.6 74.7 119.8 C 74.5 120.6 81.8 126.0 87.4 129.3 C 90.4 131.1 97.1 135.1 102.3 138.2 C 107.4 141.4 111.9 143.9 112.3 143.8 Z M 219.5 141.8 C 220.5 141.7 223.1 140.2 231.8 134.9 C 239.8 130.0 262.2 113.7 262.2 112.8 C 262.2 112.1 261.0 111.5 258.9 111.1 C 257.7 110.8 255.4 110.1 253.8 109.5 C 251.5 108.5 250.9 108.1 250.7 107.1 C 250.1 105.1 249.0 104.1 247.6 104.4 C 246.6 104.6 246.3 104.4 245.7 103.3 C 245.3 102.6 244.6 101.6 244.3 101.1 C 243.7 100.3 243.5 100.3 242.4 100.9 C 241.2 101.6 241.1 101.5 239.5 100.1 C 238.6 99.3 237.8 98.7 237.6 98.7 C 236.8 98.7 234.7 100.8 234.7 101.6 C 234.7 102.1 233.9 103.5 233.0 104.8 C 231.3 107.2 230.4 107.7 227.2 107.8 C 225.7 107.8 219.7 105.6 217.8 104.2 C 216.3 103.1 209.0 103.0 208.6 104.0 C 208.5 104.4 208.8 106.9 209.4 109.6 C 210.3 114.1 210.5 114.7 211.5 115.3 C 212.1 115.6 213.2 116.7 213.8 117.7 C 214.8 119.2 214.9 119.6 214.6 121.9 C 214.2 126.0 214.4 131.7 215.1 134.1 C 215.4 135.4 216.2 137.2 217.0 138.2 C 217.7 139.2 218.3 140.2 218.3 140.4 C 218.3 140.6 218.5 141.1 218.8 141.5 C 219.0 141.7 219.1 141.9 219.5 141.8 Z M 296.4 48.0 C 296.3 48.1 296.1 47.9 296.0 47.7 C 295.8 47.1 295.5 46.5 295.5 46.4 C 295.5 46.3 295.9 46.4 296.4 46.6 C 296.9 46.9 297.2 47.1 297.2 47.2 C 297.2 47.3 297.4 47.7 297.5 48.1 C 297.5 48.1 297.5 48.0 297.5 48.0 L 296.4 48.0 Z M 296.4 48.2 "></path></clipPath><g clip-path="url(#clip-105)"><image xlink:href="../../51B410CA-7628-4B71-A9C1-848112DF357E/assets/1FFDBE806BE9AD879ABE6851CBB47383.png" width="500.00" height="333.00" transform="matrix(0.77, 0.00, -0.00, -0.77, -23.0, 259.0)"></image></g></g></g></g></g></svg>