<?xml version="1.0" encoding="UTF-8" standalone="no"?><svg xmlns="http://www.w3.org/2000/svg" xmlns:xlink="http://www.w3.org/1999/xlink" clip-rule="evenodd" stroke-miterlimit="4.00" viewBox="0 0 777 66"><desc>SVG generated by Keynote</desc><defs></defs><g transform="matrix(1.00, 0.00, -0.00, -1.00, 0.0, 66.0)"><text xml:space="preserve" font-family="Helvetica-Light" font-size="67.2" fill="#000000" transform="matrix(1.00, 0.00, -0.00, -1.00, -4.0, 15.0)">E</text><text xml:space="preserve" font-family="Helvetica-Light" font-size="67.2" fill="#000000" transform="matrix(1.00, 0.00, -0.00, -1.00, 37.1, 15.0)">f</text><text xml:space="preserve" font-family="Helvetica-Light" font-size="67.2" fill="#000000" transform="matrix(1.00, 0.00, -0.00, -1.00, 54.5, 15.0)">f</text><text xml:space="preserve" font-family="Helvetica-Light" font-size="67.2" fill="#000000" transform="matrix(1.00, 0.00, -0.00, -1.00, 73.2, 15.0)">e</text><text xml:space="preserve" font-family="Helvetica-Light" font-size="67.2" fill="#000000" transform="matrix(1.00, 0.00, -0.00, -1.00, 110.6, 15.0)">c</text><text xml:space="preserve" font-family="Helvetica-Light" font-size="67.2" fill="#000000" transform="matrix(1.00, 0.00, -0.00, -1.00, 147.9, 15.0)">t</text><text xml:space="preserve" font-family="Helvetica-Light" font-size="67.2" fill="#000000" transform="matrix(1.00, 0.00, -0.00, -1.00, 166.6, 15.0)"> </text><text xml:space="preserve" font-family="Helvetica-Light" font-size="67.2" fill="#000000" transform="matrix(1.00, 0.00, -0.00, -1.00, 185.3, 15.0)">o</text><text xml:space="preserve" font-family="Helvetica-Light" font-size="67.2" fill="#000000" transform="matrix(1.00, 0.00, -0.00, -1.00, 222.7, 15.0)">f</text><text xml:space="preserve" font-family="Helvetica-Light" font-size="67.2" fill="#000000" transform="matrix(1.00, 0.00, -0.00, -1.00, 241.3, 15.0)"> </text><text xml:space="preserve" font-family="Helvetica-Light" font-size="67.2" fill="#000000" transform="matrix(1.00, 0.00, -0.00, -1.00, 260.0, 15.0)">L</text><text xml:space="preserve" font-family="Helvetica-Light" font-size="67.2" fill="#000000" transform="matrix(1.00, 0.00, -0.00, -1.00, 297.4, 15.0)">i</text><text xml:space="preserve" font-family="Helvetica-Light" font-size="67.2" fill="#000000" transform="matrix(1.00, 0.00, -0.00, -1.00, 312.3, 15.0)">g</text><text xml:space="preserve" font-family="Helvetica-Light" font-size="67.2" fill="#000000" transform="matrix(1.00, 0.00, -0.00, -1.00, 353.4, 15.0)">h</text><text xml:space="preserve" font-family="Helvetica-Light" font-size="67.2" fill="#000000" transform="matrix(1.00, 0.00, -0.00, -1.00, 390.7, 15.0)">t</text><text xml:space="preserve" font-family="Helvetica-Light" font-size="67.2" fill="#000000" transform="matrix(1.00, 0.00, -0.00, -1.00, 409.4, 15.0)"> </text><text xml:space="preserve" font-family="Helvetica-Light" font-size="67.2" fill="#000000" transform="matrix(1.00, 0.00, -0.00, -1.00, 428.1, 15.0)">W</text><text xml:space="preserve" font-family="Helvetica-Light" font-size="67.2" fill="#000000" transform="matrix(1.00, 0.00, -0.00, -1.00, 485.4, 15.0)">a</text><text xml:space="preserve" font-family="Helvetica-Light" font-size="67.2" fill="#000000" transform="matrix(1.00, 0.00, -0.00, -1.00, 522.7, 15.0)">v</text><text xml:space="preserve" font-family="Helvetica-Light" font-size="67.2" fill="#000000" transform="matrix(1.00, 0.00, -0.00, -1.00, 556.3, 15.0)">e</text><text xml:space="preserve" font-family="Helvetica-Light" font-size="67.2" fill="#000000" transform="matrix(1.00, 0.00, -0.00, -1.00, 593.7, 15.0)">l</text><text xml:space="preserve" font-family="Helvetica-Light" font-size="67.2" fill="#000000" transform="matrix(1.00, 0.00, -0.00, -1.00, 608.6, 15.0)">e</text><text xml:space="preserve" font-family="Helvetica-Light" font-size="67.2" fill="#000000" transform="matrix(1.00, 0.00, -0.00, -1.00, 646.0, 15.0)">n</text><text xml:space="preserve" font-family="Helvetica-Light" font-size="67.2" fill="#000000" transform="matrix(1.00, 0.00, -0.00, -1.00, 683.3, 15.0)">g</text><text xml:space="preserve" font-family="Helvetica-Light" font-size="67.2" fill="#000000" transform="matrix(1.00, 0.00, -0.00, -1.00, 724.4, 15.0)">t</text><text xml:space="preserve" font-family="Helvetica-Light" font-size="67.2" fill="#000000" transform="matrix(1.00, 0.00, -0.00, -1.00, 743.1, 15.0)">h</text></g></svg>