<?xml version="1.0" encoding="UTF-8" standalone="no"?><svg xmlns="http://www.w3.org/2000/svg" xmlns:xlink="http://www.w3.org/1999/xlink" clip-rule="evenodd" stroke-miterlimit="4.00" viewBox="0 0 788 11"><desc>SVG generated by Keynote</desc><defs></defs><g transform="matrix(1.00, 0.00, -0.00, -1.00, 0.0, 11.0)"><text xml:space="preserve" font-family="Helvetica-Light" font-size="8.0" fill="#000000" transform="matrix(1.00, 0.00, -0.00, -1.00, 1.0, 3.0)">L</text><text xml:space="preserve" font-family="Helvetica-Light" font-size="8.0" fill="#000000" transform="matrix(1.00, 0.00, -0.00, -1.00, 5.4, 3.0)">o</text><text xml:space="preserve" font-family="Helvetica-Light" font-size="8.0" fill="#000000" transform="matrix(1.00, 0.00, -0.00, -1.00, 9.9, 3.0)">c</text><text xml:space="preserve" font-family="Helvetica-Light" font-size="8.0" fill="#000000" transform="matrix(1.00, 0.00, -0.00, -1.00, 14.3, 3.0)">k</text><text xml:space="preserve" font-family="Helvetica-Light" font-size="8.0" fill="#000000" transform="matrix(1.00, 0.00, -0.00, -1.00, 18.3, 3.0)">l</text><text xml:space="preserve" font-family="Helvetica-Light" font-size="8.0" fill="#000000" transform="matrix(1.00, 0.00, -0.00, -1.00, 20.1, 3.0)">e</text><text xml:space="preserve" font-family="Helvetica-Light" font-size="8.0" fill="#000000" transform="matrix(1.00, 0.00, -0.00, -1.00, 24.6, 3.0)">y</text><text xml:space="preserve" font-family="Helvetica-Light" font-size="8.0" fill="#000000" transform="matrix(1.00, 0.00, -0.00, -1.00, 27.8, 3.0)">,</text><text xml:space="preserve" font-family="Helvetica-Light" font-size="8.0" fill="#000000" transform="matrix(1.00, 0.00, -0.00, -1.00, 30.1, 3.0)"> </text><text xml:space="preserve" font-family="Helvetica-Light" font-size="8.0" fill="#000000" transform="matrix(1.00, 0.00, -0.00, -1.00, 32.3, 3.0)">S</text><text xml:space="preserve" font-family="Helvetica-Light" font-size="8.0" fill="#000000" transform="matrix(1.00, 0.00, -0.00, -1.00, 37.2, 3.0)">.</text><text xml:space="preserve" font-family="Helvetica-Light" font-size="8.0" fill="#000000" transform="matrix(1.00, 0.00, -0.00, -1.00, 39.4, 3.0)"> </text><text xml:space="preserve" font-family="Helvetica-Light" font-size="8.0" fill="#000000" transform="matrix(1.00, 0.00, -0.00, -1.00, 41.6, 3.0)">W</text><text xml:space="preserve" font-family="Helvetica-Light" font-size="8.0" fill="#000000" transform="matrix(1.00, 0.00, -0.00, -1.00, 48.1, 3.0)">.</text><text xml:space="preserve" font-family="Helvetica-Light" font-size="8.0" fill="#000000" transform="matrix(1.00, 0.00, -0.00, -1.00, 50.4, 3.0)">,</text><text xml:space="preserve" font-family="Helvetica-Light" font-size="8.0" fill="#000000" transform="matrix(1.00, 0.00, -0.00, -1.00, 52.6, 3.0)"> </text><text xml:space="preserve" font-family="Helvetica-Light" font-size="8.0" fill="#000000" transform="matrix(1.00, 0.00, -0.00, -1.00, 54.8, 3.0)">B</text><text xml:space="preserve" font-family="Helvetica-Light" font-size="8.0" fill="#000000" transform="matrix(1.00, 0.00, -0.00, -1.00, 60.1, 3.0)">r</text><text xml:space="preserve" font-family="Helvetica-Light" font-size="8.0" fill="#000000" transform="matrix(1.00, 0.00, -0.00, -1.00, 62.8, 3.0)">a</text><text xml:space="preserve" font-family="Helvetica-Light" font-size="8.0" fill="#000000" transform="matrix(1.00, 0.00, -0.00, -1.00, 67.3, 3.0)">i</text><text xml:space="preserve" font-family="Helvetica-Light" font-size="8.0" fill="#000000" transform="matrix(1.00, 0.00, -0.00, -1.00, 69.0, 3.0)">n</text><text xml:space="preserve" font-family="Helvetica-Light" font-size="8.0" fill="#000000" transform="matrix(1.00, 0.00, -0.00, -1.00, 73.5, 3.0)">a</text><text xml:space="preserve" font-family="Helvetica-Light" font-size="8.0" fill="#000000" transform="matrix(1.00, 0.00, -0.00, -1.00, 77.9, 3.0)">r</text><text xml:space="preserve" font-family="Helvetica-Light" font-size="8.0" fill="#000000" transform="matrix(1.00, 0.00, -0.00, -1.00, 80.4, 3.0)">d</text><text xml:space="preserve" font-family="Helvetica-Light" font-size="8.0" fill="#000000" transform="matrix(1.00, 0.00, -0.00, -1.00, 85.3, 3.0)">,</text><text xml:space="preserve" font-family="Helvetica-Light" font-size="8.0" fill="#000000" transform="matrix(1.00, 0.00, -0.00, -1.00, 87.6, 3.0)"> </text><text xml:space="preserve" font-family="Helvetica-Light" font-size="8.0" fill="#000000" transform="matrix(1.00, 0.00, -0.00, -1.00, 89.8, 3.0)">G</text><text xml:space="preserve" font-family="Helvetica-Light" font-size="8.0" fill="#000000" transform="matrix(1.00, 0.00, -0.00, -1.00, 96.0, 3.0)">.</text><text xml:space="preserve" font-family="Helvetica-Light" font-size="8.0" fill="#000000" transform="matrix(1.00, 0.00, -0.00, -1.00, 98.2, 3.0)"> </text><text xml:space="preserve" font-family="Helvetica-Light" font-size="8.0" fill="#000000" transform="matrix(1.00, 0.00, -0.00, -1.00, 100.5, 3.0)">C</text><text xml:space="preserve" font-family="Helvetica-Light" font-size="8.0" fill="#000000" transform="matrix(1.00, 0.00, -0.00, -1.00, 106.2, 3.0)">.</text><text xml:space="preserve" font-family="Helvetica-Light" font-size="8.0" fill="#000000" transform="matrix(1.00, 0.00, -0.00, -1.00, 108.5, 3.0)">,</text><text xml:space="preserve" font-family="Helvetica-Light" font-size="8.0" fill="#000000" transform="matrix(1.00, 0.00, -0.00, -1.00, 110.7, 3.0)"> </text><text xml:space="preserve" font-family="Helvetica-Light" font-size="8.0" fill="#000000" transform="matrix(1.00, 0.00, -0.00, -1.00, 112.9, 3.0)">a</text><text xml:space="preserve" font-family="Helvetica-Light" font-size="8.0" fill="#000000" transform="matrix(1.00, 0.00, -0.00, -1.00, 117.4, 3.0)">n</text><text xml:space="preserve" font-family="Helvetica-Light" font-size="8.0" fill="#000000" transform="matrix(1.00, 0.00, -0.00, -1.00, 121.8, 3.0)">d</text><text xml:space="preserve" font-family="Helvetica-Light" font-size="8.0" fill="#000000" transform="matrix(1.00, 0.00, -0.00, -1.00, 126.7, 3.0)"> </text><text xml:space="preserve" font-family="Helvetica-Light" font-size="8.0" fill="#000000" transform="matrix(1.00, 0.00, -0.00, -1.00, 128.9, 3.0)">C</text><text xml:space="preserve" font-family="Helvetica-Light" font-size="8.0" fill="#000000" transform="matrix(1.00, 0.00, -0.00, -1.00, 134.7, 3.0)">z</text><text xml:space="preserve" font-family="Helvetica-Light" font-size="8.0" fill="#000000" transform="matrix(1.00, 0.00, -0.00, -1.00, 138.7, 3.0)">e</text><text xml:space="preserve" font-family="Helvetica-Light" font-size="8.0" fill="#000000" transform="matrix(1.00, 0.00, -0.00, -1.00, 143.1, 3.0)">i</text><text xml:space="preserve" font-family="Helvetica-Light" font-size="8.0" fill="#000000" transform="matrix(1.00, 0.00, -0.00, -1.00, 144.9, 3.0)">s</text><text xml:space="preserve" font-family="Helvetica-Light" font-size="8.0" fill="#000000" transform="matrix(1.00, 0.00, -0.00, -1.00, 148.9, 3.0)">l</text><text xml:space="preserve" font-family="Helvetica-Light" font-size="8.0" fill="#000000" transform="matrix(1.00, 0.00, -0.00, -1.00, 150.7, 3.0)">e</text><text xml:space="preserve" font-family="Helvetica-Light" font-size="8.0" fill="#000000" transform="matrix(1.00, 0.00, -0.00, -1.00, 155.1, 3.0)">r</text><text xml:space="preserve" font-family="Helvetica-Light" font-size="8.0" fill="#000000" transform="matrix(1.00, 0.00, -0.00, -1.00, 157.1, 3.0)">,</text><text xml:space="preserve" font-family="Helvetica-Light" font-size="8.0" fill="#000000" transform="matrix(1.00, 0.00, -0.00, -1.00, 159.3, 3.0)"> </text><text xml:space="preserve" font-family="Helvetica-Light" font-size="8.0" fill="#000000" transform="matrix(1.00, 0.00, -0.00, -1.00, 161.5, 3.0)">C</text><text xml:space="preserve" font-family="Helvetica-Light" font-size="8.0" fill="#000000" transform="matrix(1.00, 0.00, -0.00, -1.00, 167.3, 3.0)">.</text><text xml:space="preserve" font-family="Helvetica-Light" font-size="8.0" fill="#000000" transform="matrix(1.00, 0.00, -0.00, -1.00, 169.5, 3.0)"> </text><text xml:space="preserve" font-family="Helvetica-Light" font-size="8.0" fill="#000000" transform="matrix(1.00, 0.00, -0.00, -1.00, 171.7, 3.0)">A</text><text xml:space="preserve" font-family="Helvetica-Light" font-size="8.0" fill="#000000" transform="matrix(1.00, 0.00, -0.00, -1.00, 177.1, 3.0)">.</text><text xml:space="preserve" font-family="Helvetica-Light" font-size="8.0" fill="#000000" transform="matrix(1.00, 0.00, -0.00, -1.00, 179.3, 3.0)"> </text><text xml:space="preserve" font-family="Helvetica-Light" font-size="8.0" fill="#000000" transform="matrix(1.00, 0.00, -0.00, -1.00, 181.5, 3.0)">(</text><text xml:space="preserve" font-family="Helvetica-Light" font-size="8.0" fill="#000000" transform="matrix(1.00, 0.00, -0.00, -1.00, 184.2, 3.0)">2</text><text xml:space="preserve" font-family="Helvetica-Light" font-size="8.0" fill="#000000" transform="matrix(1.00, 0.00, -0.00, -1.00, 188.6, 3.0)">0</text><text xml:space="preserve" font-family="Helvetica-Light" font-size="8.0" fill="#000000" transform="matrix(1.00, 0.00, -0.00, -1.00, 193.1, 3.0)">0</text><text xml:space="preserve" font-family="Helvetica-Light" font-size="8.0" fill="#000000" transform="matrix(1.00, 0.00, -0.00, -1.00, 197.5, 3.0)">3</text><text xml:space="preserve" font-family="Helvetica-Light" font-size="8.0" fill="#000000" transform="matrix(1.00, 0.00, -0.00, -1.00, 202.0, 3.0)">)</text><text xml:space="preserve" font-family="Helvetica-Light" font-size="8.0" fill="#000000" transform="matrix(1.00, 0.00, -0.00, -1.00, 204.6, 3.0)"> </text><text xml:space="preserve" font-family="Helvetica-Light" font-size="8.0" fill="#000000" transform="matrix(1.00, 0.00, -0.00, -1.00, 206.9, 3.0)">H</text><text xml:space="preserve" font-family="Helvetica-Light" font-size="8.0" fill="#000000" transform="matrix(1.00, 0.00, -0.00, -1.00, 212.6, 3.0)">i</text><text xml:space="preserve" font-family="Helvetica-Light" font-size="8.0" fill="#000000" transform="matrix(1.00, 0.00, -0.00, -1.00, 214.4, 3.0)">g</text><text xml:space="preserve" font-family="Helvetica-Light" font-size="8.0" fill="#000000" transform="matrix(1.00, 0.00, -0.00, -1.00, 219.3, 3.0)">h</text><text xml:space="preserve" font-family="Helvetica-Light" font-size="8.0" fill="#000000" transform="matrix(1.00, 0.00, -0.00, -1.00, 223.8, 3.0)"> </text><text xml:space="preserve" font-family="Helvetica-Light" font-size="8.0" fill="#000000" transform="matrix(1.00, 0.00, -0.00, -1.00, 226.0, 3.0)">s</text><text xml:space="preserve" font-family="Helvetica-Light" font-size="8.0" fill="#000000" transform="matrix(1.00, 0.00, -0.00, -1.00, 230.0, 3.0)">e</text><text xml:space="preserve" font-family="Helvetica-Light" font-size="8.0" fill="#000000" transform="matrix(1.00, 0.00, -0.00, -1.00, 234.4, 3.0)">n</text><text xml:space="preserve" font-family="Helvetica-Light" font-size="8.0" fill="#000000" transform="matrix(1.00, 0.00, -0.00, -1.00, 238.9, 3.0)">s</text><text xml:space="preserve" font-family="Helvetica-Light" font-size="8.0" fill="#000000" transform="matrix(1.00, 0.00, -0.00, -1.00, 242.9, 3.0)">i</text><text xml:space="preserve" font-family="Helvetica-Light" font-size="8.0" fill="#000000" transform="matrix(1.00, 0.00, -0.00, -1.00, 244.6, 3.0)">t</text><text xml:space="preserve" font-family="Helvetica-Light" font-size="8.0" fill="#000000" transform="matrix(1.00, 0.00, -0.00, -1.00, 246.9, 3.0)">i</text><text xml:space="preserve" font-family="Helvetica-Light" font-size="8.0" fill="#000000" transform="matrix(1.00, 0.00, -0.00, -1.00, 248.6, 3.0)">v</text><text xml:space="preserve" font-family="Helvetica-Light" font-size="8.0" fill="#000000" transform="matrix(1.00, 0.00, -0.00, -1.00, 252.6, 3.0)">i</text><text xml:space="preserve" font-family="Helvetica-Light" font-size="8.0" fill="#000000" transform="matrix(1.00, 0.00, -0.00, -1.00, 254.4, 3.0)">t</text><text xml:space="preserve" font-family="Helvetica-Light" font-size="8.0" fill="#000000" transform="matrix(1.00, 0.00, -0.00, -1.00, 256.6, 3.0)">y</text><text xml:space="preserve" font-family="Helvetica-Light" font-size="8.0" fill="#000000" transform="matrix(1.00, 0.00, -0.00, -1.00, 260.6, 3.0)"> </text><text xml:space="preserve" font-family="Helvetica-Light" font-size="8.0" fill="#000000" transform="matrix(1.00, 0.00, -0.00, -1.00, 262.9, 3.0)">o</text><text xml:space="preserve" font-family="Helvetica-Light" font-size="8.0" fill="#000000" transform="matrix(1.00, 0.00, -0.00, -1.00, 267.3, 3.0)">f</text><text xml:space="preserve" font-family="Helvetica-Light" font-size="8.0" fill="#000000" transform="matrix(1.00, 0.00, -0.00, -1.00, 269.5, 3.0)"> </text><text xml:space="preserve" font-family="Helvetica-Light" font-size="8.0" fill="#000000" transform="matrix(1.00, 0.00, -0.00, -1.00, 271.8, 3.0)">t</text><text xml:space="preserve" font-family="Helvetica-Light" font-size="8.0" fill="#000000" transform="matrix(1.00, 0.00, -0.00, -1.00, 274.0, 3.0)">h</text><text xml:space="preserve" font-family="Helvetica-Light" font-size="8.0" fill="#000000" transform="matrix(1.00, 0.00, -0.00, -1.00, 278.4, 3.0)">e</text><text xml:space="preserve" font-family="Helvetica-Light" font-size="8.0" fill="#000000" transform="matrix(1.00, 0.00, -0.00, -1.00, 282.9, 3.0)"> </text><text xml:space="preserve" font-family="Helvetica-Light" font-size="8.0" fill="#000000" transform="matrix(1.00, 0.00, -0.00, -1.00, 285.1, 3.0)">h</text><text xml:space="preserve" font-family="Helvetica-Light" font-size="8.0" fill="#000000" transform="matrix(1.00, 0.00, -0.00, -1.00, 289.6, 3.0)">u</text><text xml:space="preserve" font-family="Helvetica-Light" font-size="8.0" fill="#000000" transform="matrix(1.00, 0.00, -0.00, -1.00, 294.0, 3.0)">m</text><text xml:space="preserve" font-family="Helvetica-Light" font-size="8.0" fill="#000000" transform="matrix(1.00, 0.00, -0.00, -1.00, 300.7, 3.0)">a</text><text xml:space="preserve" font-family="Helvetica-Light" font-size="8.0" fill="#000000" transform="matrix(1.00, 0.00, -0.00, -1.00, 305.1, 3.0)">n</text><text xml:space="preserve" font-family="Helvetica-Light" font-size="8.0" fill="#000000" transform="matrix(1.00, 0.00, -0.00, -1.00, 309.6, 3.0)"> </text><text xml:space="preserve" font-family="Helvetica-Light" font-size="8.0" fill="#000000" transform="matrix(1.00, 0.00, -0.00, -1.00, 311.8, 3.0)">c</text><text xml:space="preserve" font-family="Helvetica-Light" font-size="8.0" fill="#000000" transform="matrix(1.00, 0.00, -0.00, -1.00, 316.2, 3.0)">i</text><text xml:space="preserve" font-family="Helvetica-Light" font-size="8.0" fill="#000000" transform="matrix(1.00, 0.00, -0.00, -1.00, 318.0, 3.0)">r</text><text xml:space="preserve" font-family="Helvetica-Light" font-size="8.0" fill="#000000" transform="matrix(1.00, 0.00, -0.00, -1.00, 320.5, 3.0)">c</text><text xml:space="preserve" font-family="Helvetica-Light" font-size="8.0" fill="#000000" transform="matrix(1.00, 0.00, -0.00, -1.00, 325.0, 3.0)">a</text><text xml:space="preserve" font-family="Helvetica-Light" font-size="8.0" fill="#000000" transform="matrix(1.00, 0.00, -0.00, -1.00, 329.4, 3.0)">d</text><text xml:space="preserve" font-family="Helvetica-Light" font-size="8.0" fill="#000000" transform="matrix(1.00, 0.00, -0.00, -1.00, 334.3, 3.0)">i</text><text xml:space="preserve" font-family="Helvetica-Light" font-size="8.0" fill="#000000" transform="matrix(1.00, 0.00, -0.00, -1.00, 336.1, 3.0)">a</text><text xml:space="preserve" font-family="Helvetica-Light" font-size="8.0" fill="#000000" transform="matrix(1.00, 0.00, -0.00, -1.00, 340.5, 3.0)">n</text><text xml:space="preserve" font-family="Helvetica-Light" font-size="8.0" fill="#000000" transform="matrix(1.00, 0.00, -0.00, -1.00, 345.0, 3.0)"> </text><text xml:space="preserve" font-family="Helvetica-Light" font-size="8.0" fill="#000000" transform="matrix(1.00, 0.00, -0.00, -1.00, 347.2, 3.0)">m</text><text xml:space="preserve" font-family="Helvetica-Light" font-size="8.0" fill="#000000" transform="matrix(1.00, 0.00, -0.00, -1.00, 353.9, 3.0)">e</text><text xml:space="preserve" font-family="Helvetica-Light" font-size="8.0" fill="#000000" transform="matrix(1.00, 0.00, -0.00, -1.00, 358.3, 3.0)">l</text><text xml:space="preserve" font-family="Helvetica-Light" font-size="8.0" fill="#000000" transform="matrix(1.00, 0.00, -0.00, -1.00, 360.1, 3.0)">a</text><text xml:space="preserve" font-family="Helvetica-Light" font-size="8.0" fill="#000000" transform="matrix(1.00, 0.00, -0.00, -1.00, 364.6, 3.0)">t</text><text xml:space="preserve" font-family="Helvetica-Light" font-size="8.0" fill="#000000" transform="matrix(1.00, 0.00, -0.00, -1.00, 366.8, 3.0)">o</text><text xml:space="preserve" font-family="Helvetica-Light" font-size="8.0" fill="#000000" transform="matrix(1.00, 0.00, -0.00, -1.00, 371.2, 3.0)">n</text><text xml:space="preserve" font-family="Helvetica-Light" font-size="8.0" fill="#000000" transform="matrix(1.00, 0.00, -0.00, -1.00, 375.7, 3.0)">i</text><text xml:space="preserve" font-family="Helvetica-Light" font-size="8.0" fill="#000000" transform="matrix(1.00, 0.00, -0.00, -1.00, 377.4, 3.0)">n</text><text xml:space="preserve" font-family="Helvetica-Light" font-size="8.0" fill="#000000" transform="matrix(1.00, 0.00, -0.00, -1.00, 381.9, 3.0)"> </text><text xml:space="preserve" font-family="Helvetica-Light" font-size="8.0" fill="#000000" transform="matrix(1.00, 0.00, -0.00, -1.00, 384.1, 3.0)">r</text><text xml:space="preserve" font-family="Helvetica-Light" font-size="8.0" fill="#000000" transform="matrix(1.00, 0.00, -0.00, -1.00, 386.8, 3.0)">h</text><text xml:space="preserve" font-family="Helvetica-Light" font-size="8.0" fill="#000000" transform="matrix(1.00, 0.00, -0.00, -1.00, 391.2, 3.0)">y</text><text xml:space="preserve" font-family="Helvetica-Light" font-size="8.0" fill="#000000" transform="matrix(1.00, 0.00, -0.00, -1.00, 395.2, 3.0)">t</text><text xml:space="preserve" font-family="Helvetica-Light" font-size="8.0" fill="#000000" transform="matrix(1.00, 0.00, -0.00, -1.00, 397.5, 3.0)">h</text><text xml:space="preserve" font-family="Helvetica-Light" font-size="8.0" fill="#000000" transform="matrix(1.00, 0.00, -0.00, -1.00, 401.9, 3.0)">m</text><text xml:space="preserve" font-family="Helvetica-Light" font-size="8.0" fill="#000000" transform="matrix(1.00, 0.00, -0.00, -1.00, 408.6, 3.0)"> </text><text xml:space="preserve" font-family="Helvetica-Light" font-size="8.0" fill="#000000" transform="matrix(1.00, 0.00, -0.00, -1.00, 410.8, 3.0)">t</text><text xml:space="preserve" font-family="Helvetica-Light" font-size="8.0" fill="#000000" transform="matrix(1.00, 0.00, -0.00, -1.00, 413.0, 3.0)">o</text><text xml:space="preserve" font-family="Helvetica-Light" font-size="8.0" fill="#000000" transform="matrix(1.00, 0.00, -0.00, -1.00, 417.5, 3.0)"> </text><text xml:space="preserve" font-family="Helvetica-Light" font-size="8.0" fill="#000000" transform="matrix(1.00, 0.00, -0.00, -1.00, 419.7, 3.0)">r</text><text xml:space="preserve" font-family="Helvetica-Light" font-size="8.0" fill="#000000" transform="matrix(1.00, 0.00, -0.00, -1.00, 422.2, 3.0)">e</text><text xml:space="preserve" font-family="Helvetica-Light" font-size="8.0" fill="#000000" transform="matrix(1.00, 0.00, -0.00, -1.00, 426.7, 3.0)">s</text><text xml:space="preserve" font-family="Helvetica-Light" font-size="8.0" fill="#000000" transform="matrix(1.00, 0.00, -0.00, -1.00, 430.7, 3.0)">e</text><text xml:space="preserve" font-family="Helvetica-Light" font-size="8.0" fill="#000000" transform="matrix(1.00, 0.00, -0.00, -1.00, 435.1, 3.0)">t</text><text xml:space="preserve" font-family="Helvetica-Light" font-size="8.0" fill="#000000" transform="matrix(1.00, 0.00, -0.00, -1.00, 437.3, 3.0)">t</text><text xml:space="preserve" font-family="Helvetica-Light" font-size="8.0" fill="#000000" transform="matrix(1.00, 0.00, -0.00, -1.00, 439.6, 3.0)">i</text><text xml:space="preserve" font-family="Helvetica-Light" font-size="8.0" fill="#000000" transform="matrix(1.00, 0.00, -0.00, -1.00, 441.3, 3.0)">n</text><text xml:space="preserve" font-family="Helvetica-Light" font-size="8.0" fill="#000000" transform="matrix(1.00, 0.00, -0.00, -1.00, 445.8, 3.0)">g</text><text xml:space="preserve" font-family="Helvetica-Light" font-size="8.0" fill="#000000" transform="matrix(1.00, 0.00, -0.00, -1.00, 450.7, 3.0)"> </text><text xml:space="preserve" font-family="Helvetica-Light" font-size="8.0" fill="#000000" transform="matrix(1.00, 0.00, -0.00, -1.00, 452.9, 3.0)">b</text><text xml:space="preserve" font-family="Helvetica-Light" font-size="8.0" fill="#000000" transform="matrix(1.00, 0.00, -0.00, -1.00, 457.8, 3.0)">y</text><text xml:space="preserve" font-family="Helvetica-Light" font-size="8.0" fill="#000000" transform="matrix(1.00, 0.00, -0.00, -1.00, 461.8, 3.0)"> </text><text xml:space="preserve" font-family="Helvetica-Light" font-size="8.0" fill="#000000" transform="matrix(1.00, 0.00, -0.00, -1.00, 464.0, 3.0)">s</text><text xml:space="preserve" font-family="Helvetica-Light" font-size="8.0" fill="#000000" transform="matrix(1.00, 0.00, -0.00, -1.00, 468.0, 3.0)">h</text><text xml:space="preserve" font-family="Helvetica-Light" font-size="8.0" fill="#000000" transform="matrix(1.00, 0.00, -0.00, -1.00, 472.4, 3.0)">o</text><text xml:space="preserve" font-family="Helvetica-Light" font-size="8.0" fill="#000000" transform="matrix(1.00, 0.00, -0.00, -1.00, 476.9, 3.0)">r</text><text xml:space="preserve" font-family="Helvetica-Light" font-size="8.0" fill="#000000" transform="matrix(1.00, 0.00, -0.00, -1.00, 479.7, 3.0)">t</text><text xml:space="preserve" font-family="Helvetica-Light" font-size="8.0" fill="#000000" transform="matrix(1.00, 0.00, -0.00, -1.00, 481.9, 3.0)"> </text><text xml:space="preserve" font-family="Helvetica-Light" font-size="8.0" fill="#000000" transform="matrix(1.00, 0.00, -0.00, -1.00, 484.2, 3.0)">w</text><text xml:space="preserve" font-family="Helvetica-Light" font-size="8.0" fill="#000000" transform="matrix(1.00, 0.00, -0.00, -1.00, 489.9, 3.0)">a</text><text xml:space="preserve" font-family="Helvetica-Light" font-size="8.0" fill="#000000" transform="matrix(1.00, 0.00, -0.00, -1.00, 494.4, 3.0)">v</text><text xml:space="preserve" font-family="Helvetica-Light" font-size="8.0" fill="#000000" transform="matrix(1.00, 0.00, -0.00, -1.00, 498.4, 3.0)">e</text><text xml:space="preserve" font-family="Helvetica-Light" font-size="8.0" fill="#000000" transform="matrix(1.00, 0.00, -0.00, -1.00, 502.8, 3.0)">l</text><text xml:space="preserve" font-family="Helvetica-Light" font-size="8.0" fill="#000000" transform="matrix(1.00, 0.00, -0.00, -1.00, 504.6, 3.0)">e</text><text xml:space="preserve" font-family="Helvetica-Light" font-size="8.0" fill="#000000" transform="matrix(1.00, 0.00, -0.00, -1.00, 509.0, 3.0)">n</text><text xml:space="preserve" font-family="Helvetica-Light" font-size="8.0" fill="#000000" transform="matrix(1.00, 0.00, -0.00, -1.00, 513.5, 3.0)">g</text><text xml:space="preserve" font-family="Helvetica-Light" font-size="8.0" fill="#000000" transform="matrix(1.00, 0.00, -0.00, -1.00, 518.4, 3.0)">t</text><text xml:space="preserve" font-family="Helvetica-Light" font-size="8.0" fill="#000000" transform="matrix(1.00, 0.00, -0.00, -1.00, 520.6, 3.0)">h</text><text xml:space="preserve" font-family="Helvetica-Light" font-size="8.0" fill="#000000" transform="matrix(1.00, 0.00, -0.00, -1.00, 525.1, 3.0)"> </text><text xml:space="preserve" font-family="Helvetica-Light" font-size="8.0" fill="#000000" transform="matrix(1.00, 0.00, -0.00, -1.00, 527.3, 3.0)">l</text><text xml:space="preserve" font-family="Helvetica-Light" font-size="8.0" fill="#000000" transform="matrix(1.00, 0.00, -0.00, -1.00, 529.1, 3.0)">i</text><text xml:space="preserve" font-family="Helvetica-Light" font-size="8.0" fill="#000000" transform="matrix(1.00, 0.00, -0.00, -1.00, 530.8, 3.0)">g</text><text xml:space="preserve" font-family="Helvetica-Light" font-size="8.0" fill="#000000" transform="matrix(1.00, 0.00, -0.00, -1.00, 535.7, 3.0)">h</text><text xml:space="preserve" font-family="Helvetica-Light" font-size="8.0" fill="#000000" transform="matrix(1.00, 0.00, -0.00, -1.00, 540.2, 3.0)">t</text><text xml:space="preserve" font-family="Helvetica-Light" font-size="8.0" fill="#000000" transform="matrix(1.00, 0.00, -0.00, -1.00, 542.4, 3.0)">,</text><text xml:space="preserve" font-family="Helvetica-Light" font-size="8.0" fill="#000000" transform="matrix(1.00, 0.00, -0.00, -1.00, 544.6, 3.0)"> </text><text xml:space="preserve" font-family="Helvetica-Light" font-size="8.0" fill="#000000" transform="matrix(1.00, 0.00, -0.00, -1.00, 546.8, 3.0)">T</text><text xml:space="preserve" font-family="Helvetica-Light" font-size="8.0" fill="#000000" transform="matrix(1.00, 0.00, -0.00, -1.00, 551.3, 3.0)">h</text><text xml:space="preserve" font-family="Helvetica-Light" font-size="8.0" fill="#000000" transform="matrix(1.00, 0.00, -0.00, -1.00, 555.7, 3.0)">e</text><text xml:space="preserve" font-family="Helvetica-Light" font-size="8.0" fill="#000000" transform="matrix(1.00, 0.00, -0.00, -1.00, 560.2, 3.0)"> </text><text xml:space="preserve" font-family="Helvetica-Light" font-size="8.0" fill="#000000" transform="matrix(1.00, 0.00, -0.00, -1.00, 562.4, 3.0)">J</text><text xml:space="preserve" font-family="Helvetica-Light" font-size="8.0" fill="#000000" transform="matrix(1.00, 0.00, -0.00, -1.00, 566.4, 3.0)">o</text><text xml:space="preserve" font-family="Helvetica-Light" font-size="8.0" fill="#000000" transform="matrix(1.00, 0.00, -0.00, -1.00, 570.9, 3.0)">u</text><text xml:space="preserve" font-family="Helvetica-Light" font-size="8.0" fill="#000000" transform="matrix(1.00, 0.00, -0.00, -1.00, 575.3, 3.0)">r</text><text xml:space="preserve" font-family="Helvetica-Light" font-size="8.0" fill="#000000" transform="matrix(1.00, 0.00, -0.00, -1.00, 578.1, 3.0)">n</text><text xml:space="preserve" font-family="Helvetica-Light" font-size="8.0" fill="#000000" transform="matrix(1.00, 0.00, -0.00, -1.00, 582.6, 3.0)">a</text><text xml:space="preserve" font-family="Helvetica-Light" font-size="8.0" fill="#000000" transform="matrix(1.00, 0.00, -0.00, -1.00, 587.0, 3.0)">l</text><text xml:space="preserve" font-family="Helvetica-Light" font-size="8.0" fill="#000000" transform="matrix(1.00, 0.00, -0.00, -1.00, 588.8, 3.0)"> </text><text xml:space="preserve" font-family="Helvetica-Light" font-size="8.0" fill="#000000" transform="matrix(1.00, 0.00, -0.00, -1.00, 591.0, 3.0)">o</text><text xml:space="preserve" font-family="Helvetica-Light" font-size="8.0" fill="#000000" transform="matrix(1.00, 0.00, -0.00, -1.00, 595.5, 3.0)">f</text><text xml:space="preserve" font-family="Helvetica-Light" font-size="8.0" fill="#000000" transform="matrix(1.00, 0.00, -0.00, -1.00, 597.7, 3.0)"> </text><text xml:space="preserve" font-family="Helvetica-Light" font-size="8.0" fill="#000000" transform="matrix(1.00, 0.00, -0.00, -1.00, 599.9, 3.0)">C</text><text xml:space="preserve" font-family="Helvetica-Light" font-size="8.0" fill="#000000" transform="matrix(1.00, 0.00, -0.00, -1.00, 605.7, 3.0)">l</text><text xml:space="preserve" font-family="Helvetica-Light" font-size="8.0" fill="#000000" transform="matrix(1.00, 0.00, -0.00, -1.00, 607.5, 3.0)">i</text><text xml:space="preserve" font-family="Helvetica-Light" font-size="8.0" fill="#000000" transform="matrix(1.00, 0.00, -0.00, -1.00, 609.2, 3.0)">n</text><text xml:space="preserve" font-family="Helvetica-Light" font-size="8.0" fill="#000000" transform="matrix(1.00, 0.00, -0.00, -1.00, 613.7, 3.0)">i</text><text xml:space="preserve" font-family="Helvetica-Light" font-size="8.0" fill="#000000" transform="matrix(1.00, 0.00, -0.00, -1.00, 615.5, 3.0)">c</text><text xml:space="preserve" font-family="Helvetica-Light" font-size="8.0" fill="#000000" transform="matrix(1.00, 0.00, -0.00, -1.00, 619.9, 3.0)">a</text><text xml:space="preserve" font-family="Helvetica-Light" font-size="8.0" fill="#000000" transform="matrix(1.00, 0.00, -0.00, -1.00, 624.4, 3.0)">l</text><text xml:space="preserve" font-family="Helvetica-Light" font-size="8.0" fill="#000000" transform="matrix(1.00, 0.00, -0.00, -1.00, 626.1, 3.0)"> </text><text xml:space="preserve" font-family="Helvetica-Light" font-size="8.0" fill="#000000" transform="matrix(1.00, 0.00, -0.00, -1.00, 628.4, 3.0)">E</text><text xml:space="preserve" font-family="Helvetica-Light" font-size="8.0" fill="#000000" transform="matrix(1.00, 0.00, -0.00, -1.00, 633.2, 3.0)">n</text><text xml:space="preserve" font-family="Helvetica-Light" font-size="8.0" fill="#000000" transform="matrix(1.00, 0.00, -0.00, -1.00, 637.7, 3.0)">d</text><text xml:space="preserve" font-family="Helvetica-Light" font-size="8.0" fill="#000000" transform="matrix(1.00, 0.00, -0.00, -1.00, 642.6, 3.0)">o</text><text xml:space="preserve" font-family="Helvetica-Light" font-size="8.0" fill="#000000" transform="matrix(1.00, 0.00, -0.00, -1.00, 647.0, 3.0)">c</text><text xml:space="preserve" font-family="Helvetica-Light" font-size="8.0" fill="#000000" transform="matrix(1.00, 0.00, -0.00, -1.00, 651.5, 3.0)">r</text><text xml:space="preserve" font-family="Helvetica-Light" font-size="8.0" fill="#000000" transform="matrix(1.00, 0.00, -0.00, -1.00, 654.1, 3.0)">i</text><text xml:space="preserve" font-family="Helvetica-Light" font-size="8.0" fill="#000000" transform="matrix(1.00, 0.00, -0.00, -1.00, 655.9, 3.0)">n</text><text xml:space="preserve" font-family="Helvetica-Light" font-size="8.0" fill="#000000" transform="matrix(1.00, 0.00, -0.00, -1.00, 660.4, 3.0)">o</text><text xml:space="preserve" font-family="Helvetica-Light" font-size="8.0" fill="#000000" transform="matrix(1.00, 0.00, -0.00, -1.00, 664.8, 3.0)">l</text><text xml:space="preserve" font-family="Helvetica-Light" font-size="8.0" fill="#000000" transform="matrix(1.00, 0.00, -0.00, -1.00, 666.6, 3.0)">o</text><text xml:space="preserve" font-family="Helvetica-Light" font-size="8.0" fill="#000000" transform="matrix(1.00, 0.00, -0.00, -1.00, 671.0, 3.0)">g</text><text xml:space="preserve" font-family="Helvetica-Light" font-size="8.0" fill="#000000" transform="matrix(1.00, 0.00, -0.00, -1.00, 675.9, 3.0)">y</text><text xml:space="preserve" font-family="Helvetica-Light" font-size="8.0" fill="#000000" transform="matrix(1.00, 0.00, -0.00, -1.00, 679.9, 3.0)"> </text><text xml:space="preserve" font-family="Helvetica-Light" font-size="8.0" fill="#000000" transform="matrix(1.00, 0.00, -0.00, -1.00, 682.1, 3.0)">&amp;</text><text xml:space="preserve" font-family="Helvetica-Light" font-size="8.0" fill="#000000" transform="matrix(1.00, 0.00, -0.00, -1.00, 687.5, 3.0)"> </text><text xml:space="preserve" font-family="Helvetica-Light" font-size="8.0" fill="#000000" transform="matrix(1.00, 0.00, -0.00, -1.00, 689.7, 3.0)">M</text><text xml:space="preserve" font-family="Helvetica-Light" font-size="8.0" fill="#000000" transform="matrix(1.00, 0.00, -0.00, -1.00, 696.4, 3.0)">e</text><text xml:space="preserve" font-family="Helvetica-Light" font-size="8.0" fill="#000000" transform="matrix(1.00, 0.00, -0.00, -1.00, 700.8, 3.0)">t</text><text xml:space="preserve" font-family="Helvetica-Light" font-size="8.0" fill="#000000" transform="matrix(1.00, 0.00, -0.00, -1.00, 703.0, 3.0)">a</text><text xml:space="preserve" font-family="Helvetica-Light" font-size="8.0" fill="#000000" transform="matrix(1.00, 0.00, -0.00, -1.00, 707.5, 3.0)">b</text><text xml:space="preserve" font-family="Helvetica-Light" font-size="8.0" fill="#000000" transform="matrix(1.00, 0.00, -0.00, -1.00, 712.4, 3.0)">o</text><text xml:space="preserve" font-family="Helvetica-Light" font-size="8.0" fill="#000000" transform="matrix(1.00, 0.00, -0.00, -1.00, 716.8, 3.0)">l</text><text xml:space="preserve" font-family="Helvetica-Light" font-size="8.0" fill="#000000" transform="matrix(1.00, 0.00, -0.00, -1.00, 718.6, 3.0)">i</text><text xml:space="preserve" font-family="Helvetica-Light" font-size="8.0" fill="#000000" transform="matrix(1.00, 0.00, -0.00, -1.00, 720.4, 3.0)">s</text><text xml:space="preserve" font-family="Helvetica-Light" font-size="8.0" fill="#000000" transform="matrix(1.00, 0.00, -0.00, -1.00, 724.4, 3.0)">m</text><text xml:space="preserve" font-family="Helvetica-Light" font-size="8.0" fill="#000000" transform="matrix(1.00, 0.00, -0.00, -1.00, 731.0, 3.0)"> </text><text xml:space="preserve" font-family="Helvetica-Light" font-size="8.0" fill="#000000" transform="matrix(1.00, 0.00, -0.00, -1.00, 733.3, 3.0)">8</text><text xml:space="preserve" font-family="Helvetica-Light" font-size="8.0" fill="#000000" transform="matrix(1.00, 0.00, -0.00, -1.00, 737.7, 3.0)">8</text><text xml:space="preserve" font-family="Helvetica-Light" font-size="8.0" fill="#000000" transform="matrix(1.00, 0.00, -0.00, -1.00, 742.2, 3.0)">,</text><text xml:space="preserve" font-family="Helvetica-Light" font-size="8.0" fill="#000000" transform="matrix(1.00, 0.00, -0.00, -1.00, 744.4, 3.0)"> </text><text xml:space="preserve" font-family="Helvetica-Light" font-size="8.0" fill="#000000" transform="matrix(1.00, 0.00, -0.00, -1.00, 746.6, 3.0)">4</text><text xml:space="preserve" font-family="Helvetica-Light" font-size="8.0" fill="#000000" transform="matrix(1.00, 0.00, -0.00, -1.00, 751.1, 3.0)">5</text><text xml:space="preserve" font-family="Helvetica-Light" font-size="8.0" fill="#000000" transform="matrix(1.00, 0.00, -0.00, -1.00, 755.5, 3.0)">0</text><text xml:space="preserve" font-family="Helvetica-Light" font-size="8.0" fill="#000000" transform="matrix(1.00, 0.00, -0.00, -1.00, 760.0, 3.0)">2</text><text xml:space="preserve" font-family="Helvetica-Light" font-size="8.0" fill="#000000" transform="matrix(1.00, 0.00, -0.00, -1.00, 764.4, 3.0)">-</text><text xml:space="preserve" font-family="Helvetica-Light" font-size="8.0" fill="#000000" transform="matrix(1.00, 0.00, -0.00, -1.00, 767.1, 3.0)">4</text><text xml:space="preserve" font-family="Helvetica-Light" font-size="8.0" fill="#000000" transform="matrix(1.00, 0.00, -0.00, -1.00, 771.5, 3.0)">5</text><text xml:space="preserve" font-family="Helvetica-Light" font-size="8.0" fill="#000000" transform="matrix(1.00, 0.00, -0.00, -1.00, 776.0, 3.0)">0</text><text xml:space="preserve" font-family="Helvetica-Light" font-size="8.0" fill="#000000" transform="matrix(1.00, 0.00, -0.00, -1.00, 780.4, 3.0)">2</text><text xml:space="preserve" font-family="Helvetica-Light" font-size="8.0" fill="#000000" transform="matrix(1.00, 0.00, -0.00, -1.00, 784.9, 3.0)">.</text></g></svg>