<?xml version="1.0" encoding="UTF-8" standalone="no"?><svg xmlns="http://www.w3.org/2000/svg" xmlns:xlink="http://www.w3.org/1999/xlink" clip-rule="evenodd" stroke-miterlimit="4.00" viewBox="0 0 881 11"><desc>SVG generated by Keynote</desc><defs></defs><g transform="matrix(1.00, 0.00, -0.00, -1.00, 0.0, 11.0)"><text xml:space="preserve" font-family="Helvetica-Light" font-size="8.0" fill="#000000" transform="matrix(1.00, 0.00, -0.00, -1.00, 2.0, 4.0)">C</text><text xml:space="preserve" font-family="Helvetica-Light" font-size="8.0" fill="#000000" transform="matrix(1.00, 0.00, -0.00, -1.00, 7.8, 4.0)">h</text><text xml:space="preserve" font-family="Helvetica-Light" font-size="8.0" fill="#000000" transform="matrix(1.00, 0.00, -0.00, -1.00, 12.2, 4.0)">a</text><text xml:space="preserve" font-family="Helvetica-Light" font-size="8.0" fill="#000000" transform="matrix(1.00, 0.00, -0.00, -1.00, 16.7, 4.0)">n</text><text xml:space="preserve" font-family="Helvetica-Light" font-size="8.0" fill="#000000" transform="matrix(1.00, 0.00, -0.00, -1.00, 21.1, 4.0)">g</text><text xml:space="preserve" font-family="Helvetica-Light" font-size="8.0" fill="#000000" transform="matrix(1.00, 0.00, -0.00, -1.00, 26.0, 4.0)">,</text><text xml:space="preserve" font-family="Helvetica-Light" font-size="8.0" fill="#000000" transform="matrix(1.00, 0.00, -0.00, -1.00, 28.2, 4.0)"> </text><text xml:space="preserve" font-family="Helvetica-Light" font-size="8.0" fill="#000000" transform="matrix(1.00, 0.00, -0.00, -1.00, 30.5, 4.0)">A</text><text xml:space="preserve" font-family="Helvetica-Light" font-size="8.0" fill="#000000" transform="matrix(1.00, 0.00, -0.00, -1.00, 35.8, 4.0)">.</text><text xml:space="preserve" font-family="Helvetica-Light" font-size="8.0" fill="#000000" transform="matrix(1.00, 0.00, -0.00, -1.00, 38.0, 4.0)">-</text><text xml:space="preserve" font-family="Helvetica-Light" font-size="8.0" fill="#000000" transform="matrix(1.00, 0.00, -0.00, -1.00, 40.7, 4.0)">M</text><text xml:space="preserve" font-family="Helvetica-Light" font-size="8.0" fill="#000000" transform="matrix(1.00, 0.00, -0.00, -1.00, 47.3, 4.0)">.</text><text xml:space="preserve" font-family="Helvetica-Light" font-size="8.0" fill="#000000" transform="matrix(1.00, 0.00, -0.00, -1.00, 49.6, 4.0)">,</text><text xml:space="preserve" font-family="Helvetica-Light" font-size="8.0" fill="#000000" transform="matrix(1.00, 0.00, -0.00, -1.00, 51.8, 4.0)"> </text><text xml:space="preserve" font-family="Helvetica-Light" font-size="8.0" fill="#000000" transform="matrix(1.00, 0.00, -0.00, -1.00, 54.0, 4.0)">A</text><text xml:space="preserve" font-family="Helvetica-Light" font-size="8.0" fill="#000000" transform="matrix(1.00, 0.00, -0.00, -1.00, 59.4, 4.0)">e</text><text xml:space="preserve" font-family="Helvetica-Light" font-size="8.0" fill="#000000" transform="matrix(1.00, 0.00, -0.00, -1.00, 63.8, 4.0)">s</text><text xml:space="preserve" font-family="Helvetica-Light" font-size="8.0" fill="#000000" transform="matrix(1.00, 0.00, -0.00, -1.00, 67.8, 4.0)">c</text><text xml:space="preserve" font-family="Helvetica-Light" font-size="8.0" fill="#000000" transform="matrix(1.00, 0.00, -0.00, -1.00, 72.2, 4.0)">h</text><text xml:space="preserve" font-family="Helvetica-Light" font-size="8.0" fill="#000000" transform="matrix(1.00, 0.00, -0.00, -1.00, 76.7, 4.0)">b</text><text xml:space="preserve" font-family="Helvetica-Light" font-size="8.0" fill="#000000" transform="matrix(1.00, 0.00, -0.00, -1.00, 81.6, 4.0)">a</text><text xml:space="preserve" font-family="Helvetica-Light" font-size="8.0" fill="#000000" transform="matrix(1.00, 0.00, -0.00, -1.00, 86.0, 4.0)">c</text><text xml:space="preserve" font-family="Helvetica-Light" font-size="8.0" fill="#000000" transform="matrix(1.00, 0.00, -0.00, -1.00, 90.5, 4.0)">h</text><text xml:space="preserve" font-family="Helvetica-Light" font-size="8.0" fill="#000000" transform="matrix(1.00, 0.00, -0.00, -1.00, 94.9, 4.0)">,</text><text xml:space="preserve" font-family="Helvetica-Light" font-size="8.0" fill="#000000" transform="matrix(1.00, 0.00, -0.00, -1.00, 97.2, 4.0)"> </text><text xml:space="preserve" font-family="Helvetica-Light" font-size="8.0" fill="#000000" transform="matrix(1.00, 0.00, -0.00, -1.00, 99.4, 4.0)">D</text><text xml:space="preserve" font-family="Helvetica-Light" font-size="8.0" fill="#000000" transform="matrix(1.00, 0.00, -0.00, -1.00, 105.2, 4.0)">.</text><text xml:space="preserve" font-family="Helvetica-Light" font-size="8.0" fill="#000000" transform="matrix(1.00, 0.00, -0.00, -1.00, 107.4, 4.0)">,</text><text xml:space="preserve" font-family="Helvetica-Light" font-size="8.0" fill="#000000" transform="matrix(1.00, 0.00, -0.00, -1.00, 109.6, 4.0)"> </text><text xml:space="preserve" font-family="Helvetica-Light" font-size="8.0" fill="#000000" transform="matrix(1.00, 0.00, -0.00, -1.00, 111.8, 4.0)">D</text><text xml:space="preserve" font-family="Helvetica-Light" font-size="8.0" fill="#000000" transform="matrix(1.00, 0.00, -0.00, -1.00, 117.6, 4.0)">u</text><text xml:space="preserve" font-family="Helvetica-Light" font-size="8.0" fill="#000000" transform="matrix(1.00, 0.00, -0.00, -1.00, 122.0, 4.0)">f</text><text xml:space="preserve" font-family="Helvetica-Light" font-size="8.0" fill="#000000" transform="matrix(1.00, 0.00, -0.00, -1.00, 124.1, 4.0)">f</text><text xml:space="preserve" font-family="Helvetica-Light" font-size="8.0" fill="#000000" transform="matrix(1.00, 0.00, -0.00, -1.00, 126.4, 4.0)">y</text><text xml:space="preserve" font-family="Helvetica-Light" font-size="8.0" fill="#000000" transform="matrix(1.00, 0.00, -0.00, -1.00, 129.6, 4.0)">,</text><text xml:space="preserve" font-family="Helvetica-Light" font-size="8.0" fill="#000000" transform="matrix(1.00, 0.00, -0.00, -1.00, 131.8, 4.0)"> </text><text xml:space="preserve" font-family="Helvetica-Light" font-size="8.0" fill="#000000" transform="matrix(1.00, 0.00, -0.00, -1.00, 134.1, 4.0)">J</text><text xml:space="preserve" font-family="Helvetica-Light" font-size="8.0" fill="#000000" transform="matrix(1.00, 0.00, -0.00, -1.00, 138.1, 4.0)">.</text><text xml:space="preserve" font-family="Helvetica-Light" font-size="8.0" fill="#000000" transform="matrix(1.00, 0.00, -0.00, -1.00, 140.3, 4.0)"> </text><text xml:space="preserve" font-family="Helvetica-Light" font-size="8.0" fill="#000000" transform="matrix(1.00, 0.00, -0.00, -1.00, 142.5, 4.0)">F</text><text xml:space="preserve" font-family="Helvetica-Light" font-size="8.0" fill="#000000" transform="matrix(1.00, 0.00, -0.00, -1.00, 145.9, 4.0)">.</text><text xml:space="preserve" font-family="Helvetica-Light" font-size="8.0" fill="#000000" transform="matrix(1.00, 0.00, -0.00, -1.00, 148.2, 4.0)">,</text><text xml:space="preserve" font-family="Helvetica-Light" font-size="8.0" fill="#000000" transform="matrix(1.00, 0.00, -0.00, -1.00, 150.4, 4.0)"> </text><text xml:space="preserve" font-family="Helvetica-Light" font-size="8.0" fill="#000000" transform="matrix(1.00, 0.00, -0.00, -1.00, 152.6, 4.0)">a</text><text xml:space="preserve" font-family="Helvetica-Light" font-size="8.0" fill="#000000" transform="matrix(1.00, 0.00, -0.00, -1.00, 157.0, 4.0)">n</text><text xml:space="preserve" font-family="Helvetica-Light" font-size="8.0" fill="#000000" transform="matrix(1.00, 0.00, -0.00, -1.00, 161.5, 4.0)">d</text><text xml:space="preserve" font-family="Helvetica-Light" font-size="8.0" fill="#000000" transform="matrix(1.00, 0.00, -0.00, -1.00, 166.4, 4.0)"> </text><text xml:space="preserve" font-family="Helvetica-Light" font-size="8.0" fill="#000000" transform="matrix(1.00, 0.00, -0.00, -1.00, 168.6, 4.0)">C</text><text xml:space="preserve" font-family="Helvetica-Light" font-size="8.0" fill="#000000" transform="matrix(1.00, 0.00, -0.00, -1.00, 174.4, 4.0)">z</text><text xml:space="preserve" font-family="Helvetica-Light" font-size="8.0" fill="#000000" transform="matrix(1.00, 0.00, -0.00, -1.00, 178.4, 4.0)">e</text><text xml:space="preserve" font-family="Helvetica-Light" font-size="8.0" fill="#000000" transform="matrix(1.00, 0.00, -0.00, -1.00, 182.8, 4.0)">i</text><text xml:space="preserve" font-family="Helvetica-Light" font-size="8.0" fill="#000000" transform="matrix(1.00, 0.00, -0.00, -1.00, 184.6, 4.0)">s</text><text xml:space="preserve" font-family="Helvetica-Light" font-size="8.0" fill="#000000" transform="matrix(1.00, 0.00, -0.00, -1.00, 188.6, 4.0)">l</text><text xml:space="preserve" font-family="Helvetica-Light" font-size="8.0" fill="#000000" transform="matrix(1.00, 0.00, -0.00, -1.00, 190.4, 4.0)">e</text><text xml:space="preserve" font-family="Helvetica-Light" font-size="8.0" fill="#000000" transform="matrix(1.00, 0.00, -0.00, -1.00, 194.8, 4.0)">r</text><text xml:space="preserve" font-family="Helvetica-Light" font-size="8.0" fill="#000000" transform="matrix(1.00, 0.00, -0.00, -1.00, 196.8, 4.0)">,</text><text xml:space="preserve" font-family="Helvetica-Light" font-size="8.0" fill="#000000" transform="matrix(1.00, 0.00, -0.00, -1.00, 199.0, 4.0)"> </text><text xml:space="preserve" font-family="Helvetica-Light" font-size="8.0" fill="#000000" transform="matrix(1.00, 0.00, -0.00, -1.00, 201.2, 4.0)">C</text><text xml:space="preserve" font-family="Helvetica-Light" font-size="8.0" fill="#000000" transform="matrix(1.00, 0.00, -0.00, -1.00, 207.0, 4.0)">.</text><text xml:space="preserve" font-family="Helvetica-Light" font-size="8.0" fill="#000000" transform="matrix(1.00, 0.00, -0.00, -1.00, 209.2, 4.0)"> </text><text xml:space="preserve" font-family="Helvetica-Light" font-size="8.0" fill="#000000" transform="matrix(1.00, 0.00, -0.00, -1.00, 211.4, 4.0)">A</text><text xml:space="preserve" font-family="Helvetica-Light" font-size="8.0" fill="#000000" transform="matrix(1.00, 0.00, -0.00, -1.00, 216.8, 4.0)">.</text><text xml:space="preserve" font-family="Helvetica-Light" font-size="8.0" fill="#000000" transform="matrix(1.00, 0.00, -0.00, -1.00, 219.0, 4.0)"> </text><text xml:space="preserve" font-family="Helvetica-Light" font-size="8.0" fill="#000000" transform="matrix(1.00, 0.00, -0.00, -1.00, 221.2, 4.0)">(</text><text xml:space="preserve" font-family="Helvetica-Light" font-size="8.0" fill="#000000" transform="matrix(1.00, 0.00, -0.00, -1.00, 223.9, 4.0)">2</text><text xml:space="preserve" font-family="Helvetica-Light" font-size="8.0" fill="#000000" transform="matrix(1.00, 0.00, -0.00, -1.00, 228.3, 4.0)">0</text><text xml:space="preserve" font-family="Helvetica-Light" font-size="8.0" fill="#000000" transform="matrix(1.00, 0.00, -0.00, -1.00, 232.8, 4.0)">1</text><text xml:space="preserve" font-family="Helvetica-Light" font-size="8.0" fill="#000000" transform="matrix(1.00, 0.00, -0.00, -1.00, 237.2, 4.0)">5</text><text xml:space="preserve" font-family="Helvetica-Light" font-size="8.0" fill="#000000" transform="matrix(1.00, 0.00, -0.00, -1.00, 241.7, 4.0)">)</text><text xml:space="preserve" font-family="Helvetica-Light" font-size="8.0" fill="#000000" transform="matrix(1.00, 0.00, -0.00, -1.00, 244.3, 4.0)"> </text><text xml:space="preserve" font-family="Helvetica-Light" font-size="8.0" fill="#000000" transform="matrix(1.00, 0.00, -0.00, -1.00, 246.6, 4.0)">E</text><text xml:space="preserve" font-family="Helvetica-Light" font-size="8.0" fill="#000000" transform="matrix(1.00, 0.00, -0.00, -1.00, 251.4, 4.0)">v</text><text xml:space="preserve" font-family="Helvetica-Light" font-size="8.0" fill="#000000" transform="matrix(1.00, 0.00, -0.00, -1.00, 255.4, 4.0)">e</text><text xml:space="preserve" font-family="Helvetica-Light" font-size="8.0" fill="#000000" transform="matrix(1.00, 0.00, -0.00, -1.00, 259.9, 4.0)">n</text><text xml:space="preserve" font-family="Helvetica-Light" font-size="8.0" fill="#000000" transform="matrix(1.00, 0.00, -0.00, -1.00, 264.3, 4.0)">i</text><text xml:space="preserve" font-family="Helvetica-Light" font-size="8.0" fill="#000000" transform="matrix(1.00, 0.00, -0.00, -1.00, 266.1, 4.0)">n</text><text xml:space="preserve" font-family="Helvetica-Light" font-size="8.0" fill="#000000" transform="matrix(1.00, 0.00, -0.00, -1.00, 270.6, 4.0)">g</text><text xml:space="preserve" font-family="Helvetica-Light" font-size="8.0" fill="#000000" transform="matrix(1.00, 0.00, -0.00, -1.00, 275.5, 4.0)"> </text><text xml:space="preserve" font-family="Helvetica-Light" font-size="8.0" fill="#000000" transform="matrix(1.00, 0.00, -0.00, -1.00, 277.7, 4.0)">u</text><text xml:space="preserve" font-family="Helvetica-Light" font-size="8.0" fill="#000000" transform="matrix(1.00, 0.00, -0.00, -1.00, 282.1, 4.0)">s</text><text xml:space="preserve" font-family="Helvetica-Light" font-size="8.0" fill="#000000" transform="matrix(1.00, 0.00, -0.00, -1.00, 286.1, 4.0)">e</text><text xml:space="preserve" font-family="Helvetica-Light" font-size="8.0" fill="#000000" transform="matrix(1.00, 0.00, -0.00, -1.00, 290.6, 4.0)"> </text><text xml:space="preserve" font-family="Helvetica-Light" font-size="8.0" fill="#000000" transform="matrix(1.00, 0.00, -0.00, -1.00, 292.8, 4.0)">o</text><text xml:space="preserve" font-family="Helvetica-Light" font-size="8.0" fill="#000000" transform="matrix(1.00, 0.00, -0.00, -1.00, 297.2, 4.0)">f</text><text xml:space="preserve" font-family="Helvetica-Light" font-size="8.0" fill="#000000" transform="matrix(1.00, 0.00, -0.00, -1.00, 299.5, 4.0)"> </text><text xml:space="preserve" font-family="Helvetica-Light" font-size="8.0" fill="#000000" transform="matrix(1.00, 0.00, -0.00, -1.00, 301.7, 4.0)">l</text><text xml:space="preserve" font-family="Helvetica-Light" font-size="8.0" fill="#000000" transform="matrix(1.00, 0.00, -0.00, -1.00, 303.5, 4.0)">i</text><text xml:space="preserve" font-family="Helvetica-Light" font-size="8.0" fill="#000000" transform="matrix(1.00, 0.00, -0.00, -1.00, 305.2, 4.0)">g</text><text xml:space="preserve" font-family="Helvetica-Light" font-size="8.0" fill="#000000" transform="matrix(1.00, 0.00, -0.00, -1.00, 310.1, 4.0)">h</text><text xml:space="preserve" font-family="Helvetica-Light" font-size="8.0" fill="#000000" transform="matrix(1.00, 0.00, -0.00, -1.00, 314.6, 4.0)">t</text><text xml:space="preserve" font-family="Helvetica-Light" font-size="8.0" fill="#000000" transform="matrix(1.00, 0.00, -0.00, -1.00, 316.8, 4.0)">-</text><text xml:space="preserve" font-family="Helvetica-Light" font-size="8.0" fill="#000000" transform="matrix(1.00, 0.00, -0.00, -1.00, 319.5, 4.0)">e</text><text xml:space="preserve" font-family="Helvetica-Light" font-size="8.0" fill="#000000" transform="matrix(1.00, 0.00, -0.00, -1.00, 323.9, 4.0)">m</text><text xml:space="preserve" font-family="Helvetica-Light" font-size="8.0" fill="#000000" transform="matrix(1.00, 0.00, -0.00, -1.00, 330.6, 4.0)">i</text><text xml:space="preserve" font-family="Helvetica-Light" font-size="8.0" fill="#000000" transform="matrix(1.00, 0.00, -0.00, -1.00, 332.4, 4.0)">t</text><text xml:space="preserve" font-family="Helvetica-Light" font-size="8.0" fill="#000000" transform="matrix(1.00, 0.00, -0.00, -1.00, 334.6, 4.0)">t</text><text xml:space="preserve" font-family="Helvetica-Light" font-size="8.0" fill="#000000" transform="matrix(1.00, 0.00, -0.00, -1.00, 336.8, 4.0)">i</text><text xml:space="preserve" font-family="Helvetica-Light" font-size="8.0" fill="#000000" transform="matrix(1.00, 0.00, -0.00, -1.00, 338.6, 4.0)">n</text><text xml:space="preserve" font-family="Helvetica-Light" font-size="8.0" fill="#000000" transform="matrix(1.00, 0.00, -0.00, -1.00, 343.0, 4.0)">g</text><text xml:space="preserve" font-family="Helvetica-Light" font-size="8.0" fill="#000000" transform="matrix(1.00, 0.00, -0.00, -1.00, 347.9, 4.0)"> </text><text xml:space="preserve" font-family="Helvetica-Light" font-size="8.0" fill="#000000" transform="matrix(1.00, 0.00, -0.00, -1.00, 350.1, 4.0)">e</text><text xml:space="preserve" font-family="Helvetica-Light" font-size="8.0" fill="#000000" transform="matrix(1.00, 0.00, -0.00, -1.00, 354.6, 4.0)">R</text><text xml:space="preserve" font-family="Helvetica-Light" font-size="8.0" fill="#000000" transform="matrix(1.00, 0.00, -0.00, -1.00, 359.9, 4.0)">e</text><text xml:space="preserve" font-family="Helvetica-Light" font-size="8.0" fill="#000000" transform="matrix(1.00, 0.00, -0.00, -1.00, 364.4, 4.0)">a</text><text xml:space="preserve" font-family="Helvetica-Light" font-size="8.0" fill="#000000" transform="matrix(1.00, 0.00, -0.00, -1.00, 368.8, 4.0)">d</text><text xml:space="preserve" font-family="Helvetica-Light" font-size="8.0" fill="#000000" transform="matrix(1.00, 0.00, -0.00, -1.00, 373.7, 4.0)">e</text><text xml:space="preserve" font-family="Helvetica-Light" font-size="8.0" fill="#000000" transform="matrix(1.00, 0.00, -0.00, -1.00, 378.2, 4.0)">r</text><text xml:space="preserve" font-family="Helvetica-Light" font-size="8.0" fill="#000000" transform="matrix(1.00, 0.00, -0.00, -1.00, 380.8, 4.0)">s</text><text xml:space="preserve" font-family="Helvetica-Light" font-size="8.0" fill="#000000" transform="matrix(1.00, 0.00, -0.00, -1.00, 384.8, 4.0)"> </text><text xml:space="preserve" font-family="Helvetica-Light" font-size="8.0" fill="#000000" transform="matrix(1.00, 0.00, -0.00, -1.00, 387.0, 4.0)">n</text><text xml:space="preserve" font-family="Helvetica-Light" font-size="8.0" fill="#000000" transform="matrix(1.00, 0.00, -0.00, -1.00, 391.5, 4.0)">e</text><text xml:space="preserve" font-family="Helvetica-Light" font-size="8.0" fill="#000000" transform="matrix(1.00, 0.00, -0.00, -1.00, 395.9, 4.0)">g</text><text xml:space="preserve" font-family="Helvetica-Light" font-size="8.0" fill="#000000" transform="matrix(1.00, 0.00, -0.00, -1.00, 400.8, 4.0)">a</text><text xml:space="preserve" font-family="Helvetica-Light" font-size="8.0" fill="#000000" transform="matrix(1.00, 0.00, -0.00, -1.00, 405.3, 4.0)">t</text><text xml:space="preserve" font-family="Helvetica-Light" font-size="8.0" fill="#000000" transform="matrix(1.00, 0.00, -0.00, -1.00, 407.5, 4.0)">i</text><text xml:space="preserve" font-family="Helvetica-Light" font-size="8.0" fill="#000000" transform="matrix(1.00, 0.00, -0.00, -1.00, 409.3, 4.0)">v</text><text xml:space="preserve" font-family="Helvetica-Light" font-size="8.0" fill="#000000" transform="matrix(1.00, 0.00, -0.00, -1.00, 413.3, 4.0)">e</text><text xml:space="preserve" font-family="Helvetica-Light" font-size="8.0" fill="#000000" transform="matrix(1.00, 0.00, -0.00, -1.00, 417.7, 4.0)">l</text><text xml:space="preserve" font-family="Helvetica-Light" font-size="8.0" fill="#000000" transform="matrix(1.00, 0.00, -0.00, -1.00, 419.5, 4.0)">y</text><text xml:space="preserve" font-family="Helvetica-Light" font-size="8.0" fill="#000000" transform="matrix(1.00, 0.00, -0.00, -1.00, 423.5, 4.0)"> </text><text xml:space="preserve" font-family="Helvetica-Light" font-size="8.0" fill="#000000" transform="matrix(1.00, 0.00, -0.00, -1.00, 425.7, 4.0)">a</text><text xml:space="preserve" font-family="Helvetica-Light" font-size="8.0" fill="#000000" transform="matrix(1.00, 0.00, -0.00, -1.00, 430.2, 4.0)">f</text><text xml:space="preserve" font-family="Helvetica-Light" font-size="8.0" fill="#000000" transform="matrix(1.00, 0.00, -0.00, -1.00, 432.3, 4.0)">f</text><text xml:space="preserve" font-family="Helvetica-Light" font-size="8.0" fill="#000000" transform="matrix(1.00, 0.00, -0.00, -1.00, 434.5, 4.0)">e</text><text xml:space="preserve" font-family="Helvetica-Light" font-size="8.0" fill="#000000" transform="matrix(1.00, 0.00, -0.00, -1.00, 438.9, 4.0)">c</text><text xml:space="preserve" font-family="Helvetica-Light" font-size="8.0" fill="#000000" transform="matrix(1.00, 0.00, -0.00, -1.00, 443.4, 4.0)">t</text><text xml:space="preserve" font-family="Helvetica-Light" font-size="8.0" fill="#000000" transform="matrix(1.00, 0.00, -0.00, -1.00, 445.6, 4.0)">s</text><text xml:space="preserve" font-family="Helvetica-Light" font-size="8.0" fill="#000000" transform="matrix(1.00, 0.00, -0.00, -1.00, 449.6, 4.0)"> </text><text xml:space="preserve" font-family="Helvetica-Light" font-size="8.0" fill="#000000" transform="matrix(1.00, 0.00, -0.00, -1.00, 451.8, 4.0)">s</text><text xml:space="preserve" font-family="Helvetica-Light" font-size="8.0" fill="#000000" transform="matrix(1.00, 0.00, -0.00, -1.00, 455.8, 4.0)">l</text><text xml:space="preserve" font-family="Helvetica-Light" font-size="8.0" fill="#000000" transform="matrix(1.00, 0.00, -0.00, -1.00, 457.6, 4.0)">e</text><text xml:space="preserve" font-family="Helvetica-Light" font-size="8.0" fill="#000000" transform="matrix(1.00, 0.00, -0.00, -1.00, 462.0, 4.0)">e</text><text xml:space="preserve" font-family="Helvetica-Light" font-size="8.0" fill="#000000" transform="matrix(1.00, 0.00, -0.00, -1.00, 466.5, 4.0)">p</text><text xml:space="preserve" font-family="Helvetica-Light" font-size="8.0" fill="#000000" transform="matrix(1.00, 0.00, -0.00, -1.00, 471.4, 4.0)">,</text><text xml:space="preserve" font-family="Helvetica-Light" font-size="8.0" fill="#000000" transform="matrix(1.00, 0.00, -0.00, -1.00, 473.6, 4.0)"> </text><text xml:space="preserve" font-family="Helvetica-Light" font-size="8.0" fill="#000000" transform="matrix(1.00, 0.00, -0.00, -1.00, 475.8, 4.0)">c</text><text xml:space="preserve" font-family="Helvetica-Light" font-size="8.0" fill="#000000" transform="matrix(1.00, 0.00, -0.00, -1.00, 480.3, 4.0)">i</text><text xml:space="preserve" font-family="Helvetica-Light" font-size="8.0" fill="#000000" transform="matrix(1.00, 0.00, -0.00, -1.00, 482.1, 4.0)">r</text><text xml:space="preserve" font-family="Helvetica-Light" font-size="8.0" fill="#000000" transform="matrix(1.00, 0.00, -0.00, -1.00, 484.6, 4.0)">c</text><text xml:space="preserve" font-family="Helvetica-Light" font-size="8.0" fill="#000000" transform="matrix(1.00, 0.00, -0.00, -1.00, 489.0, 4.0)">a</text><text xml:space="preserve" font-family="Helvetica-Light" font-size="8.0" fill="#000000" transform="matrix(1.00, 0.00, -0.00, -1.00, 493.5, 4.0)">d</text><text xml:space="preserve" font-family="Helvetica-Light" font-size="8.0" fill="#000000" transform="matrix(1.00, 0.00, -0.00, -1.00, 498.4, 4.0)">i</text><text xml:space="preserve" font-family="Helvetica-Light" font-size="8.0" fill="#000000" transform="matrix(1.00, 0.00, -0.00, -1.00, 500.1, 4.0)">a</text><text xml:space="preserve" font-family="Helvetica-Light" font-size="8.0" fill="#000000" transform="matrix(1.00, 0.00, -0.00, -1.00, 504.6, 4.0)">n</text><text xml:space="preserve" font-family="Helvetica-Light" font-size="8.0" fill="#000000" transform="matrix(1.00, 0.00, -0.00, -1.00, 509.0, 4.0)"> </text><text xml:space="preserve" font-family="Helvetica-Light" font-size="8.0" fill="#000000" transform="matrix(1.00, 0.00, -0.00, -1.00, 511.3, 4.0)">t</text><text xml:space="preserve" font-family="Helvetica-Light" font-size="8.0" fill="#000000" transform="matrix(1.00, 0.00, -0.00, -1.00, 513.5, 4.0)">i</text><text xml:space="preserve" font-family="Helvetica-Light" font-size="8.0" fill="#000000" transform="matrix(1.00, 0.00, -0.00, -1.00, 515.3, 4.0)">m</text><text xml:space="preserve" font-family="Helvetica-Light" font-size="8.0" fill="#000000" transform="matrix(1.00, 0.00, -0.00, -1.00, 521.9, 4.0)">i</text><text xml:space="preserve" font-family="Helvetica-Light" font-size="8.0" fill="#000000" transform="matrix(1.00, 0.00, -0.00, -1.00, 523.7, 4.0)">n</text><text xml:space="preserve" font-family="Helvetica-Light" font-size="8.0" fill="#000000" transform="matrix(1.00, 0.00, -0.00, -1.00, 528.1, 4.0)">g</text><text xml:space="preserve" font-family="Helvetica-Light" font-size="8.0" fill="#000000" transform="matrix(1.00, 0.00, -0.00, -1.00, 533.0, 4.0)">,</text><text xml:space="preserve" font-family="Helvetica-Light" font-size="8.0" fill="#000000" transform="matrix(1.00, 0.00, -0.00, -1.00, 535.3, 4.0)"> </text><text xml:space="preserve" font-family="Helvetica-Light" font-size="8.0" fill="#000000" transform="matrix(1.00, 0.00, -0.00, -1.00, 537.5, 4.0)">a</text><text xml:space="preserve" font-family="Helvetica-Light" font-size="8.0" fill="#000000" transform="matrix(1.00, 0.00, -0.00, -1.00, 541.9, 4.0)">n</text><text xml:space="preserve" font-family="Helvetica-Light" font-size="8.0" fill="#000000" transform="matrix(1.00, 0.00, -0.00, -1.00, 546.4, 4.0)">d</text><text xml:space="preserve" font-family="Helvetica-Light" font-size="8.0" fill="#000000" transform="matrix(1.00, 0.00, -0.00, -1.00, 551.3, 4.0)"> </text><text xml:space="preserve" font-family="Helvetica-Light" font-size="8.0" fill="#000000" transform="matrix(1.00, 0.00, -0.00, -1.00, 553.5, 4.0)">n</text><text xml:space="preserve" font-family="Helvetica-Light" font-size="8.0" fill="#000000" transform="matrix(1.00, 0.00, -0.00, -1.00, 557.9, 4.0)">e</text><text xml:space="preserve" font-family="Helvetica-Light" font-size="8.0" fill="#000000" transform="matrix(1.00, 0.00, -0.00, -1.00, 562.4, 4.0)">x</text><text xml:space="preserve" font-family="Helvetica-Light" font-size="8.0" fill="#000000" transform="matrix(1.00, 0.00, -0.00, -1.00, 566.4, 4.0)">t</text><text xml:space="preserve" font-family="Helvetica-Light" font-size="8.0" fill="#000000" transform="matrix(1.00, 0.00, -0.00, -1.00, 568.6, 4.0)">-</text><text xml:space="preserve" font-family="Helvetica-Light" font-size="8.0" fill="#000000" transform="matrix(1.00, 0.00, -0.00, -1.00, 571.3, 4.0)">m</text><text xml:space="preserve" font-family="Helvetica-Light" font-size="8.0" fill="#000000" transform="matrix(1.00, 0.00, -0.00, -1.00, 577.9, 4.0)">o</text><text xml:space="preserve" font-family="Helvetica-Light" font-size="8.0" fill="#000000" transform="matrix(1.00, 0.00, -0.00, -1.00, 582.4, 4.0)">r</text><text xml:space="preserve" font-family="Helvetica-Light" font-size="8.0" fill="#000000" transform="matrix(1.00, 0.00, -0.00, -1.00, 585.2, 4.0)">n</text><text xml:space="preserve" font-family="Helvetica-Light" font-size="8.0" fill="#000000" transform="matrix(1.00, 0.00, -0.00, -1.00, 589.6, 4.0)">i</text><text xml:space="preserve" font-family="Helvetica-Light" font-size="8.0" fill="#000000" transform="matrix(1.00, 0.00, -0.00, -1.00, 591.4, 4.0)">n</text><text xml:space="preserve" font-family="Helvetica-Light" font-size="8.0" fill="#000000" transform="matrix(1.00, 0.00, -0.00, -1.00, 595.9, 4.0)">g</text><text xml:space="preserve" font-family="Helvetica-Light" font-size="8.0" fill="#000000" transform="matrix(1.00, 0.00, -0.00, -1.00, 600.8, 4.0)"> </text><text xml:space="preserve" font-family="Helvetica-Light" font-size="8.0" fill="#000000" transform="matrix(1.00, 0.00, -0.00, -1.00, 603.0, 4.0)">a</text><text xml:space="preserve" font-family="Helvetica-Light" font-size="8.0" fill="#000000" transform="matrix(1.00, 0.00, -0.00, -1.00, 607.4, 4.0)">l</text><text xml:space="preserve" font-family="Helvetica-Light" font-size="8.0" fill="#000000" transform="matrix(1.00, 0.00, -0.00, -1.00, 609.2, 4.0)">e</text><text xml:space="preserve" font-family="Helvetica-Light" font-size="8.0" fill="#000000" transform="matrix(1.00, 0.00, -0.00, -1.00, 613.6, 4.0)">r</text><text xml:space="preserve" font-family="Helvetica-Light" font-size="8.0" fill="#000000" transform="matrix(1.00, 0.00, -0.00, -1.00, 616.5, 4.0)">t</text><text xml:space="preserve" font-family="Helvetica-Light" font-size="8.0" fill="#000000" transform="matrix(1.00, 0.00, -0.00, -1.00, 618.7, 4.0)">n</text><text xml:space="preserve" font-family="Helvetica-Light" font-size="8.0" fill="#000000" transform="matrix(1.00, 0.00, -0.00, -1.00, 623.1, 4.0)">e</text><text xml:space="preserve" font-family="Helvetica-Light" font-size="8.0" fill="#000000" transform="matrix(1.00, 0.00, -0.00, -1.00, 627.6, 4.0)">s</text><text xml:space="preserve" font-family="Helvetica-Light" font-size="8.0" fill="#000000" transform="matrix(1.00, 0.00, -0.00, -1.00, 631.6, 4.0)">s</text><text xml:space="preserve" font-family="Helvetica-Light" font-size="8.0" fill="#000000" transform="matrix(1.00, 0.00, -0.00, -1.00, 635.6, 4.0)">,</text><text xml:space="preserve" font-family="Helvetica-Light" font-size="8.0" fill="#000000" transform="matrix(1.00, 0.00, -0.00, -1.00, 637.8, 4.0)"> </text><text xml:space="preserve" font-family="Helvetica-Light" font-size="8.0" fill="#000000" transform="matrix(1.00, 0.00, -0.00, -1.00, 640.0, 4.0)">P</text><text xml:space="preserve" font-family="Helvetica-Light" font-size="8.0" fill="#000000" transform="matrix(1.00, 0.00, -0.00, -1.00, 644.9, 4.0)">r</text><text xml:space="preserve" font-family="Helvetica-Light" font-size="8.0" fill="#000000" transform="matrix(1.00, 0.00, -0.00, -1.00, 647.4, 4.0)">o</text><text xml:space="preserve" font-family="Helvetica-Light" font-size="8.0" fill="#000000" transform="matrix(1.00, 0.00, -0.00, -1.00, 651.9, 4.0)">c</text><text xml:space="preserve" font-family="Helvetica-Light" font-size="8.0" fill="#000000" transform="matrix(1.00, 0.00, -0.00, -1.00, 656.3, 4.0)">e</text><text xml:space="preserve" font-family="Helvetica-Light" font-size="8.0" fill="#000000" transform="matrix(1.00, 0.00, -0.00, -1.00, 660.8, 4.0)">e</text><text xml:space="preserve" font-family="Helvetica-Light" font-size="8.0" fill="#000000" transform="matrix(1.00, 0.00, -0.00, -1.00, 665.2, 4.0)">d</text><text xml:space="preserve" font-family="Helvetica-Light" font-size="8.0" fill="#000000" transform="matrix(1.00, 0.00, -0.00, -1.00, 670.1, 4.0)">i</text><text xml:space="preserve" font-family="Helvetica-Light" font-size="8.0" fill="#000000" transform="matrix(1.00, 0.00, -0.00, -1.00, 671.9, 4.0)">n</text><text xml:space="preserve" font-family="Helvetica-Light" font-size="8.0" fill="#000000" transform="matrix(1.00, 0.00, -0.00, -1.00, 676.3, 4.0)">g</text><text xml:space="preserve" font-family="Helvetica-Light" font-size="8.0" fill="#000000" transform="matrix(1.00, 0.00, -0.00, -1.00, 681.2, 4.0)">s</text><text xml:space="preserve" font-family="Helvetica-Light" font-size="8.0" fill="#000000" transform="matrix(1.00, 0.00, -0.00, -1.00, 685.2, 4.0)"> </text><text xml:space="preserve" font-family="Helvetica-Light" font-size="8.0" fill="#000000" transform="matrix(1.00, 0.00, -0.00, -1.00, 687.4, 4.0)">o</text><text xml:space="preserve" font-family="Helvetica-Light" font-size="8.0" fill="#000000" transform="matrix(1.00, 0.00, -0.00, -1.00, 691.9, 4.0)">f</text><text xml:space="preserve" font-family="Helvetica-Light" font-size="8.0" fill="#000000" transform="matrix(1.00, 0.00, -0.00, -1.00, 694.1, 4.0)"> </text><text xml:space="preserve" font-family="Helvetica-Light" font-size="8.0" fill="#000000" transform="matrix(1.00, 0.00, -0.00, -1.00, 696.3, 4.0)">t</text><text xml:space="preserve" font-family="Helvetica-Light" font-size="8.0" fill="#000000" transform="matrix(1.00, 0.00, -0.00, -1.00, 698.6, 4.0)">h</text><text xml:space="preserve" font-family="Helvetica-Light" font-size="8.0" fill="#000000" transform="matrix(1.00, 0.00, -0.00, -1.00, 703.0, 4.0)">e</text><text xml:space="preserve" font-family="Helvetica-Light" font-size="8.0" fill="#000000" transform="matrix(1.00, 0.00, -0.00, -1.00, 707.5, 4.0)"> </text><text xml:space="preserve" font-family="Helvetica-Light" font-size="8.0" fill="#000000" transform="matrix(1.00, 0.00, -0.00, -1.00, 709.7, 4.0)">N</text><text xml:space="preserve" font-family="Helvetica-Light" font-size="8.0" fill="#000000" transform="matrix(1.00, 0.00, -0.00, -1.00, 715.5, 4.0)">a</text><text xml:space="preserve" font-family="Helvetica-Light" font-size="8.0" fill="#000000" transform="matrix(1.00, 0.00, -0.00, -1.00, 719.9, 4.0)">t</text><text xml:space="preserve" font-family="Helvetica-Light" font-size="8.0" fill="#000000" transform="matrix(1.00, 0.00, -0.00, -1.00, 722.1, 4.0)">i</text><text xml:space="preserve" font-family="Helvetica-Light" font-size="8.0" fill="#000000" transform="matrix(1.00, 0.00, -0.00, -1.00, 723.9, 4.0)">o</text><text xml:space="preserve" font-family="Helvetica-Light" font-size="8.0" fill="#000000" transform="matrix(1.00, 0.00, -0.00, -1.00, 728.4, 4.0)">n</text><text xml:space="preserve" font-family="Helvetica-Light" font-size="8.0" fill="#000000" transform="matrix(1.00, 0.00, -0.00, -1.00, 732.8, 4.0)">a</text><text xml:space="preserve" font-family="Helvetica-Light" font-size="8.0" fill="#000000" transform="matrix(1.00, 0.00, -0.00, -1.00, 737.3, 4.0)">l</text><text xml:space="preserve" font-family="Helvetica-Light" font-size="8.0" fill="#000000" transform="matrix(1.00, 0.00, -0.00, -1.00, 739.0, 4.0)"> </text><text xml:space="preserve" font-family="Helvetica-Light" font-size="8.0" fill="#000000" transform="matrix(1.00, 0.00, -0.00, -1.00, 741.3, 4.0)">A</text><text xml:space="preserve" font-family="Helvetica-Light" font-size="8.0" fill="#000000" transform="matrix(1.00, 0.00, -0.00, -1.00, 746.6, 4.0)">c</text><text xml:space="preserve" font-family="Helvetica-Light" font-size="8.0" fill="#000000" transform="matrix(1.00, 0.00, -0.00, -1.00, 751.0, 4.0)">a</text><text xml:space="preserve" font-family="Helvetica-Light" font-size="8.0" fill="#000000" transform="matrix(1.00, 0.00, -0.00, -1.00, 755.5, 4.0)">d</text><text xml:space="preserve" font-family="Helvetica-Light" font-size="8.0" fill="#000000" transform="matrix(1.00, 0.00, -0.00, -1.00, 760.4, 4.0)">e</text><text xml:space="preserve" font-family="Helvetica-Light" font-size="8.0" fill="#000000" transform="matrix(1.00, 0.00, -0.00, -1.00, 764.8, 4.0)">m</text><text xml:space="preserve" font-family="Helvetica-Light" font-size="8.0" fill="#000000" transform="matrix(1.00, 0.00, -0.00, -1.00, 771.5, 4.0)">y</text><text xml:space="preserve" font-family="Helvetica-Light" font-size="8.0" fill="#000000" transform="matrix(1.00, 0.00, -0.00, -1.00, 775.5, 4.0)"> </text><text xml:space="preserve" font-family="Helvetica-Light" font-size="8.0" fill="#000000" transform="matrix(1.00, 0.00, -0.00, -1.00, 777.7, 4.0)">o</text><text xml:space="preserve" font-family="Helvetica-Light" font-size="8.0" fill="#000000" transform="matrix(1.00, 0.00, -0.00, -1.00, 782.2, 4.0)">f</text><text xml:space="preserve" font-family="Helvetica-Light" font-size="8.0" fill="#000000" transform="matrix(1.00, 0.00, -0.00, -1.00, 784.4, 4.0)"> </text><text xml:space="preserve" font-family="Helvetica-Light" font-size="8.0" fill="#000000" transform="matrix(1.00, 0.00, -0.00, -1.00, 786.6, 4.0)">S</text><text xml:space="preserve" font-family="Helvetica-Light" font-size="8.0" fill="#000000" transform="matrix(1.00, 0.00, -0.00, -1.00, 791.5, 4.0)">c</text><text xml:space="preserve" font-family="Helvetica-Light" font-size="8.0" fill="#000000" transform="matrix(1.00, 0.00, -0.00, -1.00, 795.9, 4.0)">i</text><text xml:space="preserve" font-family="Helvetica-Light" font-size="8.0" fill="#000000" transform="matrix(1.00, 0.00, -0.00, -1.00, 797.7, 4.0)">e</text><text xml:space="preserve" font-family="Helvetica-Light" font-size="8.0" fill="#000000" transform="matrix(1.00, 0.00, -0.00, -1.00, 802.2, 4.0)">n</text><text xml:space="preserve" font-family="Helvetica-Light" font-size="8.0" fill="#000000" transform="matrix(1.00, 0.00, -0.00, -1.00, 806.6, 4.0)">c</text><text xml:space="preserve" font-family="Helvetica-Light" font-size="8.0" fill="#000000" transform="matrix(1.00, 0.00, -0.00, -1.00, 811.1, 4.0)">e</text><text xml:space="preserve" font-family="Helvetica-Light" font-size="8.0" fill="#000000" transform="matrix(1.00, 0.00, -0.00, -1.00, 815.5, 4.0)">s</text><text xml:space="preserve" font-family="Helvetica-Light" font-size="8.0" fill="#000000" transform="matrix(1.00, 0.00, -0.00, -1.00, 819.5, 4.0)"> </text><text xml:space="preserve" font-family="Helvetica-Light" font-size="8.0" fill="#000000" transform="matrix(1.00, 0.00, -0.00, -1.00, 821.7, 4.0)">1</text><text xml:space="preserve" font-family="Helvetica-Light" font-size="8.0" fill="#000000" transform="matrix(1.00, 0.00, -0.00, -1.00, 826.2, 4.0)">1</text><text xml:space="preserve" font-family="Helvetica-Light" font-size="8.0" fill="#000000" transform="matrix(1.00, 0.00, -0.00, -1.00, 830.6, 4.0)">2</text><text xml:space="preserve" font-family="Helvetica-Light" font-size="8.0" fill="#000000" transform="matrix(1.00, 0.00, -0.00, -1.00, 835.1, 4.0)">,</text><text xml:space="preserve" font-family="Helvetica-Light" font-size="8.0" fill="#000000" transform="matrix(1.00, 0.00, -0.00, -1.00, 837.3, 4.0)"> </text><text xml:space="preserve" font-family="Helvetica-Light" font-size="8.0" fill="#000000" transform="matrix(1.00, 0.00, -0.00, -1.00, 839.5, 4.0)">1</text><text xml:space="preserve" font-family="Helvetica-Light" font-size="8.0" fill="#000000" transform="matrix(1.00, 0.00, -0.00, -1.00, 844.0, 4.0)">2</text><text xml:space="preserve" font-family="Helvetica-Light" font-size="8.0" fill="#000000" transform="matrix(1.00, 0.00, -0.00, -1.00, 848.4, 4.0)">3</text><text xml:space="preserve" font-family="Helvetica-Light" font-size="8.0" fill="#000000" transform="matrix(1.00, 0.00, -0.00, -1.00, 852.9, 4.0)">2</text><text xml:space="preserve" font-family="Helvetica-Light" font-size="8.0" fill="#000000" transform="matrix(1.00, 0.00, -0.00, -1.00, 857.3, 4.0)">-</text><text xml:space="preserve" font-family="Helvetica-Light" font-size="8.0" fill="#000000" transform="matrix(1.00, 0.00, -0.00, -1.00, 860.0, 4.0)">1</text><text xml:space="preserve" font-family="Helvetica-Light" font-size="8.0" fill="#000000" transform="matrix(1.00, 0.00, -0.00, -1.00, 864.4, 4.0)">2</text><text xml:space="preserve" font-family="Helvetica-Light" font-size="8.0" fill="#000000" transform="matrix(1.00, 0.00, -0.00, -1.00, 868.9, 4.0)">3</text><text xml:space="preserve" font-family="Helvetica-Light" font-size="8.0" fill="#000000" transform="matrix(1.00, 0.00, -0.00, -1.00, 873.3, 4.0)">7</text><text xml:space="preserve" font-family="Helvetica-Light" font-size="8.0" fill="#000000" transform="matrix(1.00, 0.00, -0.00, -1.00, 877.8, 4.0)">.</text></g></svg>