<?xml version="1.0" encoding="UTF-8"?><svg xmlns="http://www.w3.org/2000/svg" xmlns:xlink="http://www.w3.org/1999/xlink" clip-rule="evenodd" stroke-miterlimit="4.00" viewBox="0 0 296 39"><desc>SVG generated by Keynote</desc><defs></defs><g transform="matrix(1.00, 0.00, -0.00, -1.00, 0.0, 39.0)"><image xlink:href="../../BEF5154A-7D10-4758-94F3-9B0BF504E35A/assets/8031BC132AD45F67E5F193E246E66C87.png" width="19.00" height="18.00" transform="matrix(0.74, 0.00, -0.00, -0.72, 0.0, 27.0)"></image><text xml:space="preserve" font-family="Chalkduster" font-size="24.0" fill="#FEFFFE" transform="matrix(1.00, 0.00, -0.00, -1.00, 28.0, 15.0)">E</text><text xml:space="preserve" font-family="Chalkduster" font-size="24.0" fill="#FEFFFE" transform="matrix(1.00, 0.00, -0.00, -1.00, 45.7, 15.0)">n</text><text xml:space="preserve" font-family="Chalkduster" font-size="24.0" fill="#FEFFFE" transform="matrix(1.00, 0.00, -0.00, -1.00, 63.3, 15.0)">s</text><text xml:space="preserve" font-family="Chalkduster" font-size="24.0" fill="#FEFFFE" transform="matrix(1.00, 0.00, -0.00, -1.00, 75.5, 15.0)">u</text><text xml:space="preserve" font-family="Chalkduster" font-size="24.0" fill="#FEFFFE" transform="matrix(1.00, 0.00, -0.00, -1.00, 92.3, 15.0)">r</text><text xml:space="preserve" font-family="Chalkduster" font-size="24.0" fill="#FEFFFE" transform="matrix(1.00, 0.00, -0.00, -1.00, 104.5, 15.0)">e</text><text xml:space="preserve" font-family="Chalkduster" font-size="24.0" fill="#FEFFFE" transform="matrix(1.00, 0.00, -0.00, -1.00, 119.4, 15.0)"> </text><text xml:space="preserve" font-family="Chalkduster" font-size="24.0" fill="#FEFFFE" transform="matrix(1.00, 0.00, -0.00, -1.00, 131.3, 15.0)">p</text><text xml:space="preserve" font-family="Chalkduster" font-size="24.0" fill="#FEFFFE" transform="matrix(1.00, 0.00, -0.00, -1.00, 146.1, 15.0)">a</text><text xml:space="preserve" font-family="Chalkduster" font-size="24.0" fill="#FEFFFE" transform="matrix(1.00, 0.00, -0.00, -1.00, 161.4, 15.0)">r</text><text xml:space="preserve" font-family="Chalkduster" font-size="24.0" fill="#FEFFFE" transform="matrix(1.00, 0.00, -0.00, -1.00, 173.6, 15.0)">e</text><text xml:space="preserve" font-family="Chalkduster" font-size="24.0" fill="#FEFFFE" transform="matrix(1.00, 0.00, -0.00, -1.00, 188.7, 15.0)">n</text><text xml:space="preserve" font-family="Chalkduster" font-size="24.0" fill="#FEFFFE" transform="matrix(1.00, 0.00, -0.00, -1.00, 205.4, 15.0)">t</text><text xml:space="preserve" font-family="Chalkduster" font-size="24.0" fill="#FEFFFE" transform="matrix(1.00, 0.00, -0.00, -1.00, 216.4, 15.0)">s</text><text xml:space="preserve" font-family="Chalkduster" font-size="24.0" fill="#FEFFFE" transform="matrix(1.00, 0.00, -0.00, -1.00, 228.5, 15.0)"> </text><text xml:space="preserve" font-family="Chalkduster" font-size="24.0" fill="#FEFFFE" transform="matrix(1.00, 0.00, -0.00, -1.00, 240.4, 15.0)">f</text><text xml:space="preserve" font-family="Chalkduster" font-size="24.0" fill="#FEFFFE" transform="matrix(1.00, 0.00, -0.00, -1.00, 253.4, 15.0)">e</text><text xml:space="preserve" font-family="Chalkduster" font-size="24.0" fill="#FEFFFE" transform="matrix(1.00, 0.00, -0.00, -1.00, 268.3, 15.0)">e</text><text xml:space="preserve" font-family="Chalkduster" font-size="24.0" fill="#FEFFFE" transform="matrix(1.00, 0.00, -0.00, -1.00, 283.2, 15.0)">l</text></g></svg>