<?xml version="1.0" encoding="UTF-8"?><svg xmlns="http://www.w3.org/2000/svg" xmlns:xlink="http://www.w3.org/1999/xlink" clip-rule="evenodd" stroke-miterlimit="4.00" viewBox="0 0 444 34"><desc>SVG generated by Keynote</desc><defs></defs><g transform="matrix(1.00, 0.00, -0.00, -1.00, 0.0, 34.0)"><text xml:space="preserve" font-family="Chalkduster" font-size="25.0" fill="#FEFFFE" transform="matrix(1.00, 0.00, -0.00, -1.00, 1.0, 8.0)">(</text><text xml:space="preserve" font-family="Chalkduster" font-size="25.0" fill="#FEFFFE" transform="matrix(1.00, 0.00, -0.00, -1.00, 11.9, 8.0)">G</text><text xml:space="preserve" font-family="Chalkduster" font-size="25.0" fill="#FEFFFE" transform="matrix(1.00, 0.00, -0.00, -1.00, 39.6, 8.0)">m</text><text xml:space="preserve" font-family="Chalkduster" font-size="25.0" fill="#FEFFFE" transform="matrix(1.00, 0.00, -0.00, -1.00, 65.3, 8.0)">i</text><text xml:space="preserve" font-family="Chalkduster" font-size="25.0" fill="#FEFFFE" transform="matrix(1.00, 0.00, -0.00, -1.00, 75.4, 8.0)">t</text><text xml:space="preserve" font-family="Chalkduster" font-size="25.0" fill="#FEFFFE" transform="matrix(1.00, 0.00, -0.00, -1.00, 86.8, 8.0)">r</text><text xml:space="preserve" font-family="Chalkduster" font-size="25.0" fill="#FEFFFE" transform="matrix(1.00, 0.00, -0.00, -1.00, 99.6, 8.0)">o</text><text xml:space="preserve" font-family="Chalkduster" font-size="25.0" fill="#FEFFFE" transform="matrix(1.00, 0.00, -0.00, -1.00, 118.3, 8.0)">v</text><text xml:space="preserve" font-family="Chalkduster" font-size="25.0" fill="#FEFFFE" transform="matrix(1.00, 0.00, -0.00, -1.00, 133.9, 8.0)">รก</text><text xml:space="preserve" font-family="Chalkduster" font-size="25.0" fill="#FEFFFE" transform="matrix(1.00, 0.00, -0.00, -1.00, 150.3, 8.0)"> </text><text xml:space="preserve" font-family="Chalkduster" font-size="25.0" fill="#FEFFFE" transform="matrix(1.00, 0.00, -0.00, -1.00, 162.7, 8.0)">a</text><text xml:space="preserve" font-family="Chalkduster" font-size="25.0" fill="#FEFFFE" transform="matrix(1.00, 0.00, -0.00, -1.00, 179.9, 8.0)">n</text><text xml:space="preserve" font-family="Chalkduster" font-size="25.0" fill="#FEFFFE" transform="matrix(1.00, 0.00, -0.00, -1.00, 198.2, 8.0)">d</text><text xml:space="preserve" font-family="Chalkduster" font-size="25.0" fill="#FEFFFE" transform="matrix(1.00, 0.00, -0.00, -1.00, 217.7, 8.0)"> </text><text xml:space="preserve" font-family="Chalkduster" font-size="25.0" fill="#FEFFFE" transform="matrix(1.00, 0.00, -0.00, -1.00, 230.1, 8.0)">G</text><text xml:space="preserve" font-family="Chalkduster" font-size="25.0" fill="#FEFFFE" transform="matrix(1.00, 0.00, -0.00, -1.00, 257.8, 8.0)">m</text><text xml:space="preserve" font-family="Chalkduster" font-size="25.0" fill="#FEFFFE" transform="matrix(1.00, 0.00, -0.00, -1.00, 283.5, 8.0)">i</text><text xml:space="preserve" font-family="Chalkduster" font-size="25.0" fill="#FEFFFE" transform="matrix(1.00, 0.00, -0.00, -1.00, 293.6, 8.0)">t</text><text xml:space="preserve" font-family="Chalkduster" font-size="25.0" fill="#FEFFFE" transform="matrix(1.00, 0.00, -0.00, -1.00, 305.0, 8.0)">r</text><text xml:space="preserve" font-family="Chalkduster" font-size="25.0" fill="#FEFFFE" transform="matrix(1.00, 0.00, -0.00, -1.00, 317.8, 8.0)">o</text><text xml:space="preserve" font-family="Chalkduster" font-size="25.0" fill="#FEFFFE" transform="matrix(1.00, 0.00, -0.00, -1.00, 336.5, 8.0)">v</text><text xml:space="preserve" font-family="Chalkduster" font-size="25.0" fill="#FEFFFE" transform="matrix(1.00, 0.00, -0.00, -1.00, 351.9, 8.0)"> </text><text xml:space="preserve" font-family="Chalkduster" font-size="25.0" fill="#FEFFFE" transform="matrix(1.00, 0.00, -0.00, -1.00, 364.3, 8.0)">2</text><text xml:space="preserve" font-family="Chalkduster" font-size="25.0" fill="#FEFFFE" transform="matrix(1.00, 0.00, -0.00, -1.00, 378.4, 8.0)">0</text><text xml:space="preserve" font-family="Chalkduster" font-size="25.0" fill="#FEFFFE" transform="matrix(1.00, 0.00, -0.00, -1.00, 395.9, 8.0)">0</text><text xml:space="preserve" font-family="Chalkduster" font-size="25.0" fill="#FEFFFE" transform="matrix(1.00, 0.00, -0.00, -1.00, 413.1, 8.0)">3</text><text xml:space="preserve" font-family="Chalkduster" font-size="25.0" fill="#FEFFFE" transform="matrix(1.00, 0.00, -0.00, -1.00, 430.3, 8.0)">)</text></g></svg>