<?xml version="1.0" encoding="UTF-8"?><svg xmlns="http://www.w3.org/2000/svg" xmlns:xlink="http://www.w3.org/1999/xlink" clip-rule="evenodd" stroke-miterlimit="4.00" viewBox="0 0 1024 768"><desc>SVG generated by Keynote</desc><defs></defs><g transform="matrix(1.00, 0.00, -0.00, -1.00, 0.0, 768.0)"><g><clipPath id="clip-31"><path d="M 0.0 0.0 L 1024.0 0.0 L 1024.0 768.0 L 0.0 768.0 Z M 0.0 0.0 "></path></clipPath><g clip-path="url(#clip-31)"><image xlink:href="../../064B7F0C-2929-4FA2-8273-93E588CA9C8B/assets/DE78B55DDE70D88C6FF874E8D33A46A3.jpeg" width="1024.00" height="768.00" transform="matrix(1.00, 0.00, -0.00, -1.00, 0.0, 768.0)"></image></g></g><g><clipPath id="clip-32"><path d="M 76.0 377.0 L 464.0 377.0 L 464.0 67.0 L 76.0 67.0 Z M 75.7 377.0 "></path></clipPath><g clip-path="url(#clip-32)"><image xlink:href="../../34951FF4-8950-4701-B4F1-BEC61BA32A64/assets/5BF24789C665BA1381333E393538BF89.png" width="549.00" height="310.00" transform="matrix(1.00, 0.00, -0.00, -1.00, -5.0, 377.0)"></image></g></g><image xlink:href="../../34951FF4-8950-4701-B4F1-BEC61BA32A64/assets/BFEC7B5F9B0A61E7DE1451AF3992C92C.png" width="390.00" height="318.00" transform="matrix(1.00, 0.00, -0.00, 1.00, 76.7, 58.0)"></image><g><clipPath id="clip-33"><path d="M 49.1 605.5 L 274.3 605.5 L 274.3 383.4 L 49.1 383.4 Z M 49.1 605.5 "></path></clipPath><g clip-path="url(#clip-33)"><image xlink:href="../../34951FF4-8950-4701-B4F1-BEC61BA32A64/assets/2B321B98D1EE2AA7EB596CE4061B69D3.png" width="220.00" height="220.00" transform="matrix(1.00, 0.00, 0.00, -1.00, 54.5, 596.7)"></image></g></g><image xlink:href="../../34951FF4-8950-4701-B4F1-BEC61BA32A64/assets/18E2ABFB36235241447B88EDDB3D797C.png" width="227.00" height="230.00" transform="matrix(1.00, 0.00, -0.00, 1.00, 50.1, 374.4)"></image><g><clipPath id="clip-34"><path d="M 477.2 355.1 L 962.8 355.1 L 962.8 88.9 L 477.2 88.9 Z M 477.2 355.1 "></path></clipPath><g clip-path="url(#clip-34)"><image xlink:href="../../34951FF4-8950-4701-B4F1-BEC61BA32A64/assets/4CA9E825F6F5D1C1BF68EF2922DE7339.png" width="551.00" height="266.00" transform="matrix(1.00, 0.00, 0.00, -1.00, 460.9, 355.1)"></image></g></g><image xlink:href="../../34951FF4-8950-4701-B4F1-BEC61BA32A64/assets/4EA851F9A5B3B5FC323EABFF20DE1C06.png" width="488.00" height="274.00" transform="matrix(1.00, 0.00, -0.00, 1.00, 478.2, 79.9)"></image><text xml:space="preserve" font-family="Chalkduster" font-size="72.0" fill="#FEFFFE" transform="matrix(1.00, 0.00, -0.00, -1.00, 245.0, 627.0)">D</text><text xml:space="preserve" font-family="Chalkduster" font-size="72.0" fill="#FEFFFE" transform="matrix(1.00, 0.00, -0.00, -1.00, 295.4, 627.0)">a</text><text xml:space="preserve" font-family="Chalkduster" font-size="72.0" fill="#FEFFFE" transform="matrix(1.00, 0.00, -0.00, -1.00, 345.0, 627.0)">i</text><text xml:space="preserve" font-family="Chalkduster" font-size="72.0" fill="#FEFFFE" transform="matrix(1.00, 0.00, -0.00, -1.00, 374.1, 627.0)">l</text><text xml:space="preserve" font-family="Chalkduster" font-size="72.0" fill="#FEFFFE" transform="matrix(1.00, 0.00, -0.00, -1.00, 403.4, 627.0)">y</text><text xml:space="preserve" font-family="Chalkduster" font-size="72.0" fill="#FEFFFE" transform="matrix(1.00, 0.00, -0.00, -1.00, 447.2, 627.0)"> </text><text xml:space="preserve" font-family="Chalkduster" font-size="72.0" fill="#FEFFFE" transform="matrix(1.00, 0.00, -0.00, -1.00, 476.9, 627.0)">T</text><text xml:space="preserve" font-family="Chalkduster" font-size="72.0" fill="#FEFFFE" transform="matrix(1.00, 0.00, -0.00, -1.00, 532.3, 627.0)">h</text><text xml:space="preserve" font-family="Chalkduster" font-size="72.0" fill="#FEFFFE" transform="matrix(1.00, 0.00, -0.00, -1.00, 576.7, 627.0)">e</text><text xml:space="preserve" font-family="Chalkduster" font-size="72.0" fill="#FEFFFE" transform="matrix(1.00, 0.00, -0.00, -1.00, 621.3, 627.0)">m</text><text xml:space="preserve" font-family="Chalkduster" font-size="72.0" fill="#FEFFFE" transform="matrix(1.00, 0.00, -0.00, -1.00, 695.9, 627.0)">e</text><text xml:space="preserve" font-family="Chalkduster" font-size="72.0" fill="#FEFFFE" transform="matrix(1.00, 0.00, -0.00, -1.00, 742.2, 627.0)">s</text><g><clipPath id="clip-35"><path d="M 299.9 571.3 L 714.9 571.3 L 714.9 378.3 L 299.9 378.3 Z M 299.9 571.3 "></path></clipPath><g clip-path="url(#clip-35)"><image xlink:href="../../34951FF4-8950-4701-B4F1-BEC61BA32A64/assets/EA346C0AE751B2A43F39E1750E679170.png" width="437.00" height="193.00" transform="matrix(1.00, 0.00, 0.00, -1.00, 286.7, 571.3)"></image></g></g><image xlink:href="../../34951FF4-8950-4701-B4F1-BEC61BA32A64/assets/93252EF65730927E37B765748516AD0E.png" width="417.00" height="201.00" transform="matrix(1.00, 0.00, -0.00, 1.00, 300.9, 369.3)"></image><g><clipPath id="clip-36"><path d="M 720.5 611.6 L 975.8 611.6 L 975.8 377.3 L 720.5 377.3 Z M 720.5 611.6 "></path></clipPath><g clip-path="url(#clip-36)"><image xlink:href="../../34951FF4-8950-4701-B4F1-BEC61BA32A64/assets/669293F81B8D304B8ABCE7C603E8EDBF.png" width="341.00" height="234.00" transform="matrix(1.00, 0.00, 0.00, -1.00, 638.4, 611.6)"></image></g></g><image xlink:href="../../34951FF4-8950-4701-B4F1-BEC61BA32A64/assets/9A8EDBB09FBC7818BEC0DF8F62692A1B.png" width="257.00" height="242.00" transform="matrix(1.00, 0.00, -0.00, 1.00, 721.5, 368.3)"></image></g></svg>