<?xml version="1.0" encoding="UTF-8" standalone="no"?><svg xmlns="http://www.w3.org/2000/svg" xmlns:xlink="http://www.w3.org/1999/xlink" clip-rule="evenodd" stroke-miterlimit="4.00" viewBox="0 0 1024 768"><desc>SVG generated by Keynote</desc><defs></defs><g transform="matrix(1.00, 0.00, -0.00, -1.00, 0.0, 768.0)"><path d="M 0.0 768.0 L 1024.0 768.0 L 1024.0 0.0 L 0.0 0.0 Z M 0.0 768.0 " fill="#FEFFFF"></path><text xml:space="preserve" font-family="Helvetica-Light" font-size="80.0" fill="#000000" transform="matrix(1.00, 0.00, -0.00, -1.00, 361.0, 618.0)">T</text><text xml:space="preserve" font-family="Helvetica-Light" font-size="80.0" fill="#000000" transform="matrix(1.00, 0.00, -0.00, -1.00, 405.5, 618.0)">h</text><text xml:space="preserve" font-family="Helvetica-Light" font-size="80.0" fill="#000000" transform="matrix(1.00, 0.00, -0.00, -1.00, 450.0, 618.0)">e</text><text xml:space="preserve" font-family="Helvetica-Light" font-size="80.0" fill="#000000" transform="matrix(1.00, 0.00, -0.00, -1.00, 494.4, 618.0)"> </text><text xml:space="preserve" font-family="Helvetica-Light" font-size="80.0" fill="#000000" transform="matrix(1.00, 0.00, -0.00, -1.00, 516.7, 618.0)">S</text><text xml:space="preserve" font-family="Helvetica-Light" font-size="80.0" fill="#000000" transform="matrix(1.00, 0.00, -0.00, -1.00, 565.6, 618.0)">C</text><text xml:space="preserve" font-family="Helvetica-Light" font-size="80.0" fill="#000000" transform="matrix(1.00, 0.00, -0.00, -1.00, 623.3, 618.0)">N</text><g><clipPath id="clip-21"><path d="M 230.0 550.0 L 794.0 550.0 L 794.0 134.0 L 230.0 134.0 Z M 230.4 549.8 "></path></clipPath><g clip-path="url(#clip-21)"><image xlink:href="../../615F7CD4-E262-41F7-8138-806EC6AB1FAB/assets/F4D21F2F9323F9B45F442E7CE34AD608.png" width="564.00" height="416.00" transform="matrix(1.00, 0.00, -0.00, -1.00, 230.0, 550.0)"></image></g></g><text xml:space="preserve" font-family="Helvetica-Light" font-size="8.0" fill="#000000" transform="matrix(1.00, 0.00, -0.00, -1.00, 377.0, 75.0)">h</text><text xml:space="preserve" font-family="Helvetica-Light" font-size="8.0" fill="#000000" transform="matrix(1.00, 0.00, -0.00, -1.00, 381.4, 75.0)">t</text><text xml:space="preserve" font-family="Helvetica-Light" font-size="8.0" fill="#000000" transform="matrix(1.00, 0.00, -0.00, -1.00, 383.7, 75.0)">t</text><text xml:space="preserve" font-family="Helvetica-Light" font-size="8.0" fill="#000000" transform="matrix(1.00, 0.00, -0.00, -1.00, 385.9, 75.0)">p</text><text xml:space="preserve" font-family="Helvetica-Light" font-size="8.0" fill="#000000" transform="matrix(1.00, 0.00, -0.00, -1.00, 390.8, 75.0)">s</text><text xml:space="preserve" font-family="Helvetica-Light" font-size="8.0" fill="#000000" transform="matrix(1.00, 0.00, -0.00, -1.00, 394.8, 75.0)">:</text><text xml:space="preserve" font-family="Helvetica-Light" font-size="8.0" fill="#000000" transform="matrix(1.00, 0.00, -0.00, -1.00, 397.0, 75.0)">/</text><text xml:space="preserve" font-family="Helvetica-Light" font-size="8.0" fill="#000000" transform="matrix(1.00, 0.00, -0.00, -1.00, 399.2, 75.0)">/</text><text xml:space="preserve" font-family="Helvetica-Light" font-size="8.0" fill="#000000" transform="matrix(1.00, 0.00, -0.00, -1.00, 401.5, 75.0)">w</text><text xml:space="preserve" font-family="Helvetica-Light" font-size="8.0" fill="#000000" transform="matrix(1.00, 0.00, -0.00, -1.00, 407.2, 75.0)">w</text><text xml:space="preserve" font-family="Helvetica-Light" font-size="8.0" fill="#000000" transform="matrix(1.00, 0.00, -0.00, -1.00, 413.0, 75.0)">w</text><text xml:space="preserve" font-family="Helvetica-Light" font-size="8.0" fill="#000000" transform="matrix(1.00, 0.00, -0.00, -1.00, 418.3, 75.0)">.</text><text xml:space="preserve" font-family="Helvetica-Light" font-size="8.0" fill="#000000" transform="matrix(1.00, 0.00, -0.00, -1.00, 420.6, 75.0)">e</text><text xml:space="preserve" font-family="Helvetica-Light" font-size="8.0" fill="#000000" transform="matrix(1.00, 0.00, -0.00, -1.00, 425.0, 75.0)">l</text><text xml:space="preserve" font-family="Helvetica-Light" font-size="8.0" fill="#000000" transform="matrix(1.00, 0.00, -0.00, -1.00, 426.8, 75.0)">i</text><text xml:space="preserve" font-family="Helvetica-Light" font-size="8.0" fill="#000000" transform="matrix(1.00, 0.00, -0.00, -1.00, 428.6, 75.0)">t</text><text xml:space="preserve" font-family="Helvetica-Light" font-size="8.0" fill="#000000" transform="matrix(1.00, 0.00, -0.00, -1.00, 430.8, 75.0)">e</text><text xml:space="preserve" font-family="Helvetica-Light" font-size="8.0" fill="#000000" transform="matrix(1.00, 0.00, -0.00, -1.00, 435.2, 75.0)">n</text><text xml:space="preserve" font-family="Helvetica-Light" font-size="8.0" fill="#000000" transform="matrix(1.00, 0.00, -0.00, -1.00, 439.7, 75.0)">e</text><text xml:space="preserve" font-family="Helvetica-Light" font-size="8.0" fill="#000000" transform="matrix(1.00, 0.00, -0.00, -1.00, 444.1, 75.0)">t</text><text xml:space="preserve" font-family="Helvetica-Light" font-size="8.0" fill="#000000" transform="matrix(1.00, 0.00, -0.00, -1.00, 446.4, 75.0)">z</text><text xml:space="preserve" font-family="Helvetica-Light" font-size="8.0" fill="#000000" transform="matrix(1.00, 0.00, -0.00, -1.00, 450.4, 75.0)">w</text><text xml:space="preserve" font-family="Helvetica-Light" font-size="8.0" fill="#000000" transform="matrix(1.00, 0.00, -0.00, -1.00, 456.1, 75.0)">e</text><text xml:space="preserve" font-family="Helvetica-Light" font-size="8.0" fill="#000000" transform="matrix(1.00, 0.00, -0.00, -1.00, 460.6, 75.0)">r</text><text xml:space="preserve" font-family="Helvetica-Light" font-size="8.0" fill="#000000" transform="matrix(1.00, 0.00, -0.00, -1.00, 463.2, 75.0)">k</text><text xml:space="preserve" font-family="Helvetica-Light" font-size="8.0" fill="#000000" transform="matrix(1.00, 0.00, -0.00, -1.00, 467.2, 75.0)">.</text><text xml:space="preserve" font-family="Helvetica-Light" font-size="8.0" fill="#000000" transform="matrix(1.00, 0.00, -0.00, -1.00, 469.5, 75.0)">b</text><text xml:space="preserve" font-family="Helvetica-Light" font-size="8.0" fill="#000000" transform="matrix(1.00, 0.00, -0.00, -1.00, 474.4, 75.0)">a</text><text xml:space="preserve" font-family="Helvetica-Light" font-size="8.0" fill="#000000" transform="matrix(1.00, 0.00, -0.00, -1.00, 478.8, 75.0)">y</text><text xml:space="preserve" font-family="Helvetica-Light" font-size="8.0" fill="#000000" transform="matrix(1.00, 0.00, -0.00, -1.00, 482.8, 75.0)">e</text><text xml:space="preserve" font-family="Helvetica-Light" font-size="8.0" fill="#000000" transform="matrix(1.00, 0.00, -0.00, -1.00, 487.3, 75.0)">r</text><text xml:space="preserve" font-family="Helvetica-Light" font-size="8.0" fill="#000000" transform="matrix(1.00, 0.00, -0.00, -1.00, 490.1, 75.0)">n</text><text xml:space="preserve" font-family="Helvetica-Light" font-size="8.0" fill="#000000" transform="matrix(1.00, 0.00, -0.00, -1.00, 494.5, 75.0)">.</text><text xml:space="preserve" font-family="Helvetica-Light" font-size="8.0" fill="#000000" transform="matrix(1.00, 0.00, -0.00, -1.00, 496.7, 75.0)">d</text><text xml:space="preserve" font-family="Helvetica-Light" font-size="8.0" fill="#000000" transform="matrix(1.00, 0.00, -0.00, -1.00, 501.6, 75.0)">e</text><text xml:space="preserve" font-family="Helvetica-Light" font-size="8.0" fill="#000000" transform="matrix(1.00, 0.00, -0.00, -1.00, 506.1, 75.0)">/</text><text xml:space="preserve" font-family="Helvetica-Light" font-size="8.0" fill="#000000" transform="matrix(1.00, 0.00, -0.00, -1.00, 508.3, 75.0)">u</text><text xml:space="preserve" font-family="Helvetica-Light" font-size="8.0" fill="#000000" transform="matrix(1.00, 0.00, -0.00, -1.00, 512.7, 75.0)">p</text><text xml:space="preserve" font-family="Helvetica-Light" font-size="8.0" fill="#000000" transform="matrix(1.00, 0.00, -0.00, -1.00, 517.6, 75.0)">l</text><text xml:space="preserve" font-family="Helvetica-Light" font-size="8.0" fill="#000000" transform="matrix(1.00, 0.00, -0.00, -1.00, 519.4, 75.0)">o</text><text xml:space="preserve" font-family="Helvetica-Light" font-size="8.0" fill="#000000" transform="matrix(1.00, 0.00, -0.00, -1.00, 523.9, 75.0)">a</text><text xml:space="preserve" font-family="Helvetica-Light" font-size="8.0" fill="#000000" transform="matrix(1.00, 0.00, -0.00, -1.00, 528.3, 75.0)">d</text><text xml:space="preserve" font-family="Helvetica-Light" font-size="8.0" fill="#000000" transform="matrix(1.00, 0.00, -0.00, -1.00, 533.2, 75.0)">s</text><text xml:space="preserve" font-family="Helvetica-Light" font-size="8.0" fill="#000000" transform="matrix(1.00, 0.00, -0.00, -1.00, 537.2, 75.0)">/</text><text xml:space="preserve" font-family="Helvetica-Light" font-size="8.0" fill="#000000" transform="matrix(1.00, 0.00, -0.00, -1.00, 539.4, 75.0)">t</text><text xml:space="preserve" font-family="Helvetica-Light" font-size="8.0" fill="#000000" transform="matrix(1.00, 0.00, -0.00, -1.00, 541.6, 75.0)">x</text><text xml:space="preserve" font-family="Helvetica-Light" font-size="8.0" fill="#000000" transform="matrix(1.00, 0.00, -0.00, -1.00, 545.6, 75.0)">_</text><text xml:space="preserve" font-family="Helvetica-Light" font-size="8.0" fill="#000000" transform="matrix(1.00, 0.00, -0.00, -1.00, 549.6, 75.0)">t</text><text xml:space="preserve" font-family="Helvetica-Light" font-size="8.0" fill="#000000" transform="matrix(1.00, 0.00, -0.00, -1.00, 551.9, 75.0)">e</text><text xml:space="preserve" font-family="Helvetica-Light" font-size="8.0" fill="#000000" transform="matrix(1.00, 0.00, -0.00, -1.00, 556.3, 75.0)">m</text><text xml:space="preserve" font-family="Helvetica-Light" font-size="8.0" fill="#000000" transform="matrix(1.00, 0.00, -0.00, -1.00, 563.0, 75.0)">p</text><text xml:space="preserve" font-family="Helvetica-Light" font-size="8.0" fill="#000000" transform="matrix(1.00, 0.00, -0.00, -1.00, 567.9, 75.0)">l</text><text xml:space="preserve" font-family="Helvetica-Light" font-size="8.0" fill="#000000" transform="matrix(1.00, 0.00, -0.00, -1.00, 569.6, 75.0)">a</text><text xml:space="preserve" font-family="Helvetica-Light" font-size="8.0" fill="#000000" transform="matrix(1.00, 0.00, -0.00, -1.00, 574.1, 75.0)">v</text><text xml:space="preserve" font-family="Helvetica-Light" font-size="8.0" fill="#000000" transform="matrix(1.00, 0.00, -0.00, -1.00, 578.1, 75.0)">o</text><text xml:space="preserve" font-family="Helvetica-Light" font-size="8.0" fill="#000000" transform="matrix(1.00, 0.00, -0.00, -1.00, 582.5, 75.0)">i</text><text xml:space="preserve" font-family="Helvetica-Light" font-size="8.0" fill="#000000" transform="matrix(1.00, 0.00, -0.00, -1.00, 584.3, 75.0)">l</text><text xml:space="preserve" font-family="Helvetica-Light" font-size="8.0" fill="#000000" transform="matrix(1.00, 0.00, -0.00, -1.00, 586.1, 75.0)">a</text><text xml:space="preserve" font-family="Helvetica-Light" font-size="8.0" fill="#000000" transform="matrix(1.00, 0.00, -0.00, -1.00, 590.5, 75.0)">/</text><text xml:space="preserve" font-family="Helvetica-Light" font-size="8.0" fill="#000000" transform="matrix(1.00, 0.00, -0.00, -1.00, 592.8, 75.0)">B</text><text xml:space="preserve" font-family="Helvetica-Light" font-size="8.0" fill="#000000" transform="matrix(1.00, 0.00, -0.00, -1.00, 598.1, 75.0)">a</text><text xml:space="preserve" font-family="Helvetica-Light" font-size="8.0" fill="#000000" transform="matrix(1.00, 0.00, -0.00, -1.00, 602.5, 75.0)">r</text><text xml:space="preserve" font-family="Helvetica-Light" font-size="8.0" fill="#000000" transform="matrix(1.00, 0.00, -0.00, -1.00, 605.4, 75.0)">t</text><text xml:space="preserve" font-family="Helvetica-Light" font-size="8.0" fill="#000000" transform="matrix(1.00, 0.00, -0.00, -1.00, 607.6, 75.0)">l</text><text xml:space="preserve" font-family="Helvetica-Light" font-size="8.0" fill="#000000" transform="matrix(1.00, 0.00, -0.00, -1.00, 609.4, 75.0)">a</text><text xml:space="preserve" font-family="Helvetica-Light" font-size="8.0" fill="#000000" transform="matrix(1.00, 0.00, -0.00, -1.00, 613.8, 75.0)">n</text><text xml:space="preserve" font-family="Helvetica-Light" font-size="8.0" fill="#000000" transform="matrix(1.00, 0.00, -0.00, -1.00, 618.2, 75.0)">g</text><text xml:space="preserve" font-family="Helvetica-Light" font-size="8.0" fill="#000000" transform="matrix(1.00, 0.00, -0.00, -1.00, 623.1, 75.0)">_</text><text xml:space="preserve" font-family="Helvetica-Light" font-size="8.0" fill="#000000" transform="matrix(1.00, 0.00, -0.00, -1.00, 627.1, 75.0)">A</text><text xml:space="preserve" font-family="Helvetica-Light" font-size="8.0" fill="#000000" transform="matrix(1.00, 0.00, -0.00, -1.00, 632.5, 75.0)">.</text><text xml:space="preserve" font-family="Helvetica-Light" font-size="8.0" fill="#000000" transform="matrix(1.00, 0.00, -0.00, -1.00, 634.7, 75.0)">j</text><text xml:space="preserve" font-family="Helvetica-Light" font-size="8.0" fill="#000000" transform="matrix(1.00, 0.00, -0.00, -1.00, 636.5, 75.0)">p</text><text xml:space="preserve" font-family="Helvetica-Light" font-size="8.0" fill="#000000" transform="matrix(1.00, 0.00, -0.00, -1.00, 641.4, 75.0)">g</text><g><clipPath id="clip-22"><path d="M 376.4 73.2 L 646.6 73.2 L 646.6 75.6 L 376.4 75.6 Z M 376.4 73.2 "></path></clipPath><g clip-path="url(#clip-22)"><path d="M 4.5 12.6 L 273.7 12.6 " fill="none" stroke="#000000" stroke-width="0.40" stroke-miterlimit="0.00" transform="matrix(1.00, 0.00, 0.00, -1.00, 372.9, 87.0)"></path></g></g></g></svg>