<?xml version="1.0" encoding="UTF-8"?><svg xmlns="http://www.w3.org/2000/svg" xmlns:xlink="http://www.w3.org/1999/xlink" clip-rule="evenodd" stroke-miterlimit="4.00" viewBox="0 0 272 40"><desc>SVG generated by Keynote</desc><defs></defs><g transform="matrix(1.00, 0.00, -0.00, -1.00, 0.0, 40.0)"><text xml:space="preserve" font-family="Chalkduster" font-size="32.0" fill="#FEFFFE" transform="matrix(1.00, 0.00, -0.00, -1.00, 0.0, 9.0)">(</text><text xml:space="preserve" font-family="Chalkduster" font-size="32.0" fill="#FEFFFE" transform="matrix(1.00, 0.00, -0.00, -1.00, 16.9, 9.0)">A</text><text xml:space="preserve" font-family="Chalkduster" font-size="32.0" fill="#FEFFFE" transform="matrix(1.00, 0.00, -0.00, -1.00, 40.5, 9.0)">l</text><text xml:space="preserve" font-family="Chalkduster" font-size="32.0" fill="#FEFFFE" transform="matrix(1.00, 0.00, -0.00, -1.00, 55.1, 9.0)">l</text><text xml:space="preserve" font-family="Chalkduster" font-size="32.0" fill="#FEFFFE" transform="matrix(1.00, 0.00, -0.00, -1.00, 70.1, 9.0)"> </text><text xml:space="preserve" font-family="Chalkduster" font-size="32.0" fill="#FEFFFE" transform="matrix(1.00, 0.00, -0.00, -1.00, 86.0, 9.0)">a</text><text xml:space="preserve" font-family="Chalkduster" font-size="32.0" fill="#FEFFFE" transform="matrix(1.00, 0.00, -0.00, -1.00, 108.0, 9.0)">b</text><text xml:space="preserve" font-family="Chalkduster" font-size="32.0" fill="#FEFFFE" transform="matrix(1.00, 0.00, -0.00, -1.00, 126.6, 9.0)">o</text><text xml:space="preserve" font-family="Chalkduster" font-size="32.0" fill="#FEFFFE" transform="matrix(1.00, 0.00, -0.00, -1.00, 150.6, 9.0)">u</text><text xml:space="preserve" font-family="Chalkduster" font-size="32.0" fill="#FEFFFE" transform="matrix(1.00, 0.00, -0.00, -1.00, 172.3, 9.0)">t</text><text xml:space="preserve" font-family="Chalkduster" font-size="32.0" fill="#FEFFFE" transform="matrix(1.00, 0.00, -0.00, -1.00, 186.9, 9.0)"> </text><text xml:space="preserve" font-family="Chalkduster" font-size="32.0" fill="#FEFFFE" transform="matrix(1.00, 0.00, -0.00, -1.00, 202.8, 9.0)">m</text><text xml:space="preserve" font-family="Chalkduster" font-size="32.0" fill="#FEFFFE" transform="matrix(1.00, 0.00, -0.00, -1.00, 236.0, 9.0)">e</text><text xml:space="preserve" font-family="Chalkduster" font-size="32.0" fill="#FEFFFE" transform="matrix(1.00, 0.00, -0.00, -1.00, 254.6, 9.0)">)</text></g></svg>