<?xml version="1.0" encoding="UTF-8"?><svg xmlns="http://www.w3.org/2000/svg" xmlns:xlink="http://www.w3.org/1999/xlink" clip-rule="evenodd" stroke-miterlimit="4.00" viewBox="0 0 178 49"><desc>SVG generated by Keynote</desc><defs></defs><g transform="matrix(1.00, 0.00, -0.00, -1.00, 0.0, 49.0)"><text xml:space="preserve" font-family="Chalkduster" font-size="32.0" fill="#FEFFFE" transform="matrix(1.00, 0.00, -0.00, -1.00, 2.0, 19.0)">d</text><text xml:space="preserve" font-family="Chalkduster" font-size="32.0" fill="#FEFFFE" transform="matrix(1.00, 0.00, -0.00, -1.00, 28.3, 19.0)">i</text><text xml:space="preserve" font-family="Chalkduster" font-size="32.0" fill="#FEFFFE" transform="matrix(1.00, 0.00, -0.00, -1.00, 40.9, 19.0)">s</text><text xml:space="preserve" font-family="Chalkduster" font-size="32.0" fill="#FEFFFE" transform="matrix(1.00, 0.00, -0.00, -1.00, 57.8, 19.0)">c</text><text xml:space="preserve" font-family="Chalkduster" font-size="32.0" fill="#FEFFFE" transform="matrix(1.00, 0.00, -0.00, -1.00, 76.9, 19.0)">o</text><text xml:space="preserve" font-family="Chalkduster" font-size="32.0" fill="#FEFFFE" transform="matrix(1.00, 0.00, -0.00, -1.00, 100.9, 19.0)">v</text><text xml:space="preserve" font-family="Chalkduster" font-size="32.0" fill="#FEFFFE" transform="matrix(1.00, 0.00, -0.00, -1.00, 120.5, 19.0)">e</text><text xml:space="preserve" font-family="Chalkduster" font-size="32.0" fill="#FEFFFE" transform="matrix(1.00, 0.00, -0.00, -1.00, 140.1, 19.0)">r</text><text xml:space="preserve" font-family="Chalkduster" font-size="32.0" fill="#FEFFFE" transform="matrix(1.00, 0.00, -0.00, -1.00, 158.1, 19.0)">y</text></g></svg>