<?xml version="1.0" encoding="UTF-8"?><svg xmlns="http://www.w3.org/2000/svg" xmlns:xlink="http://www.w3.org/1999/xlink" clip-rule="evenodd" stroke-miterlimit="4.00" viewBox="0 0 272 49"><desc>SVG generated by Keynote</desc><defs></defs><g transform="matrix(1.00, 0.00, -0.00, -1.00, 0.0, 49.0)"><text xml:space="preserve" font-family="Chalkduster" font-size="32.0" fill="#FEFFFE" transform="matrix(1.00, 0.00, -0.00, -1.00, 0.0, 19.0)">s</text><text xml:space="preserve" font-family="Chalkduster" font-size="32.0" fill="#FEFFFE" transform="matrix(1.00, 0.00, -0.00, -1.00, 16.2, 19.0)">u</text><text xml:space="preserve" font-family="Chalkduster" font-size="32.0" fill="#FEFFFE" transform="matrix(1.00, 0.00, -0.00, -1.00, 38.7, 19.0)">p</text><text xml:space="preserve" font-family="Chalkduster" font-size="32.0" fill="#FEFFFE" transform="matrix(1.00, 0.00, -0.00, -1.00, 58.4, 19.0)">p</text><text xml:space="preserve" font-family="Chalkduster" font-size="32.0" fill="#FEFFFE" transform="matrix(1.00, 0.00, -0.00, -1.00, 78.2, 19.0)">l</text><text xml:space="preserve" font-family="Chalkduster" font-size="32.0" fill="#FEFFFE" transform="matrix(1.00, 0.00, -0.00, -1.00, 93.5, 19.0)">i</text><text xml:space="preserve" font-family="Chalkduster" font-size="32.0" fill="#FEFFFE" transform="matrix(1.00, 0.00, -0.00, -1.00, 106.2, 19.0)">e</text><text xml:space="preserve" font-family="Chalkduster" font-size="32.0" fill="#FEFFFE" transform="matrix(1.00, 0.00, -0.00, -1.00, 126.8, 19.0)">s</text><text xml:space="preserve" font-family="Chalkduster" font-size="32.0" fill="#FEFFFE" transform="matrix(1.00, 0.00, -0.00, -1.00, 142.9, 19.0)"> </text><text xml:space="preserve" font-family="Chalkduster" font-size="32.0" fill="#FEFFFE" transform="matrix(1.00, 0.00, -0.00, -1.00, 158.8, 19.0)">(</text><text xml:space="preserve" font-family="Chalkduster" font-size="32.0" fill="#FEFFFE" transform="matrix(1.00, 0.00, -0.00, -1.00, 172.8, 19.0)">l</text><text xml:space="preserve" font-family="Chalkduster" font-size="32.0" fill="#FEFFFE" transform="matrix(1.00, 0.00, -0.00, -1.00, 186.6, 19.0)">o</text><text xml:space="preserve" font-family="Chalkduster" font-size="32.0" fill="#FEFFFE" transform="matrix(1.00, 0.00, -0.00, -1.00, 210.8, 19.0)">o</text><text xml:space="preserve" font-family="Chalkduster" font-size="32.0" fill="#FEFFFE" transform="matrix(1.00, 0.00, -0.00, -1.00, 234.1, 19.0)">s</text><text xml:space="preserve" font-family="Chalkduster" font-size="32.0" fill="#FEFFFE" transform="matrix(1.00, 0.00, -0.00, -1.00, 250.3, 19.0)">e</text></g></svg>