<?xml version="1.0" encoding="UTF-8"?><svg xmlns="http://www.w3.org/2000/svg" xmlns:xlink="http://www.w3.org/1999/xlink" clip-rule="evenodd" stroke-miterlimit="4.00" viewBox="0 0 1024 768"><desc>SVG generated by Keynote</desc><defs></defs><g transform="matrix(1.00, 0.00, -0.00, -1.00, 0.0, 768.0)"><g><clipPath id="clip-17"><path d="M 0.0 0.0 L 1024.0 0.0 L 1024.0 768.0 L 0.0 768.0 Z M 0.0 0.0 "></path></clipPath><g clip-path="url(#clip-17)"><image xlink:href="../../064B7F0C-2929-4FA2-8273-93E588CA9C8B/assets/DE78B55DDE70D88C6FF874E8D33A46A3.jpeg" width="1024.00" height="768.00" transform="matrix(1.00, 0.00, -0.00, -1.00, 0.0, 768.0)"></image></g></g><image xlink:href="640F8EF890E1893CBFB37F0F58EC2356.png" width="384.00" height="311.00" transform="matrix(1.00, 0.00, -0.00, -1.00, 544.1, 450.4)" opacity="0.50"></image><g><clipPath id="clip-18"><path d="M 549.0 425.0 L 923.0 425.0 L 923.0 146.0 L 549.0 146.0 Z M 549.1 424.9 "></path></clipPath><g clip-path="url(#clip-18)"><image xlink:href="15AC12B739624E56C80B1D6A11D51E6B.png" width="374.00" height="280.00" transform="matrix(1.00, 0.00, -0.00, -1.00, 549.0, 425.0)"></image></g></g><image xlink:href="2CD1D0D5848A210E25DF445CF2C91F3F.png" width="148.00" height="43.00" transform="matrix(1.00, 0.00, -0.00, -1.00, 662.0, 446.4)"></image><text xml:space="preserve" font-family="Chalkduster" font-size="63.4" fill="#FEFFFE" transform="matrix(1.00, 0.00, -0.00, -1.00, 107.0, 671.0)">B</text><text xml:space="preserve" font-family="Chalkduster" font-size="63.4" fill="#FEFFFE" transform="matrix(1.00, 0.00, -0.00, -1.00, 149.3, 671.0)">u</text><text xml:space="preserve" font-family="Chalkduster" font-size="63.4" fill="#FEFFFE" transform="matrix(1.00, 0.00, -0.00, -1.00, 192.9, 671.0)">i</text><text xml:space="preserve" font-family="Chalkduster" font-size="63.4" fill="#FEFFFE" transform="matrix(1.00, 0.00, -0.00, -1.00, 218.5, 671.0)">l</text><text xml:space="preserve" font-family="Chalkduster" font-size="63.4" fill="#FEFFFE" transform="matrix(1.00, 0.00, -0.00, -1.00, 248.3, 671.0)">d</text><text xml:space="preserve" font-family="Chalkduster" font-size="63.4" fill="#FEFFFE" transform="matrix(1.00, 0.00, -0.00, -1.00, 300.4, 671.0)">i</text><text xml:space="preserve" font-family="Chalkduster" font-size="63.4" fill="#FEFFFE" transform="matrix(1.00, 0.00, -0.00, -1.00, 325.4, 671.0)">n</text><text xml:space="preserve" font-family="Chalkduster" font-size="63.4" fill="#FEFFFE" transform="matrix(1.00, 0.00, -0.00, -1.00, 369.9, 671.0)">g</text><text xml:space="preserve" font-family="Chalkduster" font-size="63.4" fill="#FEFFFE" transform="matrix(1.00, 0.00, -0.00, -1.00, 413.1, 671.0)"> </text><text xml:space="preserve" font-family="Chalkduster" font-size="63.4" fill="#FEFFFE" transform="matrix(1.00, 0.00, -0.00, -1.00, 444.6, 671.0)">R</text><text xml:space="preserve" font-family="Chalkduster" font-size="63.4" fill="#FEFFFE" transform="matrix(1.00, 0.00, -0.00, -1.00, 493.9, 671.0)">e</text><text xml:space="preserve" font-family="Chalkduster" font-size="63.4" fill="#FEFFFE" transform="matrix(1.00, 0.00, -0.00, -1.00, 533.2, 671.0)">l</text><text xml:space="preserve" font-family="Chalkduster" font-size="63.4" fill="#FEFFFE" transform="matrix(1.00, 0.00, -0.00, -1.00, 561.6, 671.0)">a</text><text xml:space="preserve" font-family="Chalkduster" font-size="63.4" fill="#FEFFFE" transform="matrix(1.00, 0.00, -0.00, -1.00, 600.9, 671.0)">t</text><text xml:space="preserve" font-family="Chalkduster" font-size="63.4" fill="#FEFFFE" transform="matrix(1.00, 0.00, -0.00, -1.00, 630.2, 671.0)">i</text><text xml:space="preserve" font-family="Chalkduster" font-size="63.4" fill="#FEFFFE" transform="matrix(1.00, 0.00, -0.00, -1.00, 655.2, 671.0)">o</text><text xml:space="preserve" font-family="Chalkduster" font-size="63.4" fill="#FEFFFE" transform="matrix(1.00, 0.00, -0.00, -1.00, 702.3, 671.0)">n</text><text xml:space="preserve" font-family="Chalkduster" font-size="63.4" fill="#FEFFFE" transform="matrix(1.00, 0.00, -0.00, -1.00, 748.8, 671.0)">s</text><text xml:space="preserve" font-family="Chalkduster" font-size="63.4" fill="#FEFFFE" transform="matrix(1.00, 0.00, -0.00, -1.00, 781.5, 671.0)">h</text><text xml:space="preserve" font-family="Chalkduster" font-size="63.4" fill="#FEFFFE" transform="matrix(1.00, 0.00, -0.00, -1.00, 821.6, 671.0)">i</text><text xml:space="preserve" font-family="Chalkduster" font-size="63.4" fill="#FEFFFE" transform="matrix(1.00, 0.00, -0.00, -1.00, 845.2, 671.0)">p</text><text xml:space="preserve" font-family="Chalkduster" font-size="63.4" fill="#FEFFFE" transform="matrix(1.00, 0.00, -0.00, -1.00, 884.3, 671.0)">s</text><text xml:space="preserve" font-family="Chalkduster" font-size="63.4" fill="#FEFFFE" transform="matrix(1.00, 0.00, -0.00, -1.00, 916.3, 671.0)"> </text><text xml:space="preserve" font-family="Chalkduster" font-size="63.4" fill="#FEFFFE" transform="matrix(1.00, 0.00, -0.00, -1.00, 194.0, 590.0)">W</text><text xml:space="preserve" font-family="Chalkduster" font-size="63.4" fill="#FEFFFE" transform="matrix(1.00, 0.00, -0.00, -1.00, 251.5, 590.0)">i</text><text xml:space="preserve" font-family="Chalkduster" font-size="63.4" fill="#FEFFFE" transform="matrix(1.00, 0.00, -0.00, -1.00, 277.2, 590.0)">t</text><text xml:space="preserve" font-family="Chalkduster" font-size="63.4" fill="#FEFFFE" transform="matrix(1.00, 0.00, -0.00, -1.00, 307.4, 590.0)">h</text><text xml:space="preserve" font-family="Chalkduster" font-size="63.4" fill="#FEFFFE" transform="matrix(1.00, 0.00, -0.00, -1.00, 347.6, 590.0)">i</text><text xml:space="preserve" font-family="Chalkduster" font-size="63.4" fill="#FEFFFE" transform="matrix(1.00, 0.00, -0.00, -1.00, 372.6, 590.0)">n</text><text xml:space="preserve" font-family="Chalkduster" font-size="63.4" fill="#FEFFFE" transform="matrix(1.00, 0.00, -0.00, -1.00, 419.1, 590.0)"> </text><text xml:space="preserve" font-family="Chalkduster" font-size="63.4" fill="#FEFFFE" transform="matrix(1.00, 0.00, -0.00, -1.00, 450.6, 590.0)">t</text><text xml:space="preserve" font-family="Chalkduster" font-size="63.4" fill="#FEFFFE" transform="matrix(1.00, 0.00, -0.00, -1.00, 480.8, 590.0)">h</text><text xml:space="preserve" font-family="Chalkduster" font-size="63.4" fill="#FEFFFE" transform="matrix(1.00, 0.00, -0.00, -1.00, 519.9, 590.0)">e</text><text xml:space="preserve" font-family="Chalkduster" font-size="63.4" fill="#FEFFFE" transform="matrix(1.00, 0.00, -0.00, -1.00, 559.2, 590.0)"> </text><text xml:space="preserve" font-family="Chalkduster" font-size="63.4" fill="#FEFFFE" transform="matrix(1.00, 0.00, -0.00, -1.00, 590.7, 590.0)">F</text><text xml:space="preserve" font-family="Chalkduster" font-size="63.4" fill="#FEFFFE" transform="matrix(1.00, 0.00, -0.00, -1.00, 633.3, 590.0)">a</text><text xml:space="preserve" font-family="Chalkduster" font-size="63.4" fill="#FEFFFE" transform="matrix(1.00, 0.00, -0.00, -1.00, 675.0, 590.0)">m</text><text xml:space="preserve" font-family="Chalkduster" font-size="63.4" fill="#FEFFFE" transform="matrix(1.00, 0.00, -0.00, -1.00, 740.1, 590.0)">i</text><text xml:space="preserve" font-family="Chalkduster" font-size="63.4" fill="#FEFFFE" transform="matrix(1.00, 0.00, -0.00, -1.00, 765.7, 590.0)">l</text><text xml:space="preserve" font-family="Chalkduster" font-size="63.4" fill="#FEFFFE" transform="matrix(1.00, 0.00, -0.00, -1.00, 791.4, 590.0)">y</text><image xlink:href="8031BC132AD45F67E5F193E246E66C87.png" width="19.00" height="18.00" transform="matrix(0.99, 0.00, -0.00, -0.97, 104.0, 458.3)"></image><text xml:space="preserve" font-family="Chalkduster" font-size="32.0" fill="#FEFFFE" transform="matrix(1.00, 0.00, -0.00, -1.00, 142.0, 441.0)">H</text><text xml:space="preserve" font-family="Chalkduster" font-size="32.0" fill="#FEFFFE" transform="matrix(1.00, 0.00, -0.00, -1.00, 161.7, 441.0)">a</text><text xml:space="preserve" font-family="Chalkduster" font-size="32.0" fill="#FEFFFE" transform="matrix(1.00, 0.00, -0.00, -1.00, 181.4, 441.0)">v</text><text xml:space="preserve" font-family="Chalkduster" font-size="32.0" fill="#FEFFFE" transform="matrix(1.00, 0.00, -0.00, -1.00, 201.4, 441.0)">i</text><text xml:space="preserve" font-family="Chalkduster" font-size="32.0" fill="#FEFFFE" transform="matrix(1.00, 0.00, -0.00, -1.00, 214.0, 441.0)">n</text><text xml:space="preserve" font-family="Chalkduster" font-size="32.0" fill="#FEFFFE" transform="matrix(1.00, 0.00, -0.00, -1.00, 236.5, 441.0)">g</text><text xml:space="preserve" font-family="Chalkduster" font-size="32.0" fill="#FEFFFE" transform="matrix(1.00, 0.00, -0.00, -1.00, 258.3, 441.0)"> </text><text xml:space="preserve" font-family="Chalkduster" font-size="32.0" fill="#FEFFFE" transform="matrix(1.00, 0.00, -0.00, -1.00, 274.2, 441.0)">a</text><text xml:space="preserve" font-family="Chalkduster" font-size="32.0" fill="#FEFFFE" transform="matrix(1.00, 0.00, -0.00, -1.00, 296.3, 441.0)"> </text><text xml:space="preserve" font-family="Chalkduster" font-size="32.0" fill="#FEFFFE" transform="matrix(1.00, 0.00, -0.00, -1.00, 312.2, 441.0)">n</text><text xml:space="preserve" font-family="Chalkduster" font-size="32.0" fill="#FEFFFE" transform="matrix(1.00, 0.00, -0.00, -1.00, 336.4, 441.0)">u</text><text xml:space="preserve" font-family="Chalkduster" font-size="32.0" fill="#FEFFFE" transform="matrix(1.00, 0.00, -0.00, -1.00, 358.9, 441.0)">r</text><text xml:space="preserve" font-family="Chalkduster" font-size="32.0" fill="#FEFFFE" transform="matrix(1.00, 0.00, -0.00, -1.00, 375.8, 441.0)">t</text><text xml:space="preserve" font-family="Chalkduster" font-size="32.0" fill="#FEFFFE" transform="matrix(1.00, 0.00, -0.00, -1.00, 390.5, 441.0)">u</text><text xml:space="preserve" font-family="Chalkduster" font-size="32.0" fill="#FEFFFE" transform="matrix(1.00, 0.00, -0.00, -1.00, 413.0, 441.0)">r</text><text xml:space="preserve" font-family="Chalkduster" font-size="32.0" fill="#FEFFFE" transform="matrix(1.00, 0.00, -0.00, -1.00, 430.7, 441.0)">i</text><text xml:space="preserve" font-family="Chalkduster" font-size="32.0" fill="#FEFFFE" transform="matrix(1.00, 0.00, -0.00, -1.00, 443.3, 441.0)">n</text><text xml:space="preserve" font-family="Chalkduster" font-size="32.0" fill="#FEFFFE" transform="matrix(1.00, 0.00, -0.00, -1.00, 465.8, 441.0)">g</text><text xml:space="preserve" font-family="Chalkduster" font-size="32.0" fill="#FEFFFE" transform="matrix(1.00, 0.00, -0.00, -1.00, 487.6, 441.0)"> </text><text xml:space="preserve" font-family="Chalkduster" font-size="32.0" fill="#FEFFFE" transform="matrix(1.00, 0.00, -0.00, -1.00, 142.0, 393.0)">r</text><text xml:space="preserve" font-family="Chalkduster" font-size="32.0" fill="#FEFFFE" transform="matrix(1.00, 0.00, -0.00, -1.00, 158.2, 393.0)">e</text><text xml:space="preserve" font-family="Chalkduster" font-size="32.0" fill="#FEFFFE" transform="matrix(1.00, 0.00, -0.00, -1.00, 178.0, 393.0)">l</text><text xml:space="preserve" font-family="Chalkduster" font-size="32.0" fill="#FEFFFE" transform="matrix(1.00, 0.00, -0.00, -1.00, 192.4, 393.0)">a</text><text xml:space="preserve" font-family="Chalkduster" font-size="32.0" fill="#FEFFFE" transform="matrix(1.00, 0.00, -0.00, -1.00, 212.2, 393.0)">t</text><text xml:space="preserve" font-family="Chalkduster" font-size="32.0" fill="#FEFFFE" transform="matrix(1.00, 0.00, -0.00, -1.00, 227.0, 393.0)">i</text><text xml:space="preserve" font-family="Chalkduster" font-size="32.0" fill="#FEFFFE" transform="matrix(1.00, 0.00, -0.00, -1.00, 239.6, 393.0)">o</text><text xml:space="preserve" font-family="Chalkduster" font-size="32.0" fill="#FEFFFE" transform="matrix(1.00, 0.00, -0.00, -1.00, 263.5, 393.0)">n</text><text xml:space="preserve" font-family="Chalkduster" font-size="32.0" fill="#FEFFFE" transform="matrix(1.00, 0.00, -0.00, -1.00, 286.9, 393.0)">s</text><text xml:space="preserve" font-family="Chalkduster" font-size="32.0" fill="#FEFFFE" transform="matrix(1.00, 0.00, -0.00, -1.00, 303.5, 393.0)">h</text><text xml:space="preserve" font-family="Chalkduster" font-size="32.0" fill="#FEFFFE" transform="matrix(1.00, 0.00, -0.00, -1.00, 323.7, 393.0)">i</text><text xml:space="preserve" font-family="Chalkduster" font-size="32.0" fill="#FEFFFE" transform="matrix(1.00, 0.00, -0.00, -1.00, 335.6, 393.0)">p</text><text xml:space="preserve" font-family="Chalkduster" font-size="32.0" fill="#FEFFFE" transform="matrix(1.00, 0.00, -0.00, -1.00, 355.4, 393.0)"> </text><text xml:space="preserve" font-family="Chalkduster" font-size="32.0" fill="#FEFFFE" transform="matrix(1.00, 0.00, -0.00, -1.00, 371.3, 393.0)">w</text><text xml:space="preserve" font-family="Chalkduster" font-size="32.0" fill="#FEFFFE" transform="matrix(1.00, 0.00, -0.00, -1.00, 398.7, 393.0)">i</text><text xml:space="preserve" font-family="Chalkduster" font-size="32.0" fill="#FEFFFE" transform="matrix(1.00, 0.00, -0.00, -1.00, 411.6, 393.0)">t</text><text xml:space="preserve" font-family="Chalkduster" font-size="32.0" fill="#FEFFFE" transform="matrix(1.00, 0.00, -0.00, -1.00, 426.9, 393.0)">h</text><text xml:space="preserve" font-family="Chalkduster" font-size="32.0" fill="#FEFFFE" transform="matrix(1.00, 0.00, -0.00, -1.00, 446.7, 393.0)"> </text><text xml:space="preserve" font-family="Chalkduster" font-size="32.0" fill="#FEFFFE" transform="matrix(1.00, 0.00, -0.00, -1.00, 462.6, 393.0)">a</text><text xml:space="preserve" font-family="Chalkduster" font-size="32.0" fill="#FEFFFE" transform="matrix(1.00, 0.00, -0.00, -1.00, 484.6, 393.0)">n</text><text xml:space="preserve" font-family="Chalkduster" font-size="32.0" fill="#FEFFFE" transform="matrix(1.00, 0.00, -0.00, -1.00, 508.1, 393.0)"> </text><text xml:space="preserve" font-family="Chalkduster" font-size="32.0" fill="#FEFFFE" transform="matrix(1.00, 0.00, -0.00, -1.00, 142.0, 345.0)">a</text><text xml:space="preserve" font-family="Chalkduster" font-size="32.0" fill="#FEFFFE" transform="matrix(1.00, 0.00, -0.00, -1.00, 163.0, 345.0)">d</text><text xml:space="preserve" font-family="Chalkduster" font-size="32.0" fill="#FEFFFE" transform="matrix(1.00, 0.00, -0.00, -1.00, 188.7, 345.0)">u</text><text xml:space="preserve" font-family="Chalkduster" font-size="32.0" fill="#FEFFFE" transform="matrix(1.00, 0.00, -0.00, -1.00, 211.5, 345.0)">l</text><text xml:space="preserve" font-family="Chalkduster" font-size="32.0" fill="#FEFFFE" transform="matrix(1.00, 0.00, -0.00, -1.00, 223.2, 345.0)">t</text><text xml:space="preserve" font-family="Chalkduster" font-size="32.0" fill="#FEFFFE" transform="matrix(1.00, 0.00, -0.00, -1.00, 237.8, 345.0)"> </text><text xml:space="preserve" font-family="Chalkduster" font-size="32.0" fill="#FEFFFE" transform="matrix(1.00, 0.00, -0.00, -1.00, 253.7, 345.0)">f</text><text xml:space="preserve" font-family="Chalkduster" font-size="32.0" fill="#FEFFFE" transform="matrix(1.00, 0.00, -0.00, -1.00, 270.8, 345.0)">i</text><text xml:space="preserve" font-family="Chalkduster" font-size="32.0" fill="#FEFFFE" transform="matrix(1.00, 0.00, -0.00, -1.00, 283.4, 345.0)">g</text><text xml:space="preserve" font-family="Chalkduster" font-size="32.0" fill="#FEFFFE" transform="matrix(1.00, 0.00, -0.00, -1.00, 305.2, 345.0)">u</text><text xml:space="preserve" font-family="Chalkduster" font-size="32.0" fill="#FEFFFE" transform="matrix(1.00, 0.00, -0.00, -1.00, 327.7, 345.0)">r</text><text xml:space="preserve" font-family="Chalkduster" font-size="32.0" fill="#FEFFFE" transform="matrix(1.00, 0.00, -0.00, -1.00, 343.9, 345.0)">e</text><text xml:space="preserve" font-family="Chalkduster" font-size="32.0" fill="#FEFFFE" transform="matrix(1.00, 0.00, -0.00, -1.00, 363.7, 345.0)"> </text><text xml:space="preserve" font-family="Chalkduster" font-size="32.0" fill="#FEFFFE" transform="matrix(1.00, 0.00, -0.00, -1.00, 379.7, 345.0)">—</text><text xml:space="preserve" font-family="Chalkduster" font-size="32.0" fill="#FEFFFE" transform="matrix(1.00, 0.00, -0.00, -1.00, 401.4, 345.0)">&gt;</text><text xml:space="preserve" font-family="Chalkduster" font-size="32.0" fill="#FEFFFE" transform="matrix(1.00, 0.00, -0.00, -1.00, 417.0, 345.0)"> </text><text xml:space="preserve" font-family="Chalkduster" font-size="32.0" fill="#FEFFFE" transform="matrix(1.00, 0.00, -0.00, -1.00, 142.0, 297.0)">r</text><text xml:space="preserve" font-family="Chalkduster" font-size="32.0" fill="#FEFFFE" transform="matrix(1.00, 0.00, -0.00, -1.00, 158.2, 297.0)">e</text><text xml:space="preserve" font-family="Chalkduster" font-size="32.0" fill="#FEFFFE" transform="matrix(1.00, 0.00, -0.00, -1.00, 178.8, 297.0)">s</text><text xml:space="preserve" font-family="Chalkduster" font-size="32.0" fill="#FEFFFE" transform="matrix(1.00, 0.00, -0.00, -1.00, 194.9, 297.0)">i</text><text xml:space="preserve" font-family="Chalkduster" font-size="32.0" fill="#FEFFFE" transform="matrix(1.00, 0.00, -0.00, -1.00, 207.9, 297.0)">l</text><text xml:space="preserve" font-family="Chalkduster" font-size="32.0" fill="#FEFFFE" transform="matrix(1.00, 0.00, -0.00, -1.00, 223.3, 297.0)">i</text><text xml:space="preserve" font-family="Chalkduster" font-size="32.0" fill="#FEFFFE" transform="matrix(1.00, 0.00, -0.00, -1.00, 235.9, 297.0)">e</text><text xml:space="preserve" font-family="Chalkduster" font-size="32.0" fill="#FEFFFE" transform="matrix(1.00, 0.00, -0.00, -1.00, 256.1, 297.0)">n</text><text xml:space="preserve" font-family="Chalkduster" font-size="32.0" fill="#FEFFFE" transform="matrix(1.00, 0.00, -0.00, -1.00, 279.6, 297.0)">c</text><text xml:space="preserve" font-family="Chalkduster" font-size="32.0" fill="#FEFFFE" transform="matrix(1.00, 0.00, -0.00, -1.00, 298.9, 297.0)">e</text><text xml:space="preserve" font-family="Chalkduster" font-size="32.0" fill="#FEFFFE" transform="matrix(1.00, 0.00, -0.00, -1.00, 318.8, 297.0)"> </text><image xlink:href="../../BEF5154A-7D10-4758-94F3-9B0BF504E35A/assets/8031BC132AD45F67E5F193E246E66C87.png" width="19.00" height="18.00" transform="matrix(0.99, 0.00, -0.00, -0.97, 104.0, 234.3)"></image><text xml:space="preserve" font-family="Chalkduster" font-size="32.0" fill="#FEFFFE" transform="matrix(1.00, 0.00, -0.00, -1.00, 142.0, 217.0)">A</text><text xml:space="preserve" font-family="Chalkduster" font-size="32.0" fill="#FEFFFE" transform="matrix(1.00, 0.00, -0.00, -1.00, 165.7, 217.0)">d</text><text xml:space="preserve" font-family="Chalkduster" font-size="32.0" fill="#FEFFFE" transform="matrix(1.00, 0.00, -0.00, -1.00, 191.3, 217.0)">u</text><text xml:space="preserve" font-family="Chalkduster" font-size="32.0" fill="#FEFFFE" transform="matrix(1.00, 0.00, -0.00, -1.00, 214.2, 217.0)">l</text><text xml:space="preserve" font-family="Chalkduster" font-size="32.0" fill="#FEFFFE" transform="matrix(1.00, 0.00, -0.00, -1.00, 225.8, 217.0)">t</text><text xml:space="preserve" font-family="Chalkduster" font-size="32.0" fill="#FEFFFE" transform="matrix(1.00, 0.00, -0.00, -1.00, 240.4, 217.0)">s</text><text xml:space="preserve" font-family="Chalkduster" font-size="32.0" fill="#FEFFFE" transform="matrix(1.00, 0.00, -0.00, -1.00, 256.6, 217.0)"> </text><text xml:space="preserve" font-family="Chalkduster" font-size="32.0" fill="#FEFFFE" transform="matrix(1.00, 0.00, -0.00, -1.00, 272.5, 217.0)">t</text><text xml:space="preserve" font-family="Chalkduster" font-size="32.0" fill="#FEFFFE" transform="matrix(1.00, 0.00, -0.00, -1.00, 285.7, 217.0)">o</text><text xml:space="preserve" font-family="Chalkduster" font-size="32.0" fill="#FEFFFE" transform="matrix(1.00, 0.00, -0.00, -1.00, 308.7, 217.0)"> </text><text xml:space="preserve" font-family="Chalkduster" font-size="32.0" fill="#FEFFFE" transform="matrix(1.00, 0.00, -0.00, -1.00, 324.6, 217.0)">s</text><text xml:space="preserve" font-family="Chalkduster" font-size="32.0" fill="#FEFFFE" transform="matrix(1.00, 0.00, -0.00, -1.00, 340.8, 217.0)">u</text><text xml:space="preserve" font-family="Chalkduster" font-size="32.0" fill="#FEFFFE" transform="matrix(1.00, 0.00, -0.00, -1.00, 363.3, 217.0)">p</text><text xml:space="preserve" font-family="Chalkduster" font-size="32.0" fill="#FEFFFE" transform="matrix(1.00, 0.00, -0.00, -1.00, 383.0, 217.0)">p</text><text xml:space="preserve" font-family="Chalkduster" font-size="32.0" fill="#FEFFFE" transform="matrix(1.00, 0.00, -0.00, -1.00, 403.2, 217.0)">o</text><text xml:space="preserve" font-family="Chalkduster" font-size="32.0" fill="#FEFFFE" transform="matrix(1.00, 0.00, -0.00, -1.00, 426.5, 217.0)">r</text><text xml:space="preserve" font-family="Chalkduster" font-size="32.0" fill="#FEFFFE" transform="matrix(1.00, 0.00, -0.00, -1.00, 443.4, 217.0)">t</text><text xml:space="preserve" font-family="Chalkduster" font-size="32.0" fill="#FEFFFE" transform="matrix(1.00, 0.00, -0.00, -1.00, 453.8, 217.0)">,</text><text xml:space="preserve" font-family="Chalkduster" font-size="32.0" fill="#FEFFFE" transform="matrix(1.00, 0.00, -0.00, -1.00, 463.7, 217.0)"> </text><text xml:space="preserve" font-family="Chalkduster" font-size="32.0" fill="#FEFFFE" transform="matrix(1.00, 0.00, -0.00, -1.00, 142.0, 169.0)">n</text><text xml:space="preserve" font-family="Chalkduster" font-size="32.0" fill="#FEFFFE" transform="matrix(1.00, 0.00, -0.00, -1.00, 164.8, 169.0)">o</text><text xml:space="preserve" font-family="Chalkduster" font-size="32.0" fill="#FEFFFE" transform="matrix(1.00, 0.00, -0.00, -1.00, 186.6, 169.0)">t</text><text xml:space="preserve" font-family="Chalkduster" font-size="32.0" fill="#FEFFFE" transform="matrix(1.00, 0.00, -0.00, -1.00, 201.2, 169.0)"> </text><text xml:space="preserve" font-family="Chalkduster" font-size="32.0" fill="#FEFFFE" transform="matrix(1.00, 0.00, -0.00, -1.00, 217.2, 169.0)">d</text><text xml:space="preserve" font-family="Chalkduster" font-size="32.0" fill="#FEFFFE" transform="matrix(1.00, 0.00, -0.00, -1.00, 243.5, 169.0)">i</text><text xml:space="preserve" font-family="Chalkduster" font-size="32.0" fill="#FEFFFE" transform="matrix(1.00, 0.00, -0.00, -1.00, 256.1, 169.0)">r</text><text xml:space="preserve" font-family="Chalkduster" font-size="32.0" fill="#FEFFFE" transform="matrix(1.00, 0.00, -0.00, -1.00, 272.3, 169.0)">e</text><text xml:space="preserve" font-family="Chalkduster" font-size="32.0" fill="#FEFFFE" transform="matrix(1.00, 0.00, -0.00, -1.00, 292.7, 169.0)">c</text><text xml:space="preserve" font-family="Chalkduster" font-size="32.0" fill="#FEFFFE" transform="matrix(1.00, 0.00, -0.00, -1.00, 311.7, 169.0)">t</text><text xml:space="preserve" font-family="Chalkduster" font-size="32.0" fill="#FEFFFE" transform="matrix(1.00, 0.00, -0.00, -1.00, 326.3, 169.0)"> </text><text xml:space="preserve" font-family="Chalkduster" font-size="32.0" fill="#FEFFFE" transform="matrix(1.00, 0.00, -0.00, -1.00, 342.2, 169.0)">(</text><text xml:space="preserve" font-family="Chalkduster" font-size="32.0" fill="#FEFFFE" transform="matrix(1.00, 0.00, -0.00, -1.00, 357.8, 169.0)">W</text><text xml:space="preserve" font-family="Chalkduster" font-size="32.0" fill="#FEFFFE" transform="matrix(1.00, 0.00, -0.00, -1.00, 384.7, 169.0)">a</text><text xml:space="preserve" font-family="Chalkduster" font-size="32.0" fill="#FEFFFE" transform="matrix(1.00, 0.00, -0.00, -1.00, 405.1, 169.0)">r</text><text xml:space="preserve" font-family="Chalkduster" font-size="32.0" fill="#FEFFFE" transform="matrix(1.00, 0.00, -0.00, -1.00, 422.1, 169.0)">d</text><text xml:space="preserve" font-family="Chalkduster" font-size="32.0" fill="#FEFFFE" transform="matrix(1.00, 0.00, -0.00, -1.00, 447.2, 169.0)"> </text><text xml:space="preserve" font-family="Chalkduster" font-size="32.0" fill="#FEFFFE" transform="matrix(1.00, 0.00, -0.00, -1.00, 142.0, 121.0)">1</text><text xml:space="preserve" font-family="Chalkduster" font-size="32.0" fill="#FEFFFE" transform="matrix(1.00, 0.00, -0.00, -1.00, 159.7, 121.0)">9</text><text xml:space="preserve" font-family="Chalkduster" font-size="32.0" fill="#FEFFFE" transform="matrix(1.00, 0.00, -0.00, -1.00, 179.0, 121.0)">9</text><text xml:space="preserve" font-family="Chalkduster" font-size="32.0" fill="#FEFFFE" transform="matrix(1.00, 0.00, -0.00, -1.00, 198.3, 121.0)">6</text><text xml:space="preserve" font-family="Chalkduster" font-size="32.0" fill="#FEFFFE" transform="matrix(1.00, 0.00, -0.00, -1.00, 219.6, 121.0)">)</text></g></svg>