<?xml version="1.0" encoding="UTF-8" standalone="no"?><svg xmlns="http://www.w3.org/2000/svg" xmlns:xlink="http://www.w3.org/1999/xlink" clip-rule="evenodd" stroke-miterlimit="4.00" viewBox="0 0 1024 768"><desc>SVG generated by Keynote</desc><defs></defs><g transform="matrix(1.00, 0.00, -0.00, -1.00, 0.0, 768.0)"><path d="M 0.0 768.0 L 1024.0 768.0 L 1024.0 0.0 L 0.0 0.0 Z M 0.0 768.0 " fill="#FEFFFF"></path><text xml:space="preserve" font-family="Helvetica-Light" font-size="67.2" fill="#000000" transform="matrix(1.00, 0.00, -0.00, -1.00, 178.0, 663.0)">M</text><text xml:space="preserve" font-family="Helvetica-Light" font-size="67.2" fill="#000000" transform="matrix(1.00, 0.00, -0.00, -1.00, 234.0, 663.0)">e</text><text xml:space="preserve" font-family="Helvetica-Light" font-size="67.2" fill="#000000" transform="matrix(1.00, 0.00, -0.00, -1.00, 271.3, 663.0)">a</text><text xml:space="preserve" font-family="Helvetica-Light" font-size="67.2" fill="#000000" transform="matrix(1.00, 0.00, -0.00, -1.00, 308.7, 663.0)">s</text><text xml:space="preserve" font-family="Helvetica-Light" font-size="67.2" fill="#000000" transform="matrix(1.00, 0.00, -0.00, -1.00, 342.3, 663.0)">u</text><text xml:space="preserve" font-family="Helvetica-Light" font-size="67.2" fill="#000000" transform="matrix(1.00, 0.00, -0.00, -1.00, 379.7, 663.0)">r</text><text xml:space="preserve" font-family="Helvetica-Light" font-size="67.2" fill="#000000" transform="matrix(1.00, 0.00, -0.00, -1.00, 400.8, 663.0)">e</text><text xml:space="preserve" font-family="Helvetica-Light" font-size="67.2" fill="#000000" transform="matrix(1.00, 0.00, -0.00, -1.00, 438.2, 663.0)"> </text><text xml:space="preserve" font-family="Helvetica-Light" font-size="67.2" fill="#000000" transform="matrix(1.00, 0.00, -0.00, -1.00, 456.9, 663.0)">o</text><text xml:space="preserve" font-family="Helvetica-Light" font-size="67.2" fill="#000000" transform="matrix(1.00, 0.00, -0.00, -1.00, 494.2, 663.0)">f</text><text xml:space="preserve" font-family="Helvetica-Light" font-size="67.2" fill="#000000" transform="matrix(1.00, 0.00, -0.00, -1.00, 512.9, 663.0)"> </text><text xml:space="preserve" font-family="Helvetica-Light" font-size="67.2" fill="#000000" transform="matrix(1.00, 0.00, -0.00, -1.00, 531.6, 663.0)">S</text><text xml:space="preserve" font-family="Helvetica-Light" font-size="67.2" fill="#000000" transform="matrix(1.00, 0.00, -0.00, -1.00, 572.7, 663.0)">u</text><text xml:space="preserve" font-family="Helvetica-Light" font-size="67.2" fill="#000000" transform="matrix(1.00, 0.00, -0.00, -1.00, 610.0, 663.0)">b</text><text xml:space="preserve" font-family="Helvetica-Light" font-size="67.2" fill="#000000" transform="matrix(1.00, 0.00, -0.00, -1.00, 651.1, 663.0)">j</text><text xml:space="preserve" font-family="Helvetica-Light" font-size="67.2" fill="#000000" transform="matrix(1.00, 0.00, -0.00, -1.00, 666.0, 663.0)">e</text><text xml:space="preserve" font-family="Helvetica-Light" font-size="67.2" fill="#000000" transform="matrix(1.00, 0.00, -0.00, -1.00, 703.4, 663.0)">c</text><text xml:space="preserve" font-family="Helvetica-Light" font-size="67.2" fill="#000000" transform="matrix(1.00, 0.00, -0.00, -1.00, 740.7, 663.0)">t</text><text xml:space="preserve" font-family="Helvetica-Light" font-size="67.2" fill="#000000" transform="matrix(1.00, 0.00, -0.00, -1.00, 759.4, 663.0)">i</text><text xml:space="preserve" font-family="Helvetica-Light" font-size="67.2" fill="#000000" transform="matrix(1.00, 0.00, -0.00, -1.00, 774.3, 663.0)">v</text><text xml:space="preserve" font-family="Helvetica-Light" font-size="67.2" fill="#000000" transform="matrix(1.00, 0.00, -0.00, -1.00, 807.9, 663.0)">e</text><text xml:space="preserve" font-family="Helvetica-Light" font-size="67.2" fill="#000000" transform="matrix(1.00, 0.00, -0.00, -1.00, 845.3, 663.0)"> </text><text xml:space="preserve" font-family="Helvetica-Light" font-size="67.2" fill="#000000" transform="matrix(1.00, 0.00, -0.00, -1.00, 348.0, 583.0)">S</text><text xml:space="preserve" font-family="Helvetica-Light" font-size="67.2" fill="#000000" transform="matrix(1.00, 0.00, -0.00, -1.00, 389.1, 583.0)">l</text><text xml:space="preserve" font-family="Helvetica-Light" font-size="67.2" fill="#000000" transform="matrix(1.00, 0.00, -0.00, -1.00, 404.0, 583.0)">e</text><text xml:space="preserve" font-family="Helvetica-Light" font-size="67.2" fill="#000000" transform="matrix(1.00, 0.00, -0.00, -1.00, 441.3, 583.0)">e</text><text xml:space="preserve" font-family="Helvetica-Light" font-size="67.2" fill="#000000" transform="matrix(1.00, 0.00, -0.00, -1.00, 478.7, 583.0)">p</text><text xml:space="preserve" font-family="Helvetica-Light" font-size="67.2" fill="#000000" transform="matrix(1.00, 0.00, -0.00, -1.00, 519.8, 583.0)">i</text><text xml:space="preserve" font-family="Helvetica-Light" font-size="67.2" fill="#000000" transform="matrix(1.00, 0.00, -0.00, -1.00, 534.7, 583.0)">n</text><text xml:space="preserve" font-family="Helvetica-Light" font-size="67.2" fill="#000000" transform="matrix(1.00, 0.00, -0.00, -1.00, 572.0, 583.0)">e</text><text xml:space="preserve" font-family="Helvetica-Light" font-size="67.2" fill="#000000" transform="matrix(1.00, 0.00, -0.00, -1.00, 609.4, 583.0)">s</text><text xml:space="preserve" font-family="Helvetica-Light" font-size="67.2" fill="#000000" transform="matrix(1.00, 0.00, -0.00, -1.00, 643.0, 583.0)">s</text><text xml:space="preserve" font-family="Helvetica-Light" font-size="26.2" fill="#000000" transform="matrix(1.00, 0.00, -0.00, -1.00, 79.0, 527.5)">•</text><text xml:space="preserve" font-family="Helvetica-Light" font-size="34.9" fill="#000000" transform="matrix(1.00, 0.00, -0.00, -1.00, 113.0, 524.0)">K</text><text xml:space="preserve" font-family="Helvetica-Light" font-size="34.9" fill="#000000" transform="matrix(1.00, 0.00, -0.00, -1.00, 136.3, 524.0)">a</text><text xml:space="preserve" font-family="Helvetica-Light" font-size="34.9" fill="#000000" transform="matrix(1.00, 0.00, -0.00, -1.00, 155.7, 524.0)">r</text><text xml:space="preserve" font-family="Helvetica-Light" font-size="34.9" fill="#000000" transform="matrix(1.00, 0.00, -0.00, -1.00, 166.7, 524.0)">o</text><text xml:space="preserve" font-family="Helvetica-Light" font-size="34.9" fill="#000000" transform="matrix(1.00, 0.00, -0.00, -1.00, 186.1, 524.0)">l</text><text xml:space="preserve" font-family="Helvetica-Light" font-size="34.9" fill="#000000" transform="matrix(1.00, 0.00, -0.00, -1.00, 193.9, 524.0)">i</text><text xml:space="preserve" font-family="Helvetica-Light" font-size="34.9" fill="#000000" transform="matrix(1.00, 0.00, -0.00, -1.00, 201.6, 524.0)">n</text><text xml:space="preserve" font-family="Helvetica-Light" font-size="34.9" fill="#000000" transform="matrix(1.00, 0.00, -0.00, -1.00, 221.0, 524.0)">s</text><text xml:space="preserve" font-family="Helvetica-Light" font-size="34.9" fill="#000000" transform="matrix(1.00, 0.00, -0.00, -1.00, 238.5, 524.0)">k</text><text xml:space="preserve" font-family="Helvetica-Light" font-size="34.9" fill="#000000" transform="matrix(1.00, 0.00, -0.00, -1.00, 256.0, 524.0)">a</text><text xml:space="preserve" font-family="Helvetica-Light" font-size="34.9" fill="#000000" transform="matrix(1.00, 0.00, -0.00, -1.00, 275.4, 524.0)"> </text><text xml:space="preserve" font-family="Helvetica-Light" font-size="34.9" fill="#000000" transform="matrix(1.00, 0.00, -0.00, -1.00, 285.1, 524.0)">S</text><text xml:space="preserve" font-family="Helvetica-Light" font-size="34.9" fill="#000000" transform="matrix(1.00, 0.00, -0.00, -1.00, 306.4, 524.0)">l</text><text xml:space="preserve" font-family="Helvetica-Light" font-size="34.9" fill="#000000" transform="matrix(1.00, 0.00, -0.00, -1.00, 314.2, 524.0)">e</text><text xml:space="preserve" font-family="Helvetica-Light" font-size="34.9" fill="#000000" transform="matrix(1.00, 0.00, -0.00, -1.00, 333.6, 524.0)">e</text><text xml:space="preserve" font-family="Helvetica-Light" font-size="34.9" fill="#000000" transform="matrix(1.00, 0.00, -0.00, -1.00, 353.0, 524.0)">p</text><text xml:space="preserve" font-family="Helvetica-Light" font-size="34.9" fill="#000000" transform="matrix(1.00, 0.00, -0.00, -1.00, 374.3, 524.0)">i</text><text xml:space="preserve" font-family="Helvetica-Light" font-size="34.9" fill="#000000" transform="matrix(1.00, 0.00, -0.00, -1.00, 382.1, 524.0)">n</text><text xml:space="preserve" font-family="Helvetica-Light" font-size="34.9" fill="#000000" transform="matrix(1.00, 0.00, -0.00, -1.00, 401.5, 524.0)">e</text><text xml:space="preserve" font-family="Helvetica-Light" font-size="34.9" fill="#000000" transform="matrix(1.00, 0.00, -0.00, -1.00, 420.9, 524.0)">s</text><text xml:space="preserve" font-family="Helvetica-Light" font-size="34.9" fill="#000000" transform="matrix(1.00, 0.00, -0.00, -1.00, 438.4, 524.0)">s</text><text xml:space="preserve" font-family="Helvetica-Light" font-size="34.9" fill="#000000" transform="matrix(1.00, 0.00, -0.00, -1.00, 455.8, 524.0)"> </text><text xml:space="preserve" font-family="Helvetica-Light" font-size="34.9" fill="#000000" transform="matrix(1.00, 0.00, -0.00, -1.00, 465.6, 524.0)">S</text><text xml:space="preserve" font-family="Helvetica-Light" font-size="34.9" fill="#000000" transform="matrix(1.00, 0.00, -0.00, -1.00, 486.9, 524.0)">c</text><text xml:space="preserve" font-family="Helvetica-Light" font-size="34.9" fill="#000000" transform="matrix(1.00, 0.00, -0.00, -1.00, 506.3, 524.0)">a</text><text xml:space="preserve" font-family="Helvetica-Light" font-size="34.9" fill="#000000" transform="matrix(1.00, 0.00, -0.00, -1.00, 525.7, 524.0)">l</text><text xml:space="preserve" font-family="Helvetica-Light" font-size="34.9" fill="#000000" transform="matrix(1.00, 0.00, -0.00, -1.00, 533.5, 524.0)">e</text><text xml:space="preserve" font-family="Helvetica-Light" font-size="34.9" fill="#000000" transform="matrix(1.00, 0.00, -0.00, -1.00, 552.9, 524.0)"> </text><text xml:space="preserve" font-family="Helvetica-Light" font-size="34.9" fill="#000000" transform="matrix(1.00, 0.00, -0.00, -1.00, 562.6, 524.0)">(</text><text xml:space="preserve" font-family="Helvetica-Light" font-size="34.9" fill="#000000" transform="matrix(1.00, 0.00, -0.00, -1.00, 574.2, 524.0)">K</text><text xml:space="preserve" font-family="Helvetica-Light" font-size="34.9" fill="#000000" transform="matrix(1.00, 0.00, -0.00, -1.00, 597.5, 524.0)">S</text><text xml:space="preserve" font-family="Helvetica-Light" font-size="34.9" fill="#000000" transform="matrix(1.00, 0.00, -0.00, -1.00, 618.9, 524.0)">S</text><text xml:space="preserve" font-family="Helvetica-Light" font-size="34.9" fill="#000000" transform="matrix(1.00, 0.00, -0.00, -1.00, 640.2, 524.0)">)</text><text xml:space="preserve" font-family="Helvetica-Light" font-size="34.9" fill="#000000" transform="matrix(1.00, 0.00, -0.00, -1.00, 651.8, 524.0)"> </text><text xml:space="preserve" font-family="Helvetica-Light" font-size="34.9" fill="#000000" transform="matrix(1.00, 0.00, -0.00, -1.00, 149.0, 441.3)">1</text><text xml:space="preserve" font-family="Helvetica-Light" font-size="34.9" fill="#000000" transform="matrix(1.00, 0.00, -0.00, -1.00, 168.4, 441.3)">.</text><text xml:space="preserve" font-family="Helvetica-Light" font-size="34.9" fill="#000000" transform="matrix(1.00, 0.00, -0.00, -1.00, 178.0, 441.0)"> </text><text xml:space="preserve" font-family="Helvetica-Light" font-size="34.9" fill="#000000" transform="matrix(1.00, 0.00, -0.00, -1.00, 187.7, 441.0)">E</text><text xml:space="preserve" font-family="Helvetica-Light" font-size="34.9" fill="#000000" transform="matrix(1.00, 0.00, -0.00, -1.00, 209.0, 441.0)">x</text><text xml:space="preserve" font-family="Helvetica-Light" font-size="34.9" fill="#000000" transform="matrix(1.00, 0.00, -0.00, -1.00, 226.5, 441.0)">t</text><text xml:space="preserve" font-family="Helvetica-Light" font-size="34.9" fill="#000000" transform="matrix(1.00, 0.00, -0.00, -1.00, 236.2, 441.0)">r</text><text xml:space="preserve" font-family="Helvetica-Light" font-size="34.9" fill="#000000" transform="matrix(1.00, 0.00, -0.00, -1.00, 247.2, 441.0)">e</text><text xml:space="preserve" font-family="Helvetica-Light" font-size="34.9" fill="#000000" transform="matrix(1.00, 0.00, -0.00, -1.00, 266.6, 441.0)">m</text><text xml:space="preserve" font-family="Helvetica-Light" font-size="34.9" fill="#000000" transform="matrix(1.00, 0.00, -0.00, -1.00, 295.7, 441.0)">e</text><text xml:space="preserve" font-family="Helvetica-Light" font-size="34.9" fill="#000000" transform="matrix(1.00, 0.00, -0.00, -1.00, 315.1, 441.0)">l</text><text xml:space="preserve" font-family="Helvetica-Light" font-size="34.9" fill="#000000" transform="matrix(1.00, 0.00, -0.00, -1.00, 322.9, 441.0)">y</text><text xml:space="preserve" font-family="Helvetica-Light" font-size="34.9" fill="#000000" transform="matrix(1.00, 0.00, -0.00, -1.00, 340.3, 441.0)"> </text><text xml:space="preserve" font-family="Helvetica-Light" font-size="34.9" fill="#000000" transform="matrix(1.00, 0.00, -0.00, -1.00, 350.1, 441.0)">a</text><text xml:space="preserve" font-family="Helvetica-Light" font-size="34.9" fill="#000000" transform="matrix(1.00, 0.00, -0.00, -1.00, 369.5, 441.0)">l</text><text xml:space="preserve" font-family="Helvetica-Light" font-size="34.9" fill="#000000" transform="matrix(1.00, 0.00, -0.00, -1.00, 377.2, 441.0)">e</text><text xml:space="preserve" font-family="Helvetica-Light" font-size="34.9" fill="#000000" transform="matrix(1.00, 0.00, -0.00, -1.00, 396.6, 441.0)">r</text><text xml:space="preserve" font-family="Helvetica-Light" font-size="34.9" fill="#000000" transform="matrix(1.00, 0.00, -0.00, -1.00, 408.9, 441.0)">t</text><text xml:space="preserve" font-family="Helvetica-Light" font-size="34.9" fill="#000000" transform="matrix(1.00, 0.00, -0.00, -1.00, 418.6, 441.0)"> </text><text xml:space="preserve" font-family="Helvetica-Light" font-size="34.9" fill="#000000" transform="matrix(1.00, 0.00, -0.00, -1.00, 149.0, 396.4)">2</text><text xml:space="preserve" font-family="Helvetica-Light" font-size="34.9" fill="#000000" transform="matrix(1.00, 0.00, -0.00, -1.00, 168.4, 396.4)">.</text><text xml:space="preserve" font-family="Helvetica-Light" font-size="34.9" fill="#000000" transform="matrix(1.00, 0.00, -0.00, -1.00, 178.0, 396.0)"> </text><text xml:space="preserve" font-family="Helvetica-Light" font-size="34.9" fill="#000000" transform="matrix(1.00, 0.00, -0.00, -1.00, 187.7, 396.0)"> </text><text xml:space="preserve" font-family="Helvetica-Light" font-size="34.9" fill="#000000" transform="matrix(1.00, 0.00, -0.00, -1.00, 149.0, 351.4)">3</text><text xml:space="preserve" font-family="Helvetica-Light" font-size="34.9" fill="#000000" transform="matrix(1.00, 0.00, -0.00, -1.00, 168.4, 351.4)">.</text><text xml:space="preserve" font-family="Helvetica-Light" font-size="34.9" fill="#000000" transform="matrix(1.00, 0.00, -0.00, -1.00, 178.0, 351.0)"> </text><text xml:space="preserve" font-family="Helvetica-Light" font-size="34.9" fill="#000000" transform="matrix(1.00, 0.00, -0.00, -1.00, 187.7, 351.0)">A</text><text xml:space="preserve" font-family="Helvetica-Light" font-size="34.9" fill="#000000" transform="matrix(1.00, 0.00, -0.00, -1.00, 211.0, 351.0)">l</text><text xml:space="preserve" font-family="Helvetica-Light" font-size="34.9" fill="#000000" transform="matrix(1.00, 0.00, -0.00, -1.00, 218.8, 351.0)">e</text><text xml:space="preserve" font-family="Helvetica-Light" font-size="34.9" fill="#000000" transform="matrix(1.00, 0.00, -0.00, -1.00, 238.2, 351.0)">r</text><text xml:space="preserve" font-family="Helvetica-Light" font-size="34.9" fill="#000000" transform="matrix(1.00, 0.00, -0.00, -1.00, 250.4, 351.0)">t</text><text xml:space="preserve" font-family="Helvetica-Light" font-size="34.9" fill="#000000" transform="matrix(1.00, 0.00, -0.00, -1.00, 260.1, 351.0)"> </text><text xml:space="preserve" font-family="Helvetica-Light" font-size="34.9" fill="#000000" transform="matrix(1.00, 0.00, -0.00, -1.00, 149.0, 306.5)">4</text><text xml:space="preserve" font-family="Helvetica-Light" font-size="34.9" fill="#000000" transform="matrix(1.00, 0.00, -0.00, -1.00, 168.4, 306.5)">.</text><text xml:space="preserve" font-family="Helvetica-Light" font-size="34.9" fill="#000000" transform="matrix(1.00, 0.00, -0.00, -1.00, 178.0, 306.0)"> </text><text xml:space="preserve" font-family="Helvetica-Light" font-size="34.9" fill="#000000" transform="matrix(1.00, 0.00, -0.00, -1.00, 187.7, 306.0)"> </text><text xml:space="preserve" font-family="Helvetica-Light" font-size="34.9" fill="#000000" transform="matrix(1.00, 0.00, -0.00, -1.00, 149.0, 261.5)">5</text><text xml:space="preserve" font-family="Helvetica-Light" font-size="34.9" fill="#000000" transform="matrix(1.00, 0.00, -0.00, -1.00, 168.4, 261.5)">.</text><text xml:space="preserve" font-family="Helvetica-Light" font-size="34.9" fill="#000000" transform="matrix(1.00, 0.00, -0.00, -1.00, 178.0, 262.0)"> </text><text xml:space="preserve" font-family="Helvetica-Light" font-size="34.9" fill="#000000" transform="matrix(1.00, 0.00, -0.00, -1.00, 187.7, 262.0)">N</text><text xml:space="preserve" font-family="Helvetica-Light" font-size="34.9" fill="#000000" transform="matrix(1.00, 0.00, -0.00, -1.00, 212.9, 262.0)">e</text><text xml:space="preserve" font-family="Helvetica-Light" font-size="34.9" fill="#000000" transform="matrix(1.00, 0.00, -0.00, -1.00, 232.3, 262.0)">i</text><text xml:space="preserve" font-family="Helvetica-Light" font-size="34.9" fill="#000000" transform="matrix(1.00, 0.00, -0.00, -1.00, 240.1, 262.0)">t</text><text xml:space="preserve" font-family="Helvetica-Light" font-size="34.9" fill="#000000" transform="matrix(1.00, 0.00, -0.00, -1.00, 249.8, 262.0)">h</text><text xml:space="preserve" font-family="Helvetica-Light" font-size="34.9" fill="#000000" transform="matrix(1.00, 0.00, -0.00, -1.00, 269.2, 262.0)">e</text><text xml:space="preserve" font-family="Helvetica-Light" font-size="34.9" fill="#000000" transform="matrix(1.00, 0.00, -0.00, -1.00, 288.6, 262.0)">r</text><text xml:space="preserve" font-family="Helvetica-Light" font-size="34.9" fill="#000000" transform="matrix(1.00, 0.00, -0.00, -1.00, 300.3, 262.0)"> </text><text xml:space="preserve" font-family="Helvetica-Light" font-size="34.9" fill="#000000" transform="matrix(1.00, 0.00, -0.00, -1.00, 310.0, 262.0)">a</text><text xml:space="preserve" font-family="Helvetica-Light" font-size="34.9" fill="#000000" transform="matrix(1.00, 0.00, -0.00, -1.00, 329.4, 262.0)">l</text><text xml:space="preserve" font-family="Helvetica-Light" font-size="34.9" fill="#000000" transform="matrix(1.00, 0.00, -0.00, -1.00, 337.1, 262.0)">e</text><text xml:space="preserve" font-family="Helvetica-Light" font-size="34.9" fill="#000000" transform="matrix(1.00, 0.00, -0.00, -1.00, 356.5, 262.0)">r</text><text xml:space="preserve" font-family="Helvetica-Light" font-size="34.9" fill="#000000" transform="matrix(1.00, 0.00, -0.00, -1.00, 368.8, 262.0)">t</text><text xml:space="preserve" font-family="Helvetica-Light" font-size="34.9" fill="#000000" transform="matrix(1.00, 0.00, -0.00, -1.00, 378.5, 262.0)"> </text><text xml:space="preserve" font-family="Helvetica-Light" font-size="34.9" fill="#000000" transform="matrix(1.00, 0.00, -0.00, -1.00, 388.2, 262.0)">n</text><text xml:space="preserve" font-family="Helvetica-Light" font-size="34.9" fill="#000000" transform="matrix(1.00, 0.00, -0.00, -1.00, 407.6, 262.0)">o</text><text xml:space="preserve" font-family="Helvetica-Light" font-size="34.9" fill="#000000" transform="matrix(1.00, 0.00, -0.00, -1.00, 427.0, 262.0)">r</text><text xml:space="preserve" font-family="Helvetica-Light" font-size="34.9" fill="#000000" transform="matrix(1.00, 0.00, -0.00, -1.00, 438.7, 262.0)"> </text><text xml:space="preserve" font-family="Helvetica-Light" font-size="34.9" fill="#000000" transform="matrix(1.00, 0.00, -0.00, -1.00, 448.4, 262.0)">s</text><text xml:space="preserve" font-family="Helvetica-Light" font-size="34.9" fill="#000000" transform="matrix(1.00, 0.00, -0.00, -1.00, 465.8, 262.0)">l</text><text xml:space="preserve" font-family="Helvetica-Light" font-size="34.9" fill="#000000" transform="matrix(1.00, 0.00, -0.00, -1.00, 473.6, 262.0)">e</text><text xml:space="preserve" font-family="Helvetica-Light" font-size="34.9" fill="#000000" transform="matrix(1.00, 0.00, -0.00, -1.00, 493.0, 262.0)">e</text><text xml:space="preserve" font-family="Helvetica-Light" font-size="34.9" fill="#000000" transform="matrix(1.00, 0.00, -0.00, -1.00, 512.4, 262.0)">p</text><text xml:space="preserve" font-family="Helvetica-Light" font-size="34.9" fill="#000000" transform="matrix(1.00, 0.00, -0.00, -1.00, 533.8, 262.0)">y</text><text xml:space="preserve" font-family="Helvetica-Light" font-size="34.9" fill="#000000" transform="matrix(1.00, 0.00, -0.00, -1.00, 551.2, 262.0)"> </text><text xml:space="preserve" font-family="Helvetica-Light" font-size="34.9" fill="#000000" transform="matrix(1.00, 0.00, -0.00, -1.00, 149.0, 216.6)">6</text><text xml:space="preserve" font-family="Helvetica-Light" font-size="34.9" fill="#000000" transform="matrix(1.00, 0.00, -0.00, -1.00, 168.4, 216.6)">.</text><text xml:space="preserve" font-family="Helvetica-Light" font-size="34.9" fill="#000000" transform="matrix(1.00, 0.00, -0.00, -1.00, 178.0, 217.0)"> </text><text xml:space="preserve" font-family="Helvetica-Light" font-size="34.9" fill="#000000" transform="matrix(1.00, 0.00, -0.00, -1.00, 187.7, 217.0)"> </text><text xml:space="preserve" font-family="Helvetica-Light" font-size="34.9" fill="#000000" transform="matrix(1.00, 0.00, -0.00, -1.00, 149.0, 171.7)">7</text><text xml:space="preserve" font-family="Helvetica-Light" font-size="34.9" fill="#000000" transform="matrix(1.00, 0.00, -0.00, -1.00, 168.4, 171.7)">.</text><text xml:space="preserve" font-family="Helvetica-Light" font-size="34.9" fill="#000000" transform="matrix(1.00, 0.00, -0.00, -1.00, 178.0, 172.0)"> </text><text xml:space="preserve" font-family="Helvetica-Light" font-size="34.9" fill="#000000" transform="matrix(1.00, 0.00, -0.00, -1.00, 187.7, 172.0)">S</text><text xml:space="preserve" font-family="Helvetica-Light" font-size="34.9" fill="#000000" transform="matrix(1.00, 0.00, -0.00, -1.00, 209.0, 172.0)">l</text><text xml:space="preserve" font-family="Helvetica-Light" font-size="34.9" fill="#000000" transform="matrix(1.00, 0.00, -0.00, -1.00, 216.8, 172.0)">e</text><text xml:space="preserve" font-family="Helvetica-Light" font-size="34.9" fill="#000000" transform="matrix(1.00, 0.00, -0.00, -1.00, 236.2, 172.0)">e</text><text xml:space="preserve" font-family="Helvetica-Light" font-size="34.9" fill="#000000" transform="matrix(1.00, 0.00, -0.00, -1.00, 255.6, 172.0)">p</text><text xml:space="preserve" font-family="Helvetica-Light" font-size="34.9" fill="#000000" transform="matrix(1.00, 0.00, -0.00, -1.00, 277.0, 172.0)">y</text><text xml:space="preserve" font-family="Helvetica-Light" font-size="34.9" fill="#000000" transform="matrix(1.00, 0.00, -0.00, -1.00, 291.2, 172.0)">,</text><text xml:space="preserve" font-family="Helvetica-Light" font-size="34.9" fill="#000000" transform="matrix(1.00, 0.00, -0.00, -1.00, 300.9, 172.0)"> </text><text xml:space="preserve" font-family="Helvetica-Light" font-size="34.9" fill="#000000" transform="matrix(1.00, 0.00, -0.00, -1.00, 310.6, 172.0)">b</text><text xml:space="preserve" font-family="Helvetica-Light" font-size="34.9" fill="#000000" transform="matrix(1.00, 0.00, -0.00, -1.00, 332.0, 172.0)">u</text><text xml:space="preserve" font-family="Helvetica-Light" font-size="34.9" fill="#000000" transform="matrix(1.00, 0.00, -0.00, -1.00, 351.4, 172.0)">t</text><text xml:space="preserve" font-family="Helvetica-Light" font-size="34.9" fill="#000000" transform="matrix(1.00, 0.00, -0.00, -1.00, 361.1, 172.0)"> </text><text xml:space="preserve" font-family="Helvetica-Light" font-size="34.9" fill="#000000" transform="matrix(1.00, 0.00, -0.00, -1.00, 370.8, 172.0)">n</text><text xml:space="preserve" font-family="Helvetica-Light" font-size="34.9" fill="#000000" transform="matrix(1.00, 0.00, -0.00, -1.00, 390.2, 172.0)">o</text><text xml:space="preserve" font-family="Helvetica-Light" font-size="34.9" fill="#000000" transform="matrix(1.00, 0.00, -0.00, -1.00, 409.6, 172.0)"> </text><text xml:space="preserve" font-family="Helvetica-Light" font-size="34.9" fill="#000000" transform="matrix(1.00, 0.00, -0.00, -1.00, 419.3, 172.0)">e</text><text xml:space="preserve" font-family="Helvetica-Light" font-size="34.9" fill="#000000" transform="matrix(1.00, 0.00, -0.00, -1.00, 438.7, 172.0)">f</text><text xml:space="preserve" font-family="Helvetica-Light" font-size="34.9" fill="#000000" transform="matrix(1.00, 0.00, -0.00, -1.00, 447.8, 172.0)">f</text><text xml:space="preserve" font-family="Helvetica-Light" font-size="34.9" fill="#000000" transform="matrix(1.00, 0.00, -0.00, -1.00, 457.5, 172.0)">o</text><text xml:space="preserve" font-family="Helvetica-Light" font-size="34.9" fill="#000000" transform="matrix(1.00, 0.00, -0.00, -1.00, 477.0, 172.0)">r</text><text xml:space="preserve" font-family="Helvetica-Light" font-size="34.9" fill="#000000" transform="matrix(1.00, 0.00, -0.00, -1.00, 489.2, 172.0)">t</text><text xml:space="preserve" font-family="Helvetica-Light" font-size="34.9" fill="#000000" transform="matrix(1.00, 0.00, -0.00, -1.00, 498.9, 172.0)"> </text><text xml:space="preserve" font-family="Helvetica-Light" font-size="34.9" fill="#000000" transform="matrix(1.00, 0.00, -0.00, -1.00, 508.6, 172.0)">t</text><text xml:space="preserve" font-family="Helvetica-Light" font-size="34.9" fill="#000000" transform="matrix(1.00, 0.00, -0.00, -1.00, 518.3, 172.0)">o</text><text xml:space="preserve" font-family="Helvetica-Light" font-size="34.9" fill="#000000" transform="matrix(1.00, 0.00, -0.00, -1.00, 537.7, 172.0)"> </text><text xml:space="preserve" font-family="Helvetica-Light" font-size="34.9" fill="#000000" transform="matrix(1.00, 0.00, -0.00, -1.00, 547.5, 172.0)">k</text><text xml:space="preserve" font-family="Helvetica-Light" font-size="34.9" fill="#000000" transform="matrix(1.00, 0.00, -0.00, -1.00, 564.9, 172.0)">e</text><text xml:space="preserve" font-family="Helvetica-Light" font-size="34.9" fill="#000000" transform="matrix(1.00, 0.00, -0.00, -1.00, 584.3, 172.0)">e</text><text xml:space="preserve" font-family="Helvetica-Light" font-size="34.9" fill="#000000" transform="matrix(1.00, 0.00, -0.00, -1.00, 603.7, 172.0)">p</text><text xml:space="preserve" font-family="Helvetica-Light" font-size="34.9" fill="#000000" transform="matrix(1.00, 0.00, -0.00, -1.00, 625.1, 172.0)"> </text><text xml:space="preserve" font-family="Helvetica-Light" font-size="34.9" fill="#000000" transform="matrix(1.00, 0.00, -0.00, -1.00, 634.8, 172.0)">a</text><text xml:space="preserve" font-family="Helvetica-Light" font-size="34.9" fill="#000000" transform="matrix(1.00, 0.00, -0.00, -1.00, 654.2, 172.0)">w</text><text xml:space="preserve" font-family="Helvetica-Light" font-size="34.9" fill="#000000" transform="matrix(1.00, 0.00, -0.00, -1.00, 679.4, 172.0)">a</text><text xml:space="preserve" font-family="Helvetica-Light" font-size="34.9" fill="#000000" transform="matrix(1.00, 0.00, -0.00, -1.00, 698.8, 172.0)">k</text><text xml:space="preserve" font-family="Helvetica-Light" font-size="34.9" fill="#000000" transform="matrix(1.00, 0.00, -0.00, -1.00, 716.3, 172.0)">e</text><text xml:space="preserve" font-family="Helvetica-Light" font-size="34.9" fill="#000000" transform="matrix(1.00, 0.00, -0.00, -1.00, 735.7, 172.0)"> </text><text xml:space="preserve" font-family="Helvetica-Light" font-size="34.9" fill="#000000" transform="matrix(1.00, 0.00, -0.00, -1.00, 149.0, 126.7)">8</text><text xml:space="preserve" font-family="Helvetica-Light" font-size="34.9" fill="#000000" transform="matrix(1.00, 0.00, -0.00, -1.00, 168.4, 126.7)">.</text><text xml:space="preserve" font-family="Helvetica-Light" font-size="34.9" fill="#000000" transform="matrix(1.00, 0.00, -0.00, -1.00, 178.0, 127.0)"> </text><text xml:space="preserve" font-family="Helvetica-Light" font-size="34.9" fill="#000000" transform="matrix(1.00, 0.00, -0.00, -1.00, 187.7, 127.0)"> </text><text xml:space="preserve" font-family="Helvetica-Light" font-size="34.9" fill="#000000" transform="matrix(1.00, 0.00, -0.00, -1.00, 149.0, 81.8)">9</text><text xml:space="preserve" font-family="Helvetica-Light" font-size="34.9" fill="#000000" transform="matrix(1.00, 0.00, -0.00, -1.00, 168.4, 81.8)">.</text><text xml:space="preserve" font-family="Helvetica-Light" font-size="34.9" fill="#000000" transform="matrix(1.00, 0.00, -0.00, -1.00, 178.0, 82.0)"> </text><text xml:space="preserve" font-family="Helvetica-Light" font-size="34.9" fill="#000000" transform="matrix(1.00, 0.00, -0.00, -1.00, 187.7, 82.0)">V</text><text xml:space="preserve" font-family="Helvetica-Light" font-size="34.9" fill="#000000" transform="matrix(1.00, 0.00, -0.00, -1.00, 207.1, 82.0)">e</text><text xml:space="preserve" font-family="Helvetica-Light" font-size="34.9" fill="#000000" transform="matrix(1.00, 0.00, -0.00, -1.00, 226.5, 82.0)">r</text><text xml:space="preserve" font-family="Helvetica-Light" font-size="34.9" fill="#000000" transform="matrix(1.00, 0.00, -0.00, -1.00, 238.8, 82.0)">y</text><text xml:space="preserve" font-family="Helvetica-Light" font-size="34.9" fill="#000000" transform="matrix(1.00, 0.00, -0.00, -1.00, 256.3, 82.0)"> </text><text xml:space="preserve" font-family="Helvetica-Light" font-size="34.9" fill="#000000" transform="matrix(1.00, 0.00, -0.00, -1.00, 266.0, 82.0)">s</text><text xml:space="preserve" font-family="Helvetica-Light" font-size="34.9" fill="#000000" transform="matrix(1.00, 0.00, -0.00, -1.00, 283.4, 82.0)">l</text><text xml:space="preserve" font-family="Helvetica-Light" font-size="34.9" fill="#000000" transform="matrix(1.00, 0.00, -0.00, -1.00, 291.2, 82.0)">e</text><text xml:space="preserve" font-family="Helvetica-Light" font-size="34.9" fill="#000000" transform="matrix(1.00, 0.00, -0.00, -1.00, 310.6, 82.0)">e</text><text xml:space="preserve" font-family="Helvetica-Light" font-size="34.9" fill="#000000" transform="matrix(1.00, 0.00, -0.00, -1.00, 330.0, 82.0)">p</text><text xml:space="preserve" font-family="Helvetica-Light" font-size="34.9" fill="#000000" transform="matrix(1.00, 0.00, -0.00, -1.00, 351.3, 82.0)">y</text><text xml:space="preserve" font-family="Helvetica-Light" font-size="34.9" fill="#000000" transform="matrix(1.00, 0.00, -0.00, -1.00, 365.6, 82.0)">,</text><text xml:space="preserve" font-family="Helvetica-Light" font-size="34.9" fill="#000000" transform="matrix(1.00, 0.00, -0.00, -1.00, 375.3, 82.0)"> </text><text xml:space="preserve" font-family="Helvetica-Light" font-size="34.9" fill="#000000" transform="matrix(1.00, 0.00, -0.00, -1.00, 385.0, 82.0)">g</text><text xml:space="preserve" font-family="Helvetica-Light" font-size="34.9" fill="#000000" transform="matrix(1.00, 0.00, -0.00, -1.00, 406.3, 82.0)">r</text><text xml:space="preserve" font-family="Helvetica-Light" font-size="34.9" fill="#000000" transform="matrix(1.00, 0.00, -0.00, -1.00, 417.3, 82.0)">e</text><text xml:space="preserve" font-family="Helvetica-Light" font-size="34.9" fill="#000000" transform="matrix(1.00, 0.00, -0.00, -1.00, 436.8, 82.0)">a</text><text xml:space="preserve" font-family="Helvetica-Light" font-size="34.9" fill="#000000" transform="matrix(1.00, 0.00, -0.00, -1.00, 456.2, 82.0)">t</text><text xml:space="preserve" font-family="Helvetica-Light" font-size="34.9" fill="#000000" transform="matrix(1.00, 0.00, -0.00, -1.00, 465.9, 82.0)"> </text><text xml:space="preserve" font-family="Helvetica-Light" font-size="34.9" fill="#000000" transform="matrix(1.00, 0.00, -0.00, -1.00, 475.6, 82.0)">e</text><text xml:space="preserve" font-family="Helvetica-Light" font-size="34.9" fill="#000000" transform="matrix(1.00, 0.00, -0.00, -1.00, 495.0, 82.0)">f</text><text xml:space="preserve" font-family="Helvetica-Light" font-size="34.9" fill="#000000" transform="matrix(1.00, 0.00, -0.00, -1.00, 504.1, 82.0)">f</text><text xml:space="preserve" font-family="Helvetica-Light" font-size="34.9" fill="#000000" transform="matrix(1.00, 0.00, -0.00, -1.00, 513.8, 82.0)">o</text><text xml:space="preserve" font-family="Helvetica-Light" font-size="34.9" fill="#000000" transform="matrix(1.00, 0.00, -0.00, -1.00, 533.2, 82.0)">r</text><text xml:space="preserve" font-family="Helvetica-Light" font-size="34.9" fill="#000000" transform="matrix(1.00, 0.00, -0.00, -1.00, 545.5, 82.0)">t</text><text xml:space="preserve" font-family="Helvetica-Light" font-size="34.9" fill="#000000" transform="matrix(1.00, 0.00, -0.00, -1.00, 555.2, 82.0)"> </text><text xml:space="preserve" font-family="Helvetica-Light" font-size="34.9" fill="#000000" transform="matrix(1.00, 0.00, -0.00, -1.00, 564.9, 82.0)">t</text><text xml:space="preserve" font-family="Helvetica-Light" font-size="34.9" fill="#000000" transform="matrix(1.00, 0.00, -0.00, -1.00, 574.6, 82.0)">o</text><text xml:space="preserve" font-family="Helvetica-Light" font-size="34.9" fill="#000000" transform="matrix(1.00, 0.00, -0.00, -1.00, 594.0, 82.0)"> </text><text xml:space="preserve" font-family="Helvetica-Light" font-size="34.9" fill="#000000" transform="matrix(1.00, 0.00, -0.00, -1.00, 603.7, 82.0)">s</text><text xml:space="preserve" font-family="Helvetica-Light" font-size="34.9" fill="#000000" transform="matrix(1.00, 0.00, -0.00, -1.00, 621.2, 82.0)">t</text><text xml:space="preserve" font-family="Helvetica-Light" font-size="34.9" fill="#000000" transform="matrix(1.00, 0.00, -0.00, -1.00, 630.9, 82.0)">a</text><text xml:space="preserve" font-family="Helvetica-Light" font-size="34.9" fill="#000000" transform="matrix(1.00, 0.00, -0.00, -1.00, 650.3, 82.0)">y</text><text xml:space="preserve" font-family="Helvetica-Light" font-size="34.9" fill="#000000" transform="matrix(1.00, 0.00, -0.00, -1.00, 667.8, 82.0)"> </text><text xml:space="preserve" font-family="Helvetica-Light" font-size="34.9" fill="#000000" transform="matrix(1.00, 0.00, -0.00, -1.00, 677.5, 82.0)">a</text><text xml:space="preserve" font-family="Helvetica-Light" font-size="34.9" fill="#000000" transform="matrix(1.00, 0.00, -0.00, -1.00, 696.9, 82.0)">w</text><text xml:space="preserve" font-family="Helvetica-Light" font-size="34.9" fill="#000000" transform="matrix(1.00, 0.00, -0.00, -1.00, 722.1, 82.0)">a</text><text xml:space="preserve" font-family="Helvetica-Light" font-size="34.9" fill="#000000" transform="matrix(1.00, 0.00, -0.00, -1.00, 741.5, 82.0)">k</text><text xml:space="preserve" font-family="Helvetica-Light" font-size="34.9" fill="#000000" transform="matrix(1.00, 0.00, -0.00, -1.00, 759.0, 82.0)">e</text></g></svg>