<?xml version="1.0" encoding="UTF-8"?><svg xmlns="http://www.w3.org/2000/svg" xmlns:xlink="http://www.w3.org/1999/xlink" clip-rule="evenodd" stroke-miterlimit="4.00" viewBox="0 0 1024 768"><desc>SVG generated by Keynote</desc><defs></defs><g transform="matrix(1.00, 0.00, -0.00, -1.00, 0.0, 768.0)"><g><clipPath id="clip-1"><path d="M 0.0 0.0 L 1024.0 0.0 L 1024.0 768.0 L 0.0 768.0 Z M 0.0 0.0 "></path></clipPath><g clip-path="url(#clip-1)"><image xlink:href="../../064B7F0C-2929-4FA2-8273-93E588CA9C8B/assets/DE78B55DDE70D88C6FF874E8D33A46A3.jpeg" width="1024.00" height="768.00" transform="matrix(1.00, 0.00, -0.00, -1.00, 0.0, 768.0)"></image></g></g><g><clipPath id="clip-2"><path d="M 549.0 533.0 L 923.0 533.0 L 923.0 59.0 L 549.0 59.0 Z M 549.0 533.0 "></path></clipPath><g clip-path="url(#clip-2)"><image xlink:href="A2C827A40E260E699471EC0A430C56E5.png" width="713.00" height="474.00" transform="matrix(1.00, 0.00, -0.00, -1.00, 444.0, 533.0)"></image></g></g><image xlink:href="7B0071BA19FA4483E28FFA13E9AF311E.png" width="396.00" height="496.00" transform="matrix(1.00, 0.00, -0.00, 1.00, 538.0, 48.0)"></image><image xlink:href="F6BB8C2319B2BB5958F76D7F81FEAB78.png" width="28.00" height="41.00" transform="matrix(1.01, 0.00, -0.00, -1.00, 721.7, 568.4)"></image><text xml:space="preserve" font-family="Chalkduster" font-size="72.0" fill="#FEFFFE" transform="matrix(1.00, 0.00, -0.00, -1.00, 232.0, 627.0)">T</text><text xml:space="preserve" font-family="Chalkduster" font-size="72.0" fill="#FEFFFE" transform="matrix(1.00, 0.00, -0.00, -1.00, 280.3, 627.0)">a</text><text xml:space="preserve" font-family="Chalkduster" font-size="72.0" fill="#FEFFFE" transform="matrix(1.00, 0.00, -0.00, -1.00, 326.2, 627.0)">r</text><text xml:space="preserve" font-family="Chalkduster" font-size="72.0" fill="#FEFFFE" transform="matrix(1.00, 0.00, -0.00, -1.00, 363.1, 627.0)">g</text><text xml:space="preserve" font-family="Chalkduster" font-size="72.0" fill="#FEFFFE" transform="matrix(1.00, 0.00, -0.00, -1.00, 413.3, 627.0)">e</text><text xml:space="preserve" font-family="Chalkduster" font-size="72.0" fill="#FEFFFE" transform="matrix(1.00, 0.00, -0.00, -1.00, 457.2, 627.0)">t</text><text xml:space="preserve" font-family="Chalkduster" font-size="72.0" fill="#FEFFFE" transform="matrix(1.00, 0.00, -0.00, -1.00, 490.1, 627.0)"> </text><text xml:space="preserve" font-family="Chalkduster" font-size="72.0" fill="#FEFFFE" transform="matrix(1.00, 0.00, -0.00, -1.00, 525.9, 627.0)">G</text><text xml:space="preserve" font-family="Chalkduster" font-size="72.0" fill="#FEFFFE" transform="matrix(1.00, 0.00, -0.00, -1.00, 605.9, 627.0)">r</text><text xml:space="preserve" font-family="Chalkduster" font-size="72.0" fill="#FEFFFE" transform="matrix(1.00, 0.00, -0.00, -1.00, 642.8, 627.0)">o</text><text xml:space="preserve" font-family="Chalkduster" font-size="72.0" fill="#FEFFFE" transform="matrix(1.00, 0.00, -0.00, -1.00, 696.8, 627.0)">u</text><text xml:space="preserve" font-family="Chalkduster" font-size="72.0" fill="#FEFFFE" transform="matrix(1.00, 0.00, -0.00, -1.00, 747.4, 627.0)">p</text><image xlink:href="B4FDAEC1A55F266916EBBA7B40FD9B86.png" width="17.00" height="16.00" transform="matrix(0.97, 0.00, -0.00, -0.96, 104.0, 576.8)"></image><text xml:space="preserve" font-family="Chalkduster" font-size="28.2" fill="#FEFFFE" transform="matrix(1.00, 0.00, -0.00, -1.00, 137.0, 562.0)">F</text><text xml:space="preserve" font-family="Chalkduster" font-size="28.2" fill="#FEFFFE" transform="matrix(1.00, 0.00, -0.00, -1.00, 155.9, 562.0)">a</text><text xml:space="preserve" font-family="Chalkduster" font-size="28.2" fill="#FEFFFE" transform="matrix(1.00, 0.00, -0.00, -1.00, 174.4, 562.0)">m</text><text xml:space="preserve" font-family="Chalkduster" font-size="28.2" fill="#FEFFFE" transform="matrix(1.00, 0.00, -0.00, -1.00, 203.4, 562.0)">i</text><text xml:space="preserve" font-family="Chalkduster" font-size="28.2" fill="#FEFFFE" transform="matrix(1.00, 0.00, -0.00, -1.00, 214.8, 562.0)">l</text><text xml:space="preserve" font-family="Chalkduster" font-size="28.2" fill="#FEFFFE" transform="matrix(1.00, 0.00, -0.00, -1.00, 228.3, 562.0)">i</text><text xml:space="preserve" font-family="Chalkduster" font-size="28.2" fill="#FEFFFE" transform="matrix(1.00, 0.00, -0.00, -1.00, 239.4, 562.0)">e</text><text xml:space="preserve" font-family="Chalkduster" font-size="28.2" fill="#FEFFFE" transform="matrix(1.00, 0.00, -0.00, -1.00, 257.5, 562.0)">s</text><text xml:space="preserve" font-family="Chalkduster" font-size="28.2" fill="#FEFFFE" transform="matrix(1.00, 0.00, -0.00, -1.00, 271.8, 562.0)"> </text><text xml:space="preserve" font-family="Chalkduster" font-size="28.2" fill="#FEFFFE" transform="matrix(1.00, 0.00, -0.00, -1.00, 285.8, 562.0)">w</text><text xml:space="preserve" font-family="Chalkduster" font-size="28.2" fill="#FEFFFE" transform="matrix(1.00, 0.00, -0.00, -1.00, 309.8, 562.0)">i</text><text xml:space="preserve" font-family="Chalkduster" font-size="28.2" fill="#FEFFFE" transform="matrix(1.00, 0.00, -0.00, -1.00, 321.3, 562.0)">t</text><text xml:space="preserve" font-family="Chalkduster" font-size="28.2" fill="#FEFFFE" transform="matrix(1.00, 0.00, -0.00, -1.00, 334.7, 562.0)">h</text><text xml:space="preserve" font-family="Chalkduster" font-size="28.2" fill="#FEFFFE" transform="matrix(1.00, 0.00, -0.00, -1.00, 352.1, 562.0)"> </text><text xml:space="preserve" font-family="Chalkduster" font-size="28.2" fill="#FEFFFE" transform="matrix(1.00, 0.00, -0.00, -1.00, 366.1, 562.0)">c</text><text xml:space="preserve" font-family="Chalkduster" font-size="28.2" fill="#FEFFFE" transform="matrix(1.00, 0.00, -0.00, -1.00, 383.8, 562.0)">h</text><text xml:space="preserve" font-family="Chalkduster" font-size="28.2" fill="#FEFFFE" transform="matrix(1.00, 0.00, -0.00, -1.00, 401.7, 562.0)">i</text><text xml:space="preserve" font-family="Chalkduster" font-size="28.2" fill="#FEFFFE" transform="matrix(1.00, 0.00, -0.00, -1.00, 413.1, 562.0)">l</text><text xml:space="preserve" font-family="Chalkduster" font-size="28.2" fill="#FEFFFE" transform="matrix(1.00, 0.00, -0.00, -1.00, 426.3, 562.0)">d</text><text xml:space="preserve" font-family="Chalkduster" font-size="28.2" fill="#FEFFFE" transform="matrix(1.00, 0.00, -0.00, -1.00, 448.3, 562.0)">r</text><text xml:space="preserve" font-family="Chalkduster" font-size="28.2" fill="#FEFFFE" transform="matrix(1.00, 0.00, -0.00, -1.00, 462.6, 562.0)">e</text><text xml:space="preserve" font-family="Chalkduster" font-size="28.2" fill="#FEFFFE" transform="matrix(1.00, 0.00, -0.00, -1.00, 480.3, 562.0)">n</text><text xml:space="preserve" font-family="Chalkduster" font-size="28.2" fill="#FEFFFE" transform="matrix(1.00, 0.00, -0.00, -1.00, 501.0, 562.0)"> </text><text xml:space="preserve" font-family="Chalkduster" font-size="28.2" fill="#FEFFFE" transform="matrix(1.00, 0.00, -0.00, -1.00, 137.0, 519.0)">1</text><text xml:space="preserve" font-family="Chalkduster" font-size="28.2" fill="#FEFFFE" transform="matrix(1.00, 0.00, -0.00, -1.00, 154.0, 519.0)">-</text><text xml:space="preserve" font-family="Chalkduster" font-size="28.2" fill="#FEFFFE" transform="matrix(1.00, 0.00, -0.00, -1.00, 171.1, 519.0)">6</text><text xml:space="preserve" font-family="Chalkduster" font-size="28.2" fill="#FEFFFE" transform="matrix(1.00, 0.00, -0.00, -1.00, 189.8, 519.0)"> </text><text xml:space="preserve" font-family="Chalkduster" font-size="28.2" fill="#FEFFFE" transform="matrix(1.00, 0.00, -0.00, -1.00, 203.8, 519.0)">y</text><text xml:space="preserve" font-family="Chalkduster" font-size="28.2" fill="#FEFFFE" transform="matrix(1.00, 0.00, -0.00, -1.00, 219.9, 519.0)">e</text><text xml:space="preserve" font-family="Chalkduster" font-size="28.2" fill="#FEFFFE" transform="matrix(1.00, 0.00, -0.00, -1.00, 237.3, 519.0)">a</text><text xml:space="preserve" font-family="Chalkduster" font-size="28.2" fill="#FEFFFE" transform="matrix(1.00, 0.00, -0.00, -1.00, 255.3, 519.0)">r</text><text xml:space="preserve" font-family="Chalkduster" font-size="28.2" fill="#FEFFFE" transform="matrix(1.00, 0.00, -0.00, -1.00, 269.8, 519.0)">s</text><text xml:space="preserve" font-family="Chalkduster" font-size="28.2" fill="#FEFFFE" transform="matrix(1.00, 0.00, -0.00, -1.00, 284.0, 519.0)"> </text><text xml:space="preserve" font-family="Chalkduster" font-size="28.2" fill="#FEFFFE" transform="matrix(1.00, 0.00, -0.00, -1.00, 298.0, 519.0)">o</text><text xml:space="preserve" font-family="Chalkduster" font-size="28.2" fill="#FEFFFE" transform="matrix(1.00, 0.00, -0.00, -1.00, 319.5, 519.0)">l</text><text xml:space="preserve" font-family="Chalkduster" font-size="28.2" fill="#FEFFFE" transform="matrix(1.00, 0.00, -0.00, -1.00, 332.7, 519.0)">d</text><text xml:space="preserve" font-family="Chalkduster" font-size="28.2" fill="#FEFFFE" transform="matrix(1.00, 0.00, -0.00, -1.00, 354.7, 519.0)"> </text><image xlink:href="../../064B7F0C-2929-4FA2-8273-93E588CA9C8B/assets/B4FDAEC1A55F266916EBBA7B40FD9B86.png" width="17.00" height="16.00" transform="matrix(0.97, 0.00, -0.00, -0.96, 142.0, 462.6)"></image><text xml:space="preserve" font-family="Chalkduster" font-size="28.2" fill="#FEFFFE" transform="matrix(1.00, 0.00, -0.00, -1.00, 175.0, 448.0)">C</text><text xml:space="preserve" font-family="Chalkduster" font-size="28.2" fill="#FEFFFE" transform="matrix(1.00, 0.00, -0.00, -1.00, 197.8, 448.0)">o</text><text xml:space="preserve" font-family="Chalkduster" font-size="28.2" fill="#FEFFFE" transform="matrix(1.00, 0.00, -0.00, -1.00, 218.4, 448.0)">r</text><text xml:space="preserve" font-family="Chalkduster" font-size="28.2" fill="#FEFFFE" transform="matrix(1.00, 0.00, -0.00, -1.00, 232.6, 448.0)">e</text><text xml:space="preserve" font-family="Chalkduster" font-size="28.2" fill="#FEFFFE" transform="matrix(1.00, 0.00, -0.00, -1.00, 250.1, 448.0)"> </text><text xml:space="preserve" font-family="Chalkduster" font-size="28.2" fill="#FEFFFE" transform="matrix(1.00, 0.00, -0.00, -1.00, 264.1, 448.0)">a</text><text xml:space="preserve" font-family="Chalkduster" font-size="28.2" fill="#FEFFFE" transform="matrix(1.00, 0.00, -0.00, -1.00, 282.6, 448.0)">c</text><text xml:space="preserve" font-family="Chalkduster" font-size="28.2" fill="#FEFFFE" transform="matrix(1.00, 0.00, -0.00, -1.00, 299.3, 448.0)">t</text><text xml:space="preserve" font-family="Chalkduster" font-size="28.2" fill="#FEFFFE" transform="matrix(1.00, 0.00, -0.00, -1.00, 312.3, 448.0)">i</text><text xml:space="preserve" font-family="Chalkduster" font-size="28.2" fill="#FEFFFE" transform="matrix(1.00, 0.00, -0.00, -1.00, 323.5, 448.0)">v</text><text xml:space="preserve" font-family="Chalkduster" font-size="28.2" fill="#FEFFFE" transform="matrix(1.00, 0.00, -0.00, -1.00, 341.0, 448.0)">i</text><text xml:space="preserve" font-family="Chalkduster" font-size="28.2" fill="#FEFFFE" transform="matrix(1.00, 0.00, -0.00, -1.00, 352.4, 448.0)">t</text><text xml:space="preserve" font-family="Chalkduster" font-size="28.2" fill="#FEFFFE" transform="matrix(1.00, 0.00, -0.00, -1.00, 365.4, 448.0)">i</text><text xml:space="preserve" font-family="Chalkduster" font-size="28.2" fill="#FEFFFE" transform="matrix(1.00, 0.00, -0.00, -1.00, 376.6, 448.0)">e</text><text xml:space="preserve" font-family="Chalkduster" font-size="28.2" fill="#FEFFFE" transform="matrix(1.00, 0.00, -0.00, -1.00, 394.7, 448.0)">s</text><text xml:space="preserve" font-family="Chalkduster" font-size="28.2" fill="#FEFFFE" transform="matrix(1.00, 0.00, -0.00, -1.00, 408.9, 448.0)"> </text><text xml:space="preserve" font-family="Chalkduster" font-size="28.2" fill="#FEFFFE" transform="matrix(1.00, 0.00, -0.00, -1.00, 175.0, 405.0)">t</text><text xml:space="preserve" font-family="Chalkduster" font-size="28.2" fill="#FEFFFE" transform="matrix(1.00, 0.00, -0.00, -1.00, 187.6, 405.0)">a</text><text xml:space="preserve" font-family="Chalkduster" font-size="28.2" fill="#FEFFFE" transform="matrix(1.00, 0.00, -0.00, -1.00, 205.5, 405.0)">r</text><text xml:space="preserve" font-family="Chalkduster" font-size="28.2" fill="#FEFFFE" transform="matrix(1.00, 0.00, -0.00, -1.00, 220.0, 405.0)">g</text><text xml:space="preserve" font-family="Chalkduster" font-size="28.2" fill="#FEFFFE" transform="matrix(1.00, 0.00, -0.00, -1.00, 239.6, 405.0)">e</text><text xml:space="preserve" font-family="Chalkduster" font-size="28.2" fill="#FEFFFE" transform="matrix(1.00, 0.00, -0.00, -1.00, 256.8, 405.0)">t</text><text xml:space="preserve" font-family="Chalkduster" font-size="28.2" fill="#FEFFFE" transform="matrix(1.00, 0.00, -0.00, -1.00, 269.3, 405.0)">e</text><text xml:space="preserve" font-family="Chalkduster" font-size="28.2" fill="#FEFFFE" transform="matrix(1.00, 0.00, -0.00, -1.00, 287.7, 405.0)">d</text><text xml:space="preserve" font-family="Chalkduster" font-size="28.2" fill="#FEFFFE" transform="matrix(1.00, 0.00, -0.00, -1.00, 309.7, 405.0)"> </text><text xml:space="preserve" font-family="Chalkduster" font-size="28.2" fill="#FEFFFE" transform="matrix(1.00, 0.00, -0.00, -1.00, 323.7, 405.0)">t</text><text xml:space="preserve" font-family="Chalkduster" font-size="28.2" fill="#FEFFFE" transform="matrix(1.00, 0.00, -0.00, -1.00, 335.3, 405.0)">o</text><text xml:space="preserve" font-family="Chalkduster" font-size="28.2" fill="#FEFFFE" transform="matrix(1.00, 0.00, -0.00, -1.00, 356.2, 405.0)">w</text><text xml:space="preserve" font-family="Chalkduster" font-size="28.2" fill="#FEFFFE" transform="matrix(1.00, 0.00, -0.00, -1.00, 379.2, 405.0)">a</text><text xml:space="preserve" font-family="Chalkduster" font-size="28.2" fill="#FEFFFE" transform="matrix(1.00, 0.00, -0.00, -1.00, 397.1, 405.0)">r</text><text xml:space="preserve" font-family="Chalkduster" font-size="28.2" fill="#FEFFFE" transform="matrix(1.00, 0.00, -0.00, -1.00, 412.2, 405.0)">d</text><text xml:space="preserve" font-family="Chalkduster" font-size="28.2" fill="#FEFFFE" transform="matrix(1.00, 0.00, -0.00, -1.00, 435.1, 405.0)">s</text><text xml:space="preserve" font-family="Chalkduster" font-size="28.2" fill="#FEFFFE" transform="matrix(1.00, 0.00, -0.00, -1.00, 449.3, 405.0)"> </text><text xml:space="preserve" font-family="Chalkduster" font-size="28.2" fill="#FEFFFE" transform="matrix(1.00, 0.00, -0.00, -1.00, 463.3, 405.0)">3</text><text xml:space="preserve" font-family="Chalkduster" font-size="28.2" fill="#FEFFFE" transform="matrix(1.00, 0.00, -0.00, -1.00, 482.7, 405.0)"> </text><text xml:space="preserve" font-family="Chalkduster" font-size="28.2" fill="#FEFFFE" transform="matrix(1.00, 0.00, -0.00, -1.00, 175.0, 362.0)">y</text><text xml:space="preserve" font-family="Chalkduster" font-size="28.2" fill="#FEFFFE" transform="matrix(1.00, 0.00, -0.00, -1.00, 191.1, 362.0)">e</text><text xml:space="preserve" font-family="Chalkduster" font-size="28.2" fill="#FEFFFE" transform="matrix(1.00, 0.00, -0.00, -1.00, 208.5, 362.0)">a</text><text xml:space="preserve" font-family="Chalkduster" font-size="28.2" fill="#FEFFFE" transform="matrix(1.00, 0.00, -0.00, -1.00, 226.4, 362.0)">r</text><text xml:space="preserve" font-family="Chalkduster" font-size="28.2" fill="#FEFFFE" transform="matrix(1.00, 0.00, -0.00, -1.00, 241.3, 362.0)"> </text><text xml:space="preserve" font-family="Chalkduster" font-size="28.2" fill="#FEFFFE" transform="matrix(1.00, 0.00, -0.00, -1.00, 255.3, 362.0)">o</text><text xml:space="preserve" font-family="Chalkduster" font-size="28.2" fill="#FEFFFE" transform="matrix(1.00, 0.00, -0.00, -1.00, 276.7, 362.0)">l</text><text xml:space="preserve" font-family="Chalkduster" font-size="28.2" fill="#FEFFFE" transform="matrix(1.00, 0.00, -0.00, -1.00, 289.9, 362.0)">d</text><text xml:space="preserve" font-family="Chalkduster" font-size="28.2" fill="#FEFFFE" transform="matrix(1.00, 0.00, -0.00, -1.00, 312.8, 362.0)">s</text><text xml:space="preserve" font-family="Chalkduster" font-size="28.2" fill="#FEFFFE" transform="matrix(1.00, 0.00, -0.00, -1.00, 327.1, 362.0)"> </text><image xlink:href="../../064B7F0C-2929-4FA2-8273-93E588CA9C8B/assets/B4FDAEC1A55F266916EBBA7B40FD9B86.png" width="17.00" height="16.00" transform="matrix(0.97, 0.00, -0.00, -0.96, 142.0, 305.5)"></image><text xml:space="preserve" font-family="Chalkduster" font-size="28.2" fill="#FEFFFE" transform="matrix(1.00, 0.00, -0.00, -1.00, 175.0, 291.0)">2</text><text xml:space="preserve" font-family="Chalkduster" font-size="28.2" fill="#FEFFFE" transform="matrix(1.00, 0.00, -0.00, -1.00, 190.8, 291.0)">5</text><text xml:space="preserve" font-family="Chalkduster" font-size="28.2" fill="#FEFFFE" transform="matrix(1.00, 0.00, -0.00, -1.00, 208.9, 291.0)"> </text><text xml:space="preserve" font-family="Chalkduster" font-size="28.2" fill="#FEFFFE" transform="matrix(1.00, 0.00, -0.00, -1.00, 222.9, 291.0)">c</text><text xml:space="preserve" font-family="Chalkduster" font-size="28.2" fill="#FEFFFE" transform="matrix(1.00, 0.00, -0.00, -1.00, 239.5, 291.0)">a</text><text xml:space="preserve" font-family="Chalkduster" font-size="28.2" fill="#FEFFFE" transform="matrix(1.00, 0.00, -0.00, -1.00, 258.0, 291.0)">m</text><text xml:space="preserve" font-family="Chalkduster" font-size="28.2" fill="#FEFFFE" transform="matrix(1.00, 0.00, -0.00, -1.00, 286.5, 291.0)">p</text><text xml:space="preserve" font-family="Chalkduster" font-size="28.2" fill="#FEFFFE" transform="matrix(1.00, 0.00, -0.00, -1.00, 304.2, 291.0)">e</text><text xml:space="preserve" font-family="Chalkduster" font-size="28.2" fill="#FEFFFE" transform="matrix(1.00, 0.00, -0.00, -1.00, 321.4, 291.0)">r</text><text xml:space="preserve" font-family="Chalkduster" font-size="28.2" fill="#FEFFFE" transform="matrix(1.00, 0.00, -0.00, -1.00, 335.9, 291.0)">s</text><text xml:space="preserve" font-family="Chalkduster" font-size="28.2" fill="#FEFFFE" transform="matrix(1.00, 0.00, -0.00, -1.00, 350.2, 291.0)"> </text><text xml:space="preserve" font-family="Chalkduster" font-size="28.2" fill="#FEFFFE" transform="matrix(1.00, 0.00, -0.00, -1.00, 364.2, 291.0)">w</text><text xml:space="preserve" font-family="Chalkduster" font-size="28.2" fill="#FEFFFE" transform="matrix(1.00, 0.00, -0.00, -1.00, 384.6, 291.0)">/</text><text xml:space="preserve" font-family="Chalkduster" font-size="28.2" fill="#FEFFFE" transform="matrix(1.00, 0.00, -0.00, -1.00, 403.8, 291.0)"> </text><text xml:space="preserve" font-family="Chalkduster" font-size="28.2" fill="#FEFFFE" transform="matrix(1.00, 0.00, -0.00, -1.00, 417.8, 291.0)">7</text><text xml:space="preserve" font-family="Chalkduster" font-size="28.2" fill="#FEFFFE" transform="matrix(1.00, 0.00, -0.00, -1.00, 431.0, 291.0)">-</text><text xml:space="preserve" font-family="Chalkduster" font-size="28.2" fill="#FEFFFE" transform="matrix(1.00, 0.00, -0.00, -1.00, 448.0, 291.0)">8</text><text xml:space="preserve" font-family="Chalkduster" font-size="28.2" fill="#FEFFFE" transform="matrix(1.00, 0.00, -0.00, -1.00, 470.6, 291.0)"> </text><text xml:space="preserve" font-family="Chalkduster" font-size="28.2" fill="#FEFFFE" transform="matrix(1.00, 0.00, -0.00, -1.00, 175.0, 248.0)">p</text><text xml:space="preserve" font-family="Chalkduster" font-size="28.2" fill="#FEFFFE" transform="matrix(1.00, 0.00, -0.00, -1.00, 192.4, 248.0)">a</text><text xml:space="preserve" font-family="Chalkduster" font-size="28.2" fill="#FEFFFE" transform="matrix(1.00, 0.00, -0.00, -1.00, 210.3, 248.0)">r</text><text xml:space="preserve" font-family="Chalkduster" font-size="28.2" fill="#FEFFFE" transform="matrix(1.00, 0.00, -0.00, -1.00, 224.6, 248.0)">e</text><text xml:space="preserve" font-family="Chalkduster" font-size="28.2" fill="#FEFFFE" transform="matrix(1.00, 0.00, -0.00, -1.00, 242.3, 248.0)">n</text><text xml:space="preserve" font-family="Chalkduster" font-size="28.2" fill="#FEFFFE" transform="matrix(1.00, 0.00, -0.00, -1.00, 261.9, 248.0)">t</text><text xml:space="preserve" font-family="Chalkduster" font-size="28.2" fill="#FEFFFE" transform="matrix(1.00, 0.00, -0.00, -1.00, 274.8, 248.0)">s</text><text xml:space="preserve" font-family="Chalkduster" font-size="28.2" fill="#FEFFFE" transform="matrix(1.00, 0.00, -0.00, -1.00, 289.0, 248.0)"> </text><image xlink:href="../../064B7F0C-2929-4FA2-8273-93E588CA9C8B/assets/B4FDAEC1A55F266916EBBA7B40FD9B86.png" width="17.00" height="16.00" transform="matrix(0.97, 0.00, -0.00, -0.96, 104.0, 191.3)"></image><text xml:space="preserve" font-family="Chalkduster" font-size="28.2" fill="#FEFFFE" transform="matrix(1.00, 0.00, -0.00, -1.00, 137.0, 177.0)">L</text><text xml:space="preserve" font-family="Chalkduster" font-size="28.2" fill="#FEFFFE" transform="matrix(1.00, 0.00, -0.00, -1.00, 154.8, 177.0)">o</text><text xml:space="preserve" font-family="Chalkduster" font-size="28.2" fill="#FEFFFE" transform="matrix(1.00, 0.00, -0.00, -1.00, 175.7, 177.0)">w</text><text xml:space="preserve" font-family="Chalkduster" font-size="28.2" fill="#FEFFFE" transform="matrix(1.00, 0.00, -0.00, -1.00, 198.3, 177.0)">-</text><text xml:space="preserve" font-family="Chalkduster" font-size="28.2" fill="#FEFFFE" transform="matrix(1.00, 0.00, -0.00, -1.00, 215.3, 177.0)">i</text><text xml:space="preserve" font-family="Chalkduster" font-size="28.2" fill="#FEFFFE" transform="matrix(1.00, 0.00, -0.00, -1.00, 226.4, 177.0)">n</text><text xml:space="preserve" font-family="Chalkduster" font-size="28.2" fill="#FEFFFE" transform="matrix(1.00, 0.00, -0.00, -1.00, 247.1, 177.0)">c</text><text xml:space="preserve" font-family="Chalkduster" font-size="28.2" fill="#FEFFFE" transform="matrix(1.00, 0.00, -0.00, -1.00, 263.9, 177.0)">o</text><text xml:space="preserve" font-family="Chalkduster" font-size="28.2" fill="#FEFFFE" transform="matrix(1.00, 0.00, -0.00, -1.00, 285.0, 177.0)">m</text><text xml:space="preserve" font-family="Chalkduster" font-size="28.2" fill="#FEFFFE" transform="matrix(1.00, 0.00, -0.00, -1.00, 314.2, 177.0)">e</text><text xml:space="preserve" font-family="Chalkduster" font-size="28.2" fill="#FEFFFE" transform="matrix(1.00, 0.00, -0.00, -1.00, 331.0, 177.0)">,</text><text xml:space="preserve" font-family="Chalkduster" font-size="28.2" fill="#FEFFFE" transform="matrix(1.00, 0.00, -0.00, -1.00, 339.8, 177.0)"> </text><text xml:space="preserve" font-family="Chalkduster" font-size="28.2" fill="#FEFFFE" transform="matrix(1.00, 0.00, -0.00, -1.00, 353.8, 177.0)">u</text><text xml:space="preserve" font-family="Chalkduster" font-size="28.2" fill="#FEFFFE" transform="matrix(1.00, 0.00, -0.00, -1.00, 373.6, 177.0)">r</text><text xml:space="preserve" font-family="Chalkduster" font-size="28.2" fill="#FEFFFE" transform="matrix(1.00, 0.00, -0.00, -1.00, 388.4, 177.0)">b</text><text xml:space="preserve" font-family="Chalkduster" font-size="28.2" fill="#FEFFFE" transform="matrix(1.00, 0.00, -0.00, -1.00, 404.1, 177.0)">a</text><text xml:space="preserve" font-family="Chalkduster" font-size="28.2" fill="#FEFFFE" transform="matrix(1.00, 0.00, -0.00, -1.00, 423.5, 177.0)">n</text><text xml:space="preserve" font-family="Chalkduster" font-size="28.2" fill="#FEFFFE" transform="matrix(1.00, 0.00, -0.00, -1.00, 444.2, 177.0)"> </text><text xml:space="preserve" font-family="Chalkduster" font-size="28.2" fill="#FEFFFE" transform="matrix(1.00, 0.00, -0.00, -1.00, 137.0, 134.0)">f</text><text xml:space="preserve" font-family="Chalkduster" font-size="28.2" fill="#FEFFFE" transform="matrix(1.00, 0.00, -0.00, -1.00, 151.1, 134.0)">a</text><text xml:space="preserve" font-family="Chalkduster" font-size="28.2" fill="#FEFFFE" transform="matrix(1.00, 0.00, -0.00, -1.00, 169.6, 134.0)">m</text><text xml:space="preserve" font-family="Chalkduster" font-size="28.2" fill="#FEFFFE" transform="matrix(1.00, 0.00, -0.00, -1.00, 198.6, 134.0)">i</text><text xml:space="preserve" font-family="Chalkduster" font-size="28.2" fill="#FEFFFE" transform="matrix(1.00, 0.00, -0.00, -1.00, 210.0, 134.0)">l</text><text xml:space="preserve" font-family="Chalkduster" font-size="28.2" fill="#FEFFFE" transform="matrix(1.00, 0.00, -0.00, -1.00, 223.5, 134.0)">i</text><text xml:space="preserve" font-family="Chalkduster" font-size="28.2" fill="#FEFFFE" transform="matrix(1.00, 0.00, -0.00, -1.00, 234.6, 134.0)">e</text><text xml:space="preserve" font-family="Chalkduster" font-size="28.2" fill="#FEFFFE" transform="matrix(1.00, 0.00, -0.00, -1.00, 252.8, 134.0)">s</text></g></svg>