<?xml version="1.0" encoding="utf-8"?>
<!-- Generator: Adobe Illustrator 19.0.0, SVG Export Plug-In . SVG Version: 6.00 Build 0)  -->
<svg version="1.1" id="Layer_1" xmlns="http://www.w3.org/2000/svg" xmlns:xlink="http://www.w3.org/1999/xlink" x="0px" y="0px"
	 viewBox="0 0 300 300" style="enable-background:new 0 0 300 300;" xml:space="preserve">
<style type="text/css">
	.st0{fill:#FFFFFF;}
</style>
<g>
	<path class="st0" d="M130.3,156.4c-1.7-1.1-3.6-1.8-5.8-2.2c-2.2-0.4-4.4-0.6-6.8-0.6H92.3v28.9h27.8c4.9,0,8.8-1.3,11.5-4
		c2.8-2.7,4.2-6.3,4.2-11c0-2.7-0.5-5-1.5-6.8C133.3,158.9,132,157.4,130.3,156.4z"/>
	<path class="st0" d="M128.2,140.8c2.8-2.2,4.2-5.6,4.2-10c0-3-0.5-5.3-1.4-7c-0.9-1.7-2.2-3-3.9-4c-1.6-0.9-3.5-1.5-5.7-1.8
		c-2.1-0.3-4.4-0.4-6.8-0.4H92.3v26.6h22.2C120.9,144.2,125.4,143,128.2,140.8z"/>
	<path class="st0" d="M212.8,126.1c-2.2-2.8-5.1-4.9-8.6-6.3c-3.5-1.4-7.8-2.2-13-2.2h-18.7v64.8H191c1.2,0,2.8-0.1,4.7-0.3
		c1.9-0.2,3.9-0.7,6-1.4c2.1-0.7,4.2-1.8,6.3-3.2c2.1-1.4,3.9-3.3,5.6-5.7s3-5.4,4-9.1s1.6-8,1.6-13.2c0-5-0.5-9.5-1.5-13.4
		C216.6,132.2,215,128.8,212.8,126.1z"/>
	<path class="st0" d="M150,0C67.2,0,0,67.2,0,150s67.2,150,150,150s150-67.2,150-150S232.8,0,150,0z M145.3,176.7
		c-1.1,2.9-2.7,5.4-4.9,7.7c-2.1,2.2-4.8,4-8,5.4c-3.2,1.4-6.8,2-10.9,2H81.2v-83.5h30.3c1.8,0,3.7,0,5.8,0.1c2.1,0,4.1,0.2,6.1,0.4
		c2,0.2,3.9,0.5,5.7,0.9c1.8,0.4,3.3,1,4.5,1.8c2.7,1.6,5,3.9,7,6.8c1.9,2.9,2.9,6.4,2.9,10.6c0,4.4-1.1,8.3-3.2,11.5
		c-2.1,3.2-5.2,5.6-9.2,7.2v0.2c5.1,1.1,9.1,3.4,11.8,7c2.7,3.6,4.1,8,4.1,13.1C147,170.8,146.4,173.8,145.3,176.7z M227.8,166.7
		c-1.6,5.4-4,10-7.3,13.7c-3.3,3.7-7.4,6.5-12.5,8.5c-5.1,1.9-11.1,2.9-18,2.9h-28.7v-83.5H190c12.9,0,22.8,3.3,29.7,9.8
		c6.9,6.6,10.4,16.5,10.4,30C230.1,155,229.4,161.3,227.8,166.7z"/>
</g>
</svg>
