<?xml version="1.0" encoding="utf-8"?>
<!-- Generator: Adobe Illustrator 19.0.0, SVG Export Plug-In . SVG Version: 6.00 Build 0)  -->
<svg version="1.1" id="Layer_1" xmlns="http://www.w3.org/2000/svg" xmlns:xlink="http://www.w3.org/1999/xlink" x="0px" y="0px"
	 viewBox="0 0 300 300" style="enable-background:new 0 0 300 300;" xml:space="preserve">
<style type="text/css">
	.st0{fill:#386280;}
</style>
<g id="XMLID_2_">
	<circle id="XMLID_3_" class="st0" cx="61.5" cy="78.6" r="7"/>
	<circle id="XMLID_4_" class="st0" cx="80.4" cy="78.6" r="7"/>
	<circle id="XMLID_5_" class="st0" cx="100.3" cy="78.6" r="7"/>
	<path id="XMLID_14_" class="st0" d="M150,0C67.2,0,0,67.2,0,150s67.2,150,150,150s150-67.2,150-150S232.8,0,150,0z M244.1,234.7
		H55.9c-6.6,0-12-5.4-12-12V77.3c0-6.6,5.4-12,12-12h188.2c6.6,0,12,5.4,12,12v145.4C256.1,229.3,250.7,234.7,244.1,234.7z"/>
	<rect id="XMLID_15_" x="54.5" y="89.6" class="st0" width="191" height="136.1"/>
</g>
</svg>
