<?xml version="1.0" encoding="utf-8"?>
<!-- Generator: Adobe Illustrator 19.0.0, SVG Export Plug-In . SVG Version: 6.00 Build 0)  -->
<svg version="1.1" id="Layer_1" xmlns="http://www.w3.org/2000/svg" xmlns:xlink="http://www.w3.org/1999/xlink" x="0px" y="0px"
	 viewBox="0 0 300 300" style="enable-background:new 0 0 300 300;" xml:space="preserve">
<style type="text/css">
	.st0{fill:#386280;}
</style>
<path id="XMLID_8_" class="st0" d="M150,0C67.2,0,0,67.2,0,150s67.2,150,150,150s150-67.2,150-150S232.8,0,150,0z M205,212.7
	c-2,1-3.7,1.7-5.2,2.1c-1.5,0.4-3.5,0.6-6,0.6c-4.6,0-8.3-0.9-11-2.8c-2.7-1.9-4.7-4.8-6.1-8.8l-24.9-73.6h-0.4L120,212.9H99.5
	l43.7-102.5l-9.9-26c-1.4-3.5-3.2-6-5.3-7.6c-2.1-1.5-5-2.3-8.7-2.3c-3.2,0-6.6,0.4-10.1,1.3V61c4.2-1.5,8.8-2.3,13.7-2.3
	c3.9,0,7.4,0.5,10.4,1.5c3,1,5.7,2.6,8,5c2.3,2.3,4.4,5.3,6.3,9.1c1.9,3.7,3.8,8.3,5.8,13.6l38.8,108.5c0.7,1.5,1.5,2.5,2.4,3
	c0.9,0.4,2.1,0.6,3.5,0.6c1.1,0,2.2-0.1,3.2-0.2c1-0.1,2.2-0.4,3.6-0.8V212.7z"/>
</svg>
