<?xml version="1.0" encoding="utf-8"?>
<!-- Generator: Adobe Illustrator 19.0.0, SVG Export Plug-In . SVG Version: 6.00 Build 0)  -->
<svg version="1.1" id="Layer_1" xmlns="http://www.w3.org/2000/svg" xmlns:xlink="http://www.w3.org/1999/xlink" x="0px" y="0px"
	 viewBox="0 0 300 300" style="enable-background:new 0 0 300 300;" xml:space="preserve">
<style type="text/css">
	.st0{fill:#386280;}
</style>
<g id="XMLID_2_">
	<polygon id="XMLID_3_" class="st0" points="66.7,95.3 66.7,122.6 90.4,150 66.7,177.4 66.7,204.7 114.1,150 	"/>
	<path id="XMLID_10_" class="st0" d="M150,0C67.2,0,0,67.2,0,150s67.2,150,150,150s150-67.2,150-150S232.8,0,150,0z M244.3,204.5
		c0,6.6-5.4,12-12,12H67.7c-6.6,0-12-5.4-12-12v-109c0-6.6,5.4-12,12-12h164.7c6.6,0,12,5.4,12,12V204.5z"/>
	<rect id="XMLID_11_" x="107" y="184.8" class="st0" width="79.4" height="17.6"/>
</g>
</svg>
