<?xml version="1.0" encoding="utf-8"?>
<!-- Generator: Adobe Illustrator 19.0.0, SVG Export Plug-In . SVG Version: 6.00 Build 0)  -->
<svg version="1.1" id="Layer_1" xmlns="http://www.w3.org/2000/svg" xmlns:xlink="http://www.w3.org/1999/xlink" x="0px" y="0px"
	 viewBox="0 0 300 300" style="enable-background:new 0 0 300 300;" xml:space="preserve">
<style type="text/css">
	.st0{fill:#376280;}
</style>
<ellipse id="XMLID_2_" class="st0" cx="-106.7" cy="42.8" rx="0" ry="0.7"/>
<g id="XMLID_3_">
	<polygon id="XMLID_4_" class="st0" points="181.7,111.6 170.1,111.6 149.8,142 130.4,111.6 118,111.6 143.6,149.4 116.6,189.4 
		128.1,189.4 149.7,157.2 170.6,189.4 183.3,189.4 155.9,149.4 	"/>
	<path id="XMLID_10_" class="st0" d="M150,0C67.2,0,0,67.2,0,150s67.2,150,150,150s150-67.2,150-150S232.8,0,150,0z M249.1,219.8
		c0,6.6-5.4,12-12,12H62.9c-6.6,0-12-5.4-12-12V80.2c0-6.6,5.4-12,12-12h174.1c6.6,0,12,5.4,12,12V219.8z"/>
</g>
</svg>
