<?xml version="1.0" encoding="UTF-8" standalone="no"?><svg xmlns="http://www.w3.org/2000/svg" xmlns:xlink="http://www.w3.org/1999/xlink" clip-rule="evenodd" stroke-miterlimit="4.00" viewBox="0 0 1024 768"><desc>SVG generated by Keynote</desc><defs></defs><g transform="matrix(1.00, 0.00, -0.00, -1.00, 0.0, 768.0)"><path d="M 0.0 768.0 L 1024.0 768.0 L 1024.0 0.0 L 0.0 0.0 Z M 0.0 768.0 " fill="#FEFFFF"></path><text xml:space="preserve" font-family="Helvetica-Light" font-size="80.0" fill="#000000" transform="matrix(1.00, 0.00, -0.00, -1.00, 210.0, 618.0)">N</text><text xml:space="preserve" font-family="Helvetica-Light" font-size="80.0" fill="#000000" transform="matrix(1.00, 0.00, -0.00, -1.00, 267.8, 618.0)">i</text><text xml:space="preserve" font-family="Helvetica-Light" font-size="80.0" fill="#000000" transform="matrix(1.00, 0.00, -0.00, -1.00, 285.5, 618.0)">g</text><text xml:space="preserve" font-family="Helvetica-Light" font-size="80.0" fill="#000000" transform="matrix(1.00, 0.00, -0.00, -1.00, 334.4, 618.0)">h</text><text xml:space="preserve" font-family="Helvetica-Light" font-size="80.0" fill="#000000" transform="matrix(1.00, 0.00, -0.00, -1.00, 378.9, 618.0)">t</text><text xml:space="preserve" font-family="Helvetica-Light" font-size="80.0" fill="#000000" transform="matrix(1.00, 0.00, -0.00, -1.00, 401.1, 618.0)"> </text><text xml:space="preserve" font-family="Helvetica-Light" font-size="80.0" fill="#000000" transform="matrix(1.00, 0.00, -0.00, -1.00, 423.4, 618.0)">S</text><text xml:space="preserve" font-family="Helvetica-Light" font-size="80.0" fill="#000000" transform="matrix(1.00, 0.00, -0.00, -1.00, 472.2, 618.0)">h</text><text xml:space="preserve" font-family="Helvetica-Light" font-size="80.0" fill="#000000" transform="matrix(1.00, 0.00, -0.00, -1.00, 516.7, 618.0)">i</text><text xml:space="preserve" font-family="Helvetica-Light" font-size="80.0" fill="#000000" transform="matrix(1.00, 0.00, -0.00, -1.00, 534.5, 618.0)">f</text><text xml:space="preserve" font-family="Helvetica-Light" font-size="80.0" fill="#000000" transform="matrix(1.00, 0.00, -0.00, -1.00, 556.7, 618.0)">t</text><text xml:space="preserve" font-family="Helvetica-Light" font-size="80.0" fill="#000000" transform="matrix(1.00, 0.00, -0.00, -1.00, 579.0, 618.0)"> </text><text xml:space="preserve" font-family="Helvetica-Light" font-size="80.0" fill="#000000" transform="matrix(1.00, 0.00, -0.00, -1.00, 601.2, 618.0)">i</text><text xml:space="preserve" font-family="Helvetica-Light" font-size="80.0" fill="#000000" transform="matrix(1.00, 0.00, -0.00, -1.00, 619.0, 618.0)">n</text><text xml:space="preserve" font-family="Helvetica-Light" font-size="80.0" fill="#000000" transform="matrix(1.00, 0.00, -0.00, -1.00, 663.4, 618.0)"> </text><text xml:space="preserve" font-family="Helvetica-Light" font-size="80.0" fill="#000000" transform="matrix(1.00, 0.00, -0.00, -1.00, 685.7, 618.0)">i</text><text xml:space="preserve" font-family="Helvetica-Light" font-size="80.0" fill="#000000" transform="matrix(1.00, 0.00, -0.00, -1.00, 703.4, 618.0)">O</text><text xml:space="preserve" font-family="Helvetica-Light" font-size="80.0" fill="#000000" transform="matrix(1.00, 0.00, -0.00, -1.00, 765.7, 618.0)">S</text><g><clipPath id="clip-48"><path d="M 121.0 531.0 L 579.0 531.0 L 579.0 99.0 L 121.0 99.0 Z M 120.9 531.4 "></path></clipPath><g clip-path="url(#clip-48)"><image xlink:href="8762529C4B096DADFE5FEFA21F0A9703.png" width="619.00" height="395.00" transform="matrix(1.10, 0.00, -0.00, -1.09, 11.0, 531.0)"></image></g></g><image xlink:href="BF3C68CC599C651A6171CBBA97660D93.png" width="253.00" height="452.00" transform="matrix(1.00, 0.00, -0.00, -1.00, 649.0, 541.0)"></image><text xml:space="preserve" font-family="Helvetica-Light" font-size="8.0" fill="#000000" transform="matrix(1.00, 0.00, -0.00, -1.00, 184.0, 55.0)">h</text><text xml:space="preserve" font-family="Helvetica-Light" font-size="8.0" fill="#000000" transform="matrix(1.00, 0.00, -0.00, -1.00, 188.4, 55.0)">t</text><text xml:space="preserve" font-family="Helvetica-Light" font-size="8.0" fill="#000000" transform="matrix(1.00, 0.00, -0.00, -1.00, 190.7, 55.0)">t</text><text xml:space="preserve" font-family="Helvetica-Light" font-size="8.0" fill="#000000" transform="matrix(1.00, 0.00, -0.00, -1.00, 192.9, 55.0)">p</text><text xml:space="preserve" font-family="Helvetica-Light" font-size="8.0" fill="#000000" transform="matrix(1.00, 0.00, -0.00, -1.00, 197.8, 55.0)">:</text><text xml:space="preserve" font-family="Helvetica-Light" font-size="8.0" fill="#000000" transform="matrix(1.00, 0.00, -0.00, -1.00, 200.0, 55.0)">/</text><text xml:space="preserve" font-family="Helvetica-Light" font-size="8.0" fill="#000000" transform="matrix(1.00, 0.00, -0.00, -1.00, 202.2, 55.0)">/</text><text xml:space="preserve" font-family="Helvetica-Light" font-size="8.0" fill="#000000" transform="matrix(1.00, 0.00, -0.00, -1.00, 204.5, 55.0)">j</text><text xml:space="preserve" font-family="Helvetica-Light" font-size="8.0" fill="#000000" transform="matrix(1.00, 0.00, -0.00, -1.00, 206.2, 55.0)">a</text><text xml:space="preserve" font-family="Helvetica-Light" font-size="8.0" fill="#000000" transform="matrix(1.00, 0.00, -0.00, -1.00, 210.7, 55.0)">x</text><text xml:space="preserve" font-family="Helvetica-Light" font-size="8.0" fill="#000000" transform="matrix(1.00, 0.00, -0.00, -1.00, 214.7, 55.0)">o</text><text xml:space="preserve" font-family="Helvetica-Light" font-size="8.0" fill="#000000" transform="matrix(1.00, 0.00, -0.00, -1.00, 219.1, 55.0)">v</text><text xml:space="preserve" font-family="Helvetica-Light" font-size="8.0" fill="#000000" transform="matrix(1.00, 0.00, -0.00, -1.00, 222.5, 55.0)">.</text><text xml:space="preserve" font-family="Helvetica-Light" font-size="8.0" fill="#000000" transform="matrix(1.00, 0.00, -0.00, -1.00, 224.8, 55.0)">c</text><text xml:space="preserve" font-family="Helvetica-Light" font-size="8.0" fill="#000000" transform="matrix(1.00, 0.00, -0.00, -1.00, 229.2, 55.0)">o</text><text xml:space="preserve" font-family="Helvetica-Light" font-size="8.0" fill="#000000" transform="matrix(1.00, 0.00, -0.00, -1.00, 233.7, 55.0)">m</text><text xml:space="preserve" font-family="Helvetica-Light" font-size="8.0" fill="#000000" transform="matrix(1.00, 0.00, -0.00, -1.00, 240.3, 55.0)">/</text><text xml:space="preserve" font-family="Helvetica-Light" font-size="8.0" fill="#000000" transform="matrix(1.00, 0.00, -0.00, -1.00, 242.5, 55.0)">2</text><text xml:space="preserve" font-family="Helvetica-Light" font-size="8.0" fill="#000000" transform="matrix(1.00, 0.00, -0.00, -1.00, 247.0, 55.0)">0</text><text xml:space="preserve" font-family="Helvetica-Light" font-size="8.0" fill="#000000" transform="matrix(1.00, 0.00, -0.00, -1.00, 251.4, 55.0)">1</text><text xml:space="preserve" font-family="Helvetica-Light" font-size="8.0" fill="#000000" transform="matrix(1.00, 0.00, -0.00, -1.00, 255.9, 55.0)">6</text><text xml:space="preserve" font-family="Helvetica-Light" font-size="8.0" fill="#000000" transform="matrix(1.00, 0.00, -0.00, -1.00, 260.3, 55.0)">/</text><text xml:space="preserve" font-family="Helvetica-Light" font-size="8.0" fill="#000000" transform="matrix(1.00, 0.00, -0.00, -1.00, 262.6, 55.0)">0</text><text xml:space="preserve" font-family="Helvetica-Light" font-size="8.0" fill="#000000" transform="matrix(1.00, 0.00, -0.00, -1.00, 267.0, 55.0)">1</text><text xml:space="preserve" font-family="Helvetica-Light" font-size="8.0" fill="#000000" transform="matrix(1.00, 0.00, -0.00, -1.00, 271.5, 55.0)">/</text><text xml:space="preserve" font-family="Helvetica-Light" font-size="8.0" fill="#000000" transform="matrix(1.00, 0.00, -0.00, -1.00, 273.7, 55.0)">n</text><text xml:space="preserve" font-family="Helvetica-Light" font-size="8.0" fill="#000000" transform="matrix(1.00, 0.00, -0.00, -1.00, 278.1, 55.0)">i</text><text xml:space="preserve" font-family="Helvetica-Light" font-size="8.0" fill="#000000" transform="matrix(1.00, 0.00, -0.00, -1.00, 279.9, 55.0)">g</text><text xml:space="preserve" font-family="Helvetica-Light" font-size="8.0" fill="#000000" transform="matrix(1.00, 0.00, -0.00, -1.00, 284.8, 55.0)">h</text><text xml:space="preserve" font-family="Helvetica-Light" font-size="8.0" fill="#000000" transform="matrix(1.00, 0.00, -0.00, -1.00, 289.2, 55.0)">t</text><text xml:space="preserve" font-family="Helvetica-Light" font-size="8.0" fill="#000000" transform="matrix(1.00, 0.00, -0.00, -1.00, 291.5, 55.0)">-</text><text xml:space="preserve" font-family="Helvetica-Light" font-size="8.0" fill="#000000" transform="matrix(1.00, 0.00, -0.00, -1.00, 294.1, 55.0)">s</text><text xml:space="preserve" font-family="Helvetica-Light" font-size="8.0" fill="#000000" transform="matrix(1.00, 0.00, -0.00, -1.00, 298.1, 55.0)">h</text><text xml:space="preserve" font-family="Helvetica-Light" font-size="8.0" fill="#000000" transform="matrix(1.00, 0.00, -0.00, -1.00, 302.6, 55.0)">i</text><text xml:space="preserve" font-family="Helvetica-Light" font-size="8.0" fill="#000000" transform="matrix(1.00, 0.00, -0.00, -1.00, 304.4, 55.0)">f</text><text xml:space="preserve" font-family="Helvetica-Light" font-size="8.0" fill="#000000" transform="matrix(1.00, 0.00, -0.00, -1.00, 306.6, 55.0)">t</text><text xml:space="preserve" font-family="Helvetica-Light" font-size="8.0" fill="#000000" transform="matrix(1.00, 0.00, -0.00, -1.00, 308.8, 55.0)">-</text><text xml:space="preserve" font-family="Helvetica-Light" font-size="8.0" fill="#000000" transform="matrix(1.00, 0.00, -0.00, -1.00, 311.5, 55.0)">m</text><text xml:space="preserve" font-family="Helvetica-Light" font-size="8.0" fill="#000000" transform="matrix(1.00, 0.00, -0.00, -1.00, 318.1, 55.0)">o</text><text xml:space="preserve" font-family="Helvetica-Light" font-size="8.0" fill="#000000" transform="matrix(1.00, 0.00, -0.00, -1.00, 322.6, 55.0)">d</text><text xml:space="preserve" font-family="Helvetica-Light" font-size="8.0" fill="#000000" transform="matrix(1.00, 0.00, -0.00, -1.00, 327.5, 55.0)">e</text><text xml:space="preserve" font-family="Helvetica-Light" font-size="8.0" fill="#000000" transform="matrix(1.00, 0.00, -0.00, -1.00, 331.9, 55.0)">-</text><text xml:space="preserve" font-family="Helvetica-Light" font-size="8.0" fill="#000000" transform="matrix(1.00, 0.00, -0.00, -1.00, 334.6, 55.0)">o</text><text xml:space="preserve" font-family="Helvetica-Light" font-size="8.0" fill="#000000" transform="matrix(1.00, 0.00, -0.00, -1.00, 339.0, 55.0)">n</text><text xml:space="preserve" font-family="Helvetica-Light" font-size="8.0" fill="#000000" transform="matrix(1.00, 0.00, -0.00, -1.00, 343.5, 55.0)">-</text><text xml:space="preserve" font-family="Helvetica-Light" font-size="8.0" fill="#000000" transform="matrix(1.00, 0.00, -0.00, -1.00, 346.1, 55.0)">i</text><text xml:space="preserve" font-family="Helvetica-Light" font-size="8.0" fill="#000000" transform="matrix(1.00, 0.00, -0.00, -1.00, 347.9, 55.0)">o</text><text xml:space="preserve" font-family="Helvetica-Light" font-size="8.0" fill="#000000" transform="matrix(1.00, 0.00, -0.00, -1.00, 352.4, 55.0)">s</text><text xml:space="preserve" font-family="Helvetica-Light" font-size="8.0" fill="#000000" transform="matrix(1.00, 0.00, -0.00, -1.00, 356.4, 55.0)">-</text><text xml:space="preserve" font-family="Helvetica-Light" font-size="8.0" fill="#000000" transform="matrix(1.00, 0.00, -0.00, -1.00, 359.0, 55.0)">9</text><text xml:space="preserve" font-family="Helvetica-Light" font-size="8.0" fill="#000000" transform="matrix(1.00, 0.00, -0.00, -1.00, 363.5, 55.0)">-</text><text xml:space="preserve" font-family="Helvetica-Light" font-size="8.0" fill="#000000" transform="matrix(1.00, 0.00, -0.00, -1.00, 366.1, 55.0)">3</text><text xml:space="preserve" font-family="Helvetica-Light" font-size="8.0" fill="#000000" transform="matrix(1.00, 0.00, -0.00, -1.00, 370.6, 55.0)">-</text><text xml:space="preserve" font-family="Helvetica-Light" font-size="8.0" fill="#000000" transform="matrix(1.00, 0.00, -0.00, -1.00, 373.2, 55.0)">w</text><text xml:space="preserve" font-family="Helvetica-Light" font-size="8.0" fill="#000000" transform="matrix(1.00, 0.00, -0.00, -1.00, 379.0, 55.0)">i</text><text xml:space="preserve" font-family="Helvetica-Light" font-size="8.0" fill="#000000" transform="matrix(1.00, 0.00, -0.00, -1.00, 380.8, 55.0)">l</text><text xml:space="preserve" font-family="Helvetica-Light" font-size="8.0" fill="#000000" transform="matrix(1.00, 0.00, -0.00, -1.00, 382.6, 55.0)">l</text><text xml:space="preserve" font-family="Helvetica-Light" font-size="8.0" fill="#000000" transform="matrix(1.00, 0.00, -0.00, -1.00, 384.4, 55.0)">-</text><text xml:space="preserve" font-family="Helvetica-Light" font-size="8.0" fill="#000000" transform="matrix(1.00, 0.00, -0.00, -1.00, 387.0, 55.0)">o</text><text xml:space="preserve" font-family="Helvetica-Light" font-size="8.0" fill="#000000" transform="matrix(1.00, 0.00, -0.00, -1.00, 391.5, 55.0)">n</text><text xml:space="preserve" font-family="Helvetica-Light" font-size="8.0" fill="#000000" transform="matrix(1.00, 0.00, -0.00, -1.00, 395.9, 55.0)">l</text><text xml:space="preserve" font-family="Helvetica-Light" font-size="8.0" fill="#000000" transform="matrix(1.00, 0.00, -0.00, -1.00, 397.7, 55.0)">y</text><text xml:space="preserve" font-family="Helvetica-Light" font-size="8.0" fill="#000000" transform="matrix(1.00, 0.00, -0.00, -1.00, 401.7, 55.0)">-</text><text xml:space="preserve" font-family="Helvetica-Light" font-size="8.0" fill="#000000" transform="matrix(1.00, 0.00, -0.00, -1.00, 404.4, 55.0)">b</text><text xml:space="preserve" font-family="Helvetica-Light" font-size="8.0" fill="#000000" transform="matrix(1.00, 0.00, -0.00, -1.00, 409.2, 55.0)">e</text><text xml:space="preserve" font-family="Helvetica-Light" font-size="8.0" fill="#000000" transform="matrix(1.00, 0.00, -0.00, -1.00, 413.7, 55.0)">-</text><text xml:space="preserve" font-family="Helvetica-Light" font-size="8.0" fill="#000000" transform="matrix(1.00, 0.00, -0.00, -1.00, 416.4, 55.0)">a</text><text xml:space="preserve" font-family="Helvetica-Light" font-size="8.0" fill="#000000" transform="matrix(1.00, 0.00, -0.00, -1.00, 420.8, 55.0)">v</text><text xml:space="preserve" font-family="Helvetica-Light" font-size="8.0" fill="#000000" transform="matrix(1.00, 0.00, -0.00, -1.00, 424.8, 55.0)">a</text><text xml:space="preserve" font-family="Helvetica-Light" font-size="8.0" fill="#000000" transform="matrix(1.00, 0.00, -0.00, -1.00, 429.2, 55.0)">i</text><text xml:space="preserve" font-family="Helvetica-Light" font-size="8.0" fill="#000000" transform="matrix(1.00, 0.00, -0.00, -1.00, 431.0, 55.0)">l</text><text xml:space="preserve" font-family="Helvetica-Light" font-size="8.0" fill="#000000" transform="matrix(1.00, 0.00, -0.00, -1.00, 432.8, 55.0)">a</text><text xml:space="preserve" font-family="Helvetica-Light" font-size="8.0" fill="#000000" transform="matrix(1.00, 0.00, -0.00, -1.00, 437.2, 55.0)">b</text><text xml:space="preserve" font-family="Helvetica-Light" font-size="8.0" fill="#000000" transform="matrix(1.00, 0.00, -0.00, -1.00, 442.1, 55.0)">l</text><text xml:space="preserve" font-family="Helvetica-Light" font-size="8.0" fill="#000000" transform="matrix(1.00, 0.00, -0.00, -1.00, 443.9, 55.0)">e</text><text xml:space="preserve" font-family="Helvetica-Light" font-size="8.0" fill="#000000" transform="matrix(1.00, 0.00, -0.00, -1.00, 448.4, 55.0)">-</text><text xml:space="preserve" font-family="Helvetica-Light" font-size="8.0" fill="#000000" transform="matrix(1.00, 0.00, -0.00, -1.00, 451.0, 55.0)">o</text><text xml:space="preserve" font-family="Helvetica-Light" font-size="8.0" fill="#000000" transform="matrix(1.00, 0.00, -0.00, -1.00, 455.5, 55.0)">n</text><text xml:space="preserve" font-family="Helvetica-Light" font-size="8.0" fill="#000000" transform="matrix(1.00, 0.00, -0.00, -1.00, 459.9, 55.0)">-</text><text xml:space="preserve" font-family="Helvetica-Light" font-size="8.0" fill="#000000" transform="matrix(1.00, 0.00, -0.00, -1.00, 462.6, 55.0)">t</text><text xml:space="preserve" font-family="Helvetica-Light" font-size="8.0" fill="#000000" transform="matrix(1.00, 0.00, -0.00, -1.00, 464.8, 55.0)">h</text><text xml:space="preserve" font-family="Helvetica-Light" font-size="8.0" fill="#000000" transform="matrix(1.00, 0.00, -0.00, -1.00, 469.3, 55.0)">e</text><text xml:space="preserve" font-family="Helvetica-Light" font-size="8.0" fill="#000000" transform="matrix(1.00, 0.00, -0.00, -1.00, 473.7, 55.0)">s</text><text xml:space="preserve" font-family="Helvetica-Light" font-size="8.0" fill="#000000" transform="matrix(1.00, 0.00, -0.00, -1.00, 477.7, 55.0)">e</text><text xml:space="preserve" font-family="Helvetica-Light" font-size="8.0" fill="#000000" transform="matrix(1.00, 0.00, -0.00, -1.00, 482.2, 55.0)">-</text><text xml:space="preserve" font-family="Helvetica-Light" font-size="8.0" fill="#000000" transform="matrix(1.00, 0.00, -0.00, -1.00, 484.8, 55.0)">i</text><text xml:space="preserve" font-family="Helvetica-Light" font-size="8.0" fill="#000000" transform="matrix(1.00, 0.00, -0.00, -1.00, 486.6, 55.0)">d</text><text xml:space="preserve" font-family="Helvetica-Light" font-size="8.0" fill="#000000" transform="matrix(1.00, 0.00, -0.00, -1.00, 491.5, 55.0)">e</text><text xml:space="preserve" font-family="Helvetica-Light" font-size="8.0" fill="#000000" transform="matrix(1.00, 0.00, -0.00, -1.00, 495.9, 55.0)">v</text><text xml:space="preserve" font-family="Helvetica-Light" font-size="8.0" fill="#000000" transform="matrix(1.00, 0.00, -0.00, -1.00, 499.9, 55.0)">i</text><text xml:space="preserve" font-family="Helvetica-Light" font-size="8.0" fill="#000000" transform="matrix(1.00, 0.00, -0.00, -1.00, 501.7, 55.0)">c</text><text xml:space="preserve" font-family="Helvetica-Light" font-size="8.0" fill="#000000" transform="matrix(1.00, 0.00, -0.00, -1.00, 506.2, 55.0)">e</text><text xml:space="preserve" font-family="Helvetica-Light" font-size="8.0" fill="#000000" transform="matrix(1.00, 0.00, -0.00, -1.00, 510.6, 55.0)">s</text><text xml:space="preserve" font-family="Helvetica-Light" font-size="8.0" fill="#000000" transform="matrix(1.00, 0.00, -0.00, -1.00, 514.6, 55.0)">/</text></g></svg>