<?xml version="1.0" encoding="UTF-8"?><svg xmlns="http://www.w3.org/2000/svg" xmlns:xlink="http://www.w3.org/1999/xlink" clip-rule="evenodd" stroke-miterlimit="4.00" viewBox="0 0 1024 768"><desc>SVG generated by Keynote</desc><defs></defs><g transform="matrix(1.00, 0.00, -0.00, -1.00, 0.0, 768.0)"><g><clipPath id="clip-94"><path d="M 0.0 0.0 L 1024.0 0.0 L 1024.0 768.0 L 0.0 768.0 Z M 0.0 0.0 "></path></clipPath><g clip-path="url(#clip-94)"><image xlink:href="../../064B7F0C-2929-4FA2-8273-93E588CA9C8B/assets/DE78B55DDE70D88C6FF874E8D33A46A3.jpeg" width="1024.00" height="768.00" transform="matrix(1.00, 0.00, -0.00, -1.00, 0.0, 768.0)"></image></g></g><text xml:space="preserve" font-family="Chalkduster" font-size="72.0" fill="#FEFFFE" transform="matrix(1.00, 0.00, -0.00, -1.00, 173.0, 627.0)">A</text><text xml:space="preserve" font-family="Chalkduster" font-size="72.0" fill="#FEFFFE" transform="matrix(1.00, 0.00, -0.00, -1.00, 226.2, 627.0)">d</text><text xml:space="preserve" font-family="Chalkduster" font-size="72.0" fill="#FEFFFE" transform="matrix(1.00, 0.00, -0.00, -1.00, 283.9, 627.0)">u</text><text xml:space="preserve" font-family="Chalkduster" font-size="72.0" fill="#FEFFFE" transform="matrix(1.00, 0.00, -0.00, -1.00, 335.3, 627.0)">l</text><text xml:space="preserve" font-family="Chalkduster" font-size="72.0" fill="#FEFFFE" transform="matrix(1.00, 0.00, -0.00, -1.00, 361.6, 627.0)">t</text><text xml:space="preserve" font-family="Chalkduster" font-size="72.0" fill="#FEFFFE" transform="matrix(1.00, 0.00, -0.00, -1.00, 394.5, 627.0)"> </text><text xml:space="preserve" font-family="Chalkduster" font-size="72.0" fill="#FEFFFE" transform="matrix(1.00, 0.00, -0.00, -1.00, 430.3, 627.0)">D</text><text xml:space="preserve" font-family="Chalkduster" font-size="72.0" fill="#FEFFFE" transform="matrix(1.00, 0.00, -0.00, -1.00, 480.7, 627.0)">i</text><text xml:space="preserve" font-family="Chalkduster" font-size="72.0" fill="#FEFFFE" transform="matrix(1.00, 0.00, -0.00, -1.00, 509.1, 627.0)">s</text><text xml:space="preserve" font-family="Chalkduster" font-size="72.0" fill="#FEFFFE" transform="matrix(1.00, 0.00, -0.00, -1.00, 547.0, 627.0)">c</text><text xml:space="preserve" font-family="Chalkduster" font-size="72.0" fill="#FEFFFE" transform="matrix(1.00, 0.00, -0.00, -1.00, 592.2, 627.0)">u</text><text xml:space="preserve" font-family="Chalkduster" font-size="72.0" fill="#FEFFFE" transform="matrix(1.00, 0.00, -0.00, -1.00, 643.8, 627.0)">s</text><text xml:space="preserve" font-family="Chalkduster" font-size="72.0" fill="#FEFFFE" transform="matrix(1.00, 0.00, -0.00, -1.00, 680.1, 627.0)">s</text><text xml:space="preserve" font-family="Chalkduster" font-size="72.0" fill="#FEFFFE" transform="matrix(1.00, 0.00, -0.00, -1.00, 716.5, 627.0)">i</text><text xml:space="preserve" font-family="Chalkduster" font-size="72.0" fill="#FEFFFE" transform="matrix(1.00, 0.00, -0.00, -1.00, 744.9, 627.0)">o</text><text xml:space="preserve" font-family="Chalkduster" font-size="72.0" fill="#FEFFFE" transform="matrix(1.00, 0.00, -0.00, -1.00, 798.5, 627.0)">n</text><image xlink:href="../../BEF5154A-7D10-4758-94F3-9B0BF504E35A/assets/8031BC132AD45F67E5F193E246E66C87.png" width="19.00" height="18.00" transform="matrix(0.87, 0.00, -0.00, -0.85, 104.0, 511.8)"></image><text xml:space="preserve" font-family="Chalkduster" font-size="28.2" fill="#FEFFFE" transform="matrix(1.00, 0.00, -0.00, -1.00, 137.0, 497.0)">D</text><text xml:space="preserve" font-family="Chalkduster" font-size="28.2" fill="#FEFFFE" transform="matrix(1.00, 0.00, -0.00, -1.00, 156.7, 497.0)">i</text><text xml:space="preserve" font-family="Chalkduster" font-size="28.2" fill="#FEFFFE" transform="matrix(1.00, 0.00, -0.00, -1.00, 167.8, 497.0)">s</text><text xml:space="preserve" font-family="Chalkduster" font-size="28.2" fill="#FEFFFE" transform="matrix(1.00, 0.00, -0.00, -1.00, 182.6, 497.0)">c</text><text xml:space="preserve" font-family="Chalkduster" font-size="28.2" fill="#FEFFFE" transform="matrix(1.00, 0.00, -0.00, -1.00, 200.3, 497.0)">u</text><text xml:space="preserve" font-family="Chalkduster" font-size="28.2" fill="#FEFFFE" transform="matrix(1.00, 0.00, -0.00, -1.00, 220.5, 497.0)">s</text><text xml:space="preserve" font-family="Chalkduster" font-size="28.2" fill="#FEFFFE" transform="matrix(1.00, 0.00, -0.00, -1.00, 234.7, 497.0)">s</text><text xml:space="preserve" font-family="Chalkduster" font-size="28.2" fill="#FEFFFE" transform="matrix(1.00, 0.00, -0.00, -1.00, 248.9, 497.0)">i</text><text xml:space="preserve" font-family="Chalkduster" font-size="28.2" fill="#FEFFFE" transform="matrix(1.00, 0.00, -0.00, -1.00, 260.1, 497.0)">o</text><text xml:space="preserve" font-family="Chalkduster" font-size="28.2" fill="#FEFFFE" transform="matrix(1.00, 0.00, -0.00, -1.00, 281.0, 497.0)">n</text><text xml:space="preserve" font-family="Chalkduster" font-size="28.2" fill="#FEFFFE" transform="matrix(1.00, 0.00, -0.00, -1.00, 300.8, 497.0)">,</text><text xml:space="preserve" font-family="Chalkduster" font-size="28.2" fill="#FEFFFE" transform="matrix(1.00, 0.00, -0.00, -1.00, 309.5, 497.0)"> </text><text xml:space="preserve" font-family="Chalkduster" font-size="28.2" fill="#FEFFFE" transform="matrix(1.00, 0.00, -0.00, -1.00, 323.5, 497.0)">n</text><text xml:space="preserve" font-family="Chalkduster" font-size="28.2" fill="#FEFFFE" transform="matrix(1.00, 0.00, -0.00, -1.00, 343.6, 497.0)">o</text><text xml:space="preserve" font-family="Chalkduster" font-size="28.2" fill="#FEFFFE" transform="matrix(1.00, 0.00, -0.00, -1.00, 362.7, 497.0)">t</text><text xml:space="preserve" font-family="Chalkduster" font-size="28.2" fill="#FEFFFE" transform="matrix(1.00, 0.00, -0.00, -1.00, 375.6, 497.0)"> </text><text xml:space="preserve" font-family="Chalkduster" font-size="28.2" fill="#FEFFFE" transform="matrix(1.00, 0.00, -0.00, -1.00, 389.6, 497.0)">l</text><text xml:space="preserve" font-family="Chalkduster" font-size="28.2" fill="#FEFFFE" transform="matrix(1.00, 0.00, -0.00, -1.00, 401.3, 497.0)">e</text><text xml:space="preserve" font-family="Chalkduster" font-size="28.2" fill="#FEFFFE" transform="matrix(1.00, 0.00, -0.00, -1.00, 419.2, 497.0)">c</text><text xml:space="preserve" font-family="Chalkduster" font-size="28.2" fill="#FEFFFE" transform="matrix(1.00, 0.00, -0.00, -1.00, 435.9, 497.0)">t</text><text xml:space="preserve" font-family="Chalkduster" font-size="28.2" fill="#FEFFFE" transform="matrix(1.00, 0.00, -0.00, -1.00, 448.8, 497.0)">u</text><text xml:space="preserve" font-family="Chalkduster" font-size="28.2" fill="#FEFFFE" transform="matrix(1.00, 0.00, -0.00, -1.00, 468.6, 497.0)">r</text><text xml:space="preserve" font-family="Chalkduster" font-size="28.2" fill="#FEFFFE" transform="matrix(1.00, 0.00, -0.00, -1.00, 482.8, 497.0)">e</text><text xml:space="preserve" font-family="Chalkduster" font-size="28.2" fill="#FEFFFE" transform="matrix(1.00, 0.00, -0.00, -1.00, 500.3, 497.0)"> </text><g><clipPath id="clip-95"><path d="M 136.4 491.9 L 301.2 491.9 L 301.2 494.5 L 136.4 494.5 Z M 136.4 491.9 "></path></clipPath><g clip-path="url(#clip-95)"><path d="M 37.4 42.8 L 201.2 42.8 " fill="none" stroke="#FEFFFE" stroke-width="0.62" stroke-miterlimit="0.00" transform="matrix(1.00, 0.00, 0.00, -1.00, 100.0, 536.0)"></path></g></g><image xlink:href="../../BEF5154A-7D10-4758-94F3-9B0BF504E35A/assets/8031BC132AD45F67E5F193E246E66C87.png" width="19.00" height="18.00" transform="matrix(0.87, 0.00, -0.00, -0.85, 104.0, 440.6)"></image><text xml:space="preserve" font-family="Chalkduster" font-size="28.2" fill="#FEFFFE" transform="matrix(1.00, 0.00, -0.00, -1.00, 137.0, 426.0)">P</text><text xml:space="preserve" font-family="Chalkduster" font-size="28.2" fill="#FEFFFE" transform="matrix(1.00, 0.00, -0.00, -1.00, 156.6, 426.0)">r</text><text xml:space="preserve" font-family="Chalkduster" font-size="28.2" fill="#FEFFFE" transform="matrix(1.00, 0.00, -0.00, -1.00, 170.8, 426.0)">e</text><text xml:space="preserve" font-family="Chalkduster" font-size="28.2" fill="#FEFFFE" transform="matrix(1.00, 0.00, -0.00, -1.00, 188.9, 426.0)">s</text><text xml:space="preserve" font-family="Chalkduster" font-size="28.2" fill="#FEFFFE" transform="matrix(1.00, 0.00, -0.00, -1.00, 203.2, 426.0)">e</text><text xml:space="preserve" font-family="Chalkduster" font-size="28.2" fill="#FEFFFE" transform="matrix(1.00, 0.00, -0.00, -1.00, 220.9, 426.0)">n</text><text xml:space="preserve" font-family="Chalkduster" font-size="28.2" fill="#FEFFFE" transform="matrix(1.00, 0.00, -0.00, -1.00, 240.5, 426.0)">t</text><text xml:space="preserve" font-family="Chalkduster" font-size="28.2" fill="#FEFFFE" transform="matrix(1.00, 0.00, -0.00, -1.00, 253.5, 426.0)">i</text><text xml:space="preserve" font-family="Chalkduster" font-size="28.2" fill="#FEFFFE" transform="matrix(1.00, 0.00, -0.00, -1.00, 264.7, 426.0)">n</text><text xml:space="preserve" font-family="Chalkduster" font-size="28.2" fill="#FEFFFE" transform="matrix(1.00, 0.00, -0.00, -1.00, 284.4, 426.0)">g</text><text xml:space="preserve" font-family="Chalkduster" font-size="28.2" fill="#FEFFFE" transform="matrix(1.00, 0.00, -0.00, -1.00, 303.6, 426.0)"> </text><text xml:space="preserve" font-family="Chalkduster" font-size="28.2" fill="#FEFFFE" transform="matrix(1.00, 0.00, -0.00, -1.00, 317.6, 426.0)">n</text><text xml:space="preserve" font-family="Chalkduster" font-size="28.2" fill="#FEFFFE" transform="matrix(1.00, 0.00, -0.00, -1.00, 338.7, 426.0)">e</text><text xml:space="preserve" font-family="Chalkduster" font-size="28.2" fill="#FEFFFE" transform="matrix(1.00, 0.00, -0.00, -1.00, 356.2, 426.0)">w</text><text xml:space="preserve" font-family="Chalkduster" font-size="28.2" fill="#FEFFFE" transform="matrix(1.00, 0.00, -0.00, -1.00, 379.2, 426.0)"> </text><text xml:space="preserve" font-family="Chalkduster" font-size="28.2" fill="#FEFFFE" transform="matrix(1.00, 0.00, -0.00, -1.00, 393.2, 426.0)">w</text><text xml:space="preserve" font-family="Chalkduster" font-size="28.2" fill="#FEFFFE" transform="matrix(1.00, 0.00, -0.00, -1.00, 416.2, 426.0)">a</text><text xml:space="preserve" font-family="Chalkduster" font-size="28.2" fill="#FEFFFE" transform="matrix(1.00, 0.00, -0.00, -1.00, 435.6, 426.0)">y</text><text xml:space="preserve" font-family="Chalkduster" font-size="28.2" fill="#FEFFFE" transform="matrix(1.00, 0.00, -0.00, -1.00, 452.7, 426.0)">s</text><text xml:space="preserve" font-family="Chalkduster" font-size="28.2" fill="#FEFFFE" transform="matrix(1.00, 0.00, -0.00, -1.00, 467.0, 426.0)"> </text><text xml:space="preserve" font-family="Chalkduster" font-size="28.2" fill="#FEFFFE" transform="matrix(1.00, 0.00, -0.00, -1.00, 137.0, 383.0)">o</text><text xml:space="preserve" font-family="Chalkduster" font-size="28.2" fill="#FEFFFE" transform="matrix(1.00, 0.00, -0.00, -1.00, 157.2, 383.0)">f</text><text xml:space="preserve" font-family="Chalkduster" font-size="28.2" fill="#FEFFFE" transform="matrix(1.00, 0.00, -0.00, -1.00, 172.2, 383.0)"> </text><text xml:space="preserve" font-family="Chalkduster" font-size="28.2" fill="#FEFFFE" transform="matrix(1.00, 0.00, -0.00, -1.00, 186.2, 383.0)">p</text><text xml:space="preserve" font-family="Chalkduster" font-size="28.2" fill="#FEFFFE" transform="matrix(1.00, 0.00, -0.00, -1.00, 203.6, 383.0)">l</text><text xml:space="preserve" font-family="Chalkduster" font-size="28.2" fill="#FEFFFE" transform="matrix(1.00, 0.00, -0.00, -1.00, 216.2, 383.0)">a</text><text xml:space="preserve" font-family="Chalkduster" font-size="28.2" fill="#FEFFFE" transform="matrix(1.00, 0.00, -0.00, -1.00, 235.6, 383.0)">y</text><text xml:space="preserve" font-family="Chalkduster" font-size="28.2" fill="#FEFFFE" transform="matrix(1.00, 0.00, -0.00, -1.00, 252.8, 383.0)">i</text><text xml:space="preserve" font-family="Chalkduster" font-size="28.2" fill="#FEFFFE" transform="matrix(1.00, 0.00, -0.00, -1.00, 263.9, 383.0)">n</text><text xml:space="preserve" font-family="Chalkduster" font-size="28.2" fill="#FEFFFE" transform="matrix(1.00, 0.00, -0.00, -1.00, 283.7, 383.0)">g</text><text xml:space="preserve" font-family="Chalkduster" font-size="28.2" fill="#FEFFFE" transform="matrix(1.00, 0.00, -0.00, -1.00, 302.7, 383.0)">,</text><text xml:space="preserve" font-family="Chalkduster" font-size="28.2" fill="#FEFFFE" transform="matrix(1.00, 0.00, -0.00, -1.00, 311.4, 383.0)"> </text><text xml:space="preserve" font-family="Chalkduster" font-size="28.2" fill="#FEFFFE" transform="matrix(1.00, 0.00, -0.00, -1.00, 325.4, 383.0)">n</text><text xml:space="preserve" font-family="Chalkduster" font-size="28.2" fill="#FEFFFE" transform="matrix(1.00, 0.00, -0.00, -1.00, 345.5, 383.0)">o</text><text xml:space="preserve" font-family="Chalkduster" font-size="28.2" fill="#FEFFFE" transform="matrix(1.00, 0.00, -0.00, -1.00, 364.7, 383.0)">t</text><text xml:space="preserve" font-family="Chalkduster" font-size="28.2" fill="#FEFFFE" transform="matrix(1.00, 0.00, -0.00, -1.00, 377.5, 383.0)"> </text><text xml:space="preserve" font-family="Chalkduster" font-size="28.2" fill="#FEFFFE" transform="matrix(1.00, 0.00, -0.00, -1.00, 137.0, 340.0)">c</text><text xml:space="preserve" font-family="Chalkduster" font-size="28.2" fill="#FEFFFE" transform="matrix(1.00, 0.00, -0.00, -1.00, 154.1, 340.0)">r</text><text xml:space="preserve" font-family="Chalkduster" font-size="28.2" fill="#FEFFFE" transform="matrix(1.00, 0.00, -0.00, -1.00, 169.7, 340.0)">i</text><text xml:space="preserve" font-family="Chalkduster" font-size="28.2" fill="#FEFFFE" transform="matrix(1.00, 0.00, -0.00, -1.00, 181.1, 340.0)">t</text><text xml:space="preserve" font-family="Chalkduster" font-size="28.2" fill="#FEFFFE" transform="matrix(1.00, 0.00, -0.00, -1.00, 194.1, 340.0)">i</text><text xml:space="preserve" font-family="Chalkduster" font-size="28.2" fill="#FEFFFE" transform="matrix(1.00, 0.00, -0.00, -1.00, 204.8, 340.0)">q</text><text xml:space="preserve" font-family="Chalkduster" font-size="28.2" fill="#FEFFFE" transform="matrix(1.00, 0.00, -0.00, -1.00, 223.0, 340.0)">u</text><text xml:space="preserve" font-family="Chalkduster" font-size="28.2" fill="#FEFFFE" transform="matrix(1.00, 0.00, -0.00, -1.00, 242.3, 340.0)">i</text><text xml:space="preserve" font-family="Chalkduster" font-size="28.2" fill="#FEFFFE" transform="matrix(1.00, 0.00, -0.00, -1.00, 253.5, 340.0)">n</text><text xml:space="preserve" font-family="Chalkduster" font-size="28.2" fill="#FEFFFE" transform="matrix(1.00, 0.00, -0.00, -1.00, 273.2, 340.0)">g</text><text xml:space="preserve" font-family="Chalkduster" font-size="28.2" fill="#FEFFFE" transform="matrix(1.00, 0.00, -0.00, -1.00, 292.4, 340.0)"> </text><text xml:space="preserve" font-family="Chalkduster" font-size="28.2" fill="#FEFFFE" transform="matrix(1.00, 0.00, -0.00, -1.00, 306.4, 340.0)">p</text><text xml:space="preserve" font-family="Chalkduster" font-size="28.2" fill="#FEFFFE" transform="matrix(1.00, 0.00, -0.00, -1.00, 323.8, 340.0)">a</text><text xml:space="preserve" font-family="Chalkduster" font-size="28.2" fill="#FEFFFE" transform="matrix(1.00, 0.00, -0.00, -1.00, 341.8, 340.0)">r</text><text xml:space="preserve" font-family="Chalkduster" font-size="28.2" fill="#FEFFFE" transform="matrix(1.00, 0.00, -0.00, -1.00, 356.0, 340.0)">e</text><text xml:space="preserve" font-family="Chalkduster" font-size="28.2" fill="#FEFFFE" transform="matrix(1.00, 0.00, -0.00, -1.00, 373.8, 340.0)">n</text><text xml:space="preserve" font-family="Chalkduster" font-size="28.2" fill="#FEFFFE" transform="matrix(1.00, 0.00, -0.00, -1.00, 393.4, 340.0)">t</text><text xml:space="preserve" font-family="Chalkduster" font-size="28.2" fill="#FEFFFE" transform="matrix(1.00, 0.00, -0.00, -1.00, 406.2, 340.0)">s</text><text xml:space="preserve" font-family="Chalkduster" font-size="28.2" fill="#FEFFFE" transform="matrix(1.00, 0.00, -0.00, -1.00, 420.5, 340.0)">'</text><text xml:space="preserve" font-family="Chalkduster" font-size="28.2" fill="#FEFFFE" transform="matrix(1.00, 0.00, -0.00, -1.00, 426.4, 340.0)"> </text><text xml:space="preserve" font-family="Chalkduster" font-size="28.2" fill="#FEFFFE" transform="matrix(1.00, 0.00, -0.00, -1.00, 440.4, 340.0)">o</text><text xml:space="preserve" font-family="Chalkduster" font-size="28.2" fill="#FEFFFE" transform="matrix(1.00, 0.00, -0.00, -1.00, 461.8, 340.0)">l</text><text xml:space="preserve" font-family="Chalkduster" font-size="28.2" fill="#FEFFFE" transform="matrix(1.00, 0.00, -0.00, -1.00, 475.0, 340.0)">d</text><text xml:space="preserve" font-family="Chalkduster" font-size="28.2" fill="#FEFFFE" transform="matrix(1.00, 0.00, -0.00, -1.00, 497.0, 340.0)"> </text><text xml:space="preserve" font-family="Chalkduster" font-size="28.2" fill="#FEFFFE" transform="matrix(1.00, 0.00, -0.00, -1.00, 137.0, 297.0)">m</text><text xml:space="preserve" font-family="Chalkduster" font-size="28.2" fill="#FEFFFE" transform="matrix(1.00, 0.00, -0.00, -1.00, 166.2, 297.0)">e</text><text xml:space="preserve" font-family="Chalkduster" font-size="28.2" fill="#FEFFFE" transform="matrix(1.00, 0.00, -0.00, -1.00, 183.4, 297.0)">t</text><text xml:space="preserve" font-family="Chalkduster" font-size="28.2" fill="#FEFFFE" transform="matrix(1.00, 0.00, -0.00, -1.00, 196.8, 297.0)">h</text><text xml:space="preserve" font-family="Chalkduster" font-size="28.2" fill="#FEFFFE" transform="matrix(1.00, 0.00, -0.00, -1.00, 214.2, 297.0)">o</text><text xml:space="preserve" font-family="Chalkduster" font-size="28.2" fill="#FEFFFE" transform="matrix(1.00, 0.00, -0.00, -1.00, 235.8, 297.0)">d</text><text xml:space="preserve" font-family="Chalkduster" font-size="28.2" fill="#FEFFFE" transform="matrix(1.00, 0.00, -0.00, -1.00, 258.7, 297.0)">s</text><text xml:space="preserve" font-family="Chalkduster" font-size="28.2" fill="#FEFFFE" transform="matrix(1.00, 0.00, -0.00, -1.00, 273.0, 297.0)"> </text><image xlink:href="../../BEF5154A-7D10-4758-94F3-9B0BF504E35A/assets/8031BC132AD45F67E5F193E246E66C87.png" width="19.00" height="18.00" transform="matrix(0.87, 0.00, -0.00, -0.85, 104.0, 240.5)"></image><text xml:space="preserve" font-family="Chalkduster" font-size="28.2" fill="#FEFFFE" transform="matrix(1.00, 0.00, -0.00, -1.00, 137.0, 226.0)">R</text><text xml:space="preserve" font-family="Chalkduster" font-size="28.2" fill="#FEFFFE" transform="matrix(1.00, 0.00, -0.00, -1.00, 158.9, 226.0)">e</text><text xml:space="preserve" font-family="Chalkduster" font-size="28.2" fill="#FEFFFE" transform="matrix(1.00, 0.00, -0.00, -1.00, 175.7, 226.0)">f</text><text xml:space="preserve" font-family="Chalkduster" font-size="28.2" fill="#FEFFFE" transform="matrix(1.00, 0.00, -0.00, -1.00, 190.7, 226.0)">l</text><text xml:space="preserve" font-family="Chalkduster" font-size="28.2" fill="#FEFFFE" transform="matrix(1.00, 0.00, -0.00, -1.00, 202.4, 226.0)">e</text><text xml:space="preserve" font-family="Chalkduster" font-size="28.2" fill="#FEFFFE" transform="matrix(1.00, 0.00, -0.00, -1.00, 220.3, 226.0)">c</text><text xml:space="preserve" font-family="Chalkduster" font-size="28.2" fill="#FEFFFE" transform="matrix(1.00, 0.00, -0.00, -1.00, 237.0, 226.0)">t</text><text xml:space="preserve" font-family="Chalkduster" font-size="28.2" fill="#FEFFFE" transform="matrix(1.00, 0.00, -0.00, -1.00, 250.0, 226.0)">i</text><text xml:space="preserve" font-family="Chalkduster" font-size="28.2" fill="#FEFFFE" transform="matrix(1.00, 0.00, -0.00, -1.00, 261.1, 226.0)">o</text><text xml:space="preserve" font-family="Chalkduster" font-size="28.2" fill="#FEFFFE" transform="matrix(1.00, 0.00, -0.00, -1.00, 282.1, 226.0)">n</text><text xml:space="preserve" font-family="Chalkduster" font-size="28.2" fill="#FEFFFE" transform="matrix(1.00, 0.00, -0.00, -1.00, 302.7, 226.0)"> </text><text xml:space="preserve" font-family="Chalkduster" font-size="28.2" fill="#FEFFFE" transform="matrix(1.00, 0.00, -0.00, -1.00, 316.7, 226.0)">o</text><text xml:space="preserve" font-family="Chalkduster" font-size="28.2" fill="#FEFFFE" transform="matrix(1.00, 0.00, -0.00, -1.00, 337.0, 226.0)">f</text><text xml:space="preserve" font-family="Chalkduster" font-size="28.2" fill="#FEFFFE" transform="matrix(1.00, 0.00, -0.00, -1.00, 352.0, 226.0)"> </text><text xml:space="preserve" font-family="Chalkduster" font-size="28.2" fill="#FEFFFE" transform="matrix(1.00, 0.00, -0.00, -1.00, 366.0, 226.0)">s</text><text xml:space="preserve" font-family="Chalkduster" font-size="28.2" fill="#FEFFFE" transform="matrix(1.00, 0.00, -0.00, -1.00, 380.2, 226.0)">e</text><text xml:space="preserve" font-family="Chalkduster" font-size="28.2" fill="#FEFFFE" transform="matrix(1.00, 0.00, -0.00, -1.00, 397.6, 226.0)">l</text><text xml:space="preserve" font-family="Chalkduster" font-size="28.2" fill="#FEFFFE" transform="matrix(1.00, 0.00, -0.00, -1.00, 410.8, 226.0)">f</text><text xml:space="preserve" font-family="Chalkduster" font-size="28.2" fill="#FEFFFE" transform="matrix(1.00, 0.00, -0.00, -1.00, 425.8, 226.0)">-</text><text xml:space="preserve" font-family="Chalkduster" font-size="28.2" fill="#FEFFFE" transform="matrix(1.00, 0.00, -0.00, -1.00, 137.0, 183.0)">d</text><text xml:space="preserve" font-family="Chalkduster" font-size="28.2" fill="#FEFFFE" transform="matrix(1.00, 0.00, -0.00, -1.00, 160.2, 183.0)">i</text><text xml:space="preserve" font-family="Chalkduster" font-size="28.2" fill="#FEFFFE" transform="matrix(1.00, 0.00, -0.00, -1.00, 171.3, 183.0)">r</text><text xml:space="preserve" font-family="Chalkduster" font-size="28.2" fill="#FEFFFE" transform="matrix(1.00, 0.00, -0.00, -1.00, 185.5, 183.0)">e</text><text xml:space="preserve" font-family="Chalkduster" font-size="28.2" fill="#FEFFFE" transform="matrix(1.00, 0.00, -0.00, -1.00, 203.4, 183.0)">c</text><text xml:space="preserve" font-family="Chalkduster" font-size="28.2" fill="#FEFFFE" transform="matrix(1.00, 0.00, -0.00, -1.00, 220.1, 183.0)">t</text><text xml:space="preserve" font-family="Chalkduster" font-size="28.2" fill="#FEFFFE" transform="matrix(1.00, 0.00, -0.00, -1.00, 232.7, 183.0)">e</text><text xml:space="preserve" font-family="Chalkduster" font-size="28.2" fill="#FEFFFE" transform="matrix(1.00, 0.00, -0.00, -1.00, 251.0, 183.0)">d</text><text xml:space="preserve" font-family="Chalkduster" font-size="28.2" fill="#FEFFFE" transform="matrix(1.00, 0.00, -0.00, -1.00, 273.0, 183.0)"> </text><text xml:space="preserve" font-family="Chalkduster" font-size="28.2" fill="#FEFFFE" transform="matrix(1.00, 0.00, -0.00, -1.00, 287.0, 183.0)">p</text><text xml:space="preserve" font-family="Chalkduster" font-size="28.2" fill="#FEFFFE" transform="matrix(1.00, 0.00, -0.00, -1.00, 304.4, 183.0)">l</text><text xml:space="preserve" font-family="Chalkduster" font-size="28.2" fill="#FEFFFE" transform="matrix(1.00, 0.00, -0.00, -1.00, 317.0, 183.0)">a</text><text xml:space="preserve" font-family="Chalkduster" font-size="28.2" fill="#FEFFFE" transform="matrix(1.00, 0.00, -0.00, -1.00, 336.5, 183.0)">y</text><text xml:space="preserve" font-family="Chalkduster" font-size="28.2" fill="#FEFFFE" transform="matrix(1.00, 0.00, -0.00, -1.00, 353.6, 183.0)"> </text><image xlink:href="../../BEF5154A-7D10-4758-94F3-9B0BF504E35A/assets/8031BC132AD45F67E5F193E246E66C87.png" width="19.00" height="18.00" transform="matrix(0.87, 0.00, -0.00, -0.85, 104.0, 126.3)"></image><text xml:space="preserve" font-family="Chalkduster" font-size="28.2" fill="#FEFFFE" transform="matrix(1.00, 0.00, -0.00, -1.00, 137.0, 112.0)">E</text><text xml:space="preserve" font-family="Chalkduster" font-size="28.2" fill="#FEFFFE" transform="matrix(1.00, 0.00, -0.00, -1.00, 157.8, 112.0)">m</text><text xml:space="preserve" font-family="Chalkduster" font-size="28.2" fill="#FEFFFE" transform="matrix(1.00, 0.00, -0.00, -1.00, 186.3, 112.0)">p</text><text xml:space="preserve" font-family="Chalkduster" font-size="28.2" fill="#FEFFFE" transform="matrix(1.00, 0.00, -0.00, -1.00, 204.6, 112.0)">h</text><text xml:space="preserve" font-family="Chalkduster" font-size="28.2" fill="#FEFFFE" transform="matrix(1.00, 0.00, -0.00, -1.00, 222.0, 112.0)">a</text><text xml:space="preserve" font-family="Chalkduster" font-size="28.2" fill="#FEFFFE" transform="matrix(1.00, 0.00, -0.00, -1.00, 241.7, 112.0)">s</text><text xml:space="preserve" font-family="Chalkduster" font-size="28.2" fill="#FEFFFE" transform="matrix(1.00, 0.00, -0.00, -1.00, 256.0, 112.0)">i</text><text xml:space="preserve" font-family="Chalkduster" font-size="28.2" fill="#FEFFFE" transform="matrix(1.00, 0.00, -0.00, -1.00, 267.1, 112.0)">s</text><text xml:space="preserve" font-family="Chalkduster" font-size="28.2" fill="#FEFFFE" transform="matrix(1.00, 0.00, -0.00, -1.00, 281.3, 112.0)"> </text><text xml:space="preserve" font-family="Chalkduster" font-size="28.2" fill="#FEFFFE" transform="matrix(1.00, 0.00, -0.00, -1.00, 295.3, 112.0)">o</text><text xml:space="preserve" font-family="Chalkduster" font-size="28.2" fill="#FEFFFE" transform="matrix(1.00, 0.00, -0.00, -1.00, 316.3, 112.0)">n</text><text xml:space="preserve" font-family="Chalkduster" font-size="28.2" fill="#FEFFFE" transform="matrix(1.00, 0.00, -0.00, -1.00, 336.9, 112.0)"> </text><text xml:space="preserve" font-family="Chalkduster" font-size="28.2" fill="#FEFFFE" transform="matrix(1.00, 0.00, -0.00, -1.00, 350.9, 112.0)">h</text><text xml:space="preserve" font-family="Chalkduster" font-size="28.2" fill="#FEFFFE" transform="matrix(1.00, 0.00, -0.00, -1.00, 368.3, 112.0)">a</text><text xml:space="preserve" font-family="Chalkduster" font-size="28.2" fill="#FEFFFE" transform="matrix(1.00, 0.00, -0.00, -1.00, 385.7, 112.0)">v</text><text xml:space="preserve" font-family="Chalkduster" font-size="28.2" fill="#FEFFFE" transform="matrix(1.00, 0.00, -0.00, -1.00, 403.2, 112.0)">i</text><text xml:space="preserve" font-family="Chalkduster" font-size="28.2" fill="#FEFFFE" transform="matrix(1.00, 0.00, -0.00, -1.00, 414.3, 112.0)">n</text><text xml:space="preserve" font-family="Chalkduster" font-size="28.2" fill="#FEFFFE" transform="matrix(1.00, 0.00, -0.00, -1.00, 434.1, 112.0)">g</text><text xml:space="preserve" font-family="Chalkduster" font-size="28.2" fill="#FEFFFE" transform="matrix(1.00, 0.00, -0.00, -1.00, 453.3, 112.0)"> </text><text xml:space="preserve" font-family="Chalkduster" font-size="28.2" fill="#FEFFFE" transform="matrix(1.00, 0.00, -0.00, -1.00, 137.0, 69.0)">f</text><text xml:space="preserve" font-family="Chalkduster" font-size="28.2" fill="#FEFFFE" transform="matrix(1.00, 0.00, -0.00, -1.00, 152.0, 69.0)">u</text><text xml:space="preserve" font-family="Chalkduster" font-size="28.2" fill="#FEFFFE" transform="matrix(1.00, 0.00, -0.00, -1.00, 171.7, 69.0)">n</text><text xml:space="preserve" font-family="Chalkduster" font-size="28.2" fill="#FEFFFE" transform="matrix(1.00, 0.00, -0.00, -1.00, 192.4, 69.0)"> </text><text xml:space="preserve" font-family="Chalkduster" font-size="28.2" fill="#FEFFFE" transform="matrix(1.00, 0.00, -0.00, -1.00, 206.4, 69.0)">w</text><text xml:space="preserve" font-family="Chalkduster" font-size="28.2" fill="#FEFFFE" transform="matrix(1.00, 0.00, -0.00, -1.00, 230.5, 69.0)">i</text><text xml:space="preserve" font-family="Chalkduster" font-size="28.2" fill="#FEFFFE" transform="matrix(1.00, 0.00, -0.00, -1.00, 241.9, 69.0)">t</text><text xml:space="preserve" font-family="Chalkduster" font-size="28.2" fill="#FEFFFE" transform="matrix(1.00, 0.00, -0.00, -1.00, 255.4, 69.0)">h</text><text xml:space="preserve" font-family="Chalkduster" font-size="28.2" fill="#FEFFFE" transform="matrix(1.00, 0.00, -0.00, -1.00, 272.8, 69.0)"> </text><text xml:space="preserve" font-family="Chalkduster" font-size="28.2" fill="#FEFFFE" transform="matrix(1.00, 0.00, -0.00, -1.00, 286.8, 69.0)">t</text><text xml:space="preserve" font-family="Chalkduster" font-size="28.2" fill="#FEFFFE" transform="matrix(1.00, 0.00, -0.00, -1.00, 300.2, 69.0)">h</text><text xml:space="preserve" font-family="Chalkduster" font-size="28.2" fill="#FEFFFE" transform="matrix(1.00, 0.00, -0.00, -1.00, 317.6, 69.0)">e</text><text xml:space="preserve" font-family="Chalkduster" font-size="28.2" fill="#FEFFFE" transform="matrix(1.00, 0.00, -0.00, -1.00, 335.0, 69.0)">i</text><text xml:space="preserve" font-family="Chalkduster" font-size="28.2" fill="#FEFFFE" transform="matrix(1.00, 0.00, -0.00, -1.00, 346.2, 69.0)">r</text><text xml:space="preserve" font-family="Chalkduster" font-size="28.2" fill="#FEFFFE" transform="matrix(1.00, 0.00, -0.00, -1.00, 361.0, 69.0)"> </text><text xml:space="preserve" font-family="Chalkduster" font-size="28.2" fill="#FEFFFE" transform="matrix(1.00, 0.00, -0.00, -1.00, 375.0, 69.0)">k</text><text xml:space="preserve" font-family="Chalkduster" font-size="28.2" fill="#FEFFFE" transform="matrix(1.00, 0.00, -0.00, -1.00, 396.9, 69.0)">i</text><text xml:space="preserve" font-family="Chalkduster" font-size="28.2" fill="#FEFFFE" transform="matrix(1.00, 0.00, -0.00, -1.00, 409.0, 69.0)">d</text><text xml:space="preserve" font-family="Chalkduster" font-size="28.2" fill="#FEFFFE" transform="matrix(1.00, 0.00, -0.00, -1.00, 432.0, 69.0)">s</text><text xml:space="preserve" font-family="Chalkduster" font-size="28.2" fill="#FEFFFE" transform="matrix(1.00, 0.00, -0.00, -1.00, 444.9, 69.0)">!</text><g><clipPath id="clip-96"><path d="M 562.0 434.0 L 910.0 434.0 L 910.0 158.0 L 562.0 158.0 Z M 562.4 434.5 "></path></clipPath><g clip-path="url(#clip-96)"><g><clipPath id="clip-97"><path d="M 736.7 434.5 C 732.8 434.4 731.4 434.4 728.1 434.4 C 728.0 434.4 728.0 434.4 728.0 434.4 C 726.2 434.3 724.0 434.3 723.9 434.2 C 723.9 434.1 723.4 434.0 722.7 433.9 C 722.0 433.8 721.1 433.8 720.1 433.8 C 718.4 433.8 713.9 433.5 709.9 433.2 C 709.0 433.2 708.3 433.1 707.4 433.0 C 707.2 433.0 707.0 433.0 706.9 433.0 C 703.9 432.7 700.9 432.4 697.9 432.1 C 697.5 432.0 697.1 432.0 696.6 431.9 C 693.5 431.5 690.3 431.0 687.2 430.5 C 686.5 430.4 685.9 430.3 685.2 430.1 C 682.7 429.7 680.1 429.1 677.5 428.6 C 675.9 428.2 674.3 427.9 672.7 427.5 C 670.7 427.0 668.8 426.5 666.8 426.0 C 665.3 425.6 663.8 425.2 662.3 424.7 C 659.6 424.0 656.9 423.1 654.2 422.3 C 653.6 422.1 653.0 421.9 652.5 421.7 C 649.9 420.8 647.3 419.9 644.6 418.9 C 642.7 418.1 640.7 417.4 638.8 416.6 C 637.3 416.0 635.7 415.3 634.1 414.6 C 632.2 413.8 630.4 413.0 628.6 412.2 C 626.9 411.4 625.2 410.7 623.4 409.8 C 621.2 408.7 619.0 407.6 616.9 406.5 C 616.2 406.1 615.4 405.7 614.7 405.3 C 613.1 404.4 611.6 403.5 610.1 402.5 C 610.0 402.5 609.9 402.4 609.7 402.3 C 607.9 401.2 606.1 400.0 604.2 398.7 C 603.9 398.5 603.7 398.3 603.4 398.1 C 600.7 396.2 598.0 394.3 595.4 392.3 C 594.3 391.4 593.1 390.5 592.0 389.6 C 591.3 389.0 590.6 388.3 589.9 387.7 C 588.5 386.4 587.1 385.1 585.8 383.9 C 585.2 383.2 584.6 382.7 584.0 382.0 C 583.7 381.7 583.4 381.4 583.2 381.1 C 579.2 376.4 574.9 370.2 570.9 363.4 C 569.4 360.7 568.1 358.2 567.1 355.7 C 565.7 351.8 564.3 347.1 563.6 344.1 C 563.5 343.8 563.4 343.3 563.4 343.0 C 563.1 341.4 562.7 340.0 562.5 339.6 C 562.5 339.6 562.5 339.6 562.5 339.6 C 562.4 339.5 562.4 332.3 562.4 329.6 C 562.4 328.1 562.5 326.9 562.5 326.8 C 562.8 326.7 563.0 326.0 563.0 325.4 C 563.0 323.7 564.4 317.1 565.8 312.4 C 567.1 307.7 571.6 298.8 574.8 294.3 C 582.3 283.9 591.2 275.3 603.8 266.4 C 610.4 261.8 623.3 254.3 629.1 251.8 C 630.7 251.2 634.3 249.6 637.2 248.4 C 640.2 247.1 642.8 245.6 643.3 245.0 C 644.1 244.1 644.3 244.1 644.7 244.6 C 645.0 245.2 645.6 245.1 648.6 244.0 C 653.8 242.1 662.2 239.7 665.7 239.0 C 674.8 237.2 681.9 235.5 682.3 235.2 C 682.5 235.0 681.8 233.4 680.8 231.6 C 679.7 229.9 678.1 227.1 677.2 225.4 C 676.2 223.7 674.8 221.3 674.1 220.1 C 673.4 218.9 672.5 217.2 672.0 216.4 C 671.5 215.6 669.4 211.9 667.3 208.3 C 660.5 196.3 659.7 195.0 659.2 195.2 C 659.0 195.4 658.9 195.3 659.0 194.9 C 659.3 194.1 657.6 190.8 652.7 182.8 C 651.8 181.3 651.0 180.0 651.0 179.9 C 651.0 179.7 639.7 160.0 638.9 158.9 C 638.6 158.4 638.3 157.8 638.3 157.6 C 638.3 157.4 638.8 157.7 639.5 158.3 C 640.2 158.9 643.9 161.7 647.7 164.6 C 651.6 167.5 655.9 170.8 657.3 171.9 C 658.8 173.1 660.2 173.9 660.5 173.8 C 660.9 173.6 661.0 173.7 660.9 173.9 C 660.7 174.3 668.2 180.3 671.7 182.7 C 672.3 183.1 674.4 184.7 676.4 186.2 C 678.4 187.8 680.5 189.4 681.1 189.7 C 681.6 190.1 682.8 191.0 683.9 191.8 C 685.4 193.0 685.9 193.1 686.5 192.7 C 687.1 192.2 687.1 192.2 686.6 192.8 C 686.1 193.4 686.3 193.7 687.6 194.7 C 688.4 195.4 689.4 195.7 689.6 195.6 C 689.9 195.4 690.0 195.5 689.9 195.7 C 689.6 196.2 698.9 203.4 699.5 203.2 C 699.7 203.1 699.9 203.3 700.0 203.5 C 700.3 204.4 701.6 205.5 702.0 205.3 C 702.3 205.2 702.8 205.5 703.0 205.9 C 703.4 206.6 725.2 223.2 728.7 225.6 C 729.2 225.9 730.8 227.1 732.3 228.3 L 734.9 230.0 L 744.1 231.0 C 757.7 231.4 775.6 232.5 783.7 233.9 C 802.4 237.2 818.3 241.7 832.8 247.7 C 840.8 251.1 843.2 252.2 850.5 255.7 C 857.6 259.1 859.4 260.2 865.3 264.1 C 866.7 265.1 867.9 265.8 868.1 265.8 C 868.3 265.8 869.9 267.0 871.7 268.3 C 873.5 269.7 875.5 271.2 876.1 271.7 C 877.8 273.0 879.9 274.8 883.5 278.0 C 885.3 279.6 886.9 280.9 887.1 281.0 C 887.4 281.0 887.7 281.0 888.0 281.1 C 888.2 281.1 888.4 281.4 888.4 281.7 C 888.4 282.2 894.6 289.8 896.2 291.2 C 896.6 291.6 897.0 292.2 897.1 292.5 C 897.2 292.9 897.7 293.9 898.2 294.7 C 898.8 295.5 900.7 299.2 902.6 302.9 C 905.1 307.8 906.3 310.9 907.5 315.1 C 908.4 318.2 909.3 321.1 909.5 321.5 C 909.5 321.6 909.6 326.9 909.6 330.0 C 909.6 334.3 909.6 343.0 909.5 343.1 C 909.3 343.3 908.8 344.8 908.4 346.5 C 908.0 348.0 907.7 349.4 907.3 350.7 C 906.5 353.3 905.6 355.7 904.4 358.4 C 903.7 359.7 903.0 361.1 902.2 362.7 C 900.4 366.2 898.4 369.9 897.9 370.8 C 897.6 371.2 897.3 371.7 897.2 372.0 C 897.2 372.0 897.2 372.0 897.2 372.1 C 897.0 372.4 897.0 372.7 897.1 372.7 C 897.2 372.9 897.1 373.0 896.9 373.0 C 896.7 373.0 895.0 374.8 893.2 377.0 C 892.3 378.1 890.9 379.7 889.2 381.3 C 887.6 383.0 885.8 384.8 884.3 386.2 C 881.1 389.1 878.6 391.6 878.7 391.9 C 878.8 392.2 878.2 392.4 877.4 392.3 C 877.3 392.3 876.8 392.6 876.1 393.1 C 876.1 393.1 876.1 393.1 876.1 393.1 C 875.5 393.5 874.9 394.1 874.2 394.6 C 874.0 394.8 873.8 394.9 873.6 395.0 C 871.9 396.4 870.2 397.9 870.2 398.2 C 870.2 398.8 870.0 399.3 869.7 399.6 C 869.4 399.8 869.1 399.9 868.7 399.7 C 868.1 399.3 867.4 399.6 865.7 400.6 C 865.1 401.0 864.6 401.4 864.2 401.7 C 863.9 402.0 863.7 402.3 863.8 402.4 C 863.9 402.7 863.8 402.7 863.5 402.5 C 863.4 402.5 863.1 402.5 862.7 402.6 C 862.4 402.7 862.0 403.0 861.6 403.3 C 860.8 403.9 859.8 404.5 859.4 404.6 C 858.9 404.8 858.7 405.1 858.9 405.4 C 859.1 405.7 859.0 405.8 858.8 405.6 C 858.5 405.5 856.0 406.5 853.1 408.0 C 848.4 410.3 844.8 412.0 835.9 415.9 C 833.3 417.0 827.8 419.1 820.1 422.1 C 817.5 423.1 811.1 424.9 802.4 427.0 C 791.2 429.8 786.2 430.8 782.7 431.2 C 780.4 431.4 776.7 431.9 774.3 432.2 C 771.9 432.6 766.8 433.1 762.9 433.4 C 759.1 433.6 755.6 434.0 755.2 434.3 C 755.0 434.3 745.6 434.4 736.7 434.5 Z M 736.7 434.5 "></path></clipPath><g clip-path="url(#clip-97)"><image xlink:href="../../143F9689-680C-4E71-81AD-0030FDB66B07/assets/44945EA1853613766D129BE2861485D7.png" width="348.00" height="278.00" transform="matrix(1.00, 0.00, -0.00, -1.00, 562.0, 435.0)"></image></g></g></g></g></g></svg>