<?xml version="1.0" encoding="UTF-8"?><svg xmlns="http://www.w3.org/2000/svg" xmlns:xlink="http://www.w3.org/1999/xlink" clip-rule="evenodd" stroke-miterlimit="4.00" viewBox="0 0 1024 768"><desc>SVG generated by Keynote</desc><defs></defs><g transform="matrix(1.00, 0.00, -0.00, -1.00, 0.0, 768.0)"><g><clipPath id="clip-98"><path d="M 0.0 0.0 L 1024.0 0.0 L 1024.0 768.0 L 0.0 768.0 Z M 0.0 0.0 "></path></clipPath><g clip-path="url(#clip-98)"><image xlink:href="../../064B7F0C-2929-4FA2-8273-93E588CA9C8B/assets/DE78B55DDE70D88C6FF874E8D33A46A3.jpeg" width="1024.00" height="768.00" transform="matrix(1.00, 0.00, -0.00, -1.00, 0.0, 768.0)"></image></g></g><image xlink:href="../../BEF5154A-7D10-4758-94F3-9B0BF504E35A/assets/8031BC132AD45F67E5F193E246E66C87.png" width="19.00" height="18.00" transform="matrix(0.92, 0.00, -0.00, -0.90, 104.0, 504.3)"></image><text xml:space="preserve" font-family="Chalkduster" font-size="29.8" fill="#FEFFFE" transform="matrix(1.00, 0.00, -0.00, -1.00, 139.0, 489.0)">L</text><text xml:space="preserve" font-family="Chalkduster" font-size="29.8" fill="#FEFFFE" transform="matrix(1.00, 0.00, -0.00, -1.00, 157.8, 489.0)">o</text><text xml:space="preserve" font-family="Chalkduster" font-size="29.8" fill="#FEFFFE" transform="matrix(1.00, 0.00, -0.00, -1.00, 180.4, 489.0)">o</text><text xml:space="preserve" font-family="Chalkduster" font-size="29.8" fill="#FEFFFE" transform="matrix(1.00, 0.00, -0.00, -1.00, 202.1, 489.0)">s</text><text xml:space="preserve" font-family="Chalkduster" font-size="29.8" fill="#FEFFFE" transform="matrix(1.00, 0.00, -0.00, -1.00, 217.1, 489.0)">e</text><text xml:space="preserve" font-family="Chalkduster" font-size="29.8" fill="#FEFFFE" transform="matrix(1.00, 0.00, -0.00, -1.00, 235.5, 489.0)"> </text><text xml:space="preserve" font-family="Chalkduster" font-size="29.8" fill="#FEFFFE" transform="matrix(1.00, 0.00, -0.00, -1.00, 250.3, 489.0)">p</text><text xml:space="preserve" font-family="Chalkduster" font-size="29.8" fill="#FEFFFE" transform="matrix(1.00, 0.00, -0.00, -1.00, 268.7, 489.0)">a</text><text xml:space="preserve" font-family="Chalkduster" font-size="29.8" fill="#FEFFFE" transform="matrix(1.00, 0.00, -0.00, -1.00, 287.7, 489.0)">r</text><text xml:space="preserve" font-family="Chalkduster" font-size="29.8" fill="#FEFFFE" transform="matrix(1.00, 0.00, -0.00, -1.00, 303.4, 489.0)">t</text><text xml:space="preserve" font-family="Chalkduster" font-size="29.8" fill="#FEFFFE" transform="matrix(1.00, 0.00, -0.00, -1.00, 317.0, 489.0)">s</text><text xml:space="preserve" font-family="Chalkduster" font-size="29.8" fill="#FEFFFE" transform="matrix(1.00, 0.00, -0.00, -1.00, 332.0, 489.0)"> </text><text xml:space="preserve" font-family="Chalkduster" font-size="29.8" fill="#FEFFFE" transform="matrix(1.00, 0.00, -0.00, -1.00, 346.8, 489.0)">p</text><text xml:space="preserve" font-family="Chalkduster" font-size="29.8" fill="#FEFFFE" transform="matrix(1.00, 0.00, -0.00, -1.00, 365.2, 489.0)">l</text><text xml:space="preserve" font-family="Chalkduster" font-size="29.8" fill="#FEFFFE" transform="matrix(1.00, 0.00, -0.00, -1.00, 378.5, 489.0)">a</text><text xml:space="preserve" font-family="Chalkduster" font-size="29.8" fill="#FEFFFE" transform="matrix(1.00, 0.00, -0.00, -1.00, 399.1, 489.0)">y</text><text xml:space="preserve" font-family="Chalkduster" font-size="29.8" fill="#FEFFFE" transform="matrix(1.00, 0.00, -0.00, -1.00, 416.9, 489.0)">,</text><text xml:space="preserve" font-family="Chalkduster" font-size="29.8" fill="#FEFFFE" transform="matrix(1.00, 0.00, -0.00, -1.00, 426.1, 489.0)"> </text><text xml:space="preserve" font-family="Chalkduster" font-size="29.8" fill="#FEFFFE" transform="matrix(1.00, 0.00, -0.00, -1.00, 440.9, 489.0)">b</text><text xml:space="preserve" font-family="Chalkduster" font-size="29.8" fill="#FEFFFE" transform="matrix(1.00, 0.00, -0.00, -1.00, 458.2, 489.0)">u</text><text xml:space="preserve" font-family="Chalkduster" font-size="29.8" fill="#FEFFFE" transform="matrix(1.00, 0.00, -0.00, -1.00, 478.4, 489.0)">t</text><text xml:space="preserve" font-family="Chalkduster" font-size="29.8" fill="#FEFFFE" transform="matrix(1.00, 0.00, -0.00, -1.00, 492.0, 489.0)"> </text><text xml:space="preserve" font-family="Chalkduster" font-size="29.8" fill="#FEFFFE" transform="matrix(1.00, 0.00, -0.00, -1.00, 139.0, 445.0)">c</text><text xml:space="preserve" font-family="Chalkduster" font-size="29.8" fill="#FEFFFE" transform="matrix(1.00, 0.00, -0.00, -1.00, 157.7, 445.0)">h</text><text xml:space="preserve" font-family="Chalkduster" font-size="29.8" fill="#FEFFFE" transform="matrix(1.00, 0.00, -0.00, -1.00, 176.6, 445.0)">i</text><text xml:space="preserve" font-family="Chalkduster" font-size="29.8" fill="#FEFFFE" transform="matrix(1.00, 0.00, -0.00, -1.00, 188.7, 445.0)">l</text><text xml:space="preserve" font-family="Chalkduster" font-size="29.8" fill="#FEFFFE" transform="matrix(1.00, 0.00, -0.00, -1.00, 202.6, 445.0)">d</text><text xml:space="preserve" font-family="Chalkduster" font-size="29.8" fill="#FEFFFE" transform="matrix(1.00, 0.00, -0.00, -1.00, 225.9, 445.0)">r</text><text xml:space="preserve" font-family="Chalkduster" font-size="29.8" fill="#FEFFFE" transform="matrix(1.00, 0.00, -0.00, -1.00, 240.9, 445.0)">e</text><text xml:space="preserve" font-family="Chalkduster" font-size="29.8" fill="#FEFFFE" transform="matrix(1.00, 0.00, -0.00, -1.00, 259.7, 445.0)">n</text><text xml:space="preserve" font-family="Chalkduster" font-size="29.8" fill="#FEFFFE" transform="matrix(1.00, 0.00, -0.00, -1.00, 281.5, 445.0)"> </text><text xml:space="preserve" font-family="Chalkduster" font-size="29.8" fill="#FEFFFE" transform="matrix(1.00, 0.00, -0.00, -1.00, 296.3, 445.0)">&amp;</text><text xml:space="preserve" font-family="Chalkduster" font-size="29.8" fill="#FEFFFE" transform="matrix(1.00, 0.00, -0.00, -1.00, 323.6, 445.0)"> </text><text xml:space="preserve" font-family="Chalkduster" font-size="29.8" fill="#FEFFFE" transform="matrix(1.00, 0.00, -0.00, -1.00, 338.4, 445.0)">p</text><text xml:space="preserve" font-family="Chalkduster" font-size="29.8" fill="#FEFFFE" transform="matrix(1.00, 0.00, -0.00, -1.00, 356.8, 445.0)">a</text><text xml:space="preserve" font-family="Chalkduster" font-size="29.8" fill="#FEFFFE" transform="matrix(1.00, 0.00, -0.00, -1.00, 375.7, 445.0)">r</text><text xml:space="preserve" font-family="Chalkduster" font-size="29.8" fill="#FEFFFE" transform="matrix(1.00, 0.00, -0.00, -1.00, 390.8, 445.0)">e</text><text xml:space="preserve" font-family="Chalkduster" font-size="29.8" fill="#FEFFFE" transform="matrix(1.00, 0.00, -0.00, -1.00, 409.6, 445.0)">n</text><text xml:space="preserve" font-family="Chalkduster" font-size="29.8" fill="#FEFFFE" transform="matrix(1.00, 0.00, -0.00, -1.00, 430.3, 445.0)">t</text><text xml:space="preserve" font-family="Chalkduster" font-size="29.8" fill="#FEFFFE" transform="matrix(1.00, 0.00, -0.00, -1.00, 443.9, 445.0)">s</text><text xml:space="preserve" font-family="Chalkduster" font-size="29.8" fill="#FEFFFE" transform="matrix(1.00, 0.00, -0.00, -1.00, 458.9, 445.0)"> </text><text xml:space="preserve" font-family="Chalkduster" font-size="29.8" fill="#FEFFFE" transform="matrix(1.00, 0.00, -0.00, -1.00, 139.0, 401.0)">t</text><text xml:space="preserve" font-family="Chalkduster" font-size="29.8" fill="#FEFFFE" transform="matrix(1.00, 0.00, -0.00, -1.00, 151.3, 401.0)">o</text><text xml:space="preserve" font-family="Chalkduster" font-size="29.8" fill="#FEFFFE" transform="matrix(1.00, 0.00, -0.00, -1.00, 173.1, 401.0)">g</text><text xml:space="preserve" font-family="Chalkduster" font-size="29.8" fill="#FEFFFE" transform="matrix(1.00, 0.00, -0.00, -1.00, 193.9, 401.0)">e</text><text xml:space="preserve" font-family="Chalkduster" font-size="29.8" fill="#FEFFFE" transform="matrix(1.00, 0.00, -0.00, -1.00, 212.0, 401.0)">t</text><text xml:space="preserve" font-family="Chalkduster" font-size="29.8" fill="#FEFFFE" transform="matrix(1.00, 0.00, -0.00, -1.00, 226.2, 401.0)">h</text><text xml:space="preserve" font-family="Chalkduster" font-size="29.8" fill="#FEFFFE" transform="matrix(1.00, 0.00, -0.00, -1.00, 244.6, 401.0)">e</text><text xml:space="preserve" font-family="Chalkduster" font-size="29.8" fill="#FEFFFE" transform="matrix(1.00, 0.00, -0.00, -1.00, 262.8, 401.0)">r</text><text xml:space="preserve" font-family="Chalkduster" font-size="29.8" fill="#FEFFFE" transform="matrix(1.00, 0.00, -0.00, -1.00, 278.5, 401.0)"> </text><image xlink:href="../../BEF5154A-7D10-4758-94F3-9B0BF504E35A/assets/8031BC132AD45F67E5F193E246E66C87.png" width="19.00" height="18.00" transform="matrix(0.92, 0.00, -0.00, -0.90, 104.0, 342.5)"></image><text xml:space="preserve" font-family="Chalkduster" font-size="29.8" fill="#FEFFFE" transform="matrix(1.00, 0.00, -0.00, -1.00, 139.0, 327.0)">A</text><text xml:space="preserve" font-family="Chalkduster" font-size="29.8" fill="#FEFFFE" transform="matrix(1.00, 0.00, -0.00, -1.00, 160.4, 327.0)">f</text><text xml:space="preserve" font-family="Chalkduster" font-size="29.8" fill="#FEFFFE" transform="matrix(1.00, 0.00, -0.00, -1.00, 175.1, 327.0)">t</text><text xml:space="preserve" font-family="Chalkduster" font-size="29.8" fill="#FEFFFE" transform="matrix(1.00, 0.00, -0.00, -1.00, 188.4, 327.0)">e</text><text xml:space="preserve" font-family="Chalkduster" font-size="29.8" fill="#FEFFFE" transform="matrix(1.00, 0.00, -0.00, -1.00, 206.6, 327.0)">r</text><text xml:space="preserve" font-family="Chalkduster" font-size="29.8" fill="#FEFFFE" transform="matrix(1.00, 0.00, -0.00, -1.00, 222.3, 327.0)"> </text><text xml:space="preserve" font-family="Chalkduster" font-size="29.8" fill="#FEFFFE" transform="matrix(1.00, 0.00, -0.00, -1.00, 237.1, 327.0)">s</text><text xml:space="preserve" font-family="Chalkduster" font-size="29.8" fill="#FEFFFE" transform="matrix(1.00, 0.00, -0.00, -1.00, 252.1, 327.0)">i</text><text xml:space="preserve" font-family="Chalkduster" font-size="29.8" fill="#FEFFFE" transform="matrix(1.00, 0.00, -0.00, -1.00, 264.2, 327.0)">t</text><text xml:space="preserve" font-family="Chalkduster" font-size="29.8" fill="#FEFFFE" transform="matrix(1.00, 0.00, -0.00, -1.00, 277.8, 327.0)">u</text><text xml:space="preserve" font-family="Chalkduster" font-size="29.8" fill="#FEFFFE" transform="matrix(1.00, 0.00, -0.00, -1.00, 298.2, 327.0)">a</text><text xml:space="preserve" font-family="Chalkduster" font-size="29.8" fill="#FEFFFE" transform="matrix(1.00, 0.00, -0.00, -1.00, 316.7, 327.0)">t</text><text xml:space="preserve" font-family="Chalkduster" font-size="29.8" fill="#FEFFFE" transform="matrix(1.00, 0.00, -0.00, -1.00, 330.0, 327.0)">e</text><text xml:space="preserve" font-family="Chalkduster" font-size="29.8" fill="#FEFFFE" transform="matrix(1.00, 0.00, -0.00, -1.00, 349.4, 327.0)">d</text><text xml:space="preserve" font-family="Chalkduster" font-size="29.8" fill="#FEFFFE" transform="matrix(1.00, 0.00, -0.00, -1.00, 372.6, 327.0)">,</text><text xml:space="preserve" font-family="Chalkduster" font-size="29.8" fill="#FEFFFE" transform="matrix(1.00, 0.00, -0.00, -1.00, 381.8, 327.0)"> </text><text xml:space="preserve" font-family="Chalkduster" font-size="29.8" fill="#FEFFFE" transform="matrix(1.00, 0.00, -0.00, -1.00, 139.0, 283.0)">l</text><text xml:space="preserve" font-family="Chalkduster" font-size="29.8" fill="#FEFFFE" transform="matrix(1.00, 0.00, -0.00, -1.00, 151.3, 283.0)">e</text><text xml:space="preserve" font-family="Chalkduster" font-size="29.8" fill="#FEFFFE" transform="matrix(1.00, 0.00, -0.00, -1.00, 169.8, 283.0)">a</text><text xml:space="preserve" font-family="Chalkduster" font-size="29.8" fill="#FEFFFE" transform="matrix(1.00, 0.00, -0.00, -1.00, 189.3, 283.0)">d</text><text xml:space="preserve" font-family="Chalkduster" font-size="29.8" fill="#FEFFFE" transform="matrix(1.00, 0.00, -0.00, -1.00, 212.6, 283.0)">e</text><text xml:space="preserve" font-family="Chalkduster" font-size="29.8" fill="#FEFFFE" transform="matrix(1.00, 0.00, -0.00, -1.00, 230.7, 283.0)">r</text><text xml:space="preserve" font-family="Chalkduster" font-size="29.8" fill="#FEFFFE" transform="matrix(1.00, 0.00, -0.00, -1.00, 246.1, 283.0)">s</text><text xml:space="preserve" font-family="Chalkduster" font-size="29.8" fill="#FEFFFE" transform="matrix(1.00, 0.00, -0.00, -1.00, 261.1, 283.0)"> </text><text xml:space="preserve" font-family="Chalkduster" font-size="29.8" fill="#FEFFFE" transform="matrix(1.00, 0.00, -0.00, -1.00, 275.9, 283.0)">w</text><text xml:space="preserve" font-family="Chalkduster" font-size="29.8" fill="#FEFFFE" transform="matrix(1.00, 0.00, -0.00, -1.00, 301.3, 283.0)">i</text><text xml:space="preserve" font-family="Chalkduster" font-size="29.8" fill="#FEFFFE" transform="matrix(1.00, 0.00, -0.00, -1.00, 313.4, 283.0)">l</text><text xml:space="preserve" font-family="Chalkduster" font-size="29.8" fill="#FEFFFE" transform="matrix(1.00, 0.00, -0.00, -1.00, 326.9, 283.0)">l</text><text xml:space="preserve" font-family="Chalkduster" font-size="29.8" fill="#FEFFFE" transform="matrix(1.00, 0.00, -0.00, -1.00, 340.9, 283.0)"> </text><text xml:space="preserve" font-family="Chalkduster" font-size="29.8" fill="#FEFFFE" transform="matrix(1.00, 0.00, -0.00, -1.00, 355.7, 283.0)">r</text><text xml:space="preserve" font-family="Chalkduster" font-size="29.8" fill="#FEFFFE" transform="matrix(1.00, 0.00, -0.00, -1.00, 370.7, 283.0)">e</text><text xml:space="preserve" font-family="Chalkduster" font-size="29.8" fill="#FEFFFE" transform="matrix(1.00, 0.00, -0.00, -1.00, 389.2, 283.0)">m</text><text xml:space="preserve" font-family="Chalkduster" font-size="29.8" fill="#FEFFFE" transform="matrix(1.00, 0.00, -0.00, -1.00, 419.3, 283.0)">o</text><text xml:space="preserve" font-family="Chalkduster" font-size="29.8" fill="#FEFFFE" transform="matrix(1.00, 0.00, -0.00, -1.00, 441.6, 283.0)">v</text><text xml:space="preserve" font-family="Chalkduster" font-size="29.8" fill="#FEFFFE" transform="matrix(1.00, 0.00, -0.00, -1.00, 459.9, 283.0)">e</text><text xml:space="preserve" font-family="Chalkduster" font-size="29.8" fill="#FEFFFE" transform="matrix(1.00, 0.00, -0.00, -1.00, 478.3, 283.0)"> </text><text xml:space="preserve" font-family="Chalkduster" font-size="29.8" fill="#FEFFFE" transform="matrix(1.00, 0.00, -0.00, -1.00, 139.0, 239.0)">a</text><text xml:space="preserve" font-family="Chalkduster" font-size="29.8" fill="#FEFFFE" transform="matrix(1.00, 0.00, -0.00, -1.00, 159.5, 239.0)">n</text><text xml:space="preserve" font-family="Chalkduster" font-size="29.8" fill="#FEFFFE" transform="matrix(1.00, 0.00, -0.00, -1.00, 181.3, 239.0)"> </text><text xml:space="preserve" font-family="Chalkduster" font-size="29.8" fill="#FEFFFE" transform="matrix(1.00, 0.00, -0.00, -1.00, 196.1, 239.0)">i</text><text xml:space="preserve" font-family="Chalkduster" font-size="29.8" fill="#FEFFFE" transform="matrix(1.00, 0.00, -0.00, -1.00, 208.2, 239.0)">t</text><text xml:space="preserve" font-family="Chalkduster" font-size="29.8" fill="#FEFFFE" transform="matrix(1.00, 0.00, -0.00, -1.00, 221.5, 239.0)">e</text><text xml:space="preserve" font-family="Chalkduster" font-size="29.8" fill="#FEFFFE" transform="matrix(1.00, 0.00, -0.00, -1.00, 240.0, 239.0)">m</text><text xml:space="preserve" font-family="Chalkduster" font-size="29.8" fill="#FEFFFE" transform="matrix(1.00, 0.00, -0.00, -1.00, 270.1, 239.0)"> </text><text xml:space="preserve" font-family="Chalkduster" font-size="29.8" fill="#FEFFFE" transform="matrix(1.00, 0.00, -0.00, -1.00, 284.9, 239.0)">u</text><text xml:space="preserve" font-family="Chalkduster" font-size="29.8" fill="#FEFFFE" transform="matrix(1.00, 0.00, -0.00, -1.00, 306.2, 239.0)">s</text><text xml:space="preserve" font-family="Chalkduster" font-size="29.8" fill="#FEFFFE" transform="matrix(1.00, 0.00, -0.00, -1.00, 321.2, 239.0)">e</text><text xml:space="preserve" font-family="Chalkduster" font-size="29.8" fill="#FEFFFE" transform="matrix(1.00, 0.00, -0.00, -1.00, 340.6, 239.0)">d</text><text xml:space="preserve" font-family="Chalkduster" font-size="29.8" fill="#FEFFFE" transform="matrix(1.00, 0.00, -0.00, -1.00, 363.9, 239.0)"> </text><text xml:space="preserve" font-family="Chalkduster" font-size="29.8" fill="#FEFFFE" transform="matrix(1.00, 0.00, -0.00, -1.00, 378.7, 239.0)">b</text><text xml:space="preserve" font-family="Chalkduster" font-size="29.8" fill="#FEFFFE" transform="matrix(1.00, 0.00, -0.00, -1.00, 395.0, 239.0)">y</text><text xml:space="preserve" font-family="Chalkduster" font-size="29.8" fill="#FEFFFE" transform="matrix(1.00, 0.00, -0.00, -1.00, 413.2, 239.0)"> </text><text xml:space="preserve" font-family="Chalkduster" font-size="29.8" fill="#FEFFFE" transform="matrix(1.00, 0.00, -0.00, -1.00, 428.0, 239.0)">e</text><text xml:space="preserve" font-family="Chalkduster" font-size="29.8" fill="#FEFFFE" transform="matrix(1.00, 0.00, -0.00, -1.00, 446.4, 239.0)">a</text><text xml:space="preserve" font-family="Chalkduster" font-size="29.8" fill="#FEFFFE" transform="matrix(1.00, 0.00, -0.00, -1.00, 466.0, 239.0)">c</text><text xml:space="preserve" font-family="Chalkduster" font-size="29.8" fill="#FEFFFE" transform="matrix(1.00, 0.00, -0.00, -1.00, 484.7, 239.0)">h</text><text xml:space="preserve" font-family="Chalkduster" font-size="29.8" fill="#FEFFFE" transform="matrix(1.00, 0.00, -0.00, -1.00, 503.1, 239.0)"> </text><text xml:space="preserve" font-family="Chalkduster" font-size="29.8" fill="#FEFFFE" transform="matrix(1.00, 0.00, -0.00, -1.00, 139.0, 195.0)">p</text><text xml:space="preserve" font-family="Chalkduster" font-size="29.8" fill="#FEFFFE" transform="matrix(1.00, 0.00, -0.00, -1.00, 157.7, 195.0)">e</text><text xml:space="preserve" font-family="Chalkduster" font-size="29.8" fill="#FEFFFE" transform="matrix(1.00, 0.00, -0.00, -1.00, 175.8, 195.0)">r</text><text xml:space="preserve" font-family="Chalkduster" font-size="29.8" fill="#FEFFFE" transform="matrix(1.00, 0.00, -0.00, -1.00, 191.2, 195.0)">s</text><text xml:space="preserve" font-family="Chalkduster" font-size="29.8" fill="#FEFFFE" transform="matrix(1.00, 0.00, -0.00, -1.00, 206.2, 195.0)">o</text><text xml:space="preserve" font-family="Chalkduster" font-size="29.8" fill="#FEFFFE" transform="matrix(1.00, 0.00, -0.00, -1.00, 228.4, 195.0)">n</text><text xml:space="preserve" font-family="Chalkduster" font-size="29.8" fill="#FEFFFE" transform="matrix(1.00, 0.00, -0.00, -1.00, 250.2, 195.0)">/</text><text xml:space="preserve" font-family="Chalkduster" font-size="29.8" fill="#FEFFFE" transform="matrix(1.00, 0.00, -0.00, -1.00, 266.3, 195.0)">g</text><text xml:space="preserve" font-family="Chalkduster" font-size="29.8" fill="#FEFFFE" transform="matrix(1.00, 0.00, -0.00, -1.00, 287.4, 195.0)">r</text><text xml:space="preserve" font-family="Chalkduster" font-size="29.8" fill="#FEFFFE" transform="matrix(1.00, 0.00, -0.00, -1.00, 302.7, 195.0)">o</text><text xml:space="preserve" font-family="Chalkduster" font-size="29.8" fill="#FEFFFE" transform="matrix(1.00, 0.00, -0.00, -1.00, 325.0, 195.0)">u</text><text xml:space="preserve" font-family="Chalkduster" font-size="29.8" fill="#FEFFFE" transform="matrix(1.00, 0.00, -0.00, -1.00, 345.9, 195.0)">p</text><text xml:space="preserve" font-family="Chalkduster" font-size="29.8" fill="#FEFFFE" transform="matrix(1.00, 0.00, -0.00, -1.00, 364.3, 195.0)"> </text><image xlink:href="../../BEF5154A-7D10-4758-94F3-9B0BF504E35A/assets/8031BC132AD45F67E5F193E246E66C87.png" width="19.00" height="18.00" transform="matrix(0.92, 0.00, -0.00, -0.90, 104.0, 136.7)"></image><text xml:space="preserve" font-family="Chalkduster" font-size="29.8" fill="#FEFFFE" transform="matrix(1.00, 0.00, -0.00, -1.00, 139.0, 121.0)">C</text><text xml:space="preserve" font-family="Chalkduster" font-size="29.8" fill="#FEFFFE" transform="matrix(1.00, 0.00, -0.00, -1.00, 163.1, 121.0)">a</text><text xml:space="preserve" font-family="Chalkduster" font-size="29.8" fill="#FEFFFE" transform="matrix(1.00, 0.00, -0.00, -1.00, 182.7, 121.0)">m</text><text xml:space="preserve" font-family="Chalkduster" font-size="29.8" fill="#FEFFFE" transform="matrix(1.00, 0.00, -0.00, -1.00, 212.8, 121.0)">p</text><text xml:space="preserve" font-family="Chalkduster" font-size="29.8" fill="#FEFFFE" transform="matrix(1.00, 0.00, -0.00, -1.00, 231.6, 121.0)">e</text><text xml:space="preserve" font-family="Chalkduster" font-size="29.8" fill="#FEFFFE" transform="matrix(1.00, 0.00, -0.00, -1.00, 249.7, 121.0)">r</text><text xml:space="preserve" font-family="Chalkduster" font-size="29.8" fill="#FEFFFE" transform="matrix(1.00, 0.00, -0.00, -1.00, 265.1, 121.0)">s</text><text xml:space="preserve" font-family="Chalkduster" font-size="29.8" fill="#FEFFFE" transform="matrix(1.00, 0.00, -0.00, -1.00, 280.1, 121.0)"> </text><text xml:space="preserve" font-family="Chalkduster" font-size="29.8" fill="#FEFFFE" transform="matrix(1.00, 0.00, -0.00, -1.00, 294.9, 121.0)">a</text><text xml:space="preserve" font-family="Chalkduster" font-size="29.8" fill="#FEFFFE" transform="matrix(1.00, 0.00, -0.00, -1.00, 315.4, 121.0)">n</text><text xml:space="preserve" font-family="Chalkduster" font-size="29.8" fill="#FEFFFE" transform="matrix(1.00, 0.00, -0.00, -1.00, 337.2, 121.0)">d</text><text xml:space="preserve" font-family="Chalkduster" font-size="29.8" fill="#FEFFFE" transform="matrix(1.00, 0.00, -0.00, -1.00, 360.5, 121.0)"> </text><text xml:space="preserve" font-family="Chalkduster" font-size="29.8" fill="#FEFFFE" transform="matrix(1.00, 0.00, -0.00, -1.00, 375.3, 121.0)">p</text><text xml:space="preserve" font-family="Chalkduster" font-size="29.8" fill="#FEFFFE" transform="matrix(1.00, 0.00, -0.00, -1.00, 393.7, 121.0)">a</text><text xml:space="preserve" font-family="Chalkduster" font-size="29.8" fill="#FEFFFE" transform="matrix(1.00, 0.00, -0.00, -1.00, 412.6, 121.0)">r</text><text xml:space="preserve" font-family="Chalkduster" font-size="29.8" fill="#FEFFFE" transform="matrix(1.00, 0.00, -0.00, -1.00, 427.7, 121.0)">e</text><text xml:space="preserve" font-family="Chalkduster" font-size="29.8" fill="#FEFFFE" transform="matrix(1.00, 0.00, -0.00, -1.00, 446.4, 121.0)">n</text><text xml:space="preserve" font-family="Chalkduster" font-size="29.8" fill="#FEFFFE" transform="matrix(1.00, 0.00, -0.00, -1.00, 467.2, 121.0)">t</text><text xml:space="preserve" font-family="Chalkduster" font-size="29.8" fill="#FEFFFE" transform="matrix(1.00, 0.00, -0.00, -1.00, 480.7, 121.0)">s</text><text xml:space="preserve" font-family="Chalkduster" font-size="29.8" fill="#FEFFFE" transform="matrix(1.00, 0.00, -0.00, -1.00, 495.8, 121.0)"> </text><text xml:space="preserve" font-family="Chalkduster" font-size="29.8" fill="#FEFFFE" transform="matrix(1.00, 0.00, -0.00, -1.00, 139.0, 77.0)">w</text><text xml:space="preserve" font-family="Chalkduster" font-size="29.8" fill="#FEFFFE" transform="matrix(1.00, 0.00, -0.00, -1.00, 164.4, 77.0)">i</text><text xml:space="preserve" font-family="Chalkduster" font-size="29.8" fill="#FEFFFE" transform="matrix(1.00, 0.00, -0.00, -1.00, 176.5, 77.0)">l</text><text xml:space="preserve" font-family="Chalkduster" font-size="29.8" fill="#FEFFFE" transform="matrix(1.00, 0.00, -0.00, -1.00, 190.0, 77.0)">l</text><text xml:space="preserve" font-family="Chalkduster" font-size="29.8" fill="#FEFFFE" transform="matrix(1.00, 0.00, -0.00, -1.00, 203.9, 77.0)"> </text><text xml:space="preserve" font-family="Chalkduster" font-size="29.8" fill="#FEFFFE" transform="matrix(1.00, 0.00, -0.00, -1.00, 218.7, 77.0)">h</text><text xml:space="preserve" font-family="Chalkduster" font-size="29.8" fill="#FEFFFE" transform="matrix(1.00, 0.00, -0.00, -1.00, 237.1, 77.0)">a</text><text xml:space="preserve" font-family="Chalkduster" font-size="29.8" fill="#FEFFFE" transform="matrix(1.00, 0.00, -0.00, -1.00, 255.4, 77.0)">v</text><text xml:space="preserve" font-family="Chalkduster" font-size="29.8" fill="#FEFFFE" transform="matrix(1.00, 0.00, -0.00, -1.00, 273.7, 77.0)">e</text><text xml:space="preserve" font-family="Chalkduster" font-size="29.8" fill="#FEFFFE" transform="matrix(1.00, 0.00, -0.00, -1.00, 292.2, 77.0)"> </text><text xml:space="preserve" font-family="Chalkduster" font-size="29.8" fill="#FEFFFE" transform="matrix(1.00, 0.00, -0.00, -1.00, 307.0, 77.0)">t</text><text xml:space="preserve" font-family="Chalkduster" font-size="29.8" fill="#FEFFFE" transform="matrix(1.00, 0.00, -0.00, -1.00, 319.2, 77.0)">o</text><text xml:space="preserve" font-family="Chalkduster" font-size="29.8" fill="#FEFFFE" transform="matrix(1.00, 0.00, -0.00, -1.00, 340.6, 77.0)"> </text><text xml:space="preserve" font-family="Chalkduster" font-size="29.8" fill="#FEFFFE" transform="matrix(1.00, 0.00, -0.00, -1.00, 355.4, 77.0)">a</text><text xml:space="preserve" font-family="Chalkduster" font-size="29.8" fill="#FEFFFE" transform="matrix(1.00, 0.00, -0.00, -1.00, 375.0, 77.0)">d</text><text xml:space="preserve" font-family="Chalkduster" font-size="29.8" fill="#FEFFFE" transform="matrix(1.00, 0.00, -0.00, -1.00, 398.2, 77.0)">a</text><text xml:space="preserve" font-family="Chalkduster" font-size="29.8" fill="#FEFFFE" transform="matrix(1.00, 0.00, -0.00, -1.00, 418.7, 77.0)">p</text><text xml:space="preserve" font-family="Chalkduster" font-size="29.8" fill="#FEFFFE" transform="matrix(1.00, 0.00, -0.00, -1.00, 437.4, 77.0)">t</text><g><clipPath id="clip-99"><path d="M 524.0 484.0 L 948.0 484.0 L 948.0 197.0 L 524.0 197.0 Z M 523.5 484.2 "></path></clipPath><g clip-path="url(#clip-99)"><g><clipPath id="clip-100"><path d="M 714.2 484.2 C 713.7 484.2 713.2 483.9 712.7 483.2 C 712.1 482.7 710.7 482.1 709.4 481.9 C 706.1 481.3 701.2 479.3 699.9 477.9 C 699.3 477.3 697.7 476.4 696.3 476.1 C 694.9 475.7 693.3 474.8 692.7 474.1 C 692.1 473.3 690.5 471.9 689.1 470.9 C 687.7 469.9 684.1 466.5 681.1 463.3 C 674.0 455.8 673.5 455.5 670.1 455.8 C 668.0 456.1 667.6 456.0 668.3 455.6 C 669.6 454.8 669.5 454.0 668.0 453.4 C 667.3 453.1 665.2 451.8 663.2 450.4 C 661.2 449.0 658.7 447.2 657.6 446.5 C 656.5 445.8 654.8 444.2 654.0 443.1 L 652.0 441.1 L 652.0 426.0 C 652.0 417.3 652.1 410.7 651.8 410.4 C 651.6 410.1 649.5 409.4 647.2 408.8 C 644.9 408.2 639.1 406.6 634.4 405.2 C 629.6 403.8 620.3 401.4 613.7 399.9 C 580.1 392.0 564.9 387.0 552.6 379.7 C 537.9 370.9 528.8 363.5 526.4 358.5 C 522.6 350.4 522.6 338.4 526.4 328.9 C 528.1 324.6 531.0 320.4 535.7 315.1 C 538.2 312.3 539.5 310.4 539.5 309.5 C 539.5 307.1 541.2 301.6 542.7 299.3 C 543.5 298.1 544.6 295.9 545.3 294.5 C 546.5 291.8 551.0 285.7 551.7 285.7 C 551.9 285.7 552.7 284.8 553.3 283.7 C 554.0 282.6 555.4 281.4 556.5 281.0 C 557.5 280.5 558.3 280.0 558.1 279.7 C 558.0 279.5 559.0 278.6 560.4 277.7 C 561.8 276.8 566.1 273.1 569.9 269.4 C 577.6 262.0 583.9 256.3 587.3 253.9 C 590.6 251.6 593.1 249.1 592.7 248.6 C 592.6 248.4 593.4 246.7 594.6 245.0 C 595.8 243.2 598.6 238.5 600.8 234.4 C 603.0 230.3 606.2 224.7 608.0 222.1 C 611.0 217.6 611.1 217.1 610.9 214.7 C 610.6 211.7 609.5 201.4 609.0 198.6 L 608.0 197.0 L 666.4 197.0 L 741.6 197.0 L 841.0 197.0 L 841.0 200.7 C 840.8 202.1 840.4 202.8 840.7 203.3 C 840.7 206.0 840.9 207.0 841.4 206.9 C 842.5 206.7 842.1 208.3 841.0 208.6 C 840.4 208.7 839.9 209.5 839.6 210.6 C 839.3 212.5 839.6 213.6 840.4 213.1 C 840.7 212.9 840.9 213.3 840.9 213.9 C 840.9 214.5 841.2 215.1 841.4 215.3 C 841.7 215.4 841.9 216.2 841.9 216.9 C 841.9 218.1 847.8 225.0 848.9 225.0 C 850.0 225.0 857.4 229.1 858.9 230.5 C 859.8 231.4 860.8 232.2 861.1 232.2 C 861.4 232.2 862.6 232.4 863.7 232.7 C 865.3 233.2 865.8 233.6 865.5 234.2 C 864.8 236.0 866.1 237.0 869.5 237.0 C 871.6 237.0 874.1 237.6 876.4 238.4 C 877.7 239.1 879.2 239.8 880.7 240.7 C 880.7 240.7 880.7 240.7 880.8 240.7 C 883.2 242.5 887.2 244.6 890.7 246.0 C 894.5 247.5 895.2 248.0 894.4 249.0 L 893.9 249.0 C 892.5 249.9 892.3 250.5 892.8 251.4 C 893.6 252.9 895.6 254.2 897.0 254.2 C 898.4 254.2 899.2 255.1 899.8 257.2 C 899.8 257.5 900.0 257.9 900.3 258.2 C 900.0 259.0 901.7 259.8 903.7 259.8 C 904.9 259.8 906.6 260.2 907.6 260.7 C 909.1 261.4 909.3 261.7 908.8 262.3 C 908.2 262.9 908.4 263.4 909.5 264.6 C 912.0 267.3 914.3 275.8 914.3 282.1 C 914.4 284.2 914.5 285.2 915.0 285.9 L 915.0 286.0 L 915.2 286.0 C 915.2 286.1 915.3 286.4 915.4 286.5 C 915.8 286.8 916.1 287.0 916.5 287.1 L 920.0 289.6 C 926.4 294.1 934.7 301.6 938.6 306.3 C 945.2 314.3 948.9 323.6 948.5 331.2 C 948.3 334.9 947.9 336.4 946.2 339.9 C 945.1 342.2 943.0 345.4 941.6 347.0 C 938.8 349.9 921.0 363.5 913.8 368.1 C 904.5 374.1 888.3 380.8 866.6 387.7 C 852.7 392.1 848.3 393.6 838.2 397.5 C 833.5 399.3 829.2 401.0 828.7 401.2 C 828.1 401.3 827.7 402.0 827.7 402.5 C 827.7 403.1 827.2 405.0 826.5 406.8 C 825.5 409.8 825.4 410.9 825.7 417.8 C 826.3 431.2 824.6 437.9 820.0 440.7 C 818.7 441.5 815.9 443.4 813.6 445.0 C 809.5 448.0 805.5 450.0 803.9 450.1 C 803.4 450.1 801.7 450.5 800.1 450.9 C 797.5 451.7 797.1 452.0 796.0 454.4 C 795.4 455.8 794.1 458.1 793.2 459.4 C 791.1 462.5 785.1 468.6 782.4 470.5 C 781.2 471.3 779.0 472.9 777.5 474.2 C 775.9 475.5 774.1 476.6 773.5 476.6 C 772.9 476.6 771.5 477.1 770.3 477.7 C 769.1 478.3 767.8 478.8 767.3 478.8 C 766.9 478.8 765.8 479.4 764.9 480.1 C 762.9 481.8 760.2 482.6 756.5 482.6 C 753.3 482.7 749.6 482.3 748.9 481.9 C 748.4 481.6 742.8 482.3 736.1 483.4 C 733.5 483.8 731.0 484.0 730.5 483.7 C 730.1 483.5 726.7 483.1 723.1 482.9 C 717.3 482.6 716.3 482.6 715.7 483.4 C 715.2 484.0 714.7 484.3 714.2 484.2 Z M 666.4 381.0 C 667.5 380.8 668.6 376.8 669.3 369.8 C 669.8 364.8 669.7 364.2 668.7 362.2 C 667.3 359.5 667.3 358.0 668.8 354.5 C 669.8 352.1 670.4 351.6 673.1 350.3 L 676.0 348.8 L 677.0 344.1 C 677.3 341.6 677.7 338.5 678.0 337.3 C 679.0 333.8 677.9 333.8 675.4 337.3 C 674.2 339.1 672.6 340.9 672.0 341.3 C 670.7 342.1 670.6 343.2 671.7 344.1 C 673.0 345.2 672.7 345.8 670.2 346.9 C 668.3 347.8 666.0 348.0 658.2 348.3 C 649.2 348.6 648.4 348.7 646.2 350.0 C 644.9 350.8 642.5 351.6 640.9 351.8 C 638.0 352.3 635.9 351.8 629.1 348.8 C 628.1 348.4 627.0 348.2 626.7 348.3 C 626.3 348.5 624.2 348.9 622.0 349.0 C 619.7 349.2 617.8 349.6 617.8 349.9 C 617.6 350.9 626.9 357.9 634.2 362.2 C 638.2 364.5 646.8 369.7 653.4 373.8 C 660.1 377.9 665.9 381.1 666.4 381.0 Z M 805.0 378.4 C 806.3 378.3 809.7 376.3 820.9 369.5 C 831.2 363.2 860.3 342.0 860.3 340.8 C 860.3 340.0 858.7 339.2 855.9 338.6 C 854.4 338.3 851.4 337.4 849.4 336.6 C 846.4 335.3 845.6 334.8 845.3 333.5 C 844.6 330.9 843.1 329.7 841.3 330.0 C 840.0 330.3 839.6 330.1 838.8 328.6 C 838.3 327.7 837.5 326.4 837.0 325.8 C 836.2 324.8 836.1 324.8 834.6 325.5 C 833.0 326.4 832.9 326.3 830.9 324.5 C 829.7 323.5 828.6 322.6 828.4 322.6 C 827.4 322.6 824.7 325.4 824.7 326.4 C 824.7 327.0 823.7 328.9 822.5 330.6 C 820.2 333.7 819.1 334.3 815.0 334.4 C 813.0 334.4 805.3 331.5 802.8 329.7 C 800.8 328.4 791.4 328.2 790.9 329.5 C 790.7 330.0 791.2 333.2 791.9 336.8 C 793.0 342.6 793.3 343.3 794.7 344.1 C 795.5 344.6 796.8 345.9 797.6 347.2 C 798.9 349.2 799.0 349.7 798.7 352.7 C 798.2 358.0 798.4 365.4 799.3 368.5 C 799.7 370.1 800.8 372.4 801.7 373.7 C 802.6 375.0 803.4 376.3 803.4 376.5 C 803.4 376.8 803.7 377.5 804.1 378.0 C 804.3 378.3 804.5 378.5 805.0 378.4 Z M 904.4 257.0 C 904.2 257.2 904.1 257.0 904.0 256.7 C 903.6 255.9 903.3 255.2 903.3 255.0 C 903.3 254.9 903.8 255.0 904.4 255.3 C 905.0 255.6 905.5 256.0 905.5 256.1 C 905.5 256.2 905.7 256.7 905.9 257.2 C 905.9 257.3 905.9 257.0 905.9 257.0 L 904.4 257.0 Z M 904.4 257.4 "></path></clipPath><g clip-path="url(#clip-100)"><image xlink:href="1FFDBE806BE9AD879ABE6851CBB47383.png" width="500.00" height="333.00" transform="matrix(1.00, 0.00, -0.00, -1.00, 492.0, 530.0)"></image></g></g></g></g><text xml:space="preserve" font-family="Chalkduster" font-size="72.0" fill="#FEFFFE" transform="matrix(1.00, 0.00, -0.00, -1.00, 119.0, 627.0)">A</text><text xml:space="preserve" font-family="Chalkduster" font-size="72.0" fill="#FEFFFE" transform="matrix(1.00, 0.00, -0.00, -1.00, 172.2, 627.0)">d</text><text xml:space="preserve" font-family="Chalkduster" font-size="72.0" fill="#FEFFFE" transform="matrix(1.00, 0.00, -0.00, -1.00, 230.2, 627.0)">d</text><text xml:space="preserve" font-family="Chalkduster" font-size="72.0" fill="#FEFFFE" transform="matrix(1.00, 0.00, -0.00, -1.00, 289.4, 627.0)">i</text><text xml:space="preserve" font-family="Chalkduster" font-size="72.0" fill="#FEFFFE" transform="matrix(1.00, 0.00, -0.00, -1.00, 318.6, 627.0)">t</text><text xml:space="preserve" font-family="Chalkduster" font-size="72.0" fill="#FEFFFE" transform="matrix(1.00, 0.00, -0.00, -1.00, 351.9, 627.0)">i</text><text xml:space="preserve" font-family="Chalkduster" font-size="72.0" fill="#FEFFFE" transform="matrix(1.00, 0.00, -0.00, -1.00, 380.3, 627.0)">o</text><text xml:space="preserve" font-family="Chalkduster" font-size="72.0" fill="#FEFFFE" transform="matrix(1.00, 0.00, -0.00, -1.00, 433.8, 627.0)">n</text><text xml:space="preserve" font-family="Chalkduster" font-size="72.0" fill="#FEFFFE" transform="matrix(1.00, 0.00, -0.00, -1.00, 486.6, 627.0)">a</text><text xml:space="preserve" font-family="Chalkduster" font-size="72.0" fill="#FEFFFE" transform="matrix(1.00, 0.00, -0.00, -1.00, 533.2, 627.0)">l</text><text xml:space="preserve" font-family="Chalkduster" font-size="72.0" fill="#FEFFFE" transform="matrix(1.00, 0.00, -0.00, -1.00, 567.0, 627.0)"> </text><text xml:space="preserve" font-family="Chalkduster" font-size="72.0" fill="#FEFFFE" transform="matrix(1.00, 0.00, -0.00, -1.00, 597.8, 627.0)">A</text><text xml:space="preserve" font-family="Chalkduster" font-size="72.0" fill="#FEFFFE" transform="matrix(1.00, 0.00, -0.00, -1.00, 650.0, 627.0)">c</text><text xml:space="preserve" font-family="Chalkduster" font-size="72.0" fill="#FEFFFE" transform="matrix(1.00, 0.00, -0.00, -1.00, 692.7, 627.0)">t</text><text xml:space="preserve" font-family="Chalkduster" font-size="72.0" fill="#FEFFFE" transform="matrix(1.00, 0.00, -0.00, -1.00, 726.0, 627.0)">i</text><text xml:space="preserve" font-family="Chalkduster" font-size="72.0" fill="#FEFFFE" transform="matrix(1.00, 0.00, -0.00, -1.00, 754.5, 627.0)">v</text><text xml:space="preserve" font-family="Chalkduster" font-size="72.0" fill="#FEFFFE" transform="matrix(1.00, 0.00, -0.00, -1.00, 799.3, 627.0)">i</text><text xml:space="preserve" font-family="Chalkduster" font-size="72.0" fill="#FEFFFE" transform="matrix(1.00, 0.00, -0.00, -1.00, 828.5, 627.0)">t</text><text xml:space="preserve" font-family="Chalkduster" font-size="72.0" fill="#FEFFFE" transform="matrix(1.00, 0.00, -0.00, -1.00, 861.4, 627.0)">y</text></g></svg>