<?xml version="1.0" encoding="UTF-8"?><svg xmlns="http://www.w3.org/2000/svg" xmlns:xlink="http://www.w3.org/1999/xlink" clip-rule="evenodd" stroke-miterlimit="4.00" viewBox="0 0 1024 768"><desc>SVG generated by Keynote</desc><defs></defs><g transform="matrix(1.00, 0.00, -0.00, -1.00, 0.0, 768.0)"><g><clipPath id="clip-127"><path d="M 0.0 0.0 L 1024.0 0.0 L 1024.0 768.0 L 0.0 768.0 Z M 0.0 0.0 "></path></clipPath><g clip-path="url(#clip-127)"><image xlink:href="../../064B7F0C-2929-4FA2-8273-93E588CA9C8B/assets/DE78B55DDE70D88C6FF874E8D33A46A3.jpeg" width="1024.00" height="768.00" transform="matrix(1.00, 0.00, -0.00, -1.00, 0.0, 768.0)"></image></g></g><text xml:space="preserve" font-family="Chalkduster" font-size="72.0" fill="#FEFFFE" transform="matrix(1.00, 0.00, -0.00, -1.00, 352.0, 627.0)">P</text><text xml:space="preserve" font-family="Chalkduster" font-size="72.0" fill="#FEFFFE" transform="matrix(1.00, 0.00, -0.00, -1.00, 403.2, 627.0)">u</text><text xml:space="preserve" font-family="Chalkduster" font-size="72.0" fill="#FEFFFE" transform="matrix(1.00, 0.00, -0.00, -1.00, 453.8, 627.0)">r</text><text xml:space="preserve" font-family="Chalkduster" font-size="72.0" fill="#FEFFFE" transform="matrix(1.00, 0.00, -0.00, -1.00, 493.8, 627.0)">p</text><text xml:space="preserve" font-family="Chalkduster" font-size="72.0" fill="#FEFFFE" transform="matrix(1.00, 0.00, -0.00, -1.00, 539.1, 627.0)">o</text><text xml:space="preserve" font-family="Chalkduster" font-size="72.0" fill="#FEFFFE" transform="matrix(1.00, 0.00, -0.00, -1.00, 591.5, 627.0)">s</text><text xml:space="preserve" font-family="Chalkduster" font-size="72.0" fill="#FEFFFE" transform="matrix(1.00, 0.00, -0.00, -1.00, 627.9, 627.0)">e</text><image xlink:href="../../064B7F0C-2929-4FA2-8273-93E588CA9C8B/assets/B4FDAEC1A55F266916EBBA7B40FD9B86.png" width="17.00" height="16.00" transform="matrix(0.83, 0.00, -0.00, -0.81, 104.0, 510.0)"></image><text xml:space="preserve" font-family="Chalkduster" font-size="24.0" fill="#FEFFFE" transform="matrix(1.00, 0.00, -0.00, -1.00, 132.0, 498.0)">U</text><text xml:space="preserve" font-family="Chalkduster" font-size="24.0" fill="#FEFFFE" transform="matrix(1.00, 0.00, -0.00, -1.00, 149.1, 498.0)">r</text><text xml:space="preserve" font-family="Chalkduster" font-size="24.0" fill="#FEFFFE" transform="matrix(1.00, 0.00, -0.00, -1.00, 161.7, 498.0)">b</text><text xml:space="preserve" font-family="Chalkduster" font-size="24.0" fill="#FEFFFE" transform="matrix(1.00, 0.00, -0.00, -1.00, 175.1, 498.0)">a</text><text xml:space="preserve" font-family="Chalkduster" font-size="24.0" fill="#FEFFFE" transform="matrix(1.00, 0.00, -0.00, -1.00, 191.7, 498.0)">n</text><text xml:space="preserve" font-family="Chalkduster" font-size="24.0" fill="#FEFFFE" transform="matrix(1.00, 0.00, -0.00, -1.00, 209.3, 498.0)"> </text><text xml:space="preserve" font-family="Chalkduster" font-size="24.0" fill="#FEFFFE" transform="matrix(1.00, 0.00, -0.00, -1.00, 221.2, 498.0)">e</text><text xml:space="preserve" font-family="Chalkduster" font-size="24.0" fill="#FEFFFE" transform="matrix(1.00, 0.00, -0.00, -1.00, 236.4, 498.0)">n</text><text xml:space="preserve" font-family="Chalkduster" font-size="24.0" fill="#FEFFFE" transform="matrix(1.00, 0.00, -0.00, -1.00, 254.0, 498.0)">v</text><text xml:space="preserve" font-family="Chalkduster" font-size="24.0" fill="#FEFFFE" transform="matrix(1.00, 0.00, -0.00, -1.00, 268.9, 498.0)">i</text><text xml:space="preserve" font-family="Chalkduster" font-size="24.0" fill="#FEFFFE" transform="matrix(1.00, 0.00, -0.00, -1.00, 278.4, 498.0)">r</text><text xml:space="preserve" font-family="Chalkduster" font-size="24.0" fill="#FEFFFE" transform="matrix(1.00, 0.00, -0.00, -1.00, 290.7, 498.0)">o</text><text xml:space="preserve" font-family="Chalkduster" font-size="24.0" fill="#FEFFFE" transform="matrix(1.00, 0.00, -0.00, -1.00, 308.6, 498.0)">n</text><text xml:space="preserve" font-family="Chalkduster" font-size="24.0" fill="#FEFFFE" transform="matrix(1.00, 0.00, -0.00, -1.00, 326.2, 498.0)">m</text><text xml:space="preserve" font-family="Chalkduster" font-size="24.0" fill="#FEFFFE" transform="matrix(1.00, 0.00, -0.00, -1.00, 351.0, 498.0)">e</text><text xml:space="preserve" font-family="Chalkduster" font-size="24.0" fill="#FEFFFE" transform="matrix(1.00, 0.00, -0.00, -1.00, 366.2, 498.0)">n</text><text xml:space="preserve" font-family="Chalkduster" font-size="24.0" fill="#FEFFFE" transform="matrix(1.00, 0.00, -0.00, -1.00, 382.9, 498.0)">t</text><text xml:space="preserve" font-family="Chalkduster" font-size="24.0" fill="#FEFFFE" transform="matrix(1.00, 0.00, -0.00, -1.00, 393.8, 498.0)"> </text><text xml:space="preserve" font-family="Chalkduster" font-size="24.0" fill="#FEFFFE" transform="matrix(1.00, 0.00, -0.00, -1.00, 405.8, 498.0)">=</text><text xml:space="preserve" font-family="Chalkduster" font-size="24.0" fill="#FEFFFE" transform="matrix(1.00, 0.00, -0.00, -1.00, 422.0, 498.0)"> </text><text xml:space="preserve" font-family="Chalkduster" font-size="24.0" fill="#FEFFFE" transform="matrix(1.00, 0.00, -0.00, -1.00, 434.0, 498.0)">l</text><text xml:space="preserve" font-family="Chalkduster" font-size="24.0" fill="#FEFFFE" transform="matrix(1.00, 0.00, -0.00, -1.00, 443.9, 498.0)">e</text><text xml:space="preserve" font-family="Chalkduster" font-size="24.0" fill="#FEFFFE" transform="matrix(1.00, 0.00, -0.00, -1.00, 459.3, 498.0)">s</text><text xml:space="preserve" font-family="Chalkduster" font-size="24.0" fill="#FEFFFE" transform="matrix(1.00, 0.00, -0.00, -1.00, 471.4, 498.0)">s</text><text xml:space="preserve" font-family="Chalkduster" font-size="24.0" fill="#FEFFFE" transform="matrix(1.00, 0.00, -0.00, -1.00, 483.6, 498.0)"> </text><text xml:space="preserve" font-family="Chalkduster" font-size="24.0" fill="#FEFFFE" transform="matrix(1.00, 0.00, -0.00, -1.00, 495.5, 498.0)">p</text><text xml:space="preserve" font-family="Chalkduster" font-size="24.0" fill="#FEFFFE" transform="matrix(1.00, 0.00, -0.00, -1.00, 510.3, 498.0)">l</text><text xml:space="preserve" font-family="Chalkduster" font-size="24.0" fill="#FEFFFE" transform="matrix(1.00, 0.00, -0.00, -1.00, 521.1, 498.0)">a</text><text xml:space="preserve" font-family="Chalkduster" font-size="24.0" fill="#FEFFFE" transform="matrix(1.00, 0.00, -0.00, -1.00, 537.6, 498.0)">y</text><text xml:space="preserve" font-family="Chalkduster" font-size="24.0" fill="#FEFFFE" transform="matrix(1.00, 0.00, -0.00, -1.00, 552.2, 498.0)"> </text><image xlink:href="../../064B7F0C-2929-4FA2-8273-93E588CA9C8B/assets/B4FDAEC1A55F266916EBBA7B40FD9B86.png" width="17.00" height="16.00" transform="matrix(0.83, 0.00, -0.00, -0.81, 142.0, 449.0)"></image><text xml:space="preserve" font-family="Chalkduster" font-size="24.0" fill="#FEFFFE" transform="matrix(1.00, 0.00, -0.00, -1.00, 170.0, 437.0)">M</text><text xml:space="preserve" font-family="Chalkduster" font-size="24.0" fill="#FEFFFE" transform="matrix(1.00, 0.00, -0.00, -1.00, 190.2, 437.0)">a</text><text xml:space="preserve" font-family="Chalkduster" font-size="24.0" fill="#FEFFFE" transform="matrix(1.00, 0.00, -0.00, -1.00, 205.1, 437.0)">t</text><text xml:space="preserve" font-family="Chalkduster" font-size="24.0" fill="#FEFFFE" transform="matrix(1.00, 0.00, -0.00, -1.00, 215.8, 437.0)">e</text><text xml:space="preserve" font-family="Chalkduster" font-size="24.0" fill="#FEFFFE" transform="matrix(1.00, 0.00, -0.00, -1.00, 230.4, 437.0)">r</text><text xml:space="preserve" font-family="Chalkduster" font-size="24.0" fill="#FEFFFE" transform="matrix(1.00, 0.00, -0.00, -1.00, 243.6, 437.0)">n</text><text xml:space="preserve" font-family="Chalkduster" font-size="24.0" fill="#FEFFFE" transform="matrix(1.00, 0.00, -0.00, -1.00, 261.2, 437.0)">a</text><text xml:space="preserve" font-family="Chalkduster" font-size="24.0" fill="#FEFFFE" transform="matrix(1.00, 0.00, -0.00, -1.00, 276.8, 437.0)">l</text><text xml:space="preserve" font-family="Chalkduster" font-size="24.0" fill="#FEFFFE" transform="matrix(1.00, 0.00, -0.00, -1.00, 288.0, 437.0)"> </text><text xml:space="preserve" font-family="Chalkduster" font-size="24.0" fill="#FEFFFE" transform="matrix(1.00, 0.00, -0.00, -1.00, 300.0, 437.0)">d</text><text xml:space="preserve" font-family="Chalkduster" font-size="24.0" fill="#FEFFFE" transform="matrix(1.00, 0.00, -0.00, -1.00, 318.8, 437.0)">e</text><text xml:space="preserve" font-family="Chalkduster" font-size="24.0" fill="#FEFFFE" transform="matrix(1.00, 0.00, -0.00, -1.00, 334.0, 437.0)">p</text><text xml:space="preserve" font-family="Chalkduster" font-size="24.0" fill="#FEFFFE" transform="matrix(1.00, 0.00, -0.00, -1.00, 348.8, 437.0)">r</text><text xml:space="preserve" font-family="Chalkduster" font-size="24.0" fill="#FEFFFE" transform="matrix(1.00, 0.00, -0.00, -1.00, 361.0, 437.0)">e</text><text xml:space="preserve" font-family="Chalkduster" font-size="24.0" fill="#FEFFFE" transform="matrix(1.00, 0.00, -0.00, -1.00, 376.4, 437.0)">s</text><text xml:space="preserve" font-family="Chalkduster" font-size="24.0" fill="#FEFFFE" transform="matrix(1.00, 0.00, -0.00, -1.00, 388.5, 437.0)">s</text><text xml:space="preserve" font-family="Chalkduster" font-size="24.0" fill="#FEFFFE" transform="matrix(1.00, 0.00, -0.00, -1.00, 400.7, 437.0)">i</text><text xml:space="preserve" font-family="Chalkduster" font-size="24.0" fill="#FEFFFE" transform="matrix(1.00, 0.00, -0.00, -1.00, 410.1, 437.0)">o</text><text xml:space="preserve" font-family="Chalkduster" font-size="24.0" fill="#FEFFFE" transform="matrix(1.00, 0.00, -0.00, -1.00, 428.0, 437.0)">n</text><text xml:space="preserve" font-family="Chalkduster" font-size="24.0" fill="#FEFFFE" transform="matrix(1.00, 0.00, -0.00, -1.00, 445.6, 437.0)"> </text><image xlink:href="../../064B7F0C-2929-4FA2-8273-93E588CA9C8B/assets/B4FDAEC1A55F266916EBBA7B40FD9B86.png" width="17.00" height="16.00" transform="matrix(0.83, 0.00, -0.00, -0.81, 104.0, 388.0)"></image><text xml:space="preserve" font-family="Chalkduster" font-size="24.0" fill="#FEFFFE" transform="matrix(1.00, 0.00, -0.00, -1.00, 132.0, 376.0)">A</text><text xml:space="preserve" font-family="Chalkduster" font-size="24.0" fill="#FEFFFE" transform="matrix(1.00, 0.00, -0.00, -1.00, 149.7, 376.0)">d</text><text xml:space="preserve" font-family="Chalkduster" font-size="24.0" fill="#FEFFFE" transform="matrix(1.00, 0.00, -0.00, -1.00, 169.0, 376.0)">u</text><text xml:space="preserve" font-family="Chalkduster" font-size="24.0" fill="#FEFFFE" transform="matrix(1.00, 0.00, -0.00, -1.00, 186.1, 376.0)">l</text><text xml:space="preserve" font-family="Chalkduster" font-size="24.0" fill="#FEFFFE" transform="matrix(1.00, 0.00, -0.00, -1.00, 194.9, 376.0)">t</text><text xml:space="preserve" font-family="Chalkduster" font-size="24.0" fill="#FEFFFE" transform="matrix(1.00, 0.00, -0.00, -1.00, 205.8, 376.0)"> </text><text xml:space="preserve" font-family="Chalkduster" font-size="24.0" fill="#FEFFFE" transform="matrix(1.00, 0.00, -0.00, -1.00, 217.8, 376.0)">e</text><text xml:space="preserve" font-family="Chalkduster" font-size="24.0" fill="#FEFFFE" transform="matrix(1.00, 0.00, -0.00, -1.00, 233.4, 376.0)">d</text><text xml:space="preserve" font-family="Chalkduster" font-size="24.0" fill="#FEFFFE" transform="matrix(1.00, 0.00, -0.00, -1.00, 252.6, 376.0)">u</text><text xml:space="preserve" font-family="Chalkduster" font-size="24.0" fill="#FEFFFE" transform="matrix(1.00, 0.00, -0.00, -1.00, 269.1, 376.0)">c</text><text xml:space="preserve" font-family="Chalkduster" font-size="24.0" fill="#FEFFFE" transform="matrix(1.00, 0.00, -0.00, -1.00, 283.3, 376.0)">a</text><text xml:space="preserve" font-family="Chalkduster" font-size="24.0" fill="#FEFFFE" transform="matrix(1.00, 0.00, -0.00, -1.00, 298.2, 376.0)">t</text><text xml:space="preserve" font-family="Chalkduster" font-size="24.0" fill="#FEFFFE" transform="matrix(1.00, 0.00, -0.00, -1.00, 309.3, 376.0)">i</text><text xml:space="preserve" font-family="Chalkduster" font-size="24.0" fill="#FEFFFE" transform="matrix(1.00, 0.00, -0.00, -1.00, 318.8, 376.0)">o</text><text xml:space="preserve" font-family="Chalkduster" font-size="24.0" fill="#FEFFFE" transform="matrix(1.00, 0.00, -0.00, -1.00, 336.6, 376.0)">n</text><text xml:space="preserve" font-family="Chalkduster" font-size="24.0" fill="#FEFFFE" transform="matrix(1.00, 0.00, -0.00, -1.00, 354.2, 376.0)"> </text><image xlink:href="../../064B7F0C-2929-4FA2-8273-93E588CA9C8B/assets/B4FDAEC1A55F266916EBBA7B40FD9B86.png" width="17.00" height="16.00" transform="matrix(0.83, 0.00, -0.00, -0.81, 104.0, 327.0)"></image><text xml:space="preserve" font-family="Chalkduster" font-size="24.0" fill="#FEFFFE" transform="matrix(1.00, 0.00, -0.00, -1.00, 132.0, 315.0)">L</text><text xml:space="preserve" font-family="Chalkduster" font-size="24.0" fill="#FEFFFE" transform="matrix(1.00, 0.00, -0.00, -1.00, 147.2, 315.0)">e</text><text xml:space="preserve" font-family="Chalkduster" font-size="24.0" fill="#FEFFFE" transform="matrix(1.00, 0.00, -0.00, -1.00, 162.1, 315.0)">a</text><text xml:space="preserve" font-family="Chalkduster" font-size="24.0" fill="#FEFFFE" transform="matrix(1.00, 0.00, -0.00, -1.00, 177.4, 315.0)">r</text><text xml:space="preserve" font-family="Chalkduster" font-size="24.0" fill="#FEFFFE" transform="matrix(1.00, 0.00, -0.00, -1.00, 190.5, 315.0)">n</text><text xml:space="preserve" font-family="Chalkduster" font-size="24.0" fill="#FEFFFE" transform="matrix(1.00, 0.00, -0.00, -1.00, 208.1, 315.0)"> </text><text xml:space="preserve" font-family="Chalkduster" font-size="24.0" fill="#FEFFFE" transform="matrix(1.00, 0.00, -0.00, -1.00, 220.1, 315.0)">t</text><text xml:space="preserve" font-family="Chalkduster" font-size="24.0" fill="#FEFFFE" transform="matrix(1.00, 0.00, -0.00, -1.00, 231.5, 315.0)">h</text><text xml:space="preserve" font-family="Chalkduster" font-size="24.0" fill="#FEFFFE" transform="matrix(1.00, 0.00, -0.00, -1.00, 246.4, 315.0)">r</text><text xml:space="preserve" font-family="Chalkduster" font-size="24.0" fill="#FEFFFE" transform="matrix(1.00, 0.00, -0.00, -1.00, 258.7, 315.0)">o</text><text xml:space="preserve" font-family="Chalkduster" font-size="24.0" fill="#FEFFFE" transform="matrix(1.00, 0.00, -0.00, -1.00, 276.7, 315.0)">u</text><text xml:space="preserve" font-family="Chalkduster" font-size="24.0" fill="#FEFFFE" transform="matrix(1.00, 0.00, -0.00, -1.00, 293.2, 315.0)">g</text><text xml:space="preserve" font-family="Chalkduster" font-size="24.0" fill="#FEFFFE" transform="matrix(1.00, 0.00, -0.00, -1.00, 310.5, 315.0)">h</text><text xml:space="preserve" font-family="Chalkduster" font-size="24.0" fill="#FEFFFE" transform="matrix(1.00, 0.00, -0.00, -1.00, 325.4, 315.0)"> </text><text xml:space="preserve" font-family="Chalkduster" font-size="24.0" fill="#FEFFFE" transform="matrix(1.00, 0.00, -0.00, -1.00, 337.3, 315.0)">P</text><text xml:space="preserve" font-family="Chalkduster" font-size="24.0" fill="#FEFFFE" transform="matrix(1.00, 0.00, -0.00, -1.00, 354.4, 315.0)">l</text><text xml:space="preserve" font-family="Chalkduster" font-size="24.0" fill="#FEFFFE" transform="matrix(1.00, 0.00, -0.00, -1.00, 365.1, 315.0)">a</text><text xml:space="preserve" font-family="Chalkduster" font-size="24.0" fill="#FEFFFE" transform="matrix(1.00, 0.00, -0.00, -1.00, 381.7, 315.0)">y</text><text xml:space="preserve" font-family="Chalkduster" font-size="24.0" fill="#FEFFFE" transform="matrix(1.00, 0.00, -0.00, -1.00, 396.3, 315.0)"> </text><image xlink:href="../../064B7F0C-2929-4FA2-8273-93E588CA9C8B/assets/B4FDAEC1A55F266916EBBA7B40FD9B86.png" width="17.00" height="16.00" transform="matrix(0.83, 0.00, -0.00, -0.81, 142.0, 266.0)"></image><text xml:space="preserve" font-family="Chalkduster" font-size="24.0" fill="#FEFFFE" transform="matrix(1.00, 0.00, -0.00, -1.00, 170.0, 254.0)">C</text><text xml:space="preserve" font-family="Chalkduster" font-size="24.0" fill="#FEFFFE" transform="matrix(1.00, 0.00, -0.00, -1.00, 190.2, 254.0)">h</text><text xml:space="preserve" font-family="Chalkduster" font-size="24.0" fill="#FEFFFE" transform="matrix(1.00, 0.00, -0.00, -1.00, 205.4, 254.0)">i</text><text xml:space="preserve" font-family="Chalkduster" font-size="24.0" fill="#FEFFFE" transform="matrix(1.00, 0.00, -0.00, -1.00, 215.1, 254.0)">l</text><text xml:space="preserve" font-family="Chalkduster" font-size="24.0" fill="#FEFFFE" transform="matrix(1.00, 0.00, -0.00, -1.00, 226.4, 254.0)">d</text><text xml:space="preserve" font-family="Chalkduster" font-size="24.0" fill="#FEFFFE" transform="matrix(1.00, 0.00, -0.00, -1.00, 245.1, 254.0)">-</text><text xml:space="preserve" font-family="Chalkduster" font-size="24.0" fill="#FEFFFE" transform="matrix(1.00, 0.00, -0.00, -1.00, 260.6, 254.0)">d</text><text xml:space="preserve" font-family="Chalkduster" font-size="24.0" fill="#FEFFFE" transform="matrix(1.00, 0.00, -0.00, -1.00, 280.3, 254.0)">i</text><text xml:space="preserve" font-family="Chalkduster" font-size="24.0" fill="#FEFFFE" transform="matrix(1.00, 0.00, -0.00, -1.00, 289.8, 254.0)">r</text><text xml:space="preserve" font-family="Chalkduster" font-size="24.0" fill="#FEFFFE" transform="matrix(1.00, 0.00, -0.00, -1.00, 301.9, 254.0)">e</text><text xml:space="preserve" font-family="Chalkduster" font-size="24.0" fill="#FEFFFE" transform="matrix(1.00, 0.00, -0.00, -1.00, 317.2, 254.0)">c</text><text xml:space="preserve" font-family="Chalkduster" font-size="24.0" fill="#FEFFFE" transform="matrix(1.00, 0.00, -0.00, -1.00, 331.4, 254.0)">t</text><text xml:space="preserve" font-family="Chalkduster" font-size="24.0" fill="#FEFFFE" transform="matrix(1.00, 0.00, -0.00, -1.00, 342.1, 254.0)">e</text><text xml:space="preserve" font-family="Chalkduster" font-size="24.0" fill="#FEFFFE" transform="matrix(1.00, 0.00, -0.00, -1.00, 357.7, 254.0)">d</text><text xml:space="preserve" font-family="Chalkduster" font-size="24.0" fill="#FEFFFE" transform="matrix(1.00, 0.00, -0.00, -1.00, 376.5, 254.0)"> </text><text xml:space="preserve" font-family="Chalkduster" font-size="24.0" fill="#FEFFFE" transform="matrix(1.00, 0.00, -0.00, -1.00, 388.4, 254.0)">p</text><text xml:space="preserve" font-family="Chalkduster" font-size="24.0" fill="#FEFFFE" transform="matrix(1.00, 0.00, -0.00, -1.00, 403.2, 254.0)">l</text><text xml:space="preserve" font-family="Chalkduster" font-size="24.0" fill="#FEFFFE" transform="matrix(1.00, 0.00, -0.00, -1.00, 414.0, 254.0)">a</text><text xml:space="preserve" font-family="Chalkduster" font-size="24.0" fill="#FEFFFE" transform="matrix(1.00, 0.00, -0.00, -1.00, 430.6, 254.0)">y</text><text xml:space="preserve" font-family="Chalkduster" font-size="24.0" fill="#FEFFFE" transform="matrix(1.00, 0.00, -0.00, -1.00, 445.2, 254.0)"> </text><image xlink:href="../../064B7F0C-2929-4FA2-8273-93E588CA9C8B/assets/B4FDAEC1A55F266916EBBA7B40FD9B86.png" width="17.00" height="16.00" transform="matrix(0.83, 0.00, -0.00, -0.81, 180.0, 205.0)"></image><text xml:space="preserve" font-family="Chalkduster" font-size="24.0" fill="#FEFFFE" transform="matrix(1.00, 0.00, -0.00, -1.00, 208.0, 193.0)">S</text><text xml:space="preserve" font-family="Chalkduster" font-size="24.0" fill="#FEFFFE" transform="matrix(1.00, 0.00, -0.00, -1.00, 219.9, 193.0)">e</text><text xml:space="preserve" font-family="Chalkduster" font-size="24.0" fill="#FEFFFE" transform="matrix(1.00, 0.00, -0.00, -1.00, 234.8, 193.0)">l</text><text xml:space="preserve" font-family="Chalkduster" font-size="24.0" fill="#FEFFFE" transform="matrix(1.00, 0.00, -0.00, -1.00, 246.1, 193.0)">f</text><text xml:space="preserve" font-family="Chalkduster" font-size="24.0" fill="#FEFFFE" transform="matrix(1.00, 0.00, -0.00, -1.00, 258.8, 193.0)">-</text><text xml:space="preserve" font-family="Chalkduster" font-size="24.0" fill="#FEFFFE" transform="matrix(1.00, 0.00, -0.00, -1.00, 273.3, 193.0)">e</text><text xml:space="preserve" font-family="Chalkduster" font-size="24.0" fill="#FEFFFE" transform="matrix(1.00, 0.00, -0.00, -1.00, 287.5, 193.0)">x</text><text xml:space="preserve" font-family="Chalkduster" font-size="24.0" fill="#FEFFFE" transform="matrix(1.00, 0.00, -0.00, -1.00, 302.4, 193.0)">p</text><text xml:space="preserve" font-family="Chalkduster" font-size="24.0" fill="#FEFFFE" transform="matrix(1.00, 0.00, -0.00, -1.00, 317.2, 193.0)">l</text><text xml:space="preserve" font-family="Chalkduster" font-size="24.0" fill="#FEFFFE" transform="matrix(1.00, 0.00, -0.00, -1.00, 327.6, 193.0)">o</text><text xml:space="preserve" font-family="Chalkduster" font-size="24.0" fill="#FEFFFE" transform="matrix(1.00, 0.00, -0.00, -1.00, 345.1, 193.0)">r</text><text xml:space="preserve" font-family="Chalkduster" font-size="24.0" fill="#FEFFFE" transform="matrix(1.00, 0.00, -0.00, -1.00, 357.7, 193.0)">a</text><text xml:space="preserve" font-family="Chalkduster" font-size="24.0" fill="#FEFFFE" transform="matrix(1.00, 0.00, -0.00, -1.00, 372.6, 193.0)">t</text><text xml:space="preserve" font-family="Chalkduster" font-size="24.0" fill="#FEFFFE" transform="matrix(1.00, 0.00, -0.00, -1.00, 383.7, 193.0)">i</text><text xml:space="preserve" font-family="Chalkduster" font-size="24.0" fill="#FEFFFE" transform="matrix(1.00, 0.00, -0.00, -1.00, 393.2, 193.0)">o</text><text xml:space="preserve" font-family="Chalkduster" font-size="24.0" fill="#FEFFFE" transform="matrix(1.00, 0.00, -0.00, -1.00, 411.0, 193.0)">n</text><text xml:space="preserve" font-family="Chalkduster" font-size="24.0" fill="#FEFFFE" transform="matrix(1.00, 0.00, -0.00, -1.00, 428.6, 193.0)">:</text><text xml:space="preserve" font-family="Chalkduster" font-size="24.0" fill="#FEFFFE" transform="matrix(1.00, 0.00, -0.00, -1.00, 436.5, 193.0)"> </text><text xml:space="preserve" font-family="Chalkduster" font-size="24.0" fill="#FEFFFE" transform="matrix(1.00, 0.00, -0.00, -1.00, 448.5, 193.0)">I</text><text xml:space="preserve" font-family="Chalkduster" font-size="24.0" fill="#FEFFFE" transform="matrix(1.00, 0.00, -0.00, -1.00, 462.7, 193.0)">n</text><text xml:space="preserve" font-family="Chalkduster" font-size="24.0" fill="#FEFFFE" transform="matrix(1.00, 0.00, -0.00, -1.00, 480.3, 193.0)">n</text><text xml:space="preserve" font-family="Chalkduster" font-size="24.0" fill="#FEFFFE" transform="matrix(1.00, 0.00, -0.00, -1.00, 497.4, 193.0)">o</text><text xml:space="preserve" font-family="Chalkduster" font-size="24.0" fill="#FEFFFE" transform="matrix(1.00, 0.00, -0.00, -1.00, 515.4, 193.0)">v</text><text xml:space="preserve" font-family="Chalkduster" font-size="24.0" fill="#FEFFFE" transform="matrix(1.00, 0.00, -0.00, -1.00, 529.0, 193.0)">a</text><text xml:space="preserve" font-family="Chalkduster" font-size="24.0" fill="#FEFFFE" transform="matrix(1.00, 0.00, -0.00, -1.00, 543.9, 193.0)">t</text><text xml:space="preserve" font-family="Chalkduster" font-size="24.0" fill="#FEFFFE" transform="matrix(1.00, 0.00, -0.00, -1.00, 555.0, 193.0)">i</text><text xml:space="preserve" font-family="Chalkduster" font-size="24.0" fill="#FEFFFE" transform="matrix(1.00, 0.00, -0.00, -1.00, 564.5, 193.0)">o</text><text xml:space="preserve" font-family="Chalkduster" font-size="24.0" fill="#FEFFFE" transform="matrix(1.00, 0.00, -0.00, -1.00, 582.3, 193.0)">n</text><text xml:space="preserve" font-family="Chalkduster" font-size="24.0" fill="#FEFFFE" transform="matrix(1.00, 0.00, -0.00, -1.00, 599.9, 193.0)"> </text><text xml:space="preserve" font-family="Chalkduster" font-size="24.0" fill="#FEFFFE" transform="matrix(1.00, 0.00, -0.00, -1.00, 611.9, 193.0)">a</text><text xml:space="preserve" font-family="Chalkduster" font-size="24.0" fill="#FEFFFE" transform="matrix(1.00, 0.00, -0.00, -1.00, 628.4, 193.0)">n</text><text xml:space="preserve" font-family="Chalkduster" font-size="24.0" fill="#FEFFFE" transform="matrix(1.00, 0.00, -0.00, -1.00, 646.0, 193.0)">d</text><text xml:space="preserve" font-family="Chalkduster" font-size="24.0" fill="#FEFFFE" transform="matrix(1.00, 0.00, -0.00, -1.00, 664.7, 193.0)"> </text><text xml:space="preserve" font-family="Chalkduster" font-size="24.0" fill="#FEFFFE" transform="matrix(1.00, 0.00, -0.00, -1.00, 676.7, 193.0)">c</text><text xml:space="preserve" font-family="Chalkduster" font-size="24.0" fill="#FEFFFE" transform="matrix(1.00, 0.00, -0.00, -1.00, 691.2, 193.0)">r</text><text xml:space="preserve" font-family="Chalkduster" font-size="24.0" fill="#FEFFFE" transform="matrix(1.00, 0.00, -0.00, -1.00, 703.4, 193.0)">e</text><text xml:space="preserve" font-family="Chalkduster" font-size="24.0" fill="#FEFFFE" transform="matrix(1.00, 0.00, -0.00, -1.00, 718.3, 193.0)">a</text><text xml:space="preserve" font-family="Chalkduster" font-size="24.0" fill="#FEFFFE" transform="matrix(1.00, 0.00, -0.00, -1.00, 733.2, 193.0)">t</text><text xml:space="preserve" font-family="Chalkduster" font-size="24.0" fill="#FEFFFE" transform="matrix(1.00, 0.00, -0.00, -1.00, 744.3, 193.0)">i</text><text xml:space="preserve" font-family="Chalkduster" font-size="24.0" fill="#FEFFFE" transform="matrix(1.00, 0.00, -0.00, -1.00, 753.8, 193.0)">v</text><text xml:space="preserve" font-family="Chalkduster" font-size="24.0" fill="#FEFFFE" transform="matrix(1.00, 0.00, -0.00, -1.00, 768.7, 193.0)">i</text><text xml:space="preserve" font-family="Chalkduster" font-size="24.0" fill="#FEFFFE" transform="matrix(1.00, 0.00, -0.00, -1.00, 778.4, 193.0)">t</text><text xml:space="preserve" font-family="Chalkduster" font-size="24.0" fill="#FEFFFE" transform="matrix(1.00, 0.00, -0.00, -1.00, 789.4, 193.0)">y</text><text xml:space="preserve" font-family="Chalkduster" font-size="24.0" fill="#FEFFFE" transform="matrix(1.00, 0.00, -0.00, -1.00, 804.0, 193.0)"> </text><image xlink:href="../../064B7F0C-2929-4FA2-8273-93E588CA9C8B/assets/B4FDAEC1A55F266916EBBA7B40FD9B86.png" width="17.00" height="16.00" transform="matrix(0.83, 0.00, -0.00, -0.81, 142.0, 144.0)"></image><text xml:space="preserve" font-family="Chalkduster" font-size="24.0" fill="#FEFFFE" transform="matrix(1.00, 0.00, -0.00, -1.00, 170.0, 132.0)">A</text><text xml:space="preserve" font-family="Chalkduster" font-size="24.0" fill="#FEFFFE" transform="matrix(1.00, 0.00, -0.00, -1.00, 187.7, 132.0)">d</text><text xml:space="preserve" font-family="Chalkduster" font-size="24.0" fill="#FEFFFE" transform="matrix(1.00, 0.00, -0.00, -1.00, 207.0, 132.0)">u</text><text xml:space="preserve" font-family="Chalkduster" font-size="24.0" fill="#FEFFFE" transform="matrix(1.00, 0.00, -0.00, -1.00, 224.1, 132.0)">l</text><text xml:space="preserve" font-family="Chalkduster" font-size="24.0" fill="#FEFFFE" transform="matrix(1.00, 0.00, -0.00, -1.00, 232.9, 132.0)">t</text><text xml:space="preserve" font-family="Chalkduster" font-size="24.0" fill="#FEFFFE" transform="matrix(1.00, 0.00, -0.00, -1.00, 241.8, 132.0)">-</text><text xml:space="preserve" font-family="Chalkduster" font-size="24.0" fill="#FEFFFE" transform="matrix(1.00, 0.00, -0.00, -1.00, 257.2, 132.0)">d</text><text xml:space="preserve" font-family="Chalkduster" font-size="24.0" fill="#FEFFFE" transform="matrix(1.00, 0.00, -0.00, -1.00, 277.0, 132.0)">i</text><text xml:space="preserve" font-family="Chalkduster" font-size="24.0" fill="#FEFFFE" transform="matrix(1.00, 0.00, -0.00, -1.00, 286.4, 132.0)">r</text><text xml:space="preserve" font-family="Chalkduster" font-size="24.0" fill="#FEFFFE" transform="matrix(1.00, 0.00, -0.00, -1.00, 298.6, 132.0)">e</text><text xml:space="preserve" font-family="Chalkduster" font-size="24.0" fill="#FEFFFE" transform="matrix(1.00, 0.00, -0.00, -1.00, 313.9, 132.0)">c</text><text xml:space="preserve" font-family="Chalkduster" font-size="24.0" fill="#FEFFFE" transform="matrix(1.00, 0.00, -0.00, -1.00, 328.1, 132.0)">t</text><text xml:space="preserve" font-family="Chalkduster" font-size="24.0" fill="#FEFFFE" transform="matrix(1.00, 0.00, -0.00, -1.00, 338.8, 132.0)">e</text><text xml:space="preserve" font-family="Chalkduster" font-size="24.0" fill="#FEFFFE" transform="matrix(1.00, 0.00, -0.00, -1.00, 354.4, 132.0)">d</text><text xml:space="preserve" font-family="Chalkduster" font-size="24.0" fill="#FEFFFE" transform="matrix(1.00, 0.00, -0.00, -1.00, 373.2, 132.0)"> </text><text xml:space="preserve" font-family="Chalkduster" font-size="24.0" fill="#FEFFFE" transform="matrix(1.00, 0.00, -0.00, -1.00, 385.1, 132.0)">p</text><text xml:space="preserve" font-family="Chalkduster" font-size="24.0" fill="#FEFFFE" transform="matrix(1.00, 0.00, -0.00, -1.00, 399.9, 132.0)">l</text><text xml:space="preserve" font-family="Chalkduster" font-size="24.0" fill="#FEFFFE" transform="matrix(1.00, 0.00, -0.00, -1.00, 410.7, 132.0)">a</text><text xml:space="preserve" font-family="Chalkduster" font-size="24.0" fill="#FEFFFE" transform="matrix(1.00, 0.00, -0.00, -1.00, 427.2, 132.0)">y</text><text xml:space="preserve" font-family="Chalkduster" font-size="24.0" fill="#FEFFFE" transform="matrix(1.00, 0.00, -0.00, -1.00, 441.8, 132.0)"> </text><image xlink:href="../../064B7F0C-2929-4FA2-8273-93E588CA9C8B/assets/B4FDAEC1A55F266916EBBA7B40FD9B86.png" width="17.00" height="16.00" transform="matrix(0.83, 0.00, -0.00, -0.81, 180.0, 83.0)"></image><text xml:space="preserve" font-family="Chalkduster" font-size="24.0" fill="#FEFFFE" transform="matrix(1.00, 0.00, -0.00, -1.00, 208.0, 71.0)">D</text><text xml:space="preserve" font-family="Chalkduster" font-size="24.0" fill="#FEFFFE" transform="matrix(1.00, 0.00, -0.00, -1.00, 224.6, 71.0)">e</text><text xml:space="preserve" font-family="Chalkduster" font-size="24.0" fill="#FEFFFE" transform="matrix(1.00, 0.00, -0.00, -1.00, 239.3, 71.0)">v</text><text xml:space="preserve" font-family="Chalkduster" font-size="24.0" fill="#FEFFFE" transform="matrix(1.00, 0.00, -0.00, -1.00, 254.1, 71.0)">e</text><text xml:space="preserve" font-family="Chalkduster" font-size="24.0" fill="#FEFFFE" transform="matrix(1.00, 0.00, -0.00, -1.00, 268.9, 71.0)">l</text><text xml:space="preserve" font-family="Chalkduster" font-size="24.0" fill="#FEFFFE" transform="matrix(1.00, 0.00, -0.00, -1.00, 279.2, 71.0)">o</text><text xml:space="preserve" font-family="Chalkduster" font-size="24.0" fill="#FEFFFE" transform="matrix(1.00, 0.00, -0.00, -1.00, 296.7, 71.0)">p</text><text xml:space="preserve" font-family="Chalkduster" font-size="24.0" fill="#FEFFFE" transform="matrix(1.00, 0.00, -0.00, -1.00, 311.5, 71.0)">m</text><text xml:space="preserve" font-family="Chalkduster" font-size="24.0" fill="#FEFFFE" transform="matrix(1.00, 0.00, -0.00, -1.00, 336.4, 71.0)">e</text><text xml:space="preserve" font-family="Chalkduster" font-size="24.0" fill="#FEFFFE" transform="matrix(1.00, 0.00, -0.00, -1.00, 351.6, 71.0)">n</text><text xml:space="preserve" font-family="Chalkduster" font-size="24.0" fill="#FEFFFE" transform="matrix(1.00, 0.00, -0.00, -1.00, 368.3, 71.0)">t</text><text xml:space="preserve" font-family="Chalkduster" font-size="24.0" fill="#FEFFFE" transform="matrix(1.00, 0.00, -0.00, -1.00, 379.2, 71.0)"> </text><text xml:space="preserve" font-family="Chalkduster" font-size="24.0" fill="#FEFFFE" transform="matrix(1.00, 0.00, -0.00, -1.00, 391.2, 71.0)">o</text><text xml:space="preserve" font-family="Chalkduster" font-size="24.0" fill="#FEFFFE" transform="matrix(1.00, 0.00, -0.00, -1.00, 408.4, 71.0)">f</text><text xml:space="preserve" font-family="Chalkduster" font-size="24.0" fill="#FEFFFE" transform="matrix(1.00, 0.00, -0.00, -1.00, 421.2, 71.0)"> </text><text xml:space="preserve" font-family="Chalkduster" font-size="24.0" fill="#FEFFFE" transform="matrix(1.00, 0.00, -0.00, -1.00, 433.1, 71.0)">e</text><text xml:space="preserve" font-family="Chalkduster" font-size="24.0" fill="#FEFFFE" transform="matrix(1.00, 0.00, -0.00, -1.00, 447.3, 71.0)">x</text><text xml:space="preserve" font-family="Chalkduster" font-size="24.0" fill="#FEFFFE" transform="matrix(1.00, 0.00, -0.00, -1.00, 462.1, 71.0)">e</text><text xml:space="preserve" font-family="Chalkduster" font-size="24.0" fill="#FEFFFE" transform="matrix(1.00, 0.00, -0.00, -1.00, 477.4, 71.0)">c</text><text xml:space="preserve" font-family="Chalkduster" font-size="24.0" fill="#FEFFFE" transform="matrix(1.00, 0.00, -0.00, -1.00, 492.5, 71.0)">u</text><text xml:space="preserve" font-family="Chalkduster" font-size="24.0" fill="#FEFFFE" transform="matrix(1.00, 0.00, -0.00, -1.00, 508.8, 71.0)">t</text><text xml:space="preserve" font-family="Chalkduster" font-size="24.0" fill="#FEFFFE" transform="matrix(1.00, 0.00, -0.00, -1.00, 519.8, 71.0)">i</text><text xml:space="preserve" font-family="Chalkduster" font-size="24.0" fill="#FEFFFE" transform="matrix(1.00, 0.00, -0.00, -1.00, 529.3, 71.0)">v</text><text xml:space="preserve" font-family="Chalkduster" font-size="24.0" fill="#FEFFFE" transform="matrix(1.00, 0.00, -0.00, -1.00, 544.1, 71.0)">e</text><text xml:space="preserve" font-family="Chalkduster" font-size="24.0" fill="#FEFFFE" transform="matrix(1.00, 0.00, -0.00, -1.00, 559.0, 71.0)"> </text><text xml:space="preserve" font-family="Chalkduster" font-size="24.0" fill="#FEFFFE" transform="matrix(1.00, 0.00, -0.00, -1.00, 570.9, 71.0)">f</text><text xml:space="preserve" font-family="Chalkduster" font-size="24.0" fill="#FEFFFE" transform="matrix(1.00, 0.00, -0.00, -1.00, 583.7, 71.0)">u</text><text xml:space="preserve" font-family="Chalkduster" font-size="24.0" fill="#FEFFFE" transform="matrix(1.00, 0.00, -0.00, -1.00, 600.5, 71.0)">n</text><text xml:space="preserve" font-family="Chalkduster" font-size="24.0" fill="#FEFFFE" transform="matrix(1.00, 0.00, -0.00, -1.00, 618.1, 71.0)">c</text><text xml:space="preserve" font-family="Chalkduster" font-size="24.0" fill="#FEFFFE" transform="matrix(1.00, 0.00, -0.00, -1.00, 632.3, 71.0)">t</text><text xml:space="preserve" font-family="Chalkduster" font-size="24.0" fill="#FEFFFE" transform="matrix(1.00, 0.00, -0.00, -1.00, 643.4, 71.0)">i</text><text xml:space="preserve" font-family="Chalkduster" font-size="24.0" fill="#FEFFFE" transform="matrix(1.00, 0.00, -0.00, -1.00, 652.9, 71.0)">o</text><text xml:space="preserve" font-family="Chalkduster" font-size="24.0" fill="#FEFFFE" transform="matrix(1.00, 0.00, -0.00, -1.00, 670.8, 71.0)">n</text><text xml:space="preserve" font-family="Chalkduster" font-size="24.0" fill="#FEFFFE" transform="matrix(1.00, 0.00, -0.00, -1.00, 688.4, 71.0)"> </text><text xml:space="preserve" font-family="Chalkduster" font-size="24.0" fill="#FEFFFE" transform="matrix(1.00, 0.00, -0.00, -1.00, 700.3, 71.0)">(</text><text xml:space="preserve" font-family="Chalkduster" font-size="24.0" fill="#FEFFFE" transform="matrix(1.00, 0.00, -0.00, -1.00, 710.8, 71.0)">E</text><text xml:space="preserve" font-family="Chalkduster" font-size="24.0" fill="#FEFFFE" transform="matrix(1.00, 0.00, -0.00, -1.00, 728.5, 71.0)">F</text><text xml:space="preserve" font-family="Chalkduster" font-size="24.0" fill="#FEFFFE" transform="matrix(1.00, 0.00, -0.00, -1.00, 745.5, 71.0)">)</text><g><clipPath id="clip-128"><path d="M 567.0 593.0 L 986.0 593.0 L 986.0 257.0 L 567.0 257.0 Z M 567.1 593.3 "></path></clipPath><g clip-path="url(#clip-128)"><g><clipPath id="clip-129"><path d="M 973.5 603.3 C 973.5 603.3 973.5 603.3 973.5 603.3 C 973.4 603.2 973.5 603.0 973.5 602.9 C 973.7 603.0 973.9 603.1 974.0 603.3 C 973.9 603.3 973.6 603.4 973.5 603.3 C 973.5 603.3 973.5 603.3 973.5 603.3 Z M 766.1 590.0 L 755.9 590.0 C 752.8 590.0 751.1 589.8 748.8 589.7 C 745.5 589.4 741.4 589.2 740.2 588.9 C 740.0 588.9 739.9 588.9 739.8 588.8 C 737.9 588.5 737.0 588.2 736.8 587.5 C 736.7 587.3 737.0 584.5 737.0 583.2 C 737.4 580.7 737.8 576.7 738.0 570.8 C 738.1 569.1 738.1 568.5 738.1 567.2 C 738.1 566.1 738.2 564.6 738.2 563.7 C 738.2 559.6 738.0 556.8 737.4 556.0 C 736.0 554.3 731.8 554.0 730.9 555.5 C 730.8 555.6 730.6 555.7 730.4 555.8 C 729.7 555.9 729.1 555.9 728.1 556.1 C 727.3 556.2 726.6 556.2 726.0 556.2 C 724.8 556.0 723.6 555.6 722.9 554.9 C 720.9 552.9 720.9 548.1 723.0 546.0 C 724.3 544.7 725.7 544.5 729.6 545.0 C 733.5 545.6 734.9 545.3 736.4 543.9 C 739.0 541.6 739.0 531.6 736.4 513.0 C 735.3 505.3 734.0 494.6 734.0 489.1 L 734.0 480.3 C 734.1 479.9 734.6 479.2 734.7 479.0 L 739.9 480.0 C 746.4 480.8 749.7 479.2 750.8 474.9 C 752.1 469.6 744.7 465.4 739.5 468.7 C 739.3 468.8 739.1 468.8 738.9 468.8 C 738.2 469.0 738.2 468.9 737.3 469.1 C 737.0 469.2 736.9 469.2 736.7 469.2 C 736.4 469.2 736.0 469.2 735.8 469.1 C 734.2 468.5 734.5 467.2 735.0 452.4 L 735.0 436.4 L 732.5 435.3 C 731.6 435.0 728.5 434.6 724.7 434.2 C 721.7 433.8 718.0 433.6 713.2 433.6 C 712.2 433.6 711.7 433.6 710.8 433.6 C 709.5 433.6 708.3 433.7 707.3 433.8 C 707.2 433.8 707.0 433.8 706.9 433.8 C 702.1 434.2 701.1 435.4 701.8 438.7 C 702.1 440.2 702.6 442.8 702.9 444.3 C 703.1 444.9 703.0 445.4 702.9 446.0 C 702.8 446.8 702.6 447.4 702.4 447.9 C 702.2 448.2 702.1 448.4 702.0 448.6 C 701.9 448.8 701.7 448.8 701.6 449.0 C 700.6 449.9 699.2 450.4 697.5 450.5 C 696.2 450.5 695.1 450.1 694.2 449.5 C 692.5 448.3 692.0 445.7 692.0 440.6 L 692.0 434.0 L 690.0 434.0 L 689.0 433.0 L 677.6 434.0 C 677.2 434.0 676.6 433.9 676.2 433.9 C 671.1 434.2 665.3 434.6 659.4 435.5 C 651.9 436.6 641.6 437.4 636.2 437.5 C 630.2 437.5 627.1 437.4 626.0 435.9 L 627.0 431.0 C 627.6 425.3 627.2 424.3 625.4 422.5 C 620.9 418.0 613.5 422.3 614.8 428.7 C 615.2 430.5 615.9 433.1 616.0 434.5 L 616.0 437.0 L 602.9 437.0 C 595.7 437.0 588.6 436.4 587.2 436.0 L 584.0 436.0 L 585.0 420.2 C 585.6 405.0 585.6 404.8 583.4 403.2 C 581.7 402.1 580.5 401.9 579.3 402.6 C 577.2 403.7 572.6 403.7 570.8 402.8 C 570.7 402.7 570.6 402.7 570.6 402.7 C 570.6 402.7 570.6 402.7 570.6 402.7 C 568.6 401.3 568.1 396.2 569.7 394.0 C 570.9 392.4 572.2 392.1 576.4 392.3 C 585.2 392.7 585.4 391.8 585.0 374.5 L 585.0 360.0 L 588.4 359.0 C 590.3 358.6 596.9 358.4 603.0 358.3 C 616.4 358.0 617.4 358.5 615.4 364.5 C 614.1 368.3 614.2 368.8 616.0 370.6 C 621.5 376.1 628.2 371.6 627.0 363.2 L 626.0 359.0 L 630.3 358.0 C 635.0 357.2 646.1 358.0 660.4 360.1 C 665.6 360.9 674.0 361.5 679.1 361.5 C 687.1 361.5 688.6 361.2 690.4 359.4 C 692.1 357.8 692.4 356.6 691.9 353.5 C 690.9 348.1 692.6 345.5 696.8 345.5 C 701.8 345.5 703.7 347.9 703.0 353.1 C 702.5 356.9 702.7 357.6 705.1 359.6 C 707.6 361.6 708.7 361.7 717.9 361.2 C 728.0 360.7 734.2 358.8 734.5 356.2 C 734.5 355.5 734.1 348.6 734.0 340.8 L 734.0 327.0 L 740.2 327.0 C 745.7 327.0 746.4 326.2 748.3 323.6 C 750.9 320.0 750.8 319.7 748.2 316.8 C 745.7 314.1 743.7 313.9 739.9 315.9 C 737.8 317.0 736.5 317.5 735.7 316.9 C 735.4 316.7 735.2 316.3 735.0 315.8 C 734.3 313.9 734.3 309.6 734.6 301.5 C 734.8 293.4 735.4 286.3 735.8 285.6 C 736.4 284.7 739.8 284.5 750.0 285.1 C 763.1 285.8 763.5 285.7 765.9 283.5 C 767.8 281.6 768.2 280.4 768.1 276.3 C 767.9 272.4 768.3 271.0 769.8 269.9 C 772.3 268.1 774.4 268.1 777.2 270.1 C 779.0 271.4 779.4 272.5 779.2 276.2 C 779.0 279.9 779.4 281.1 781.3 282.7 C 784.9 285.6 788.0 285.9 799.3 284.8 C 805.1 284.2 810.2 284.1 810.7 284.5 C 812.0 285.7 813.4 298.9 813.1 307.7 C 812.9 314.9 812.6 316.0 811.0 316.3 C 809.9 316.5 808.1 316.2 806.9 315.5 C 805.7 314.8 803.6 314.5 802.4 314.7 C 799.4 315.1 796.0 319.5 796.9 321.8 C 797.9 324.5 803.0 326.7 806.4 326.0 C 807.9 325.7 810.2 325.9 811.4 326.5 C 812.4 327.1 812.9 327.6 813.2 329.2 C 813.4 331.2 813.4 334.0 813.2 340.0 C 813.2 340.4 813.2 340.4 813.2 340.7 C 813.2 341.5 813.0 341.4 813.0 342.3 L 813.0 356.9 L 816.2 358.8 C 819.0 360.5 821.5 360.8 830.4 360.9 C 843.7 361.0 845.6 360.0 844.7 352.7 C 844.2 348.8 844.5 347.7 846.2 346.2 C 850.7 342.1 857.6 348.2 855.3 354.1 C 854.4 356.4 854.6 357.2 856.4 358.9 C 858.2 360.8 859.5 361.0 869.6 360.9 C 875.8 360.8 886.2 360.0 892.7 359.1 C 907.3 357.1 917.3 357.0 919.9 358.9 C 920.5 359.3 920.8 359.8 921.0 360.2 C 921.1 360.6 921.1 361.1 921.0 361.7 C 921.0 362.4 920.8 363.0 920.4 364.4 C 919.2 368.1 919.2 368.7 920.8 370.5 C 921.8 371.6 923.5 372.7 924.5 373.1 C 928.3 374.2 934.9 367.6 932.4 365.2 C 931.8 364.6 931.4 362.8 931.4 361.3 C 931.4 357.6 933.9 357.0 947.5 357.9 C 960.6 358.7 963.4 359.6 962.9 362.8 C 962.9 363.8 962.7 366.0 962.6 367.6 C 962.3 370.4 962.0 373.1 961.7 377.5 C 961.6 378.9 961.7 379.7 961.6 380.9 C 961.6 381.2 961.6 381.6 961.6 382.0 C 961.4 390.8 962.6 392.0 969.0 391.6 C 975.0 391.3 978.4 393.4 978.4 397.8 C 978.4 399.2 978.0 400.5 977.6 401.5 C 977.2 401.9 976.9 402.3 976.4 402.7 C 974.4 403.7 969.6 403.8 968.9 402.5 C 968.3 401.7 967.3 401.8 966.2 402.0 L 965.1 401.0 L 963.6 402.9 C 963.4 403.1 963.1 403.2 962.9 403.5 C 961.2 405.3 961.1 406.8 961.7 417.8 C 961.9 421.3 962.1 422.8 962.4 425.6 C 962.7 431.1 962.8 434.6 962.0 435.5 C 961.8 435.6 961.7 435.7 961.4 435.8 C 960.9 436.0 959.9 436.1 959.2 436.2 C 956.9 436.6 951.3 437.0 944.9 437.0 L 934.5 437.0 C 933.2 436.9 932.5 436.7 932.0 436.4 L 932.0 434.0 C 932.1 432.4 932.5 429.7 932.9 428.2 C 933.4 426.3 933.0 425.1 931.8 423.7 C 931.8 423.6 931.8 423.6 931.7 423.6 C 931.7 423.5 931.7 423.5 931.7 423.5 C 931.5 423.3 931.5 423.1 931.3 422.9 C 930.4 422.0 929.3 421.4 928.3 421.1 C 928.2 421.1 928.2 421.0 928.2 421.0 C 928.2 421.0 928.1 421.0 928.1 421.0 C 927.6 420.9 927.2 420.8 926.8 420.8 C 926.3 420.7 925.7 420.6 925.2 420.7 C 925.2 420.7 925.1 420.7 925.1 420.8 C 924.5 420.8 924.0 421.0 923.5 421.2 C 920.9 422.4 919.1 425.2 919.8 428.7 C 921.5 437.3 921.9 437.0 911.9 437.3 C 906.7 437.5 897.1 436.7 888.7 435.5 C 878.8 434.1 870.2 433.5 863.9 433.6 C 863.4 433.6 862.8 433.6 862.2 433.6 C 862.0 433.6 861.8 433.6 861.7 433.7 C 861.6 433.7 861.6 433.7 861.5 433.7 C 857.8 433.9 855.0 434.2 854.3 435.1 C 853.3 436.3 853.2 437.3 854.2 439.9 C 855.4 443.2 855.7 445.9 855.0 447.7 C 854.8 448.2 854.4 448.4 854.2 448.8 C 853.6 449.3 853.0 449.7 852.3 450.0 C 851.9 450.2 851.5 450.3 851.1 450.3 C 850.8 450.4 850.5 450.5 850.2 450.5 C 845.7 450.4 845.0 449.0 845.0 441.3 L 845.0 434.0 L 841.4 434.0 C 837.6 433.1 829.0 433.5 822.0 434.5 C 818.2 434.7 815.0 435.0 814.1 435.3 C 811.4 436.4 811.4 436.5 812.1 442.7 C 812.5 446.2 813.0 453.5 813.0 459.0 L 813.0 463.8 C 812.8 466.3 812.5 468.5 811.8 469.0 L 810.4 469.0 C 809.5 468.9 807.8 468.4 806.4 468.2 C 805.2 467.5 803.5 467.5 801.8 468.0 C 799.0 468.4 797.1 470.2 796.6 473.1 C 796.6 473.3 796.5 473.5 796.5 473.7 C 796.5 474.0 796.4 474.2 796.4 474.5 C 796.4 478.8 799.7 480.4 807.0 480.0 L 812.2 480.0 C 812.6 480.6 812.8 481.7 813.0 482.8 L 813.0 488.0 C 813.2 492.5 812.5 502.2 811.4 510.3 C 810.2 518.1 809.1 528.5 809.0 533.4 C 808.8 544.3 809.8 546.0 815.9 545.1 C 819.9 544.5 823.0 545.3 824.8 546.9 C 825.3 547.7 825.8 548.5 826.0 549.5 C 826.0 549.9 826.1 550.3 826.1 550.7 C 826.0 551.8 825.7 552.8 824.9 554.0 C 824.2 555.1 822.8 555.8 821.4 556.2 C 820.2 556.3 818.6 556.0 817.0 555.6 C 817.0 555.5 816.9 555.5 816.9 555.5 C 816.2 554.4 814.6 554.3 813.0 554.8 C 812.1 554.7 811.5 555.0 810.8 555.6 C 810.4 555.9 810.1 556.3 809.9 556.9 C 809.8 557.0 809.8 557.0 809.7 557.1 C 808.2 559.4 808.2 561.0 809.2 573.7 C 809.9 581.4 810.2 588.0 810.0 588.2 C 809.6 588.6 804.0 589.3 798.1 589.8 C 795.8 589.9 793.4 590.0 790.4 590.0 L 781.9 590.0 C 780.5 589.7 779.5 589.3 779.0 588.6 L 779.0 585.6 C 779.1 585.3 779.1 585.2 779.2 584.9 C 781.9 578.9 779.5 573.5 774.0 573.5 C 773.6 573.5 773.2 573.7 772.8 573.8 C 772.7 573.8 772.6 573.8 772.5 573.8 C 771.7 574.0 771.0 574.3 770.3 574.7 C 770.2 574.7 770.2 574.8 770.1 574.8 C 768.0 576.1 766.4 578.0 766.4 579.7 C 766.4 580.8 767.0 582.9 767.8 584.4 C 768.4 585.5 769.0 586.3 769.0 586.9 L 769.0 587.1 C 769.0 587.8 768.5 588.3 767.9 589.0 C 767.7 589.3 767.5 589.5 767.3 589.7 C 766.9 589.8 766.5 589.9 766.1 590.0 Z M 999.1 287.4 C 1000.3 287.3 1002.0 286.0 1003.4 284.6 C 1003.4 284.8 1003.4 285.0 1003.3 285.1 C 1002.4 286.8 1000.8 287.5 999.1 287.4 C 999.1 287.4 999.1 287.4 999.1 287.4 Z M 998.1 287.2 C 996.6 286.9 995.3 286.1 994.4 284.8 C 995.7 286.0 997.0 286.9 998.1 287.2 Z M 998.1 287.2 "></path></clipPath><g clip-path="url(#clip-129)"><image xlink:href="08A30D8CF1FB27A9C2DFD794DE60DBC8.png" width="478.00" height="359.00" transform="matrix(1.00, 0.00, -0.00, -1.00, 537.0, 615.0)"></image></g></g></g></g></g></svg>