<?xml version="1.0" encoding="UTF-8" standalone="no"?>
<svg
   width="40"
   height="40"
   viewBox="0 0 40 40"
   fill="none"
   version="1.1"
   id="svg18"
   sodipodi:docname="icon-education.svg"
   inkscape:version="1.2.2 (b0a84865, 2022-12-01)"
   xmlns:inkscape="http://www.inkscape.org/namespaces/inkscape"
   xmlns:sodipodi="http://sodipodi.sourceforge.net/DTD/sodipodi-0.dtd"
   xmlns="http://www.w3.org/2000/svg"
   xmlns:svg="http://www.w3.org/2000/svg">
  <defs
     id="defs22" />
  <sodipodi:namedview
     id="namedview20"
     pagecolor="#ffffff"
     bordercolor="#000000"
     borderopacity="0.25"
     inkscape:showpageshadow="2"
     inkscape:pageopacity="0.0"
     inkscape:pagecheckerboard="0"
     inkscape:deskcolor="#d1d1d1"
     showgrid="false"
     inkscape:zoom="5.9"
     inkscape:cx="23.135593"
     inkscape:cy="24.830508"
     inkscape:window-width="1354"
     inkscape:window-height="831"
     inkscape:window-x="0"
     inkscape:window-y="37"
     inkscape:window-maximized="0"
     inkscape:current-layer="svg18" />
  <path
     opacity="0.05"
     fill-rule="evenodd"
     clip-rule="evenodd"
     d="M1 9.96663L20 1.96663L39 9.96663L20 17.9666L1 9.96663ZM20 10.9666C21.1046 10.9666 22 10.5189 22 9.96663C22 9.41434 21.1046 8.96663 20 8.96663C18.8954 8.96663 18 9.41434 18 9.96663C18 10.5189 18.8954 10.9666 20 10.9666Z"
     fill="#0045FF"
     id="path2"
     style="fill:#51a0d5;fill-opacity:1" />
  <path
     opacity="0.05"
     d="M7.5 23.9666V15.4666L20 20.4666L32.5 15.4666V23.9666C30.5575 28.8228 23.5 29.9666 20 29.9666C16.5 29.9666 10.6889 28.4311 7.5 23.9666Z"
     fill="#0045FF"
     id="path4"
     style="fill:#51a0d5;fill-opacity:1" />
  <path
     d="M28.1613 34.6532C27.804 34.5625 27.442 34.7811 27.3534 35.1378L26.6867 37.8045C26.5967 38.1625 26.8147 38.5238 27.172 38.6132C27.226 38.6271 27.2807 38.6332 27.3341 38.6332C27.6327 38.6332 27.9041 38.4311 27.9801 38.1285L28.6467 35.4618C28.736 35.1045 28.5187 34.7425 28.1613 34.6532Z"
     fill="#0045FF"
     id="path6"
     style="fill:#51a0d5;fill-opacity:1" />
  <path
     d="m 20,21.2999 c 0.0866,0 0.1734,-0.0167 0.2547,-0.0506 l 7.3333,-3.0347 c 0.34,-0.1407 0.5014,-0.5307 0.3607,-0.8707 -0.1407,-0.3407 -0.532,-0.5007 -0.8713,-0.3614 L 20,19.9118 1.33336,12.1879 v -0.2214 c 0,-0.3679 -0.29867,-0.6666 -0.666641,-0.6666 C 0.29875,11.2999 0,11.5986 0,11.9665 v 0.6667 c 0,0.27 0.162656,0.5133 0.412031,0.616 l 19.333369,8 c 0.0812,0.034 0.168,0.0507 0.2546,0.0507 z"
     fill="#0045FF"
     id="path8"
     style="display:inline;fill:#51a0d5;fill-opacity:1" />
  <path
     d="m 27.9307,28.1299 c -0.1627,-0.33 -0.5613,-0.466 -0.8927,-0.3027 -1.266,0.626 -3.3807,1.354 -6.3713,1.4534 v -5.9807 c 0,-0.368 -0.2987,-0.6667 -0.6666,-0.6667 -0.368,0 -0.6667,0.2987 -0.6667,0.6667 v 5.9747 C 11.0554,29.0106 8.38412,23.9959 8.00006,23.1612 v -4.528 c 0,-0.3679 -0.29867,-0.6666 -0.66664,-0.6666 -0.36797,0 -0.66664,0.2987 -0.66664,0.6666 v 4.6667 c 0,0.0847 0.01601,0.1687 0.04734,0.248 0.11602,0.2886 2.95336,7.0853 13.28598,7.0853 3.6114,0 6.1421,-0.876 7.6287,-1.6107 0.3305,-0.1633 0.4659,-0.5626 0.3019,-0.8926 z"
     fill="#0045FF"
     id="path10"
     style="display:inline;fill:#51a0d5;fill-opacity:1" />
  <path
     d="M30 35.2999C29.6313 35.2999 29.3333 35.5986 29.3333 35.9665V37.9665C29.3333 38.3345 29.6313 38.6332 30 38.6332C30.3686 38.6332 30.6666 38.3345 30.6666 37.9665V35.9665C30.6666 35.5986 30.3686 35.2999 30 35.2999Z"
     fill="#0045FF"
     id="path12"
     style="fill:#51a0d5;fill-opacity:1"
     inkscape:label="path12" />
  <path
     d="M39.3334 11.2999C38.9647 11.2999 38.6667 11.5986 38.6667 11.9665V12.1865L30.6667 15.4792V14.2745L39.588 10.5825C39.8373 10.4798 40.0001 10.2364 40.0001 9.96645C40.0001 9.69645 39.8374 9.45379 39.5887 9.35043L20.2547 1.35051C20.0913 1.28317 19.9087 1.28317 19.7454 1.35051L0.412031 9.35051C0.162656 9.45387 0 9.69653 0 9.96653C0 10.2365 0.162656 10.4799 0.412031 10.5825L19.7454 18.5825C19.8267 18.6165 19.9134 18.6332 20.0001 18.6332C20.0868 18.6332 20.1734 18.6166 20.2548 18.5825L27.2455 15.6899C27.5862 15.5499 27.7475 15.1599 27.6068 14.8192C27.4661 14.4792 27.0761 14.3185 26.7361 14.4585L20 17.2452L2.41 9.96653L20 2.68785L37.59 9.96653L29.936 13.1339L22.6047 10.3965C22.6434 10.2579 22.6667 10.1152 22.6667 9.96653C22.6667 8.8452 21.4954 7.96653 20.0001 7.96653C18.5048 7.96653 17.3334 8.8452 17.3334 9.96653C17.3334 11.0879 18.5048 11.9665 20.0001 11.9665C20.6674 11.9665 21.2627 11.7845 21.7254 11.4912L29.3334 14.3319V16.4679V16.4686V30.756C28.5594 31.0326 28 31.7653 28 32.6333C28 33.736 28.8973 34.6333 30 34.6333C31.1027 34.6333 32 33.736 32 32.6333C32 31.7654 31.4407 31.0327 30.6666 30.756V26.972C32.5806 25.5273 33.2666 23.6033 33.2966 23.518C33.3206 23.448 33.3333 23.374 33.3333 23.3V18.6334C33.3333 18.2654 33.0353 17.9668 32.6666 17.9668C32.298 17.9668 32 18.2654 32 18.6334V23.1768C31.8847 23.4594 31.484 24.3307 30.6666 25.1907V16.9212L39.5873 13.2499C39.8373 13.1472 40 12.9032 40 12.6332V11.9666C40 11.5986 39.702 11.2999 39.3334 11.2999ZM20 10.6332C19.186 10.6332 18.6666 10.2385 18.6666 9.96653C18.6666 9.69449 19.1859 9.29989 20 9.29989C20.8141 9.29989 21.3334 9.69457 21.3334 9.96653C21.3334 10.2386 20.814 10.6332 20 10.6332ZM30 33.2999C29.632 33.2999 29.3334 33.0006 29.3334 32.6332C29.3334 32.2659 29.632 31.9666 30 31.9666C30.368 31.9666 30.6666 32.2659 30.6666 32.6332C30.6666 33.0005 30.368 33.2999 30 33.2999Z"
     fill="#0045FF"
     id="path14"
     style="fill:#51a0d5;fill-opacity:1" />
  <path
     d="M32.6467 35.1378C32.5574 34.7812 32.1946 34.5631 31.8387 34.6531C31.4814 34.7424 31.264 35.1045 31.3534 35.4618L32.02 38.1285C32.0961 38.4311 32.3674 38.6331 32.6661 38.6331C32.7194 38.6331 32.774 38.6271 32.8281 38.6131C33.1854 38.5238 33.4028 38.1624 33.3134 37.8045L32.6467 35.1378Z"
     fill="#0045FF"
     id="path16"
     style="fill:#51a0d5;fill-opacity:1" />
</svg>
