<?xml version="1.0" encoding="UTF-8" standalone="no"?>
<!DOCTYPE svg PUBLIC "-//W3C//DTD SVG 1.1//EN" "http://www.w3.org/Graphics/SVG/1.1/DTD/svg11.dtd">
<svg width="100%" height="100%" viewBox="0 0 40 40" version="1.1" xmlns="http://www.w3.org/2000/svg" xmlns:xlink="http://www.w3.org/1999/xlink" xml:space="preserve" xmlns:serif="http://www.serif.com/" style="fill-rule:evenodd;clip-rule:evenodd;stroke-linejoin:round;stroke-miterlimit:2;">
    <path d="M35.4,28.255C35.18,28.164 34.928,28.214 34.76,28.383L28.344,34.819C28.176,34.988 28.126,35.241 28.217,35.461C28.308,35.681 28.522,35.825 28.759,35.825L35.175,35.825C35.5,35.825 35.762,35.561 35.762,35.236L35.762,28.799C35.762,28.561 35.619,28.346 35.4,28.255ZM30.176,34.647L34.588,30.221L34.588,34.647L30.176,34.647Z" style="fill:rgb(81,160,213);fill-rule:nonzero;"/>
    <path d="M39.638,18.814C39.418,18.723 39.166,18.773 38.998,18.942L37.239,20.706L37.239,8.712C37.239,8.386 36.977,8.123 36.652,8.123L32.141,8.123L33.779,6.48C33.779,6.48 33.779,6.479 33.78,6.479L35.357,4.896C35.695,4.557 35.882,4.106 35.882,3.626C35.882,3.147 35.695,2.696 35.357,2.356L33.533,0.526C33.195,0.187 32.745,0 32.267,0C31.789,0 31.339,0.187 31.001,0.526L29.423,2.11L27.515,4.023L23.429,8.123L5.205,8.123L5.205,2.296C5.205,1.97 4.942,1.707 4.618,1.707C2.071,1.707 0,3.785 0,6.339L0,31.356C0,31.399 0.005,31.442 0.014,31.483C0.095,32.566 0.562,33.573 1.344,34.338C2.179,35.155 3.281,35.605 4.447,35.605L22.388,35.605L19.009,38.995C18.841,39.163 18.791,39.416 18.882,39.636C18.973,39.856 19.187,40 19.424,40L39.413,40C39.737,40 40,39.736 40,39.411L40,19.358C40,19.12 39.857,18.905 39.638,18.814ZM31.831,1.359C32.072,1.118 32.463,1.118 32.703,1.359L34.527,3.189C34.767,3.43 34.767,3.822 34.527,4.063L33.364,5.231L30.668,2.526L31.831,1.359ZM29.838,3.359L32.533,6.063L31.456,7.144L28.761,4.44L29.838,3.359ZM38.826,25.976L37.743,25.976C37.419,25.976 37.156,26.24 37.156,26.565C37.156,26.891 37.419,27.154 37.743,27.154L38.826,27.154L38.826,28.929L37.743,28.929C37.419,28.929 37.156,29.193 37.156,29.518C37.156,29.844 37.419,30.107 37.743,30.107L38.826,30.107L38.826,31.882L37.743,31.882C37.419,31.882 37.156,32.146 37.156,32.471C37.156,32.797 37.419,33.06 37.743,33.06L38.826,33.06L38.826,34.835L37.743,34.835C37.419,34.835 37.156,35.099 37.156,35.424C37.156,35.75 37.419,36.013 37.743,36.013L38.826,36.013L38.826,38.822L20.842,38.822L26.772,32.873C27.001,32.643 27.001,32.27 26.772,32.04C26.746,32.014 26.717,31.991 26.688,31.97C26.459,31.813 26.145,31.836 25.942,32.04L23.562,34.427L4.448,34.427C2.667,34.427 1.233,33.032 1.177,31.249C1.18,31.137 1.189,31.026 1.203,30.917C1.203,30.916 1.203,30.915 1.203,30.915C1.21,30.863 1.218,30.811 1.227,30.759C1.228,30.753 1.229,30.747 1.23,30.741C1.238,30.696 1.247,30.65 1.257,30.604C1.26,30.591 1.263,30.579 1.266,30.566C1.275,30.528 1.285,30.489 1.295,30.451C1.3,30.43 1.306,30.41 1.312,30.389C1.321,30.359 1.33,30.33 1.339,30.3C1.349,30.27 1.359,30.241 1.369,30.212C1.376,30.192 1.383,30.171 1.391,30.151C1.405,30.112 1.42,30.074 1.436,30.036C1.44,30.025 1.445,30.014 1.449,30.003C1.469,29.956 1.49,29.91 1.512,29.864C1.513,29.862 1.514,29.86 1.515,29.858C1.974,28.905 2.858,28.194 3.917,27.973C3.92,27.973 3.923,27.972 3.926,27.971C3.975,27.961 4.024,27.953 4.073,27.945C4.082,27.944 4.09,27.942 4.098,27.941C4.143,27.934 4.188,27.929 4.233,27.923C4.246,27.922 4.258,27.92 4.271,27.919C4.314,27.914 4.358,27.912 4.402,27.909C4.416,27.908 4.43,27.906 4.444,27.906C4.501,27.903 4.559,27.901 4.618,27.901C4.942,27.901 5.205,27.638 5.205,27.312L5.205,23.042C5.205,22.716 4.942,22.453 4.618,22.453C4.293,22.453 4.03,22.716 4.03,23.042L4.03,26.76C3.039,26.886 2.119,27.33 1.393,28.041C1.317,28.115 1.245,28.193 1.174,28.272L1.174,6.339C1.174,4.635 2.41,3.215 4.03,2.935L4.03,20.686C4.03,21.011 4.293,21.275 4.618,21.275C4.942,21.275 5.205,21.011 5.205,20.686L5.205,9.301L22.255,9.301L19.009,12.557C18.78,12.787 18.78,13.16 19.009,13.39C19.238,13.62 19.61,13.62 19.839,13.39L24.087,9.128C24.087,9.128 24.087,9.128 24.087,9.128L27.93,5.273L30.626,7.977L30.309,8.294C30.309,8.295 30.309,8.295 30.309,8.295L18.471,20.172L15.775,17.467L18.108,15.126C18.338,14.896 18.338,14.523 18.108,14.293C17.879,14.063 17.507,14.063 17.278,14.293L14.529,17.051C14.515,17.066 14.501,17.081 14.488,17.097C14.484,17.102 14.48,17.108 14.476,17.114C14.468,17.125 14.46,17.136 14.452,17.147C14.448,17.154 14.444,17.161 14.44,17.168C14.433,17.179 14.427,17.19 14.421,17.202C14.418,17.209 14.414,17.216 14.411,17.224C14.405,17.235 14.401,17.247 14.396,17.259C14.395,17.263 14.393,17.267 14.391,17.271L13.247,20.522L12.467,22.738C12.457,22.768 12.45,22.798 12.444,22.828L10.492,22.828C10.167,22.828 9.904,23.092 9.904,23.417C9.904,23.742 10.167,24.006 10.492,24.006L26.751,24.006C27.075,24.006 27.338,23.742 27.338,23.417C27.338,23.092 27.075,22.828 26.751,22.828L15.085,22.828L18.666,21.56C18.669,21.559 18.672,21.557 18.675,21.556C18.689,21.551 18.702,21.545 18.716,21.539C18.721,21.537 18.727,21.534 18.732,21.532C18.746,21.525 18.76,21.517 18.773,21.509C18.778,21.506 18.782,21.503 18.786,21.501C18.801,21.492 18.814,21.482 18.828,21.471C18.831,21.469 18.835,21.466 18.838,21.464C18.854,21.45 18.87,21.436 18.886,21.421L30.967,9.301L36.065,9.301L36.065,21.884L27.667,30.309C27.438,30.539 27.438,30.912 27.667,31.142C27.681,31.156 27.696,31.17 27.712,31.182C27.819,31.27 27.951,31.315 28.082,31.315C28.214,31.315 28.345,31.27 28.453,31.182C28.468,31.17 28.483,31.156 28.497,31.142L28.498,31.142L38.826,20.78L38.826,25.976ZM17.397,20.76L15.715,21.356L14.595,20.232L15.188,18.544L17.397,20.76Z" style="fill:rgb(81,160,213);fill-rule:nonzero;"/>
    <path d="M39.638,18.814C39.418,18.723 39.166,18.773 38.998,18.942L37.239,20.706L37.239,8.712C37.239,8.386 36.977,8.123 36.652,8.123L32.141,8.123L33.779,6.48L33.78,6.479L35.357,4.896C35.695,4.557 35.882,4.106 35.882,3.626C35.882,3.147 35.695,2.696 35.357,2.356L33.533,0.526C33.195,0.187 32.745,0 32.267,0C31.789,0 31.339,0.187 31.001,0.526L29.423,2.11L27.515,4.023L23.429,8.123L5.205,8.123L5.205,2.296C5.205,1.97 4.942,1.707 4.618,1.707C2.071,1.707 0,3.785 0,6.339L0,31.356C0,31.399 0.005,31.442 0.014,31.483C0.095,32.566 0.562,33.573 1.344,34.338C2.179,35.155 3.281,35.605 4.447,35.605L22.388,35.605L19.009,38.995C18.841,39.163 18.791,39.416 18.882,39.636C18.973,39.856 19.187,40 19.424,40L39.413,40C39.737,40 40,39.736 40,39.411L40,19.358C40,19.12 39.857,18.905 39.638,18.814ZM31.831,1.359C32.072,1.118 32.463,1.118 32.703,1.359L34.527,3.189C34.767,3.43 34.767,3.822 34.527,4.063L33.364,5.231L30.668,2.526L31.831,1.359ZM29.838,3.359L32.533,6.063L31.456,7.144L28.761,4.44L29.838,3.359ZM17.397,20.76L15.715,21.356L14.595,20.232L15.188,18.544L17.397,20.76ZM34.829,29.171L29.171,34.829C29.108,34.892 29.152,35 29.241,35L35,35L35,29.241C35,29.152 34.892,29.108 34.829,29.171ZM15,17.5L18.5,21L31.5,8L28,4.5L15,17.5Z" style="fill:rgb(0,69,255);fill-opacity:0.05;"/>
</svg>
