<?xml version="1.0" encoding="UTF-8" standalone="no"?>
<svg
   width="40"
   height="40"
   viewBox="0 0 40 40"
   fill="none"
   version="1.1"
   id="svg6"
   sodipodi:docname="stethescope.svg"
   inkscape:version="1.2.2 (b0a84865, 2022-12-01)"
   xml:space="preserve"
   xmlns:inkscape="http://www.inkscape.org/namespaces/inkscape"
   xmlns:sodipodi="http://sodipodi.sourceforge.net/DTD/sodipodi-0.dtd"
   xmlns="http://www.w3.org/2000/svg"
   xmlns:svg="http://www.w3.org/2000/svg"><defs
     id="defs10" /><sodipodi:namedview
     id="namedview8"
     pagecolor="#ffffff"
     bordercolor="#000000"
     borderopacity="0.25"
     inkscape:showpageshadow="2"
     inkscape:pageopacity="0.0"
     inkscape:pagecheckerboard="0"
     inkscape:deskcolor="#d1d1d1"
     showgrid="false"
     inkscape:zoom="5.9"
     inkscape:cx="-14.745763"
     inkscape:cy="20"
     inkscape:window-width="1309"
     inkscape:window-height="456"
     inkscape:window-x="101"
     inkscape:window-y="234"
     inkscape:window-maximized="0"
     inkscape:current-layer="svg6" /><path
     style="fill:#51a0d5;fill-opacity:1;stroke-width:0.0929369"
     d="m 24.860937,39.908964 c -3.025203,-0.434454 -4.992299,-3.309038 -5.319104,-6.184955 -0.303375,-1.894554 -0.249505,-4.044782 -1.783004,-5.450319 -1.662197,-1.663063 -3.302232,-3.494177 -3.85406,-5.850875 -0.625378,-1.200029 -0.480779,-3.801347 -1.386354,-4.15863 -2.830548,2.57737 -5.6265447,5.885251 -5.5478346,9.940144 0.9163074,0.451719 2.5006176,0.927012 2.9368074,2.212877 1.0502862,1.94882 -0.1294914,4.49145 -2.1906639,5.155805 -0.6945807,0.127453 -1.482415,0.08276 -2.1865728,0.02479 C 3.389708,34.899701 2.1405197,32.160552 3.4206622,30.197041 3.625712,29.12828 5.3006251,29.084166 5.2050944,28.065757 c 0.044339,-3.852085 2.2245676,-7.283379 4.9154406,-9.88746 0.736638,-0.763726 1.542241,-1.454863 2.353315,-2.137293 -0.26521,-2.377151 -0.789039,-4.731 -0.988589,-7.1109761 0.04116,-1.3195685 -0.08007,-2.6635567 0.06138,-3.9680432 0.440602,-1.938259 1.639955,-3.8078984 3.637161,-4.400174 1.357244,-0.73312591 3.849246,-0.85572708 3.840573,1.2476357 -0.288661,2.1966339 -2.809081,1.5134173 -3.519299,0.3905417 -1.641348,0.7644307 -2.531714,2.7059684 -2.344903,4.4672151 -0.135879,2.2843052 0.488907,4.5061958 0.744751,6.7615818 -0.02177,1.293997 0.311752,2.144755 1.61633,1.218285 3.50277,-1.360946 7.407391,-0.772081 10.795054,0.635091 0.64405,-1.151688 0.484071,-3.028016 0.801879,-4.452049 0.216718,-2.355616 0.846685,-4.8444489 0.04583,-7.1464969 C 26.627394,2.6468063 25.164192,1.6763812 24.54148,3.1626515 23.256226,3.9562767 21.769953,2.369202 22.294087,1.1312993 c 0.892168,-1.84905631 3.044461,-0.5583334 4.457135,-0.23477394 2.340128,1.20922154 2.649291,4.16939514 2.364052,6.50960014 -0.273406,2.8896905 -0.61746,5.7768645 -1.045231,8.6467365 3.512768,2.687773 6.349211,6.627311 6.947006,11.083803 0.0076,1.612615 0.29581,3.288151 -0.254811,4.845406 -1.000107,3.73966 -3.909607,7.525945 -8.006872,7.891094 -0.629054,0.04121 -1.265525,0.106523 -1.894429,0.0358 z m 2.550506,-2.094705 c 3.110308,-0.873884 5.085795,-3.983743 5.770329,-6.989223 0.679779,-3.412799 -0.524077,-6.905033 -2.541064,-9.651919 -0.832182,-1.175945 -1.871837,-2.177187 -2.888571,-3.189821 -0.628378,3.24309 -1.355246,6.68159 -3.550759,9.255624 -1.424168,1.301147 -3.394878,2.571838 -3.296925,4.771939 0.08988,1.909399 0.570947,4.162253 2.230437,5.329255 1.279586,0.799714 2.85095,0.88236 4.276553,0.474145 z M 21.363632,26.816694 c 2.186332,-0.420456 2.872606,-2.799117 3.672381,-4.556132 0.564572,-1.658258 1.011006,-3.388675 1.17251,-5.133572 -3.693818,-1.529085 -8.219262,-2.327593 -11.802989,-0.08213 0.510102,2.39467 0.993461,4.861029 2.075561,7.074318 1.07451,1.493299 2.843151,3.34473 4.882537,2.697512 z"
     id="path300" /></svg>
