<?xml version="1.0" encoding="UTF-8" standalone="no"?><svg xmlns="http://www.w3.org/2000/svg" xmlns:xlink="http://www.w3.org/1999/xlink" clip-rule="evenodd" stroke-miterlimit="4.00" viewBox="0 0 1024 768"><desc>SVG generated by Keynote</desc><defs></defs><g transform="matrix(1.00, 0.00, -0.00, -1.00, 0.0, 768.0)"><path d="M 0.0 768.0 L 1024.0 768.0 L 1024.0 0.0 L 0.0 0.0 Z M 0.0 768.0 " fill="#FEFFFF"></path><text xml:space="preserve" font-family="Helvetica-Light" font-size="67.2" fill="#000000" transform="matrix(1.00, 0.00, -0.00, -1.00, 100.0, 663.0)">i</text><text xml:space="preserve" font-family="Helvetica-Light" font-size="67.2" fill="#000000" transform="matrix(1.00, 0.00, -0.00, -1.00, 114.9, 663.0)">P</text><text xml:space="preserve" font-family="Helvetica-Light" font-size="67.2" fill="#000000" transform="matrix(1.00, 0.00, -0.00, -1.00, 156.0, 663.0)">a</text><text xml:space="preserve" font-family="Helvetica-Light" font-size="67.2" fill="#000000" transform="matrix(1.00, 0.00, -0.00, -1.00, 193.3, 663.0)">d</text><text xml:space="preserve" font-family="Helvetica-Light" font-size="67.2" fill="#000000" transform="matrix(1.00, 0.00, -0.00, -1.00, 234.4, 663.0)"> </text><text xml:space="preserve" font-family="Helvetica-Light" font-size="67.2" fill="#000000" transform="matrix(1.00, 0.00, -0.00, -1.00, 253.1, 663.0)">L</text><text xml:space="preserve" font-family="Helvetica-Light" font-size="67.2" fill="#000000" transform="matrix(1.00, 0.00, -0.00, -1.00, 290.4, 663.0)">i</text><text xml:space="preserve" font-family="Helvetica-Light" font-size="67.2" fill="#000000" transform="matrix(1.00, 0.00, -0.00, -1.00, 305.4, 663.0)">g</text><text xml:space="preserve" font-family="Helvetica-Light" font-size="67.2" fill="#000000" transform="matrix(1.00, 0.00, -0.00, -1.00, 346.4, 663.0)">h</text><text xml:space="preserve" font-family="Helvetica-Light" font-size="67.2" fill="#000000" transform="matrix(1.00, 0.00, -0.00, -1.00, 383.8, 663.0)">t</text><text xml:space="preserve" font-family="Helvetica-Light" font-size="67.2" fill="#000000" transform="matrix(1.00, 0.00, -0.00, -1.00, 402.5, 663.0)"> </text><text xml:space="preserve" font-family="Helvetica-Light" font-size="67.2" fill="#000000" transform="matrix(1.00, 0.00, -0.00, -1.00, 421.1, 663.0)">P</text><text xml:space="preserve" font-family="Helvetica-Light" font-size="67.2" fill="#000000" transform="matrix(1.00, 0.00, -0.00, -1.00, 462.2, 663.0)">r</text><text xml:space="preserve" font-family="Helvetica-Light" font-size="67.2" fill="#000000" transform="matrix(1.00, 0.00, -0.00, -1.00, 483.4, 663.0)">o</text><text xml:space="preserve" font-family="Helvetica-Light" font-size="67.2" fill="#000000" transform="matrix(1.00, 0.00, -0.00, -1.00, 520.7, 663.0)">ﬁ</text><text xml:space="preserve" font-family="Helvetica-Light" font-size="67.2" fill="#000000" transform="matrix(1.00, 0.00, -0.00, -1.00, 554.3, 663.0)">l</text><text xml:space="preserve" font-family="Helvetica-Light" font-size="67.2" fill="#000000" transform="matrix(1.00, 0.00, -0.00, -1.00, 569.3, 663.0)">e</text><text xml:space="preserve" font-family="Helvetica-Light" font-size="67.2" fill="#000000" transform="matrix(1.00, 0.00, -0.00, -1.00, 606.6, 663.0)"> </text><text xml:space="preserve" font-family="Helvetica-Light" font-size="67.2" fill="#000000" transform="matrix(1.00, 0.00, -0.00, -1.00, 625.3, 663.0)">w</text><text xml:space="preserve" font-family="Helvetica-Light" font-size="67.2" fill="#000000" transform="matrix(1.00, 0.00, -0.00, -1.00, 673.8, 663.0)">i</text><text xml:space="preserve" font-family="Helvetica-Light" font-size="67.2" fill="#000000" transform="matrix(1.00, 0.00, -0.00, -1.00, 688.7, 663.0)">t</text><text xml:space="preserve" font-family="Helvetica-Light" font-size="67.2" fill="#000000" transform="matrix(1.00, 0.00, -0.00, -1.00, 707.4, 663.0)">h</text><text xml:space="preserve" font-family="Helvetica-Light" font-size="67.2" fill="#000000" transform="matrix(1.00, 0.00, -0.00, -1.00, 744.8, 663.0)"> </text><text xml:space="preserve" font-family="Helvetica-Light" font-size="67.2" fill="#000000" transform="matrix(1.00, 0.00, -0.00, -1.00, 763.5, 663.0)">N</text><text xml:space="preserve" font-family="Helvetica-Light" font-size="67.2" fill="#000000" transform="matrix(1.00, 0.00, -0.00, -1.00, 812.0, 663.0)">i</text><text xml:space="preserve" font-family="Helvetica-Light" font-size="67.2" fill="#000000" transform="matrix(1.00, 0.00, -0.00, -1.00, 826.9, 663.0)">g</text><text xml:space="preserve" font-family="Helvetica-Light" font-size="67.2" fill="#000000" transform="matrix(1.00, 0.00, -0.00, -1.00, 868.0, 663.0)">h</text><text xml:space="preserve" font-family="Helvetica-Light" font-size="67.2" fill="#000000" transform="matrix(1.00, 0.00, -0.00, -1.00, 905.3, 663.0)">t</text><text xml:space="preserve" font-family="Helvetica-Light" font-size="67.2" fill="#000000" transform="matrix(1.00, 0.00, -0.00, -1.00, 924.0, 663.0)"> </text><text xml:space="preserve" font-family="Helvetica-Light" font-size="67.2" fill="#000000" transform="matrix(1.00, 0.00, -0.00, -1.00, 200.0, 583.0)">S</text><text xml:space="preserve" font-family="Helvetica-Light" font-size="67.2" fill="#000000" transform="matrix(1.00, 0.00, -0.00, -1.00, 241.1, 583.0)">h</text><text xml:space="preserve" font-family="Helvetica-Light" font-size="67.2" fill="#000000" transform="matrix(1.00, 0.00, -0.00, -1.00, 278.4, 583.0)">i</text><text xml:space="preserve" font-family="Helvetica-Light" font-size="67.2" fill="#000000" transform="matrix(1.00, 0.00, -0.00, -1.00, 293.3, 583.0)">f</text><text xml:space="preserve" font-family="Helvetica-Light" font-size="67.2" fill="#000000" transform="matrix(1.00, 0.00, -0.00, -1.00, 312.0, 583.0)">t</text><text xml:space="preserve" font-family="Helvetica-Light" font-size="67.2" fill="#000000" transform="matrix(1.00, 0.00, -0.00, -1.00, 330.7, 583.0)"> </text><text xml:space="preserve" font-family="Helvetica-Light" font-size="67.2" fill="#000000" transform="matrix(1.00, 0.00, -0.00, -1.00, 349.4, 583.0)">D</text><text xml:space="preserve" font-family="Helvetica-Light" font-size="67.2" fill="#000000" transform="matrix(1.00, 0.00, -0.00, -1.00, 397.9, 583.0)">e</text><text xml:space="preserve" font-family="Helvetica-Light" font-size="67.2" fill="#000000" transform="matrix(1.00, 0.00, -0.00, -1.00, 435.3, 583.0)">f</text><text xml:space="preserve" font-family="Helvetica-Light" font-size="67.2" fill="#000000" transform="matrix(1.00, 0.00, -0.00, -1.00, 453.9, 583.0)">a</text><text xml:space="preserve" font-family="Helvetica-Light" font-size="67.2" fill="#000000" transform="matrix(1.00, 0.00, -0.00, -1.00, 491.3, 583.0)">u</text><text xml:space="preserve" font-family="Helvetica-Light" font-size="67.2" fill="#000000" transform="matrix(1.00, 0.00, -0.00, -1.00, 528.7, 583.0)">l</text><text xml:space="preserve" font-family="Helvetica-Light" font-size="67.2" fill="#000000" transform="matrix(1.00, 0.00, -0.00, -1.00, 543.6, 583.0)">t</text><text xml:space="preserve" font-family="Helvetica-Light" font-size="67.2" fill="#000000" transform="matrix(1.00, 0.00, -0.00, -1.00, 562.3, 583.0)"> </text><text xml:space="preserve" font-family="Helvetica-Light" font-size="67.2" fill="#000000" transform="matrix(1.00, 0.00, -0.00, -1.00, 581.0, 583.0)">S</text><text xml:space="preserve" font-family="Helvetica-Light" font-size="67.2" fill="#000000" transform="matrix(1.00, 0.00, -0.00, -1.00, 622.0, 583.0)">e</text><text xml:space="preserve" font-family="Helvetica-Light" font-size="67.2" fill="#000000" transform="matrix(1.00, 0.00, -0.00, -1.00, 659.4, 583.0)">t</text><text xml:space="preserve" font-family="Helvetica-Light" font-size="67.2" fill="#000000" transform="matrix(1.00, 0.00, -0.00, -1.00, 678.1, 583.0)">t</text><text xml:space="preserve" font-family="Helvetica-Light" font-size="67.2" fill="#000000" transform="matrix(1.00, 0.00, -0.00, -1.00, 696.7, 583.0)">i</text><text xml:space="preserve" font-family="Helvetica-Light" font-size="67.2" fill="#000000" transform="matrix(1.00, 0.00, -0.00, -1.00, 711.7, 583.0)">n</text><text xml:space="preserve" font-family="Helvetica-Light" font-size="67.2" fill="#000000" transform="matrix(1.00, 0.00, -0.00, -1.00, 749.0, 583.0)">g</text><text xml:space="preserve" font-family="Helvetica-Light" font-size="67.2" fill="#000000" transform="matrix(1.00, 0.00, -0.00, -1.00, 790.1, 583.0)">s</text><text xml:space="preserve" font-family="Helvetica-Light" font-size="8.0" fill="#000000" transform="matrix(1.00, 0.00, -0.00, -1.00, 471.0, 65.0)">h</text><text xml:space="preserve" font-family="Helvetica-Light" font-size="8.0" fill="#000000" transform="matrix(1.00, 0.00, -0.00, -1.00, 475.4, 65.0)">t</text><text xml:space="preserve" font-family="Helvetica-Light" font-size="8.0" fill="#000000" transform="matrix(1.00, 0.00, -0.00, -1.00, 477.7, 65.0)">t</text><text xml:space="preserve" font-family="Helvetica-Light" font-size="8.0" fill="#000000" transform="matrix(1.00, 0.00, -0.00, -1.00, 479.9, 65.0)">p</text><text xml:space="preserve" font-family="Helvetica-Light" font-size="8.0" fill="#000000" transform="matrix(1.00, 0.00, -0.00, -1.00, 484.8, 65.0)">s</text><text xml:space="preserve" font-family="Helvetica-Light" font-size="8.0" fill="#000000" transform="matrix(1.00, 0.00, -0.00, -1.00, 488.8, 65.0)">:</text><text xml:space="preserve" font-family="Helvetica-Light" font-size="8.0" fill="#000000" transform="matrix(1.00, 0.00, -0.00, -1.00, 491.0, 65.0)">/</text><text xml:space="preserve" font-family="Helvetica-Light" font-size="8.0" fill="#000000" transform="matrix(1.00, 0.00, -0.00, -1.00, 493.2, 65.0)">/</text><text xml:space="preserve" font-family="Helvetica-Light" font-size="8.0" fill="#000000" transform="matrix(1.00, 0.00, -0.00, -1.00, 495.5, 65.0)">ﬂ</text><text xml:space="preserve" font-family="Helvetica-Light" font-size="8.0" fill="#000000" transform="matrix(1.00, 0.00, -0.00, -1.00, 499.5, 65.0)">u</text><text xml:space="preserve" font-family="Helvetica-Light" font-size="8.0" fill="#000000" transform="matrix(1.00, 0.00, -0.00, -1.00, 503.9, 65.0)">x</text><text xml:space="preserve" font-family="Helvetica-Light" font-size="8.0" fill="#000000" transform="matrix(1.00, 0.00, -0.00, -1.00, 507.9, 65.0)">o</text><text xml:space="preserve" font-family="Helvetica-Light" font-size="8.0" fill="#000000" transform="matrix(1.00, 0.00, -0.00, -1.00, 512.4, 65.0)">m</text><text xml:space="preserve" font-family="Helvetica-Light" font-size="8.0" fill="#000000" transform="matrix(1.00, 0.00, -0.00, -1.00, 519.0, 65.0)">e</text><text xml:space="preserve" font-family="Helvetica-Light" font-size="8.0" fill="#000000" transform="matrix(1.00, 0.00, -0.00, -1.00, 523.5, 65.0)">t</text><text xml:space="preserve" font-family="Helvetica-Light" font-size="8.0" fill="#000000" transform="matrix(1.00, 0.00, -0.00, -1.00, 525.7, 65.0)">e</text><text xml:space="preserve" font-family="Helvetica-Light" font-size="8.0" fill="#000000" transform="matrix(1.00, 0.00, -0.00, -1.00, 530.1, 65.0)">r</text><text xml:space="preserve" font-family="Helvetica-Light" font-size="8.0" fill="#000000" transform="matrix(1.00, 0.00, -0.00, -1.00, 532.1, 65.0)">.</text><text xml:space="preserve" font-family="Helvetica-Light" font-size="8.0" fill="#000000" transform="matrix(1.00, 0.00, -0.00, -1.00, 534.3, 65.0)">c</text><text xml:space="preserve" font-family="Helvetica-Light" font-size="8.0" fill="#000000" transform="matrix(1.00, 0.00, -0.00, -1.00, 538.7, 65.0)">o</text><text xml:space="preserve" font-family="Helvetica-Light" font-size="8.0" fill="#000000" transform="matrix(1.00, 0.00, -0.00, -1.00, 543.2, 65.0)">m</text><text xml:space="preserve" font-family="Helvetica-Light" font-size="8.0" fill="#000000" transform="matrix(1.00, 0.00, -0.00, -1.00, 549.8, 65.0)">/</text><image xlink:href="../../AB0D0147-8C61-4B41-A1E1-8E3932D32DA5/assets/28A8D59F68F2C4FF91F73D7EDB8E4204.jpeg" width="810.00" height="382.00" transform="matrix(1.00, 0.00, -0.00, -1.00, 107.0, 498.0)"></image></g></svg>